%TF.GenerationSoftware,KiCad,Pcbnew,6.0.7-f9a2dced07~116~ubuntu20.04.1*%
%TF.CreationDate,2022-08-31T15:18:07+02:00*%
%TF.ProjectId,NVM-Amp,4e564d2d-416d-4702-9e6b-696361645f70,rev?*%
%TF.SameCoordinates,Original*%
%TF.FileFunction,Soldermask,Top*%
%TF.FilePolarity,Negative*%
%FSLAX46Y46*%
G04 Gerber Fmt 4.6, Leading zero omitted, Abs format (unit mm)*
G04 Created by KiCad (PCBNEW 6.0.7-f9a2dced07~116~ubuntu20.04.1) date 2022-08-31 15:18:07*
%MOMM*%
%LPD*%
G01*
G04 APERTURE LIST*
G04 Aperture macros list*
%AMRoundRect*
0 Rectangle with rounded corners*
0 $1 Rounding radius*
0 $2 $3 $4 $5 $6 $7 $8 $9 X,Y pos of 4 corners*
0 Add a 4 corners polygon primitive as box body*
4,1,4,$2,$3,$4,$5,$6,$7,$8,$9,$2,$3,0*
0 Add four circle primitives for the rounded corners*
1,1,$1+$1,$2,$3*
1,1,$1+$1,$4,$5*
1,1,$1+$1,$6,$7*
1,1,$1+$1,$8,$9*
0 Add four rect primitives between the rounded corners*
20,1,$1+$1,$2,$3,$4,$5,0*
20,1,$1+$1,$4,$5,$6,$7,0*
20,1,$1+$1,$6,$7,$8,$9,0*
20,1,$1+$1,$8,$9,$2,$3,0*%
%AMFreePoly0*
4,1,6,1.000000,0.000000,0.500000,-0.750000,-0.500000,-0.750000,-0.500000,0.750000,0.500000,0.750000,1.000000,0.000000,1.000000,0.000000,$1*%
%AMFreePoly1*
4,1,6,0.500000,-0.750000,-0.650000,-0.750000,-0.150000,0.000000,-0.650000,0.750000,0.500000,0.750000,0.500000,-0.750000,0.500000,-0.750000,$1*%
G04 Aperture macros list end*
%ADD10C,2.000000*%
%ADD11C,0.000000*%
%ADD12RoundRect,0.250000X-0.650000X0.412500X-0.650000X-0.412500X0.650000X-0.412500X0.650000X0.412500X0*%
%ADD13FreePoly0,90.000000*%
%ADD14FreePoly1,90.000000*%
%ADD15FreePoly0,0.000000*%
%ADD16FreePoly1,0.000000*%
%ADD17RoundRect,0.250000X0.650000X-0.412500X0.650000X0.412500X-0.650000X0.412500X-0.650000X-0.412500X0*%
%ADD18R,1.700000X1.700000*%
%ADD19O,1.700000X1.700000*%
%ADD20R,1.900000X0.800000*%
%ADD21RoundRect,0.250000X0.412500X0.650000X-0.412500X0.650000X-0.412500X-0.650000X0.412500X-0.650000X0*%
%ADD22RoundRect,0.150000X0.150000X-0.825000X0.150000X0.825000X-0.150000X0.825000X-0.150000X-0.825000X0*%
%ADD23C,2.800000*%
%ADD24FreePoly0,270.000000*%
%ADD25FreePoly1,270.000000*%
%ADD26FreePoly0,180.000000*%
%ADD27FreePoly1,180.000000*%
%ADD28R,1.500000X1.500000*%
%ADD29C,1.500000*%
%ADD30RoundRect,0.250000X-0.412500X-0.650000X0.412500X-0.650000X0.412500X0.650000X-0.412500X0.650000X0*%
G04 APERTURE END LIST*
D10*
X134530000Y-80210000D02*
X186860000Y-80200000D01*
X134620000Y-102910000D02*
X186950000Y-102900000D01*
D11*
G36*
X176471510Y-85095198D02*
G01*
X166725075Y-85099965D01*
X166725000Y-88546327D01*
X169000000Y-88546327D01*
X169000000Y-85700000D01*
X181492166Y-85700000D01*
X181492019Y-85954398D01*
X169274916Y-85975000D01*
X169272060Y-88823922D01*
X166450349Y-88821327D01*
X166175704Y-88821327D01*
X166174962Y-98402627D01*
X136587021Y-98425749D01*
X136590292Y-98121327D01*
X165625004Y-98101794D01*
X165875075Y-98101626D01*
X165874998Y-88551802D01*
X166399992Y-88551799D01*
X166400031Y-86060135D01*
X139849998Y-86051486D01*
X139575127Y-86051396D01*
X139574904Y-90226580D01*
X138849930Y-90226569D01*
X138849987Y-89701747D01*
X139125274Y-89701816D01*
X139125789Y-85656276D01*
X166400000Y-85649996D01*
X166400216Y-84835854D01*
X176471376Y-84831140D01*
X176471510Y-85095198D01*
G37*
G36*
X176471510Y-109830198D02*
G01*
X166725075Y-109834965D01*
X166725000Y-113281327D01*
X169000000Y-113281327D01*
X169000000Y-110435000D01*
X181492166Y-110435000D01*
X181492019Y-110689398D01*
X169274916Y-110710000D01*
X169272060Y-113558922D01*
X166450349Y-113556327D01*
X166175704Y-113556327D01*
X166174962Y-123137627D01*
X136587021Y-123160749D01*
X136590292Y-122856327D01*
X165625004Y-122836794D01*
X165875075Y-122836626D01*
X165874998Y-113286802D01*
X166399992Y-113286799D01*
X166400031Y-110795135D01*
X139849998Y-110786486D01*
X139575127Y-110786396D01*
X139574904Y-114961580D01*
X138849930Y-114961569D01*
X138849987Y-114436747D01*
X139125274Y-114436816D01*
X139125789Y-110391276D01*
X166400000Y-110384996D01*
X166400216Y-109570854D01*
X176471376Y-109566140D01*
X176471510Y-109830198D01*
G37*
D10*
X134530000Y-104945000D02*
X186860000Y-104935000D01*
X134620000Y-127645000D02*
X186950000Y-127635000D01*
D12*
%TO.C,R35*%
X184900000Y-121085000D03*
X184900000Y-124210000D03*
%TD*%
%TO.C,C14*%
X173125000Y-108585000D03*
X173125000Y-111710000D03*
%TD*%
%TO.C,R22*%
X175475000Y-108585000D03*
X175475000Y-111710000D03*
%TD*%
D13*
%TO.C,JP6*%
X189695000Y-119185000D03*
D14*
X189695000Y-117735000D03*
%TD*%
D12*
%TO.C,R4*%
X147775000Y-84012500D03*
X147775000Y-87137500D03*
%TD*%
%TO.C,R6*%
X154325000Y-84012500D03*
X154325000Y-87137500D03*
%TD*%
D15*
%TO.C,JP5*%
X189050000Y-84975000D03*
D16*
X190500000Y-84975000D03*
%TD*%
D17*
%TO.C,R17*%
X164225000Y-93025000D03*
X164225000Y-89900000D03*
%TD*%
D18*
%TO.C,J2*%
X196342000Y-87630000D03*
D19*
X196342000Y-85090000D03*
%TD*%
D17*
%TO.C,R13*%
X157675000Y-93037500D03*
X157675000Y-89912500D03*
%TD*%
%TO.C,R1*%
X131910000Y-124872500D03*
X131910000Y-121747500D03*
%TD*%
D12*
%TO.C,R28*%
X187250000Y-91337500D03*
X187250000Y-94462500D03*
%TD*%
%TO.C,R29*%
X187250000Y-96350000D03*
X187250000Y-99475000D03*
%TD*%
D20*
%TO.C,Q8*%
X161175000Y-119890000D03*
X161175000Y-121790000D03*
X164175000Y-120840000D03*
%TD*%
D21*
%TO.C,C4*%
X138267500Y-116570000D03*
X135142500Y-116570000D03*
%TD*%
D17*
%TO.C,R9*%
X151125000Y-93037500D03*
X151125000Y-89912500D03*
%TD*%
D12*
%TO.C,R30*%
X187245000Y-116077500D03*
X187245000Y-119202500D03*
%TD*%
%TO.C,R18*%
X160875000Y-108747500D03*
X160875000Y-111872500D03*
%TD*%
%TO.C,R23*%
X177825000Y-108585000D03*
X177825000Y-111710000D03*
%TD*%
D13*
%TO.C,JP2*%
X189700000Y-94450000D03*
D14*
X189700000Y-93000000D03*
%TD*%
D20*
%TO.C,Q1*%
X141525000Y-95150000D03*
X141525000Y-97050000D03*
X144525000Y-96100000D03*
%TD*%
D12*
%TO.C,R11*%
X147765000Y-108747500D03*
X147765000Y-111872500D03*
%TD*%
D15*
%TO.C,JP7*%
X189050000Y-109710000D03*
D16*
X190500000Y-109710000D03*
%TD*%
D22*
%TO.C,U3*%
X178545000Y-96600000D03*
X179815000Y-96600000D03*
X181085000Y-96600000D03*
X182355000Y-96600000D03*
X182355000Y-91650000D03*
X181085000Y-91650000D03*
X179815000Y-91650000D03*
X178545000Y-91650000D03*
%TD*%
D12*
%TO.C,R3*%
X140800000Y-84025000D03*
X140800000Y-87150000D03*
%TD*%
D23*
%TO.C,TP1*%
X187275000Y-84975000D03*
%TD*%
D24*
%TO.C,JP4*%
X189700000Y-121085000D03*
D25*
X189700000Y-122535000D03*
%TD*%
D20*
%TO.C,Q6*%
X154625000Y-119890000D03*
X154625000Y-121790000D03*
X157625000Y-120840000D03*
%TD*%
D12*
%TO.C,R16*%
X160875000Y-84012500D03*
X160875000Y-87137500D03*
%TD*%
D17*
%TO.C,R10*%
X144575000Y-117755000D03*
X144575000Y-114630000D03*
%TD*%
%TO.C,C12*%
X161875000Y-117772500D03*
X161875000Y-114647500D03*
%TD*%
D12*
%TO.C,C15*%
X180175000Y-83850000D03*
X180175000Y-86975000D03*
%TD*%
D22*
%TO.C,U1*%
X167535000Y-96600000D03*
X168805000Y-96600000D03*
X170075000Y-96600000D03*
X171345000Y-96600000D03*
X172615000Y-96600000D03*
X173885000Y-96600000D03*
X175155000Y-96600000D03*
X176425000Y-96600000D03*
X176425000Y-91650000D03*
X175155000Y-91650000D03*
X173885000Y-91650000D03*
X172615000Y-91650000D03*
X171345000Y-91650000D03*
X170075000Y-91650000D03*
X168805000Y-91650000D03*
X167535000Y-91650000D03*
%TD*%
D17*
%TO.C,C9*%
X155325000Y-93037500D03*
X155325000Y-89912500D03*
%TD*%
D22*
%TO.C,U2*%
X167535000Y-121335000D03*
X168805000Y-121335000D03*
X170075000Y-121335000D03*
X171345000Y-121335000D03*
X172615000Y-121335000D03*
X173885000Y-121335000D03*
X175155000Y-121335000D03*
X176425000Y-121335000D03*
X176425000Y-116385000D03*
X175155000Y-116385000D03*
X173885000Y-116385000D03*
X172615000Y-116385000D03*
X171345000Y-116385000D03*
X170075000Y-116385000D03*
X168805000Y-116385000D03*
X167535000Y-116385000D03*
%TD*%
D26*
%TO.C,JP3*%
X193925000Y-124210000D03*
D27*
X192475000Y-124210000D03*
%TD*%
D12*
%TO.C,C16*%
X180175000Y-108585000D03*
X180175000Y-111710000D03*
%TD*%
D21*
%TO.C,R2*%
X138262500Y-94200000D03*
X135137500Y-94200000D03*
%TD*%
D12*
%TO.C,R31*%
X187250000Y-121085000D03*
X187250000Y-124210000D03*
%TD*%
D20*
%TO.C,Q2*%
X141525000Y-119885000D03*
X141525000Y-121785000D03*
X144525000Y-120835000D03*
%TD*%
D26*
%TO.C,JP3*%
X193925000Y-99475000D03*
D27*
X192475000Y-99475000D03*
%TD*%
D20*
%TO.C,Q3*%
X148075000Y-95150000D03*
X148075000Y-97050000D03*
X151075000Y-96100000D03*
%TD*%
D18*
%TO.C,J1*%
X128160000Y-94080000D03*
D19*
X128160000Y-91540000D03*
X128160000Y-89000000D03*
X128160000Y-86460000D03*
X128160000Y-83920000D03*
X128160000Y-81380000D03*
%TD*%
D20*
%TO.C,Q7*%
X161175000Y-95150000D03*
X161175000Y-97050000D03*
X164175000Y-96100000D03*
%TD*%
D17*
%TO.C,R5*%
X144575000Y-93025000D03*
X144575000Y-89900000D03*
%TD*%
%TO.C,C5*%
X142225000Y-93025000D03*
X142225000Y-89900000D03*
%TD*%
D12*
%TO.C,R21*%
X177825000Y-83850000D03*
X177825000Y-86975000D03*
%TD*%
%TO.C,R8*%
X140800000Y-108760000D03*
X140800000Y-111885000D03*
%TD*%
%TO.C,R34*%
X184900000Y-116072500D03*
X184900000Y-119197500D03*
%TD*%
D18*
%TO.C,J3*%
X196342000Y-112273000D03*
D19*
X196342000Y-109733000D03*
%TD*%
D21*
%TO.C,C3*%
X138262500Y-91850000D03*
X135137500Y-91850000D03*
%TD*%
D28*
%TO.C,Q9*%
X165300000Y-87075000D03*
D29*
X167840000Y-87075000D03*
X170380000Y-87075000D03*
%TD*%
D17*
%TO.C,C8*%
X148775000Y-117772500D03*
X148775000Y-114647500D03*
%TD*%
%TO.C,R19*%
X164225000Y-117772500D03*
X164225000Y-114647500D03*
%TD*%
%TO.C,R24*%
X182525000Y-86962500D03*
X182525000Y-83837500D03*
%TD*%
D12*
%TO.C,R20*%
X175475000Y-83850000D03*
X175475000Y-86975000D03*
%TD*%
%TO.C,R14*%
X154325000Y-108747500D03*
X154325000Y-111872500D03*
%TD*%
D17*
%TO.C,R15*%
X157675000Y-117772500D03*
X157675000Y-114647500D03*
%TD*%
%TO.C,C11*%
X161875000Y-93037500D03*
X161875000Y-89912500D03*
%TD*%
D12*
%TO.C,C13*%
X173125000Y-83850000D03*
X173125000Y-86975000D03*
%TD*%
%TO.C,R33*%
X184900000Y-96350000D03*
X184900000Y-99475000D03*
%TD*%
D30*
%TO.C,C1*%
X135137500Y-96550000D03*
X138262500Y-96550000D03*
%TD*%
D17*
%TO.C,R12*%
X151125000Y-117772500D03*
X151125000Y-114647500D03*
%TD*%
%TO.C,C10*%
X155325000Y-117772500D03*
X155325000Y-114647500D03*
%TD*%
%TO.C,C7*%
X148775000Y-93037500D03*
X148775000Y-89912500D03*
%TD*%
D21*
%TO.C,R27*%
X177375000Y-123985000D03*
X174250000Y-123985000D03*
%TD*%
D22*
%TO.C,U6*%
X178545000Y-121335000D03*
X179815000Y-121335000D03*
X181085000Y-121335000D03*
X182355000Y-121335000D03*
X182355000Y-116385000D03*
X181085000Y-116385000D03*
X179815000Y-116385000D03*
X178545000Y-116385000D03*
%TD*%
D21*
%TO.C,R26*%
X177375000Y-99250000D03*
X174250000Y-99250000D03*
%TD*%
D28*
%TO.C,Q10*%
X165300000Y-111810000D03*
D29*
X167840000Y-111810000D03*
X170380000Y-111810000D03*
%TD*%
D23*
%TO.C,TP2*%
X187275000Y-109710000D03*
%TD*%
D12*
%TO.C,R32*%
X184900000Y-91337500D03*
X184900000Y-94462500D03*
%TD*%
D24*
%TO.C,JP1*%
X189700000Y-96350000D03*
D25*
X189700000Y-97800000D03*
%TD*%
D20*
%TO.C,Q4*%
X148075000Y-119885000D03*
X148075000Y-121785000D03*
X151075000Y-120835000D03*
%TD*%
D21*
%TO.C,R7*%
X138262500Y-118935000D03*
X135137500Y-118935000D03*
%TD*%
D17*
%TO.C,R25*%
X182515000Y-111712500D03*
X182515000Y-108587500D03*
%TD*%
D20*
%TO.C,Q5*%
X154625000Y-95150000D03*
X154625000Y-97050000D03*
X157625000Y-96100000D03*
%TD*%
D30*
%TO.C,C2*%
X135137500Y-121285000D03*
X138262500Y-121285000D03*
%TD*%
D17*
%TO.C,C6*%
X142225000Y-117760000D03*
X142225000Y-114635000D03*
%TD*%
M02*
