%TF.GenerationSoftware,KiCad,Pcbnew,6.0.7-f9a2dced07~116~ubuntu20.04.1*%
%TF.CreationDate,2022-08-31T15:18:07+02:00*%
%TF.ProjectId,NVM-Amp,4e564d2d-416d-4702-9e6b-696361645f70,rev?*%
%TF.SameCoordinates,Original*%
%TF.FileFunction,Copper,L2,Bot*%
%TF.FilePolarity,Positive*%
%FSLAX46Y46*%
G04 Gerber Fmt 4.6, Leading zero omitted, Abs format (unit mm)*
G04 Created by KiCad (PCBNEW 6.0.7-f9a2dced07~116~ubuntu20.04.1) date 2022-08-31 15:18:07*
%MOMM*%
%LPD*%
G01*
G04 APERTURE LIST*
%TA.AperFunction,ComponentPad*%
%ADD10R,1.700000X1.700000*%
%TD*%
%TA.AperFunction,ComponentPad*%
%ADD11O,1.700000X1.700000*%
%TD*%
%TA.AperFunction,ComponentPad*%
%ADD12C,2.800000*%
%TD*%
%TA.AperFunction,ComponentPad*%
%ADD13R,1.500000X1.500000*%
%TD*%
%TA.AperFunction,ComponentPad*%
%ADD14C,1.500000*%
%TD*%
%TA.AperFunction,ViaPad*%
%ADD15C,0.800000*%
%TD*%
%TA.AperFunction,Conductor*%
%ADD16C,0.400000*%
%TD*%
%TA.AperFunction,Conductor*%
%ADD17C,0.500000*%
%TD*%
%TA.AperFunction,Conductor*%
%ADD18C,0.250000*%
%TD*%
G04 APERTURE END LIST*
D10*
%TO.P,J2,1,Pin_1*%
%TO.N,GNDA*%
X196342000Y-87630000D03*
D11*
%TO.P,J2,2,Pin_2*%
%TO.N,Net-(R28-Pad1)*%
X196342000Y-85090000D03*
%TD*%
D12*
%TO.P,TP1,1,1*%
%TO.N,Net-(R28-Pad1)*%
X187275000Y-84975000D03*
%TD*%
D10*
%TO.P,J1,1,Pin_1*%
%TO.N,Net-(R1-Pad1)*%
X128160000Y-94080000D03*
D11*
%TO.P,J1,2,Pin_2*%
%TO.N,Net-(U1-Pad2)*%
X128160000Y-91540000D03*
%TO.P,J1,3,Pin_3*%
%TO.N,GNDA*%
X128160000Y-89000000D03*
%TO.P,J1,4,Pin_4*%
X128160000Y-86460000D03*
%TO.P,J1,5,Pin_5*%
%TO.N,+5V*%
X128160000Y-83920000D03*
%TO.P,J1,6,Pin_6*%
%TO.N,-5V*%
X128160000Y-81380000D03*
%TD*%
D10*
%TO.P,J3,1,Pin_1*%
%TO.N,GNDA*%
X196342000Y-112273000D03*
D11*
%TO.P,J3,2,Pin_2*%
%TO.N,Net-(R30-Pad1)*%
X196342000Y-109733000D03*
%TD*%
D13*
%TO.P,Q9,1,B*%
%TO.N,Net-(Q1-Pad1)*%
X165300000Y-87075000D03*
D14*
%TO.P,Q9,2,C*%
%TO.N,Net-(C15-Pad1)*%
X167840000Y-87075000D03*
%TO.P,Q9,3,E*%
%TO.N,Net-(C13-Pad2)*%
X170380000Y-87075000D03*
%TD*%
D13*
%TO.P,Q10,1,B*%
%TO.N,Net-(Q10-Pad1)*%
X165300000Y-111810000D03*
D14*
%TO.P,Q10,2,C*%
%TO.N,Net-(C16-Pad1)*%
X167840000Y-111810000D03*
%TO.P,Q10,3,E*%
%TO.N,Net-(C14-Pad2)*%
X170380000Y-111810000D03*
%TD*%
D12*
%TO.P,TP2,1,1*%
%TO.N,Net-(R30-Pad1)*%
X187275000Y-109710000D03*
%TD*%
D15*
%TO.N,Net-(C1-Pad2)*%
X138500000Y-97050000D03*
X147550000Y-97050000D03*
X154075000Y-97050000D03*
X160625000Y-97050000D03*
X140975000Y-97050000D03*
%TO.N,GNDA*%
X139175000Y-89875000D03*
X143400000Y-114610000D03*
X149950000Y-89900000D03*
X163050000Y-89900000D03*
X135150000Y-114610000D03*
X135150000Y-89875000D03*
X139175000Y-114610000D03*
X186075000Y-99475000D03*
X183775000Y-83825000D03*
X149950000Y-114635000D03*
X156500000Y-114635000D03*
X183775000Y-108560000D03*
X143400000Y-89875000D03*
X186075000Y-124210000D03*
X156500000Y-89900000D03*
X163050000Y-114635000D03*
%TO.N,+5V*%
X171975000Y-108610000D03*
X138130909Y-83898307D03*
X140740000Y-108610000D03*
X138120000Y-108610000D03*
X140770000Y-83920000D03*
X171975000Y-83875000D03*
X179825000Y-117635000D03*
X171975000Y-92900000D03*
X179825000Y-92900000D03*
X171975000Y-117635000D03*
%TO.N,Net-(C15-Pad2)*%
X180175000Y-86700000D03*
X175150000Y-90300000D03*
%TO.N,-5V*%
X177875000Y-87600000D03*
X182350000Y-120010000D03*
X171350000Y-95300000D03*
X171350000Y-120035000D03*
X177875000Y-112335000D03*
X182350000Y-95275000D03*
%TO.N,OSC*%
X176440000Y-121990000D03*
X176425000Y-118810000D03*
X176425000Y-94075000D03*
X167535000Y-118825000D03*
X176420000Y-90940000D03*
X176430000Y-97270000D03*
X167535000Y-94090000D03*
%TO.N,GND*%
X186890000Y-127645000D03*
X134700000Y-104935000D03*
X186800000Y-104945000D03*
X134700000Y-80200000D03*
X186890000Y-102910000D03*
X134890000Y-102910000D03*
X134890000Y-127645000D03*
X186800000Y-80210000D03*
X194025000Y-124235000D03*
X194025000Y-99500000D03*
%TO.N,Net-(C2-Pad2)*%
X140975000Y-121785000D03*
X154075000Y-121785000D03*
X147550000Y-121785000D03*
X160625000Y-121785000D03*
X138500000Y-121785000D03*
%TO.N,Net-(C16-Pad2)*%
X175150000Y-115035000D03*
X180175000Y-111435000D03*
%TO.N,Net-(R1-Pad1)*%
X168800000Y-122510000D03*
X131940000Y-124950000D03*
%TO.N,Net-(U1-Pad2)*%
X168800000Y-97775000D03*
%TO.N,Net-(R28-Pad1)*%
X187250000Y-89925000D03*
%TO.N,Net-(R30-Pad1)*%
X187250000Y-114660000D03*
%TD*%
D16*
%TO.N,GNDA*%
X183775000Y-83825000D02*
X183775000Y-97175000D01*
X183775000Y-121910000D02*
X186075000Y-124210000D01*
X183775000Y-108560000D02*
X183775000Y-121910000D01*
X183775000Y-97175000D02*
X186075000Y-99475000D01*
D17*
%TO.N,+5V*%
X138130909Y-83898307D02*
X138109216Y-83920000D01*
X171975000Y-117635000D02*
X179825000Y-117635000D01*
X171975000Y-83875000D02*
X171975000Y-92900000D01*
X171975000Y-108610000D02*
X171975000Y-117635000D01*
X171975000Y-92900000D02*
X179825000Y-92900000D01*
X138109216Y-83920000D02*
X128160000Y-83920000D01*
%TO.N,-5V*%
X128160000Y-81380000D02*
X181440000Y-81380000D01*
X182350000Y-82290000D02*
X182350000Y-95275000D01*
X181440000Y-81380000D02*
X182350000Y-82290000D01*
D18*
%TO.N,OSC*%
X167535000Y-94090000D02*
X176410000Y-94090000D01*
X167535000Y-118825000D02*
X176410000Y-118825000D01*
D17*
%TO.N,Net-(R1-Pad1)*%
X128160000Y-94080000D02*
X128160000Y-121170000D01*
X128160000Y-121170000D02*
X131940000Y-124950000D01*
X132265000Y-125275000D02*
X166035000Y-125275000D01*
X131940000Y-124950000D02*
X132265000Y-125275000D01*
X166035000Y-125275000D02*
X168800000Y-122510000D01*
%TO.N,Net-(U1-Pad2)*%
X166035000Y-100540000D02*
X168800000Y-97775000D01*
X139610000Y-100540000D02*
X166035000Y-100540000D01*
X137160000Y-100540000D02*
X139610000Y-100540000D01*
X128160000Y-91540000D02*
X137160000Y-100540000D01*
%TO.N,Net-(R28-Pad1)*%
X187250000Y-85125000D02*
X187350000Y-85025000D01*
X187250000Y-89925000D02*
X187250000Y-85125000D01*
%TO.N,Net-(R30-Pad1)*%
X187250000Y-109860000D02*
X187350000Y-109760000D01*
X187250000Y-114660000D02*
X187250000Y-109860000D01*
%TD*%
%TA.AperFunction,Conductor*%
%TO.N,-5V*%
G36*
X182750000Y-119901742D02*
G01*
X182748922Y-119918188D01*
X182735128Y-120022963D01*
X182726615Y-120054735D01*
X182689361Y-120144674D01*
X182672914Y-120173160D01*
X182613651Y-120250393D01*
X182590393Y-120273651D01*
X182513160Y-120332914D01*
X182484674Y-120349361D01*
X182394735Y-120386615D01*
X182362963Y-120395128D01*
X182258188Y-120408922D01*
X182241742Y-120410000D01*
X171141587Y-120410000D01*
X171108982Y-120405708D01*
X171070107Y-120395291D01*
X171013627Y-120362681D01*
X170997319Y-120346373D01*
X170964707Y-120289887D01*
X170958738Y-120267609D01*
X170958738Y-120202391D01*
X170964707Y-120180113D01*
X170997319Y-120123627D01*
X171013627Y-120107319D01*
X171070107Y-120074709D01*
X171108982Y-120064292D01*
X171141587Y-120060000D01*
X181450000Y-120060000D01*
X181579410Y-120042963D01*
X181587988Y-120039410D01*
X181692372Y-119996173D01*
X181692374Y-119996172D01*
X181700000Y-119993013D01*
X181803553Y-119913553D01*
X181883013Y-119810000D01*
X181932963Y-119689410D01*
X181950000Y-119560000D01*
X181950000Y-113235000D01*
X181932963Y-113105590D01*
X181883013Y-112985000D01*
X181803553Y-112881447D01*
X181700000Y-112801987D01*
X181692374Y-112798828D01*
X181692372Y-112798827D01*
X181587039Y-112755197D01*
X181579410Y-112752037D01*
X181450000Y-112735000D01*
X177912410Y-112735000D01*
X177887829Y-112732579D01*
X177848047Y-112724666D01*
X177802626Y-112705852D01*
X177779418Y-112690345D01*
X177744655Y-112655582D01*
X177729148Y-112632374D01*
X177710334Y-112586952D01*
X177704888Y-112559571D01*
X177704884Y-112510431D01*
X177710337Y-112482992D01*
X177729123Y-112437600D01*
X177744662Y-112414321D01*
X177779377Y-112379567D01*
X177802635Y-112364002D01*
X177848000Y-112345163D01*
X177887844Y-112337195D01*
X177912393Y-112334749D01*
X178902479Y-112333582D01*
X180579687Y-112331604D01*
X181435877Y-112330595D01*
X181435879Y-112330595D01*
X181440007Y-112330590D01*
X181482484Y-112324947D01*
X181561206Y-112314488D01*
X181561208Y-112314487D01*
X181569393Y-112313400D01*
X181577018Y-112310231D01*
X181577022Y-112310230D01*
X181682297Y-112266478D01*
X181682299Y-112266477D01*
X181689924Y-112263308D01*
X181793383Y-112183728D01*
X181872721Y-112080081D01*
X181875875Y-112072442D01*
X181919376Y-111967072D01*
X181919377Y-111967067D01*
X181922529Y-111959433D01*
X181939414Y-111830004D01*
X181920486Y-95670000D01*
X181920486Y-95669999D01*
X181920041Y-95290000D01*
X181922575Y-95291047D01*
X181941387Y-95255000D01*
X182750000Y-95255000D01*
X182750000Y-119901742D01*
G37*
%TD.AperFunction*%
%TD*%
%TA.AperFunction,Conductor*%
%TO.N,+5V*%
G36*
X140359793Y-108211551D02*
G01*
X140453895Y-108226455D01*
X140491388Y-108238637D01*
X140567335Y-108277334D01*
X140599227Y-108300506D01*
X140659494Y-108360773D01*
X140682666Y-108392665D01*
X140721363Y-108468612D01*
X140733545Y-108506105D01*
X140746874Y-108590266D01*
X140746867Y-108629732D01*
X140733540Y-108713679D01*
X140721303Y-108751247D01*
X140682643Y-108826919D01*
X140659372Y-108858851D01*
X140599178Y-108918828D01*
X140567163Y-108941983D01*
X140491352Y-108980370D01*
X140453739Y-108992471D01*
X140359825Y-109007033D01*
X140340064Y-109008520D01*
X139758941Y-109006422D01*
X138384887Y-109001462D01*
X138365235Y-108999847D01*
X138272491Y-108984849D01*
X138235120Y-108972587D01*
X138160433Y-108934293D01*
X138128668Y-108911109D01*
X138069425Y-108851652D01*
X138046359Y-108819808D01*
X138008332Y-108744978D01*
X137996207Y-108707567D01*
X137983111Y-108624690D01*
X137983118Y-108585313D01*
X137996212Y-108502645D01*
X138008392Y-108465159D01*
X138046380Y-108390602D01*
X138069550Y-108358713D01*
X138128713Y-108299550D01*
X138160602Y-108276380D01*
X138235159Y-108238392D01*
X138272647Y-108226211D01*
X138314882Y-108219522D01*
X138365209Y-108211551D01*
X138384919Y-108210000D01*
X140340083Y-108210000D01*
X140359793Y-108211551D01*
G37*
%TD.AperFunction*%
%TD*%
%TA.AperFunction,Conductor*%
%TO.N,-5V*%
G36*
X182258188Y-87601078D02*
G01*
X182362963Y-87614872D01*
X182394735Y-87623385D01*
X182484674Y-87660639D01*
X182513160Y-87677086D01*
X182590393Y-87736349D01*
X182613651Y-87759607D01*
X182672914Y-87836840D01*
X182689361Y-87865326D01*
X182726615Y-87955265D01*
X182735128Y-87987037D01*
X182748922Y-88091812D01*
X182750000Y-88108258D01*
X182750000Y-95675000D01*
X171141587Y-95675000D01*
X171108982Y-95670708D01*
X171070107Y-95660291D01*
X171013627Y-95627681D01*
X170997319Y-95611373D01*
X170964707Y-95554887D01*
X170958738Y-95532609D01*
X170958738Y-95467391D01*
X170964707Y-95445113D01*
X170997319Y-95388627D01*
X171013627Y-95372319D01*
X171070107Y-95339709D01*
X171108982Y-95329292D01*
X171141587Y-95325000D01*
X181885082Y-95325000D01*
X181909816Y-95314746D01*
X181920041Y-95290000D01*
X181922575Y-95291047D01*
X181943147Y-95251626D01*
X181945607Y-95250607D01*
X181950000Y-95240000D01*
X181950000Y-88500000D01*
X181932963Y-88370590D01*
X181883013Y-88250000D01*
X181803553Y-88146447D01*
X181700000Y-88066987D01*
X181692374Y-88063828D01*
X181692372Y-88063827D01*
X181587039Y-88020197D01*
X181579410Y-88017037D01*
X181450000Y-88000000D01*
X177912410Y-88000000D01*
X177887829Y-87997579D01*
X177848047Y-87989666D01*
X177802626Y-87970852D01*
X177779418Y-87955345D01*
X177744655Y-87920582D01*
X177729148Y-87897374D01*
X177710334Y-87851955D01*
X177704889Y-87824579D01*
X177704889Y-87775421D01*
X177710335Y-87748043D01*
X177729148Y-87702626D01*
X177744655Y-87679418D01*
X177779418Y-87644655D01*
X177802626Y-87629148D01*
X177848047Y-87610334D01*
X177887829Y-87602421D01*
X177912410Y-87600000D01*
X182241742Y-87600000D01*
X182258188Y-87601078D01*
G37*
%TD.AperFunction*%
%TD*%
%TA.AperFunction,Conductor*%
%TO.N,Net-(C16-Pad2)*%
G36*
X180137170Y-111037421D02*
G01*
X180166213Y-111043198D01*
X180186522Y-111047237D01*
X180231944Y-111066052D01*
X180263261Y-111086978D01*
X180298022Y-111121739D01*
X180318948Y-111153056D01*
X180337763Y-111198478D01*
X180345111Y-111235419D01*
X180345111Y-111284579D01*
X180341979Y-111300326D01*
X180337763Y-111321522D01*
X180318948Y-111366944D01*
X180298022Y-111398261D01*
X180263261Y-111433022D01*
X180231944Y-111453948D01*
X180186522Y-111472763D01*
X180166213Y-111476802D01*
X180137170Y-111482579D01*
X180112590Y-111485000D01*
X176050000Y-111485000D01*
X175920590Y-111502037D01*
X175912961Y-111505197D01*
X175807628Y-111548827D01*
X175807626Y-111548828D01*
X175800000Y-111551987D01*
X175696447Y-111631447D01*
X175616987Y-111735000D01*
X175567037Y-111855590D01*
X175550000Y-111985000D01*
X175550000Y-114625083D01*
X175548449Y-114644793D01*
X175533545Y-114738895D01*
X175521363Y-114776388D01*
X175482666Y-114852335D01*
X175459494Y-114884227D01*
X175399227Y-114944494D01*
X175367335Y-114967666D01*
X175291388Y-115006363D01*
X175253895Y-115018545D01*
X175169710Y-115031878D01*
X175130290Y-115031878D01*
X175046105Y-115018545D01*
X175008612Y-115006363D01*
X174932665Y-114967666D01*
X174900773Y-114944494D01*
X174840506Y-114884227D01*
X174817334Y-114852335D01*
X174778637Y-114776388D01*
X174766455Y-114738895D01*
X174751551Y-114644793D01*
X174750000Y-114625083D01*
X174750000Y-111543258D01*
X174751078Y-111526812D01*
X174764872Y-111422037D01*
X174773385Y-111390265D01*
X174810639Y-111300326D01*
X174827086Y-111271840D01*
X174886349Y-111194607D01*
X174909607Y-111171349D01*
X174986840Y-111112086D01*
X175015326Y-111095639D01*
X175105265Y-111058385D01*
X175137037Y-111049872D01*
X175241812Y-111036078D01*
X175258258Y-111035000D01*
X180112590Y-111035000D01*
X180137170Y-111037421D01*
G37*
%TD.AperFunction*%
%TD*%
%TA.AperFunction,Conductor*%
%TO.N,Net-(C2-Pad2)*%
G36*
X160634793Y-121386551D02*
G01*
X160728895Y-121401455D01*
X160766388Y-121413637D01*
X160842335Y-121452334D01*
X160874227Y-121475506D01*
X160934494Y-121535773D01*
X160957666Y-121567665D01*
X160996363Y-121643612D01*
X161008545Y-121681105D01*
X161021878Y-121765290D01*
X161021878Y-121804710D01*
X161008545Y-121888895D01*
X160996363Y-121926388D01*
X160957666Y-122002335D01*
X160934494Y-122034227D01*
X160874227Y-122094494D01*
X160842335Y-122117666D01*
X160766388Y-122156363D01*
X160728895Y-122168545D01*
X160634793Y-122183449D01*
X160615083Y-122185000D01*
X138509917Y-122185000D01*
X138490207Y-122183449D01*
X138396105Y-122168545D01*
X138358612Y-122156363D01*
X138282665Y-122117666D01*
X138250773Y-122094494D01*
X138190506Y-122034227D01*
X138167334Y-122002335D01*
X138128637Y-121926388D01*
X138116455Y-121888895D01*
X138103122Y-121804710D01*
X138103122Y-121765290D01*
X138116455Y-121681105D01*
X138128637Y-121643612D01*
X138167334Y-121567665D01*
X138190506Y-121535773D01*
X138250773Y-121475506D01*
X138282665Y-121452334D01*
X138358612Y-121413637D01*
X138396105Y-121401455D01*
X138490207Y-121386551D01*
X138509917Y-121385000D01*
X160615083Y-121385000D01*
X160634793Y-121386551D01*
G37*
%TD.AperFunction*%
%TD*%
%TA.AperFunction,Conductor*%
%TO.N,GND*%
G36*
X181431192Y-109506564D02*
G01*
X181433740Y-111681624D01*
X181433760Y-111699097D01*
X181413838Y-111767242D01*
X181360237Y-111813797D01*
X181307908Y-111825245D01*
X181168562Y-111825409D01*
X181100418Y-111805487D01*
X181053862Y-111751886D01*
X181043675Y-111681624D01*
X181048579Y-111660480D01*
X181060674Y-111623256D01*
X181080460Y-111435000D01*
X181072848Y-111362575D01*
X181061364Y-111253307D01*
X181061364Y-111253305D01*
X181060674Y-111246744D01*
X181002179Y-111066716D01*
X180991125Y-111047569D01*
X180910836Y-110908505D01*
X180907533Y-110902784D01*
X180855723Y-110845243D01*
X180785286Y-110767015D01*
X180785284Y-110767014D01*
X180780871Y-110762112D01*
X180712334Y-110712317D01*
X180633072Y-110654730D01*
X180633071Y-110654729D01*
X180627730Y-110650849D01*
X180454803Y-110573856D01*
X180338339Y-110549101D01*
X180276103Y-110535872D01*
X180276099Y-110535872D01*
X180269646Y-110534500D01*
X180194379Y-110534500D01*
X180182028Y-110533893D01*
X180162139Y-110531934D01*
X180158638Y-110531762D01*
X180114145Y-110529576D01*
X180114129Y-110529576D01*
X180112590Y-110529500D01*
X175258258Y-110529500D01*
X175257292Y-110529532D01*
X175257268Y-110529532D01*
X175226191Y-110530549D01*
X175226167Y-110530550D01*
X175225195Y-110530582D01*
X175224207Y-110530647D01*
X175224182Y-110530648D01*
X175215969Y-110531187D01*
X175208749Y-110531660D01*
X175175830Y-110534903D01*
X175174809Y-110535037D01*
X175174804Y-110535038D01*
X175140905Y-110539501D01*
X175071055Y-110548697D01*
X175069028Y-110549100D01*
X175069023Y-110549101D01*
X175008247Y-110561189D01*
X175008234Y-110561192D01*
X175006208Y-110561595D01*
X175004209Y-110562131D01*
X175004203Y-110562132D01*
X174994294Y-110564787D01*
X174974436Y-110570108D01*
X174972482Y-110570771D01*
X174972483Y-110570771D01*
X174913787Y-110590695D01*
X174913770Y-110590701D01*
X174911818Y-110591364D01*
X174909909Y-110592155D01*
X174909903Y-110592157D01*
X174897007Y-110597499D01*
X174821879Y-110628618D01*
X174762569Y-110657867D01*
X174760789Y-110658895D01*
X174760781Y-110658899D01*
X174744655Y-110668210D01*
X174734083Y-110674314D01*
X174725716Y-110679905D01*
X174680846Y-110709886D01*
X174680832Y-110709896D01*
X174679111Y-110711046D01*
X174677463Y-110712310D01*
X174677454Y-110712317D01*
X174646701Y-110735915D01*
X174601878Y-110770309D01*
X174600333Y-110771664D01*
X174600322Y-110771673D01*
X174559091Y-110807833D01*
X174552165Y-110813907D01*
X174528907Y-110837165D01*
X174527553Y-110838709D01*
X174486673Y-110885322D01*
X174486664Y-110885333D01*
X174485309Y-110886878D01*
X174484043Y-110888528D01*
X174429760Y-110959271D01*
X174426046Y-110964111D01*
X174424896Y-110965832D01*
X174424886Y-110965846D01*
X174402637Y-110999144D01*
X174389314Y-111019083D01*
X174372867Y-111047569D01*
X174343618Y-111106879D01*
X174342829Y-111108785D01*
X174309853Y-111188396D01*
X174306364Y-111196818D01*
X174305701Y-111198770D01*
X174305695Y-111198787D01*
X174301023Y-111212552D01*
X174285108Y-111259436D01*
X174276595Y-111291208D01*
X174263697Y-111356055D01*
X174249903Y-111460830D01*
X174246660Y-111493749D01*
X174245582Y-111510195D01*
X174245550Y-111511167D01*
X174245549Y-111511191D01*
X174244532Y-111542268D01*
X174244500Y-111543258D01*
X174244500Y-114625083D01*
X174244549Y-114626326D01*
X174245872Y-114660000D01*
X174246058Y-114664739D01*
X174246153Y-114665941D01*
X174246154Y-114665965D01*
X174247513Y-114683231D01*
X174247609Y-114684449D01*
X174252274Y-114723869D01*
X174262275Y-114787013D01*
X174265220Y-114805609D01*
X174264143Y-114846725D01*
X174264326Y-114846744D01*
X174263635Y-114853315D01*
X174263635Y-114853317D01*
X174253732Y-114947540D01*
X174244540Y-115035000D01*
X174245230Y-115041565D01*
X174261064Y-115192216D01*
X174264326Y-115223256D01*
X174322821Y-115403284D01*
X174326124Y-115409006D01*
X174326125Y-115409007D01*
X174347966Y-115446837D01*
X174417467Y-115567216D01*
X174421885Y-115572123D01*
X174421886Y-115572124D01*
X174519407Y-115680431D01*
X174544129Y-115707888D01*
X174549468Y-115711767D01*
X174654206Y-115787863D01*
X174697270Y-115819151D01*
X174870197Y-115896144D01*
X174968212Y-115916978D01*
X175048897Y-115934128D01*
X175048901Y-115934128D01*
X175055354Y-115935500D01*
X175244646Y-115935500D01*
X175251099Y-115934128D01*
X175251103Y-115934128D01*
X175331788Y-115916978D01*
X175429803Y-115896144D01*
X175602730Y-115819151D01*
X175645795Y-115787863D01*
X175750532Y-115711767D01*
X175755871Y-115707888D01*
X175780594Y-115680431D01*
X175878114Y-115572124D01*
X175878115Y-115572123D01*
X175882533Y-115567216D01*
X175952034Y-115446837D01*
X175973875Y-115409007D01*
X175973876Y-115409006D01*
X175977179Y-115403284D01*
X176035674Y-115223256D01*
X176038937Y-115192216D01*
X176054770Y-115041565D01*
X176055460Y-115035000D01*
X176046268Y-114947540D01*
X176036365Y-114853317D01*
X176036365Y-114853315D01*
X176035674Y-114846744D01*
X176035857Y-114846725D01*
X176034780Y-114805609D01*
X176037725Y-114787013D01*
X176047726Y-114723869D01*
X176052391Y-114684449D01*
X176052487Y-114683231D01*
X176053846Y-114665965D01*
X176053847Y-114665941D01*
X176053942Y-114664739D01*
X176054129Y-114660000D01*
X176055451Y-114626326D01*
X176055500Y-114625083D01*
X176055500Y-112116500D01*
X176075502Y-112048379D01*
X176129158Y-112001886D01*
X176181500Y-111990500D01*
X176867645Y-111990500D01*
X176935766Y-112010502D01*
X176982259Y-112064158D01*
X176992363Y-112134432D01*
X176991196Y-112140990D01*
X176989326Y-112146744D01*
X176969540Y-112335000D01*
X176989326Y-112523256D01*
X177047821Y-112703284D01*
X177142467Y-112867216D01*
X177146885Y-112872123D01*
X177146886Y-112872124D01*
X177250590Y-112987298D01*
X177269129Y-113007888D01*
X177274468Y-113011767D01*
X177348119Y-113065277D01*
X177422270Y-113119151D01*
X177595197Y-113196144D01*
X177693212Y-113216978D01*
X177773897Y-113234128D01*
X177773901Y-113234128D01*
X177780354Y-113235500D01*
X177830623Y-113235500D01*
X177842973Y-113236107D01*
X177862863Y-113238066D01*
X177885475Y-113239177D01*
X177910855Y-113240424D01*
X177910871Y-113240424D01*
X177912410Y-113240500D01*
X181318500Y-113240500D01*
X181386621Y-113260502D01*
X181433114Y-113314158D01*
X181444500Y-113366500D01*
X181444500Y-119428500D01*
X181424498Y-119496621D01*
X181370842Y-119543114D01*
X181318500Y-119554500D01*
X177249392Y-119554500D01*
X177181271Y-119534498D01*
X177134778Y-119480842D01*
X177124674Y-119410568D01*
X177151211Y-119353905D01*
X177149232Y-119352467D01*
X177153114Y-119347124D01*
X177157533Y-119342216D01*
X177243519Y-119193284D01*
X177248875Y-119184007D01*
X177248876Y-119184006D01*
X177252179Y-119178284D01*
X177310674Y-118998256D01*
X177330460Y-118810000D01*
X177329101Y-118797074D01*
X177311364Y-118628307D01*
X177311364Y-118628305D01*
X177310674Y-118621744D01*
X177287504Y-118550434D01*
X177285476Y-118479469D01*
X177322138Y-118418671D01*
X177385850Y-118387346D01*
X177407337Y-118385500D01*
X179285014Y-118385500D01*
X179353135Y-118405502D01*
X179359076Y-118409565D01*
X179366927Y-118415270D01*
X179366933Y-118415273D01*
X179372270Y-118419151D01*
X179545197Y-118496144D01*
X179643212Y-118516978D01*
X179723897Y-118534128D01*
X179723901Y-118534128D01*
X179730354Y-118535500D01*
X179919646Y-118535500D01*
X179926099Y-118534128D01*
X179926103Y-118534128D01*
X180006788Y-118516978D01*
X180104803Y-118496144D01*
X180277730Y-118419151D01*
X180296517Y-118405502D01*
X180425532Y-118311767D01*
X180430871Y-118307888D01*
X180536591Y-118190475D01*
X180553114Y-118172124D01*
X180553115Y-118172123D01*
X180557533Y-118167216D01*
X180569442Y-118146589D01*
X180648875Y-118009007D01*
X180648876Y-118009006D01*
X180652179Y-118003284D01*
X180710674Y-117823256D01*
X180730460Y-117635000D01*
X180710674Y-117446744D01*
X180652179Y-117266716D01*
X180557533Y-117102784D01*
X180430871Y-116962112D01*
X180323763Y-116884294D01*
X180283072Y-116854730D01*
X180283071Y-116854729D01*
X180277730Y-116850849D01*
X180104803Y-116773856D01*
X180006788Y-116753022D01*
X179926103Y-116735872D01*
X179926099Y-116735872D01*
X179919646Y-116734500D01*
X179730354Y-116734500D01*
X179723901Y-116735872D01*
X179723897Y-116735872D01*
X179643212Y-116753022D01*
X179545197Y-116773856D01*
X179372270Y-116850849D01*
X179366933Y-116854727D01*
X179366927Y-116854730D01*
X179359076Y-116860435D01*
X179292209Y-116884294D01*
X179285014Y-116884500D01*
X172851500Y-116884500D01*
X172783379Y-116864498D01*
X172736886Y-116810842D01*
X172725500Y-116758500D01*
X172725500Y-109144857D01*
X172742381Y-109081857D01*
X172798875Y-108984007D01*
X172798876Y-108984006D01*
X172802179Y-108978284D01*
X172860674Y-108798256D01*
X172880460Y-108610000D01*
X172865683Y-108469398D01*
X172861364Y-108428307D01*
X172861364Y-108428305D01*
X172860674Y-108421744D01*
X172802179Y-108241716D01*
X172707533Y-108077784D01*
X172662513Y-108027784D01*
X172585286Y-107942015D01*
X172585284Y-107942014D01*
X172580871Y-107937112D01*
X172427730Y-107825849D01*
X172254803Y-107748856D01*
X172142446Y-107724974D01*
X172076103Y-107710872D01*
X172076099Y-107710872D01*
X172069646Y-107709500D01*
X171880354Y-107709500D01*
X171873901Y-107710872D01*
X171873897Y-107710872D01*
X171807554Y-107724974D01*
X171695197Y-107748856D01*
X171522270Y-107825849D01*
X171369129Y-107937112D01*
X171364716Y-107942014D01*
X171364714Y-107942015D01*
X171287487Y-108027784D01*
X171242467Y-108077784D01*
X171147821Y-108241716D01*
X171089326Y-108421744D01*
X171088636Y-108428305D01*
X171088636Y-108428307D01*
X171084317Y-108469398D01*
X171069540Y-108610000D01*
X171089326Y-108798256D01*
X171147821Y-108978284D01*
X171151124Y-108984006D01*
X171151125Y-108984007D01*
X171207619Y-109081857D01*
X171224500Y-109144857D01*
X171224500Y-110632702D01*
X171204498Y-110700823D01*
X171150842Y-110747316D01*
X171080568Y-110757420D01*
X171026229Y-110735915D01*
X171007639Y-110722898D01*
X171002657Y-110720575D01*
X171002652Y-110720572D01*
X170814312Y-110632748D01*
X170814311Y-110632747D01*
X170809330Y-110630425D01*
X170804022Y-110629003D01*
X170804020Y-110629002D01*
X170738255Y-110611380D01*
X170597977Y-110573793D01*
X170380000Y-110554723D01*
X170162023Y-110573793D01*
X170021745Y-110611380D01*
X169955980Y-110629002D01*
X169955978Y-110629003D01*
X169950670Y-110630425D01*
X169945690Y-110632747D01*
X169945688Y-110632748D01*
X169757343Y-110720575D01*
X169757340Y-110720577D01*
X169752362Y-110722898D01*
X169573123Y-110848402D01*
X169418402Y-111003123D01*
X169292898Y-111182362D01*
X169290577Y-111187340D01*
X169290575Y-111187343D01*
X169224195Y-111329695D01*
X169177277Y-111382980D01*
X169109000Y-111402441D01*
X169041040Y-111381899D01*
X168995805Y-111329695D01*
X168929425Y-111187343D01*
X168929423Y-111187340D01*
X168927102Y-111182362D01*
X168801598Y-111003123D01*
X168646877Y-110848402D01*
X168642369Y-110845245D01*
X168642366Y-110845243D01*
X168472148Y-110726055D01*
X168472145Y-110726053D01*
X168467639Y-110722898D01*
X168462657Y-110720575D01*
X168462652Y-110720572D01*
X168274312Y-110632748D01*
X168274311Y-110632747D01*
X168269330Y-110630425D01*
X168264022Y-110629003D01*
X168264020Y-110629002D01*
X168198255Y-110611380D01*
X168057977Y-110573793D01*
X167840000Y-110554723D01*
X167622023Y-110573793D01*
X167481745Y-110611380D01*
X167415980Y-110629002D01*
X167415978Y-110629003D01*
X167410670Y-110630425D01*
X167405690Y-110632747D01*
X167405688Y-110632748D01*
X167217343Y-110720575D01*
X167217340Y-110720577D01*
X167212362Y-110722898D01*
X167033123Y-110848402D01*
X166878402Y-111003123D01*
X166813592Y-111095682D01*
X166779712Y-111144068D01*
X166724255Y-111188396D01*
X166653636Y-111195705D01*
X166590275Y-111163674D01*
X166554290Y-111102473D01*
X166550499Y-111071797D01*
X166550499Y-111012624D01*
X166543851Y-110951420D01*
X166493526Y-110817176D01*
X166488146Y-110809997D01*
X166488144Y-110809994D01*
X166412928Y-110709635D01*
X166407546Y-110702454D01*
X166400365Y-110697072D01*
X166300006Y-110621856D01*
X166300003Y-110621854D01*
X166292824Y-110616474D01*
X166186312Y-110576545D01*
X166165975Y-110568921D01*
X166165973Y-110568921D01*
X166158580Y-110566149D01*
X166150730Y-110565296D01*
X166150729Y-110565296D01*
X166100774Y-110559869D01*
X166100773Y-110559869D01*
X166097377Y-110559500D01*
X165300117Y-110559500D01*
X164502624Y-110559501D01*
X164499230Y-110559870D01*
X164499224Y-110559870D01*
X164449278Y-110565295D01*
X164449274Y-110565296D01*
X164441420Y-110566149D01*
X164307176Y-110616474D01*
X164299997Y-110621854D01*
X164299994Y-110621856D01*
X164199635Y-110697072D01*
X164192454Y-110702454D01*
X164187072Y-110709635D01*
X164111856Y-110809994D01*
X164111854Y-110809997D01*
X164106474Y-110817176D01*
X164056149Y-110951420D01*
X164049500Y-111012623D01*
X164049501Y-112607376D01*
X164056149Y-112668580D01*
X164106474Y-112802824D01*
X164111854Y-112810003D01*
X164111856Y-112810006D01*
X164154733Y-112867216D01*
X164192454Y-112917546D01*
X164199635Y-112922928D01*
X164299994Y-112998144D01*
X164299997Y-112998146D01*
X164307176Y-113003526D01*
X164396561Y-113037034D01*
X164434025Y-113051079D01*
X164434027Y-113051079D01*
X164441420Y-113053851D01*
X164449270Y-113054704D01*
X164449271Y-113054704D01*
X164499217Y-113060130D01*
X164502623Y-113060500D01*
X165299883Y-113060500D01*
X166097376Y-113060499D01*
X166100770Y-113060130D01*
X166100776Y-113060130D01*
X166150722Y-113054705D01*
X166150726Y-113054704D01*
X166158580Y-113053851D01*
X166292824Y-113003526D01*
X166300003Y-112998146D01*
X166300006Y-112998144D01*
X166400365Y-112922928D01*
X166407546Y-112917546D01*
X166445267Y-112867216D01*
X166488144Y-112810006D01*
X166488146Y-112810003D01*
X166493526Y-112802824D01*
X166543851Y-112668580D01*
X166550500Y-112607377D01*
X166550500Y-112548204D01*
X166570502Y-112480083D01*
X166624158Y-112433590D01*
X166694432Y-112423486D01*
X166759012Y-112452980D01*
X166779713Y-112475934D01*
X166878402Y-112616877D01*
X167033123Y-112771598D01*
X167037631Y-112774755D01*
X167037634Y-112774757D01*
X167207852Y-112893945D01*
X167212361Y-112897102D01*
X167217343Y-112899425D01*
X167217348Y-112899428D01*
X167405688Y-112987252D01*
X167410670Y-112989575D01*
X167415978Y-112990997D01*
X167415980Y-112990998D01*
X167462736Y-113003526D01*
X167622023Y-113046207D01*
X167840000Y-113065277D01*
X168057977Y-113046207D01*
X168217264Y-113003526D01*
X168264020Y-112990998D01*
X168264022Y-112990997D01*
X168269330Y-112989575D01*
X168274312Y-112987252D01*
X168462652Y-112899428D01*
X168462657Y-112899425D01*
X168467639Y-112897102D01*
X168472148Y-112893945D01*
X168642366Y-112774757D01*
X168642369Y-112774755D01*
X168646877Y-112771598D01*
X168801598Y-112616877D01*
X168927102Y-112437638D01*
X168933702Y-112423486D01*
X168995805Y-112290305D01*
X169042723Y-112237020D01*
X169111000Y-112217559D01*
X169178960Y-112238101D01*
X169224195Y-112290305D01*
X169286299Y-112423486D01*
X169292898Y-112437638D01*
X169418402Y-112616877D01*
X169573123Y-112771598D01*
X169577631Y-112774755D01*
X169577634Y-112774757D01*
X169747852Y-112893945D01*
X169752361Y-112897102D01*
X169757343Y-112899425D01*
X169757348Y-112899428D01*
X169945688Y-112987252D01*
X169950670Y-112989575D01*
X169955978Y-112990997D01*
X169955980Y-112990998D01*
X170002736Y-113003526D01*
X170162023Y-113046207D01*
X170380000Y-113065277D01*
X170597977Y-113046207D01*
X170757264Y-113003526D01*
X170804020Y-112990998D01*
X170804022Y-112990997D01*
X170809330Y-112989575D01*
X170814312Y-112987252D01*
X171002652Y-112899428D01*
X171002657Y-112899425D01*
X171007639Y-112897102D01*
X171026229Y-112884085D01*
X171093503Y-112861397D01*
X171162363Y-112878682D01*
X171210947Y-112930451D01*
X171224500Y-112987298D01*
X171224500Y-117100143D01*
X171207619Y-117163143D01*
X171147821Y-117266716D01*
X171089326Y-117446744D01*
X171069540Y-117635000D01*
X171089326Y-117823256D01*
X171147821Y-118003284D01*
X171151125Y-118009007D01*
X171151126Y-118009009D01*
X171151988Y-118010502D01*
X171152224Y-118011475D01*
X171153809Y-118015035D01*
X171153158Y-118015325D01*
X171168725Y-118079497D01*
X171145503Y-118146589D01*
X171089696Y-118190475D01*
X171042868Y-118199500D01*
X168239638Y-118199500D01*
X168171517Y-118179498D01*
X168150230Y-118161403D01*
X168150198Y-118161439D01*
X168148950Y-118160315D01*
X168145998Y-118157806D01*
X168145291Y-118157021D01*
X168140871Y-118152112D01*
X168135529Y-118148231D01*
X168135527Y-118148229D01*
X167993072Y-118044730D01*
X167993071Y-118044729D01*
X167987730Y-118040849D01*
X167814803Y-117963856D01*
X167716788Y-117943022D01*
X167636103Y-117925872D01*
X167636099Y-117925872D01*
X167629646Y-117924500D01*
X167440354Y-117924500D01*
X167433901Y-117925872D01*
X167433897Y-117925872D01*
X167353212Y-117943022D01*
X167255197Y-117963856D01*
X167082270Y-118040849D01*
X166929129Y-118152112D01*
X166924716Y-118157014D01*
X166924714Y-118157015D01*
X166806886Y-118287876D01*
X166802467Y-118292784D01*
X166799164Y-118298505D01*
X166735044Y-118409565D01*
X166707821Y-118456716D01*
X166649326Y-118636744D01*
X166629540Y-118825000D01*
X166630230Y-118831565D01*
X166647060Y-118991693D01*
X166649326Y-119013256D01*
X166707821Y-119193284D01*
X166802467Y-119357216D01*
X166806885Y-119362123D01*
X166806886Y-119362124D01*
X166913781Y-119480842D01*
X166929129Y-119497888D01*
X166934468Y-119501767D01*
X166991378Y-119543114D01*
X167082270Y-119609151D01*
X167255197Y-119686144D01*
X167353212Y-119706978D01*
X167433897Y-119724128D01*
X167433901Y-119724128D01*
X167440354Y-119725500D01*
X167629646Y-119725500D01*
X167636099Y-119724128D01*
X167636103Y-119724128D01*
X167716788Y-119706978D01*
X167814803Y-119686144D01*
X167987730Y-119609151D01*
X168067375Y-119551286D01*
X168135527Y-119501771D01*
X168135529Y-119501769D01*
X168140871Y-119497888D01*
X168145998Y-119492194D01*
X168146521Y-119491872D01*
X168150198Y-119488561D01*
X168150803Y-119489233D01*
X168206442Y-119454952D01*
X168239638Y-119450500D01*
X170429415Y-119450500D01*
X170497536Y-119470502D01*
X170544029Y-119524158D01*
X170554133Y-119594432D01*
X170538534Y-119639500D01*
X170522821Y-119666716D01*
X170464326Y-119846744D01*
X170444540Y-120035000D01*
X170456626Y-120149994D01*
X170456238Y-120179601D01*
X170453238Y-120202391D01*
X170453238Y-120267609D01*
X170470460Y-120398434D01*
X170476429Y-120420712D01*
X170478011Y-120424531D01*
X170525353Y-120538830D01*
X170525356Y-120538837D01*
X170526930Y-120542636D01*
X170559542Y-120599122D01*
X170639877Y-120703815D01*
X170656185Y-120720123D01*
X170760870Y-120800453D01*
X170817350Y-120833063D01*
X170821156Y-120834640D01*
X170821159Y-120834641D01*
X170935456Y-120881986D01*
X170939268Y-120883565D01*
X170978143Y-120893982D01*
X170980176Y-120894386D01*
X170980183Y-120894388D01*
X170999792Y-120898288D01*
X171043009Y-120906884D01*
X171045059Y-120907154D01*
X171045072Y-120907156D01*
X171073567Y-120910907D01*
X171073581Y-120910908D01*
X171075614Y-120911176D01*
X171077669Y-120911311D01*
X171077672Y-120911311D01*
X171139538Y-120915366D01*
X171139547Y-120915366D01*
X171141587Y-120915500D01*
X171148016Y-120915500D01*
X171174213Y-120918253D01*
X171248897Y-120934128D01*
X171248901Y-120934128D01*
X171255354Y-120935500D01*
X171444646Y-120935500D01*
X171451099Y-120934128D01*
X171451103Y-120934128D01*
X171525787Y-120918253D01*
X171551984Y-120915500D01*
X176046621Y-120915500D01*
X176114742Y-120935502D01*
X176161235Y-120989158D01*
X176171339Y-121059432D01*
X176141845Y-121124012D01*
X176097870Y-121156606D01*
X175987270Y-121205849D01*
X175981929Y-121209729D01*
X175981928Y-121209730D01*
X175922669Y-121252784D01*
X175834129Y-121317112D01*
X175707467Y-121457784D01*
X175704164Y-121463505D01*
X175627239Y-121596744D01*
X175612821Y-121621716D01*
X175554326Y-121801744D01*
X175534540Y-121990000D01*
X175535230Y-121996565D01*
X175550486Y-122141716D01*
X175554326Y-122178256D01*
X175612821Y-122358284D01*
X175616124Y-122364006D01*
X175616125Y-122364007D01*
X175639096Y-122403794D01*
X175707467Y-122522216D01*
X175711885Y-122527123D01*
X175711886Y-122527124D01*
X175829657Y-122657921D01*
X175834129Y-122662888D01*
X175987270Y-122774151D01*
X176160197Y-122851144D01*
X176258212Y-122871978D01*
X176338897Y-122889128D01*
X176338901Y-122889128D01*
X176345354Y-122890500D01*
X176534646Y-122890500D01*
X176541099Y-122889128D01*
X176541103Y-122889128D01*
X176621788Y-122871978D01*
X176719803Y-122851144D01*
X176892730Y-122774151D01*
X177045871Y-122662888D01*
X177050344Y-122657921D01*
X177168114Y-122527124D01*
X177168115Y-122527123D01*
X177172533Y-122522216D01*
X177240904Y-122403794D01*
X177263875Y-122364007D01*
X177263876Y-122364006D01*
X177267179Y-122358284D01*
X177325674Y-122178256D01*
X177329515Y-122141716D01*
X177344770Y-121996565D01*
X177345460Y-121990000D01*
X177325674Y-121801744D01*
X177267179Y-121621716D01*
X177252762Y-121596744D01*
X177175836Y-121463505D01*
X177172533Y-121457784D01*
X177045871Y-121317112D01*
X176957331Y-121252784D01*
X176898072Y-121209730D01*
X176898071Y-121209729D01*
X176892730Y-121205849D01*
X176782130Y-121156606D01*
X176728034Y-121110626D01*
X176707385Y-121042699D01*
X176726738Y-120974391D01*
X176779949Y-120927390D01*
X176833379Y-120915500D01*
X182241742Y-120915500D01*
X182242708Y-120915468D01*
X182242732Y-120915468D01*
X182273809Y-120914451D01*
X182273833Y-120914450D01*
X182274805Y-120914418D01*
X182275793Y-120914353D01*
X182275818Y-120914352D01*
X182284031Y-120913813D01*
X182291251Y-120913340D01*
X182313917Y-120911107D01*
X182326271Y-120910500D01*
X182444646Y-120910500D01*
X182451099Y-120909128D01*
X182451103Y-120909128D01*
X182531788Y-120891978D01*
X182629803Y-120871144D01*
X182802730Y-120794151D01*
X182874440Y-120742051D01*
X182941308Y-120718193D01*
X183010459Y-120734274D01*
X183059939Y-120785189D01*
X183074500Y-120843988D01*
X183074500Y-121881359D01*
X183074208Y-121889929D01*
X183070322Y-121946930D01*
X183071627Y-121954406D01*
X183071627Y-121954409D01*
X183081178Y-122009132D01*
X183082141Y-122015658D01*
X183083469Y-122026632D01*
X183089724Y-122078320D01*
X183092409Y-122085427D01*
X183093218Y-122088720D01*
X183097177Y-122103191D01*
X183098166Y-122106467D01*
X183099473Y-122113954D01*
X183102528Y-122120913D01*
X183102528Y-122120914D01*
X183124847Y-122171760D01*
X183127339Y-122177866D01*
X183140831Y-122213570D01*
X183149655Y-122236923D01*
X183153954Y-122243178D01*
X183155535Y-122246203D01*
X183162825Y-122259299D01*
X183164566Y-122262243D01*
X183167621Y-122269202D01*
X183172246Y-122275230D01*
X183172247Y-122275231D01*
X183206042Y-122319273D01*
X183209919Y-122324609D01*
X183241381Y-122370386D01*
X183241386Y-122370392D01*
X183245688Y-122376651D01*
X183281522Y-122408578D01*
X183291657Y-122417608D01*
X183296933Y-122422589D01*
X185147995Y-124273652D01*
X185182021Y-124335964D01*
X185184209Y-124349573D01*
X185189326Y-124398256D01*
X185247821Y-124578284D01*
X185342467Y-124742216D01*
X185469129Y-124882888D01*
X185622270Y-124994151D01*
X185795197Y-125071144D01*
X185893212Y-125091978D01*
X185973897Y-125109128D01*
X185973901Y-125109128D01*
X185980354Y-125110500D01*
X186169646Y-125110500D01*
X186176099Y-125109128D01*
X186176103Y-125109128D01*
X186256788Y-125091978D01*
X186354803Y-125071144D01*
X186527730Y-124994151D01*
X186680871Y-124882888D01*
X186807533Y-124742216D01*
X186902179Y-124578284D01*
X186960674Y-124398256D01*
X186980460Y-124210000D01*
X186960674Y-124021744D01*
X186902179Y-123841716D01*
X186807533Y-123677784D01*
X186680871Y-123537112D01*
X186527730Y-123425849D01*
X186354803Y-123348856D01*
X186256636Y-123327990D01*
X186200449Y-123316047D01*
X186137551Y-123281895D01*
X184512405Y-121656748D01*
X184478379Y-121594436D01*
X184475500Y-121567653D01*
X184475500Y-109650151D01*
X185370585Y-109650151D01*
X185370760Y-109654602D01*
X185377763Y-109832820D01*
X185381152Y-109919083D01*
X185429505Y-110183843D01*
X185514682Y-110439148D01*
X185516674Y-110443135D01*
X185516675Y-110443137D01*
X185620463Y-110650849D01*
X185634981Y-110679905D01*
X185788003Y-110901309D01*
X185791025Y-110904578D01*
X185967679Y-111095682D01*
X185967684Y-111095687D01*
X185970695Y-111098944D01*
X186179411Y-111268866D01*
X186183229Y-111271165D01*
X186183231Y-111271166D01*
X186368954Y-111382980D01*
X186409987Y-111407684D01*
X186422634Y-111413039D01*
X186477560Y-111458018D01*
X186499500Y-111529064D01*
X186499500Y-114125143D01*
X186482619Y-114188143D01*
X186436306Y-114268360D01*
X186422821Y-114291716D01*
X186364326Y-114471744D01*
X186344540Y-114660000D01*
X186345230Y-114666565D01*
X186362352Y-114829470D01*
X186364326Y-114848256D01*
X186422821Y-115028284D01*
X186426124Y-115034006D01*
X186426125Y-115034007D01*
X186462308Y-115096678D01*
X186517467Y-115192216D01*
X186521885Y-115197123D01*
X186521886Y-115197124D01*
X186609487Y-115294414D01*
X186644129Y-115332888D01*
X186649468Y-115336767D01*
X186732371Y-115396999D01*
X186797270Y-115444151D01*
X186970197Y-115521144D01*
X187068212Y-115541978D01*
X187148897Y-115559128D01*
X187148901Y-115559128D01*
X187155354Y-115560500D01*
X187344646Y-115560500D01*
X187351099Y-115559128D01*
X187351103Y-115559128D01*
X187431788Y-115541978D01*
X187529803Y-115521144D01*
X187702730Y-115444151D01*
X187767630Y-115396999D01*
X187850532Y-115336767D01*
X187855871Y-115332888D01*
X187890514Y-115294414D01*
X187978114Y-115197124D01*
X187978115Y-115197123D01*
X187982533Y-115192216D01*
X188037692Y-115096678D01*
X188073875Y-115034007D01*
X188073876Y-115034006D01*
X188077179Y-115028284D01*
X188135674Y-114848256D01*
X188137649Y-114829470D01*
X188154770Y-114666565D01*
X188155460Y-114660000D01*
X188135674Y-114471744D01*
X188077179Y-114291716D01*
X188063695Y-114268360D01*
X188017381Y-114188143D01*
X188000500Y-114125143D01*
X188000500Y-111549254D01*
X188020502Y-111481133D01*
X188071954Y-111435673D01*
X188219025Y-111365051D01*
X188222731Y-111362575D01*
X188439098Y-111218004D01*
X188439102Y-111218001D01*
X188442806Y-111215526D01*
X188446123Y-111212555D01*
X188446127Y-111212552D01*
X188639970Y-111038931D01*
X188643286Y-111035961D01*
X188702224Y-110965846D01*
X188813601Y-110833348D01*
X188813606Y-110833342D01*
X188816465Y-110829940D01*
X188958887Y-110601572D01*
X188963050Y-110592157D01*
X189065907Y-110359498D01*
X189067712Y-110355416D01*
X189140767Y-110096382D01*
X189176595Y-109829638D01*
X189180355Y-109710000D01*
X189161347Y-109441533D01*
X189150311Y-109390270D01*
X189105636Y-109182771D01*
X189104700Y-109178423D01*
X189093154Y-109147124D01*
X189013090Y-108930101D01*
X189013089Y-108930099D01*
X189011547Y-108925919D01*
X188980249Y-108867913D01*
X188885857Y-108692976D01*
X188883744Y-108689060D01*
X188723843Y-108472571D01*
X188535034Y-108280772D01*
X188483859Y-108241716D01*
X188426578Y-108198001D01*
X188321083Y-108117490D01*
X188268434Y-108088005D01*
X188090147Y-107988159D01*
X188090144Y-107988158D01*
X188086261Y-107985983D01*
X188082122Y-107984382D01*
X188082114Y-107984378D01*
X187843367Y-107892015D01*
X187835251Y-107888875D01*
X187830926Y-107887872D01*
X187830921Y-107887871D01*
X187686864Y-107854481D01*
X187573063Y-107828103D01*
X187304928Y-107804880D01*
X187300493Y-107805124D01*
X187300489Y-107805124D01*
X187191324Y-107811132D01*
X187036196Y-107819669D01*
X187031833Y-107820537D01*
X187031832Y-107820537D01*
X186776596Y-107871307D01*
X186776594Y-107871308D01*
X186772228Y-107872176D01*
X186518292Y-107961352D01*
X186279455Y-108085418D01*
X186275840Y-108088001D01*
X186275834Y-108088005D01*
X186230793Y-108120192D01*
X186060481Y-108241899D01*
X186057254Y-108244977D01*
X186057252Y-108244979D01*
X185924368Y-108371744D01*
X185865740Y-108427672D01*
X185699118Y-108639032D01*
X185667785Y-108692976D01*
X185566173Y-108867913D01*
X185566170Y-108867919D01*
X185563939Y-108871760D01*
X185462900Y-109121213D01*
X185461829Y-109125526D01*
X185461827Y-109125531D01*
X185421776Y-109286767D01*
X185398017Y-109382414D01*
X185370585Y-109650151D01*
X184475500Y-109650151D01*
X184475500Y-109176071D01*
X184499564Y-109102010D01*
X184503115Y-109097123D01*
X184507533Y-109092216D01*
X184513514Y-109081857D01*
X184598875Y-108934007D01*
X184598876Y-108934006D01*
X184602179Y-108928284D01*
X184660674Y-108748256D01*
X184680460Y-108560000D01*
X184660674Y-108371744D01*
X184602179Y-108191716D01*
X184539704Y-108083505D01*
X184510836Y-108033505D01*
X184507533Y-108027784D01*
X184503114Y-108022876D01*
X184385286Y-107892015D01*
X184385284Y-107892014D01*
X184380871Y-107887112D01*
X184301891Y-107829730D01*
X184233072Y-107779730D01*
X184233071Y-107779729D01*
X184227730Y-107775849D01*
X184054803Y-107698856D01*
X183956788Y-107678022D01*
X183876103Y-107660872D01*
X183876099Y-107660872D01*
X183869646Y-107659500D01*
X183680354Y-107659500D01*
X183673901Y-107660872D01*
X183673897Y-107660872D01*
X183593212Y-107678022D01*
X183495197Y-107698856D01*
X183436536Y-107724974D01*
X183432749Y-107726660D01*
X183362382Y-107736095D01*
X183298085Y-107705989D01*
X183260272Y-107645900D01*
X183255500Y-107611554D01*
X183255500Y-103865000D01*
X194500000Y-103865000D01*
X194500000Y-128126742D01*
X194498922Y-128143188D01*
X194485128Y-128247963D01*
X194476615Y-128279735D01*
X194439361Y-128369674D01*
X194422914Y-128398161D01*
X194374538Y-128461205D01*
X194317200Y-128503072D01*
X194274576Y-128510500D01*
X133680424Y-128510500D01*
X133612303Y-128490498D01*
X133580462Y-128461205D01*
X133532086Y-128398161D01*
X133515639Y-128369674D01*
X133478385Y-128279735D01*
X133469872Y-128247963D01*
X133456078Y-128143188D01*
X133455000Y-128126742D01*
X133455000Y-126151500D01*
X133475002Y-126083379D01*
X133528658Y-126036886D01*
X133581000Y-126025500D01*
X165968546Y-126025500D01*
X165987496Y-126026933D01*
X166001396Y-126029048D01*
X166001400Y-126029048D01*
X166008630Y-126030148D01*
X166015922Y-126029555D01*
X166015925Y-126029555D01*
X166060675Y-126025915D01*
X166070889Y-126025500D01*
X166078822Y-126025500D01*
X166088118Y-126024416D01*
X166106736Y-126022246D01*
X166111111Y-126021813D01*
X166141274Y-126019360D01*
X166183059Y-126015961D01*
X166190021Y-126013706D01*
X166195816Y-126012548D01*
X166201558Y-126011191D01*
X166208828Y-126010343D01*
X166276736Y-125985694D01*
X166280864Y-125984277D01*
X166342583Y-125964283D01*
X166342585Y-125964282D01*
X166349546Y-125962027D01*
X166355800Y-125958232D01*
X166361179Y-125955769D01*
X166366455Y-125953127D01*
X166373331Y-125950631D01*
X166433709Y-125911046D01*
X166437419Y-125908705D01*
X166494361Y-125874152D01*
X166494368Y-125874147D01*
X166499160Y-125871239D01*
X166507452Y-125863915D01*
X166507474Y-125863940D01*
X166510569Y-125861194D01*
X166513563Y-125858691D01*
X166519685Y-125854677D01*
X166572384Y-125799047D01*
X166574761Y-125796606D01*
X168952349Y-123419018D01*
X169015247Y-123384866D01*
X169073341Y-123372518D01*
X169073345Y-123372517D01*
X169079803Y-123371144D01*
X169252730Y-123294151D01*
X169405871Y-123182888D01*
X169532533Y-123042216D01*
X169627179Y-122878284D01*
X169685674Y-122698256D01*
X169686495Y-122690451D01*
X169704770Y-122516565D01*
X169705460Y-122510000D01*
X169696003Y-122420019D01*
X169686364Y-122328307D01*
X169686364Y-122328305D01*
X169685674Y-122321744D01*
X169627179Y-122141716D01*
X169532533Y-121977784D01*
X169528114Y-121972876D01*
X169410286Y-121842015D01*
X169410284Y-121842014D01*
X169405871Y-121837112D01*
X169252730Y-121725849D01*
X169079803Y-121648856D01*
X168981687Y-121628001D01*
X168901103Y-121610872D01*
X168901099Y-121610872D01*
X168894646Y-121609500D01*
X168705354Y-121609500D01*
X168698901Y-121610872D01*
X168698897Y-121610872D01*
X168618313Y-121628001D01*
X168520197Y-121648856D01*
X168347270Y-121725849D01*
X168194129Y-121837112D01*
X168189716Y-121842014D01*
X168189714Y-121842015D01*
X168071886Y-121972876D01*
X168067467Y-121977784D01*
X167972821Y-122141716D01*
X167932201Y-122266730D01*
X167917627Y-122311585D01*
X167886889Y-122361744D01*
X165761038Y-124487595D01*
X165698726Y-124521621D01*
X165671943Y-124524500D01*
X133581000Y-124524500D01*
X133512879Y-124504498D01*
X133466386Y-124450842D01*
X133455000Y-124398500D01*
X133455000Y-121785000D01*
X137594540Y-121785000D01*
X137595230Y-121791565D01*
X137595230Y-121791566D01*
X137600461Y-121841337D01*
X137600763Y-121844622D01*
X137603845Y-121883784D01*
X137604232Y-121886230D01*
X137604233Y-121886235D01*
X137606532Y-121900754D01*
X137607393Y-121907292D01*
X137614326Y-121973256D01*
X137621900Y-121996565D01*
X137628575Y-122017110D01*
X137631261Y-122026632D01*
X137635695Y-122045101D01*
X137647877Y-122082594D01*
X137648817Y-122084864D01*
X137648821Y-122084874D01*
X137655148Y-122100147D01*
X137658573Y-122109431D01*
X137672821Y-122153284D01*
X137676120Y-122158998D01*
X137705974Y-122210707D01*
X137709119Y-122216500D01*
X137715799Y-122229609D01*
X137716930Y-122231828D01*
X137718221Y-122233934D01*
X137718224Y-122233940D01*
X137737455Y-122265320D01*
X137739142Y-122268156D01*
X137767467Y-122317216D01*
X137771885Y-122322123D01*
X137771886Y-122322124D01*
X137805376Y-122359318D01*
X137807547Y-122361793D01*
X137833064Y-122391669D01*
X137845189Y-122403794D01*
X137849730Y-122408578D01*
X137894129Y-122457888D01*
X137899469Y-122461767D01*
X137899476Y-122461774D01*
X137931436Y-122484993D01*
X137939212Y-122491123D01*
X137951744Y-122501828D01*
X137951755Y-122501837D01*
X137953638Y-122503445D01*
X137955647Y-122504905D01*
X137955655Y-122504911D01*
X137971599Y-122516495D01*
X137985530Y-122526617D01*
X137999133Y-122534953D01*
X138001735Y-122536548D01*
X138009956Y-122542041D01*
X138047270Y-122569151D01*
X138089419Y-122587917D01*
X138107839Y-122596119D01*
X138113785Y-122598955D01*
X138125024Y-122604680D01*
X138129119Y-122606767D01*
X138165501Y-122621837D01*
X138168403Y-122623083D01*
X138220197Y-122646144D01*
X138226655Y-122647517D01*
X138226662Y-122647519D01*
X138275598Y-122657921D01*
X138278812Y-122658648D01*
X138314620Y-122667244D01*
X138314628Y-122667246D01*
X138317029Y-122667822D01*
X138332974Y-122670348D01*
X138334000Y-122670510D01*
X138340475Y-122671710D01*
X138374364Y-122678913D01*
X138398898Y-122684128D01*
X138398900Y-122684128D01*
X138405354Y-122685500D01*
X138427141Y-122685500D01*
X138441949Y-122686373D01*
X138449333Y-122687247D01*
X138449340Y-122687248D01*
X138450551Y-122687391D01*
X138451761Y-122687486D01*
X138451769Y-122687487D01*
X138469035Y-122688846D01*
X138469059Y-122688847D01*
X138470261Y-122688942D01*
X138471472Y-122688990D01*
X138471496Y-122688991D01*
X138499148Y-122690077D01*
X138509917Y-122690500D01*
X160615083Y-122690500D01*
X160625852Y-122690077D01*
X160653504Y-122688991D01*
X160653528Y-122688990D01*
X160654739Y-122688942D01*
X160655941Y-122688847D01*
X160655965Y-122688846D01*
X160673231Y-122687487D01*
X160673239Y-122687486D01*
X160674449Y-122687391D01*
X160675660Y-122687248D01*
X160675667Y-122687247D01*
X160683051Y-122686373D01*
X160697859Y-122685500D01*
X160719646Y-122685500D01*
X160726100Y-122684128D01*
X160726102Y-122684128D01*
X160750636Y-122678913D01*
X160784525Y-122671710D01*
X160791000Y-122670510D01*
X160792026Y-122670348D01*
X160807971Y-122667822D01*
X160810372Y-122667246D01*
X160810380Y-122667244D01*
X160846188Y-122658648D01*
X160849402Y-122657921D01*
X160898338Y-122647519D01*
X160898345Y-122647517D01*
X160904803Y-122646144D01*
X160956597Y-122623083D01*
X160959499Y-122621837D01*
X160995881Y-122606767D01*
X160999976Y-122604680D01*
X161011215Y-122598955D01*
X161017161Y-122596119D01*
X161035581Y-122587917D01*
X161077730Y-122569151D01*
X161115044Y-122542041D01*
X161123265Y-122536548D01*
X161125867Y-122534953D01*
X161139470Y-122526617D01*
X161153401Y-122516495D01*
X161169345Y-122504911D01*
X161169353Y-122504905D01*
X161171362Y-122503445D01*
X161173245Y-122501837D01*
X161173256Y-122501828D01*
X161185788Y-122491123D01*
X161193564Y-122484993D01*
X161225524Y-122461774D01*
X161225531Y-122461767D01*
X161230871Y-122457888D01*
X161275270Y-122408578D01*
X161279811Y-122403794D01*
X161291936Y-122391669D01*
X161317453Y-122361793D01*
X161319624Y-122359318D01*
X161353114Y-122322124D01*
X161353115Y-122322123D01*
X161357533Y-122317216D01*
X161385858Y-122268156D01*
X161387545Y-122265320D01*
X161406776Y-122233940D01*
X161406779Y-122233934D01*
X161408070Y-122231828D01*
X161409201Y-122229609D01*
X161415881Y-122216500D01*
X161419026Y-122210707D01*
X161448880Y-122158998D01*
X161452179Y-122153284D01*
X161466427Y-122109431D01*
X161469852Y-122100147D01*
X161476179Y-122084874D01*
X161476183Y-122084864D01*
X161477123Y-122082594D01*
X161489305Y-122045101D01*
X161493739Y-122026632D01*
X161496425Y-122017110D01*
X161503100Y-121996565D01*
X161510674Y-121973256D01*
X161517607Y-121907292D01*
X161518468Y-121900754D01*
X161520767Y-121886235D01*
X161520768Y-121886230D01*
X161521155Y-121883784D01*
X161524237Y-121844622D01*
X161524539Y-121841337D01*
X161529770Y-121791566D01*
X161529770Y-121791565D01*
X161530460Y-121785000D01*
X161524539Y-121728663D01*
X161524237Y-121725378D01*
X161521349Y-121688678D01*
X161521348Y-121688672D01*
X161521155Y-121686216D01*
X161520767Y-121683765D01*
X161518468Y-121669246D01*
X161517607Y-121662708D01*
X161511364Y-121603306D01*
X161511363Y-121603303D01*
X161510674Y-121596744D01*
X161496425Y-121552890D01*
X161493739Y-121543368D01*
X161489884Y-121527311D01*
X161489305Y-121524899D01*
X161477123Y-121487406D01*
X161469852Y-121469852D01*
X161466427Y-121460568D01*
X161454219Y-121422996D01*
X161452179Y-121416716D01*
X161419026Y-121359293D01*
X161415881Y-121353500D01*
X161409201Y-121340391D01*
X161409197Y-121340384D01*
X161408070Y-121338172D01*
X161387542Y-121304675D01*
X161385858Y-121301844D01*
X161360836Y-121258505D01*
X161357533Y-121252784D01*
X161319620Y-121210678D01*
X161317450Y-121208203D01*
X161315440Y-121205849D01*
X161291936Y-121178331D01*
X161279811Y-121166206D01*
X161275270Y-121161422D01*
X161235290Y-121117020D01*
X161230871Y-121112112D01*
X161225531Y-121108233D01*
X161225524Y-121108226D01*
X161193564Y-121085007D01*
X161185788Y-121078877D01*
X161173256Y-121068172D01*
X161173245Y-121068163D01*
X161171362Y-121066555D01*
X161169353Y-121065095D01*
X161169345Y-121065089D01*
X161141486Y-121044848D01*
X161139470Y-121043383D01*
X161123265Y-121033452D01*
X161115044Y-121027959D01*
X161083070Y-121004729D01*
X161077730Y-121000849D01*
X161017161Y-120973881D01*
X161011215Y-120971045D01*
X160998079Y-120964353D01*
X160995881Y-120963233D01*
X160959499Y-120948163D01*
X160956597Y-120946917D01*
X160904803Y-120923856D01*
X160898345Y-120922483D01*
X160898338Y-120922481D01*
X160849402Y-120912079D01*
X160846188Y-120911352D01*
X160810380Y-120902756D01*
X160810372Y-120902754D01*
X160807971Y-120902178D01*
X160791001Y-120899490D01*
X160784525Y-120898290D01*
X160750636Y-120891087D01*
X160726102Y-120885872D01*
X160726100Y-120885872D01*
X160719646Y-120884500D01*
X160697859Y-120884500D01*
X160683051Y-120883627D01*
X160675667Y-120882753D01*
X160675660Y-120882752D01*
X160674449Y-120882609D01*
X160673239Y-120882514D01*
X160673231Y-120882513D01*
X160655965Y-120881154D01*
X160655941Y-120881153D01*
X160654739Y-120881058D01*
X160653528Y-120881010D01*
X160653504Y-120881009D01*
X160625852Y-120879923D01*
X160615083Y-120879500D01*
X138509917Y-120879500D01*
X138499148Y-120879923D01*
X138471496Y-120881009D01*
X138471472Y-120881010D01*
X138470261Y-120881058D01*
X138469059Y-120881153D01*
X138469035Y-120881154D01*
X138451769Y-120882513D01*
X138451761Y-120882514D01*
X138450551Y-120882609D01*
X138449340Y-120882752D01*
X138449333Y-120882753D01*
X138441949Y-120883627D01*
X138427141Y-120884500D01*
X138405354Y-120884500D01*
X138398900Y-120885872D01*
X138398898Y-120885872D01*
X138374364Y-120891087D01*
X138340475Y-120898290D01*
X138333999Y-120899490D01*
X138317029Y-120902178D01*
X138314628Y-120902754D01*
X138314620Y-120902756D01*
X138278812Y-120911352D01*
X138275598Y-120912079D01*
X138226662Y-120922481D01*
X138226655Y-120922483D01*
X138220197Y-120923856D01*
X138168403Y-120946917D01*
X138165501Y-120948163D01*
X138129119Y-120963233D01*
X138126921Y-120964353D01*
X138113785Y-120971045D01*
X138107839Y-120973881D01*
X138047270Y-121000849D01*
X138041930Y-121004729D01*
X138009956Y-121027959D01*
X138001735Y-121033452D01*
X137985530Y-121043383D01*
X137983514Y-121044848D01*
X137955655Y-121065089D01*
X137955647Y-121065095D01*
X137953638Y-121066555D01*
X137951755Y-121068163D01*
X137951744Y-121068172D01*
X137939212Y-121078877D01*
X137931436Y-121085007D01*
X137899476Y-121108226D01*
X137899469Y-121108233D01*
X137894129Y-121112112D01*
X137889710Y-121117020D01*
X137849730Y-121161422D01*
X137845189Y-121166206D01*
X137833064Y-121178331D01*
X137809561Y-121205849D01*
X137807550Y-121208203D01*
X137805380Y-121210678D01*
X137767467Y-121252784D01*
X137764164Y-121258505D01*
X137739142Y-121301844D01*
X137737458Y-121304675D01*
X137716930Y-121338172D01*
X137715803Y-121340384D01*
X137715799Y-121340391D01*
X137709119Y-121353500D01*
X137705974Y-121359293D01*
X137672821Y-121416716D01*
X137670781Y-121422996D01*
X137658573Y-121460568D01*
X137655148Y-121469852D01*
X137647877Y-121487406D01*
X137635695Y-121524899D01*
X137635116Y-121527311D01*
X137631261Y-121543368D01*
X137628575Y-121552890D01*
X137614326Y-121596744D01*
X137613637Y-121603303D01*
X137613636Y-121603306D01*
X137607393Y-121662708D01*
X137606532Y-121669246D01*
X137604233Y-121683765D01*
X137603845Y-121686216D01*
X137603652Y-121688672D01*
X137603651Y-121688678D01*
X137600763Y-121725378D01*
X137600461Y-121728663D01*
X137594540Y-121785000D01*
X133455000Y-121785000D01*
X133455000Y-114626563D01*
X133997082Y-114626563D01*
X133997276Y-114629028D01*
X133997276Y-114629035D01*
X134000226Y-114666565D01*
X134006372Y-114744776D01*
X134020228Y-114832312D01*
X134020803Y-114834710D01*
X134020805Y-114834718D01*
X134026753Y-114859506D01*
X134047877Y-114947540D01*
X134060043Y-114985004D01*
X134105358Y-115094472D01*
X134144014Y-115170388D01*
X134205892Y-115271432D01*
X134229040Y-115303316D01*
X134230631Y-115305181D01*
X134230641Y-115305193D01*
X134282169Y-115365572D01*
X134305958Y-115393448D01*
X134309506Y-115396999D01*
X134364415Y-115451956D01*
X134364422Y-115451962D01*
X134366169Y-115453711D01*
X134368057Y-115455325D01*
X134446653Y-115522517D01*
X134456222Y-115530698D01*
X134488084Y-115553873D01*
X134589078Y-115615842D01*
X134664961Y-115654565D01*
X134774412Y-115699984D01*
X134776745Y-115700744D01*
X134776751Y-115700746D01*
X134809526Y-115711420D01*
X134809534Y-115711422D01*
X134811876Y-115712185D01*
X134814280Y-115712764D01*
X134814287Y-115712766D01*
X134924655Y-115739348D01*
X134924660Y-115739349D01*
X134927064Y-115739928D01*
X134929514Y-115740318D01*
X135019864Y-115754700D01*
X135019875Y-115754702D01*
X135021103Y-115754897D01*
X135022331Y-115755043D01*
X135022350Y-115755046D01*
X135068150Y-115760505D01*
X135079925Y-115761908D01*
X135081140Y-115762005D01*
X135081153Y-115762006D01*
X135092169Y-115762883D01*
X135099613Y-115763475D01*
X135100857Y-115763525D01*
X135100874Y-115763526D01*
X135135243Y-115764907D01*
X135158897Y-115765857D01*
X147550229Y-115776651D01*
X163038172Y-115790142D01*
X163038176Y-115790142D01*
X163039420Y-115790143D01*
X163098735Y-115787863D01*
X163099928Y-115787770D01*
X163099947Y-115787769D01*
X163117228Y-115786423D01*
X163117235Y-115786422D01*
X163118459Y-115786327D01*
X163177406Y-115779397D01*
X163178650Y-115779201D01*
X163269002Y-115764963D01*
X163269006Y-115764962D01*
X163271463Y-115764575D01*
X163283227Y-115761760D01*
X163384401Y-115737550D01*
X163384410Y-115737547D01*
X163386819Y-115736971D01*
X163405579Y-115730890D01*
X163421974Y-115725576D01*
X163421983Y-115725573D01*
X163424339Y-115724809D01*
X163456723Y-115711420D01*
X163531679Y-115680431D01*
X163531692Y-115680425D01*
X163533956Y-115679489D01*
X163581085Y-115655512D01*
X163607674Y-115641985D01*
X163607680Y-115641982D01*
X163609869Y-115640868D01*
X163711045Y-115578946D01*
X163713031Y-115577505D01*
X163713041Y-115577498D01*
X163740970Y-115557228D01*
X163742968Y-115555778D01*
X163833203Y-115478784D01*
X163834962Y-115477027D01*
X163891695Y-115420343D01*
X163891701Y-115420336D01*
X163893454Y-115418585D01*
X163970525Y-115328418D01*
X163971978Y-115326420D01*
X163992272Y-115298508D01*
X163992276Y-115298502D01*
X163993720Y-115296516D01*
X163995009Y-115294414D01*
X164054438Y-115197501D01*
X164054440Y-115197497D01*
X164055728Y-115195397D01*
X164094415Y-115119518D01*
X164095358Y-115117243D01*
X164095363Y-115117232D01*
X164138880Y-115012236D01*
X164138882Y-115012229D01*
X164139828Y-115009948D01*
X164152023Y-114972439D01*
X164179731Y-114857099D01*
X164180118Y-114854658D01*
X164192713Y-114775185D01*
X164192714Y-114775173D01*
X164193100Y-114772740D01*
X164202412Y-114654563D01*
X164202416Y-114615146D01*
X164193127Y-114496960D01*
X164179778Y-114412621D01*
X164152145Y-114297437D01*
X164139981Y-114259970D01*
X164139039Y-114257695D01*
X164139035Y-114257683D01*
X164095616Y-114152776D01*
X164094672Y-114150495D01*
X164056027Y-114074588D01*
X163994163Y-113973550D01*
X163989298Y-113966848D01*
X163972469Y-113943663D01*
X163972465Y-113943658D01*
X163971022Y-113941670D01*
X163969400Y-113939769D01*
X163895735Y-113853431D01*
X163895728Y-113853424D01*
X163894133Y-113851554D01*
X163833938Y-113791292D01*
X163743895Y-113714294D01*
X163712040Y-113691118D01*
X163611081Y-113629150D01*
X163551272Y-113598617D01*
X163537435Y-113591553D01*
X163537430Y-113591551D01*
X163535221Y-113590423D01*
X163425813Y-113544997D01*
X163423466Y-113544232D01*
X163390715Y-113533558D01*
X163390711Y-113533557D01*
X163388358Y-113532790D01*
X163273184Y-113505024D01*
X163179162Y-113490036D01*
X163177947Y-113489891D01*
X163177926Y-113489888D01*
X163121555Y-113483157D01*
X163121530Y-113483155D01*
X163120303Y-113483008D01*
X163119063Y-113482909D01*
X163119052Y-113482908D01*
X163101849Y-113481536D01*
X163101850Y-113481536D01*
X163100608Y-113481437D01*
X163099375Y-113481387D01*
X163099355Y-113481386D01*
X163042640Y-113479096D01*
X163042634Y-113479096D01*
X163041374Y-113479045D01*
X154632575Y-113469702D01*
X154632574Y-113469702D01*
X135162428Y-113448070D01*
X135162410Y-113448070D01*
X135161203Y-113448069D01*
X135159973Y-113448116D01*
X135159972Y-113448116D01*
X135103130Y-113450287D01*
X135103118Y-113450288D01*
X135101906Y-113450334D01*
X135082192Y-113451864D01*
X135023214Y-113458782D01*
X134963419Y-113468191D01*
X134931477Y-113473217D01*
X134931471Y-113473218D01*
X134929019Y-113473604D01*
X134926614Y-113474179D01*
X134926604Y-113474181D01*
X134862872Y-113489419D01*
X134813616Y-113501196D01*
X134776093Y-113513352D01*
X134773827Y-113514288D01*
X134773820Y-113514291D01*
X134730459Y-113532210D01*
X134666464Y-113558656D01*
X134664262Y-113559776D01*
X134592645Y-113596196D01*
X134592633Y-113596203D01*
X134590434Y-113597321D01*
X134588323Y-113598613D01*
X134588315Y-113598617D01*
X134491359Y-113657935D01*
X134491347Y-113657943D01*
X134489245Y-113659229D01*
X134457317Y-113682393D01*
X134367052Y-113759390D01*
X134306704Y-113819671D01*
X134229599Y-113909860D01*
X134206399Y-113941764D01*
X134144382Y-114042882D01*
X134143255Y-114045093D01*
X134106763Y-114116653D01*
X134106758Y-114116663D01*
X134105634Y-114118868D01*
X134104686Y-114121154D01*
X134104685Y-114121157D01*
X134092524Y-114150495D01*
X134060205Y-114228459D01*
X134048007Y-114265973D01*
X134047436Y-114268348D01*
X134047433Y-114268360D01*
X134040312Y-114298001D01*
X134020295Y-114381317D01*
X134006402Y-114468967D01*
X134006207Y-114471437D01*
X134006206Y-114471448D01*
X133999567Y-114555676D01*
X133997087Y-114587145D01*
X133997082Y-114626563D01*
X133455000Y-114626563D01*
X133455000Y-108610000D01*
X137214540Y-108610000D01*
X137234326Y-108798256D01*
X137292821Y-108978284D01*
X137387467Y-109142216D01*
X137514129Y-109282888D01*
X137667270Y-109394151D01*
X137840197Y-109471144D01*
X137924030Y-109488963D01*
X138018897Y-109509128D01*
X138018901Y-109509128D01*
X138025354Y-109510500D01*
X138214646Y-109510500D01*
X138221101Y-109509128D01*
X138221110Y-109509127D01*
X138254346Y-109502062D01*
X138295773Y-109500232D01*
X138323833Y-109503649D01*
X138343485Y-109505264D01*
X138344696Y-109505316D01*
X138344714Y-109505317D01*
X138381862Y-109506908D01*
X138381882Y-109506908D01*
X138383062Y-109506959D01*
X140338239Y-109514017D01*
X140368091Y-109512949D01*
X140376767Y-109512639D01*
X140376771Y-109512639D01*
X140377995Y-109512595D01*
X140397756Y-109511108D01*
X140418505Y-109508723D01*
X140436032Y-109506708D01*
X140436052Y-109506705D01*
X140437281Y-109506564D01*
X140438495Y-109506376D01*
X140438508Y-109506374D01*
X140463470Y-109502503D01*
X140524016Y-109493115D01*
X140569513Y-109494380D01*
X140613122Y-109503649D01*
X140638898Y-109509128D01*
X140638900Y-109509128D01*
X140645354Y-109510500D01*
X140834646Y-109510500D01*
X140841099Y-109509128D01*
X140841103Y-109509128D01*
X140935970Y-109488963D01*
X141019803Y-109471144D01*
X141192730Y-109394151D01*
X141345871Y-109282888D01*
X141472533Y-109142216D01*
X141567179Y-108978284D01*
X141625674Y-108798256D01*
X141645460Y-108610000D01*
X141630683Y-108469398D01*
X141626364Y-108428307D01*
X141626364Y-108428305D01*
X141625674Y-108421744D01*
X141567179Y-108241716D01*
X141472533Y-108077784D01*
X141427513Y-108027784D01*
X141350286Y-107942015D01*
X141350284Y-107942014D01*
X141345871Y-107937112D01*
X141192730Y-107825849D01*
X141019803Y-107748856D01*
X140907446Y-107724974D01*
X140841103Y-107710872D01*
X140841099Y-107710872D01*
X140834646Y-107709500D01*
X140645354Y-107709500D01*
X140638902Y-107710872D01*
X140638897Y-107710872D01*
X140572554Y-107724974D01*
X140526647Y-107726176D01*
X140449293Y-107713925D01*
X140438869Y-107712274D01*
X140437661Y-107712131D01*
X140437639Y-107712128D01*
X140400667Y-107707753D01*
X140400660Y-107707752D01*
X140399449Y-107707609D01*
X140398239Y-107707514D01*
X140398231Y-107707513D01*
X140380965Y-107706154D01*
X140380941Y-107706153D01*
X140379739Y-107706058D01*
X140378528Y-107706010D01*
X140378504Y-107706009D01*
X140350852Y-107704923D01*
X140340083Y-107704500D01*
X138384919Y-107704500D01*
X138374150Y-107704923D01*
X138346498Y-107706009D01*
X138346474Y-107706010D01*
X138345263Y-107706058D01*
X138344061Y-107706153D01*
X138344037Y-107706154D01*
X138326771Y-107707513D01*
X138326763Y-107707514D01*
X138325553Y-107707609D01*
X138324342Y-107707752D01*
X138324335Y-107707753D01*
X138310954Y-107709337D01*
X138286133Y-107712274D01*
X138284942Y-107712463D01*
X138284932Y-107712464D01*
X138275705Y-107713925D01*
X138229810Y-107712723D01*
X138228610Y-107712468D01*
X138214646Y-107709500D01*
X138025354Y-107709500D01*
X138018901Y-107710872D01*
X138018897Y-107710872D01*
X137952554Y-107724974D01*
X137840197Y-107748856D01*
X137667270Y-107825849D01*
X137514129Y-107937112D01*
X137509716Y-107942014D01*
X137509714Y-107942015D01*
X137432487Y-108027784D01*
X137387467Y-108077784D01*
X137292821Y-108241716D01*
X137234326Y-108421744D01*
X137233636Y-108428305D01*
X137233636Y-108428307D01*
X137229317Y-108469398D01*
X137214540Y-108610000D01*
X133455000Y-108610000D01*
X133455000Y-103865000D01*
X181424583Y-103865000D01*
X181431192Y-109506564D01*
G37*
%TD.AperFunction*%
%TD*%
%TA.AperFunction,Conductor*%
%TO.N,GND*%
G36*
X194353440Y-79288502D02*
G01*
X194385281Y-79317796D01*
X194422914Y-79366840D01*
X194439361Y-79395326D01*
X194476615Y-79485265D01*
X194485128Y-79517037D01*
X194498922Y-79621812D01*
X194500000Y-79638258D01*
X194500000Y-103900000D01*
X183255500Y-103900000D01*
X183255500Y-97950346D01*
X183275502Y-97882225D01*
X183329158Y-97835732D01*
X183399432Y-97825628D01*
X183464012Y-97855122D01*
X183470594Y-97861250D01*
X184407576Y-98798233D01*
X185147995Y-99538652D01*
X185182021Y-99600964D01*
X185184209Y-99614573D01*
X185189326Y-99663256D01*
X185247821Y-99843284D01*
X185342467Y-100007216D01*
X185469129Y-100147888D01*
X185622270Y-100259151D01*
X185795197Y-100336144D01*
X185893212Y-100356978D01*
X185973897Y-100374128D01*
X185973901Y-100374128D01*
X185980354Y-100375500D01*
X186169646Y-100375500D01*
X186176099Y-100374128D01*
X186176103Y-100374128D01*
X186256788Y-100356978D01*
X186354803Y-100336144D01*
X186527730Y-100259151D01*
X186680871Y-100147888D01*
X186807533Y-100007216D01*
X186902179Y-99843284D01*
X186960674Y-99663256D01*
X186980460Y-99475000D01*
X186960674Y-99286744D01*
X186902179Y-99106716D01*
X186807533Y-98942784D01*
X186680871Y-98802112D01*
X186527730Y-98690849D01*
X186354803Y-98613856D01*
X186256636Y-98592990D01*
X186200449Y-98581047D01*
X186137551Y-98546895D01*
X184512405Y-96921748D01*
X184478379Y-96859436D01*
X184475500Y-96832653D01*
X184475500Y-84915151D01*
X185370585Y-84915151D01*
X185372129Y-84954456D01*
X185377763Y-85097820D01*
X185381152Y-85184083D01*
X185381952Y-85188463D01*
X185418965Y-85391128D01*
X185429505Y-85448843D01*
X185514682Y-85704148D01*
X185516674Y-85708135D01*
X185516675Y-85708137D01*
X185620463Y-85915849D01*
X185634981Y-85944905D01*
X185788003Y-86166309D01*
X185791025Y-86169578D01*
X185967679Y-86360682D01*
X185967684Y-86360687D01*
X185970695Y-86363944D01*
X186179411Y-86533866D01*
X186183229Y-86536165D01*
X186183231Y-86536166D01*
X186368954Y-86647980D01*
X186409987Y-86672684D01*
X186422634Y-86678039D01*
X186477560Y-86723018D01*
X186499500Y-86794064D01*
X186499500Y-89390143D01*
X186482619Y-89453143D01*
X186441146Y-89524977D01*
X186422821Y-89556716D01*
X186364326Y-89736744D01*
X186344540Y-89925000D01*
X186345230Y-89931565D01*
X186362352Y-90094470D01*
X186364326Y-90113256D01*
X186422821Y-90293284D01*
X186426124Y-90299006D01*
X186426125Y-90299007D01*
X186486094Y-90402876D01*
X186517467Y-90457216D01*
X186521885Y-90462123D01*
X186521886Y-90462124D01*
X186626223Y-90578001D01*
X186644129Y-90597888D01*
X186649468Y-90601767D01*
X186779738Y-90696413D01*
X186797270Y-90709151D01*
X186970197Y-90786144D01*
X187068212Y-90806978D01*
X187148897Y-90824128D01*
X187148901Y-90824128D01*
X187155354Y-90825500D01*
X187344646Y-90825500D01*
X187351099Y-90824128D01*
X187351103Y-90824128D01*
X187431788Y-90806978D01*
X187529803Y-90786144D01*
X187702730Y-90709151D01*
X187720263Y-90696413D01*
X187850532Y-90601767D01*
X187855871Y-90597888D01*
X187873778Y-90578001D01*
X187978114Y-90462124D01*
X187978115Y-90462123D01*
X187982533Y-90457216D01*
X188013906Y-90402876D01*
X188073875Y-90299007D01*
X188073876Y-90299006D01*
X188077179Y-90293284D01*
X188135674Y-90113256D01*
X188137649Y-90094470D01*
X188154770Y-89931565D01*
X188155460Y-89925000D01*
X188135674Y-89736744D01*
X188077179Y-89556716D01*
X188058855Y-89524977D01*
X188017381Y-89453143D01*
X188000500Y-89390143D01*
X188000500Y-86814254D01*
X188020502Y-86746133D01*
X188071954Y-86700673D01*
X188219025Y-86630051D01*
X188222731Y-86627575D01*
X188439098Y-86483004D01*
X188439102Y-86483001D01*
X188442806Y-86480526D01*
X188446123Y-86477555D01*
X188446127Y-86477552D01*
X188639970Y-86303931D01*
X188643286Y-86300961D01*
X188702224Y-86230846D01*
X188813601Y-86098348D01*
X188813606Y-86098342D01*
X188816465Y-86094940D01*
X188958887Y-85866572D01*
X188963050Y-85857157D01*
X189024988Y-85717056D01*
X189067712Y-85620416D01*
X189140767Y-85361382D01*
X189153157Y-85269135D01*
X189176168Y-85097820D01*
X189176169Y-85097812D01*
X189176595Y-85094638D01*
X189180355Y-84975000D01*
X189175868Y-84911619D01*
X189161662Y-84710982D01*
X189161347Y-84706533D01*
X189153590Y-84670500D01*
X189105636Y-84447771D01*
X189104700Y-84443423D01*
X189086022Y-84392792D01*
X189013090Y-84195101D01*
X189013089Y-84195099D01*
X189011547Y-84190919D01*
X188980249Y-84132913D01*
X188885857Y-83957976D01*
X188883744Y-83954060D01*
X188723843Y-83737571D01*
X188535034Y-83545772D01*
X188483859Y-83506716D01*
X188426578Y-83463001D01*
X188321083Y-83382490D01*
X188268434Y-83353005D01*
X188090147Y-83253159D01*
X188090144Y-83253158D01*
X188086261Y-83250983D01*
X188082122Y-83249382D01*
X188082114Y-83249378D01*
X187843367Y-83157015D01*
X187835251Y-83153875D01*
X187830926Y-83152872D01*
X187830921Y-83152871D01*
X187680631Y-83118036D01*
X187573063Y-83093103D01*
X187304928Y-83069880D01*
X187300493Y-83070124D01*
X187300489Y-83070124D01*
X187191324Y-83076132D01*
X187036196Y-83084669D01*
X187031833Y-83085537D01*
X187031832Y-83085537D01*
X186776596Y-83136307D01*
X186776594Y-83136308D01*
X186772228Y-83137176D01*
X186518292Y-83226352D01*
X186279455Y-83350418D01*
X186275840Y-83353001D01*
X186275834Y-83353005D01*
X186170170Y-83428514D01*
X186060481Y-83506899D01*
X186057254Y-83509977D01*
X186057252Y-83509979D01*
X185924368Y-83636744D01*
X185865740Y-83692672D01*
X185699118Y-83904032D01*
X185667785Y-83957976D01*
X185566173Y-84132913D01*
X185566170Y-84132919D01*
X185563939Y-84136760D01*
X185462900Y-84386213D01*
X185461829Y-84390526D01*
X185461827Y-84390531D01*
X185422555Y-84548632D01*
X185398017Y-84647414D01*
X185370585Y-84915151D01*
X184475500Y-84915151D01*
X184475500Y-84441071D01*
X184499564Y-84367010D01*
X184503115Y-84362123D01*
X184507533Y-84357216D01*
X184513514Y-84346857D01*
X184598875Y-84199007D01*
X184598876Y-84199006D01*
X184602179Y-84193284D01*
X184660674Y-84013256D01*
X184680460Y-83825000D01*
X184671648Y-83741157D01*
X184661364Y-83643307D01*
X184661364Y-83643305D01*
X184660674Y-83636744D01*
X184602179Y-83456716D01*
X184539704Y-83348505D01*
X184510836Y-83298505D01*
X184507533Y-83292784D01*
X184503114Y-83287876D01*
X184385286Y-83157015D01*
X184385284Y-83157014D01*
X184380871Y-83152112D01*
X184301891Y-83094730D01*
X184233072Y-83044730D01*
X184233071Y-83044729D01*
X184227730Y-83040849D01*
X184054803Y-82963856D01*
X183956788Y-82943022D01*
X183876103Y-82925872D01*
X183876099Y-82925872D01*
X183869646Y-82924500D01*
X183680354Y-82924500D01*
X183673901Y-82925872D01*
X183673897Y-82925872D01*
X183593212Y-82943022D01*
X183495197Y-82963856D01*
X183322270Y-83040849D01*
X183316928Y-83044730D01*
X183316925Y-83044732D01*
X183300559Y-83056622D01*
X183233691Y-83080480D01*
X183164540Y-83064398D01*
X183115061Y-83013483D01*
X183100500Y-82954685D01*
X183100500Y-82356454D01*
X183101933Y-82337504D01*
X183104048Y-82323604D01*
X183104048Y-82323600D01*
X183105148Y-82316370D01*
X183100915Y-82264325D01*
X183100500Y-82254111D01*
X183100500Y-82246178D01*
X183097246Y-82218264D01*
X183096813Y-82213889D01*
X183091554Y-82149236D01*
X183090961Y-82141941D01*
X183088706Y-82134979D01*
X183087548Y-82129184D01*
X183086191Y-82123442D01*
X183085343Y-82116172D01*
X183060694Y-82048264D01*
X183059277Y-82044136D01*
X183039283Y-81982417D01*
X183039282Y-81982415D01*
X183037027Y-81975454D01*
X183033232Y-81969200D01*
X183030769Y-81963821D01*
X183028127Y-81958545D01*
X183025631Y-81951669D01*
X182986046Y-81891291D01*
X182983705Y-81887581D01*
X182949152Y-81830639D01*
X182949147Y-81830632D01*
X182946239Y-81825840D01*
X182938915Y-81817548D01*
X182938940Y-81817526D01*
X182936194Y-81814431D01*
X182933691Y-81811437D01*
X182929677Y-81805315D01*
X182874047Y-81752616D01*
X182871606Y-81750239D01*
X182017678Y-80896311D01*
X182005291Y-80881898D01*
X181996959Y-80870575D01*
X181996955Y-80870571D01*
X181992617Y-80864676D01*
X181952800Y-80830849D01*
X181945296Y-80823929D01*
X181939697Y-80818330D01*
X181917649Y-80800886D01*
X181914273Y-80798117D01*
X181864825Y-80756108D01*
X181864822Y-80756106D01*
X181859245Y-80751368D01*
X181852726Y-80748040D01*
X181847816Y-80744765D01*
X181842796Y-80741664D01*
X181837051Y-80737119D01*
X181771651Y-80706553D01*
X181767705Y-80704625D01*
X181709903Y-80675110D01*
X181703384Y-80671781D01*
X181696275Y-80670042D01*
X181690740Y-80667983D01*
X181685132Y-80666117D01*
X181678507Y-80663021D01*
X181671347Y-80661532D01*
X181671345Y-80661531D01*
X181607807Y-80648315D01*
X181603518Y-80647344D01*
X181586903Y-80643279D01*
X181533394Y-80630185D01*
X181527794Y-80629838D01*
X181527790Y-80629837D01*
X181522352Y-80629500D01*
X181522354Y-80629468D01*
X181518224Y-80629221D01*
X181514344Y-80628875D01*
X181507169Y-80627382D01*
X181499848Y-80627580D01*
X181499847Y-80627580D01*
X181430600Y-80629454D01*
X181427192Y-80629500D01*
X133581000Y-80629500D01*
X133512879Y-80609498D01*
X133466386Y-80555842D01*
X133455000Y-80503500D01*
X133455000Y-79638258D01*
X133456078Y-79621812D01*
X133469872Y-79517037D01*
X133478385Y-79485265D01*
X133515639Y-79395326D01*
X133532086Y-79366840D01*
X133569719Y-79317796D01*
X133627057Y-79275929D01*
X133669681Y-79268500D01*
X194285319Y-79268500D01*
X194353440Y-79288502D01*
G37*
%TD.AperFunction*%
%TA.AperFunction,Conductor*%
G36*
X181145064Y-82150502D02*
G01*
X181166038Y-82167405D01*
X181562595Y-82563962D01*
X181596621Y-82626274D01*
X181599500Y-82653057D01*
X181599500Y-86968500D01*
X181579498Y-87036621D01*
X181525842Y-87083114D01*
X181473500Y-87094500D01*
X181167085Y-87094500D01*
X181098964Y-87074498D01*
X181052471Y-87020842D01*
X181042367Y-86950568D01*
X181047252Y-86929563D01*
X181058635Y-86894531D01*
X181060674Y-86888256D01*
X181080460Y-86700000D01*
X181072848Y-86627575D01*
X181061364Y-86518307D01*
X181061364Y-86518305D01*
X181060674Y-86511744D01*
X181002179Y-86331716D01*
X180991125Y-86312569D01*
X180910836Y-86173505D01*
X180907533Y-86167784D01*
X180855723Y-86110243D01*
X180785286Y-86032015D01*
X180785284Y-86032014D01*
X180780871Y-86027112D01*
X180712334Y-85977317D01*
X180633072Y-85919730D01*
X180633071Y-85919729D01*
X180627730Y-85915849D01*
X180454803Y-85838856D01*
X180338339Y-85814101D01*
X180276103Y-85800872D01*
X180276099Y-85800872D01*
X180269646Y-85799500D01*
X180194379Y-85799500D01*
X180182028Y-85798893D01*
X180162139Y-85796934D01*
X180158638Y-85796762D01*
X180114145Y-85794576D01*
X180114129Y-85794576D01*
X180112590Y-85794500D01*
X175258258Y-85794500D01*
X175257292Y-85794532D01*
X175257268Y-85794532D01*
X175226191Y-85795549D01*
X175226167Y-85795550D01*
X175225195Y-85795582D01*
X175224207Y-85795647D01*
X175224182Y-85795648D01*
X175215969Y-85796187D01*
X175208749Y-85796660D01*
X175175830Y-85799903D01*
X175174809Y-85800037D01*
X175174804Y-85800038D01*
X175140905Y-85804501D01*
X175071055Y-85813697D01*
X175069028Y-85814100D01*
X175069023Y-85814101D01*
X175008247Y-85826189D01*
X175008234Y-85826192D01*
X175006208Y-85826595D01*
X175004209Y-85827131D01*
X175004203Y-85827132D01*
X174994294Y-85829787D01*
X174974436Y-85835108D01*
X174972482Y-85835771D01*
X174972483Y-85835771D01*
X174913787Y-85855695D01*
X174913770Y-85855701D01*
X174911818Y-85856364D01*
X174909909Y-85857155D01*
X174909903Y-85857157D01*
X174897007Y-85862499D01*
X174821879Y-85893618D01*
X174762569Y-85922867D01*
X174760789Y-85923895D01*
X174760781Y-85923899D01*
X174757638Y-85925714D01*
X174734083Y-85939314D01*
X174725716Y-85944905D01*
X174680846Y-85974886D01*
X174680832Y-85974896D01*
X174679111Y-85976046D01*
X174677463Y-85977310D01*
X174677454Y-85977317D01*
X174642618Y-86004048D01*
X174601878Y-86035309D01*
X174600333Y-86036664D01*
X174600322Y-86036673D01*
X174559091Y-86072833D01*
X174552165Y-86078907D01*
X174528907Y-86102165D01*
X174527553Y-86103709D01*
X174486673Y-86150322D01*
X174486664Y-86150333D01*
X174485309Y-86151878D01*
X174484043Y-86153528D01*
X174429760Y-86224271D01*
X174426046Y-86229111D01*
X174424896Y-86230832D01*
X174424886Y-86230846D01*
X174402637Y-86264144D01*
X174389314Y-86284083D01*
X174372867Y-86312569D01*
X174343618Y-86371879D01*
X174342829Y-86373785D01*
X174309853Y-86453396D01*
X174306364Y-86461818D01*
X174305701Y-86463770D01*
X174305695Y-86463787D01*
X174301023Y-86477552D01*
X174285108Y-86524436D01*
X174276595Y-86556208D01*
X174263697Y-86621055D01*
X174249903Y-86725830D01*
X174246660Y-86758749D01*
X174245582Y-86775195D01*
X174245550Y-86776167D01*
X174245549Y-86776191D01*
X174244532Y-86807268D01*
X174244500Y-86808258D01*
X174244500Y-89890083D01*
X174244549Y-89891326D01*
X174245872Y-89925000D01*
X174246058Y-89929739D01*
X174246153Y-89930941D01*
X174246154Y-89930965D01*
X174247513Y-89948231D01*
X174247609Y-89949449D01*
X174252274Y-89988869D01*
X174260293Y-90039500D01*
X174265220Y-90070609D01*
X174264143Y-90111725D01*
X174264326Y-90111744D01*
X174263635Y-90118315D01*
X174263635Y-90118317D01*
X174251368Y-90235035D01*
X174244540Y-90300000D01*
X174245230Y-90306565D01*
X174261064Y-90457216D01*
X174264326Y-90488256D01*
X174322821Y-90668284D01*
X174326124Y-90674006D01*
X174326125Y-90674007D01*
X174374796Y-90758307D01*
X174417467Y-90832216D01*
X174421885Y-90837123D01*
X174421886Y-90837124D01*
X174538845Y-90967019D01*
X174544129Y-90972888D01*
X174549468Y-90976767D01*
X174654067Y-91052762D01*
X174697270Y-91084151D01*
X174870197Y-91161144D01*
X174950892Y-91178296D01*
X175048897Y-91199128D01*
X175048901Y-91199128D01*
X175055354Y-91200500D01*
X175244646Y-91200500D01*
X175251099Y-91199128D01*
X175251103Y-91199128D01*
X175401184Y-91167227D01*
X175426599Y-91161825D01*
X175497389Y-91167227D01*
X175554022Y-91210044D01*
X175572627Y-91246135D01*
X175592821Y-91308284D01*
X175687467Y-91472216D01*
X175814129Y-91612888D01*
X175967270Y-91724151D01*
X176140197Y-91801144D01*
X176238212Y-91821978D01*
X176318897Y-91839128D01*
X176318901Y-91839128D01*
X176325354Y-91840500D01*
X176514646Y-91840500D01*
X176521099Y-91839128D01*
X176521103Y-91839128D01*
X176601788Y-91821978D01*
X176699803Y-91801144D01*
X176872730Y-91724151D01*
X177025871Y-91612888D01*
X177152533Y-91472216D01*
X177247179Y-91308284D01*
X177305674Y-91128256D01*
X177307045Y-91115217D01*
X177324770Y-90946565D01*
X177325460Y-90940000D01*
X177314132Y-90832216D01*
X177306364Y-90758307D01*
X177306364Y-90758305D01*
X177305674Y-90751744D01*
X177247179Y-90571716D01*
X177198994Y-90488256D01*
X177155836Y-90413505D01*
X177152533Y-90407784D01*
X177148114Y-90402876D01*
X177030286Y-90272015D01*
X177030284Y-90272014D01*
X177025871Y-90267112D01*
X176872730Y-90155849D01*
X176699803Y-90078856D01*
X176601788Y-90058022D01*
X176521103Y-90040872D01*
X176521099Y-90040872D01*
X176514646Y-90039500D01*
X176325354Y-90039500D01*
X176318901Y-90040872D01*
X176318897Y-90040872D01*
X176205587Y-90064957D01*
X176134796Y-90059555D01*
X176078163Y-90016738D01*
X176053670Y-89950100D01*
X176053776Y-89932213D01*
X176053772Y-89932213D01*
X176053776Y-89932142D01*
X176053778Y-89931834D01*
X176053843Y-89931005D01*
X176053845Y-89930973D01*
X176053942Y-89929739D01*
X176054129Y-89925000D01*
X176055451Y-89891326D01*
X176055500Y-89890083D01*
X176055500Y-87381500D01*
X176075502Y-87313379D01*
X176129158Y-87266886D01*
X176181500Y-87255500D01*
X176867645Y-87255500D01*
X176935766Y-87275502D01*
X176982259Y-87329158D01*
X176992363Y-87399432D01*
X176991196Y-87405990D01*
X176989326Y-87411744D01*
X176969540Y-87600000D01*
X176989326Y-87788256D01*
X177047821Y-87968284D01*
X177051124Y-87974006D01*
X177051125Y-87974007D01*
X177078411Y-88021268D01*
X177142467Y-88132216D01*
X177146885Y-88137123D01*
X177146886Y-88137124D01*
X177250590Y-88252298D01*
X177269129Y-88272888D01*
X177274468Y-88276767D01*
X177348119Y-88330277D01*
X177422270Y-88384151D01*
X177595197Y-88461144D01*
X177693212Y-88481978D01*
X177773897Y-88499128D01*
X177773901Y-88499128D01*
X177780354Y-88500500D01*
X177830623Y-88500500D01*
X177842973Y-88501107D01*
X177862863Y-88503066D01*
X177885475Y-88504177D01*
X177910855Y-88505424D01*
X177910871Y-88505424D01*
X177912410Y-88505500D01*
X181318500Y-88505500D01*
X181386621Y-88525502D01*
X181433114Y-88579158D01*
X181444500Y-88631500D01*
X181444500Y-94693500D01*
X181424498Y-94761621D01*
X181370842Y-94808114D01*
X181318500Y-94819500D01*
X177249392Y-94819500D01*
X177181271Y-94799498D01*
X177134778Y-94745842D01*
X177124674Y-94675568D01*
X177151211Y-94618905D01*
X177149232Y-94617467D01*
X177153114Y-94612124D01*
X177157533Y-94607216D01*
X177243519Y-94458284D01*
X177248875Y-94449007D01*
X177248876Y-94449006D01*
X177252179Y-94443284D01*
X177310674Y-94263256D01*
X177330460Y-94075000D01*
X177329101Y-94062074D01*
X177311364Y-93893307D01*
X177311364Y-93893305D01*
X177310674Y-93886744D01*
X177287504Y-93815434D01*
X177285476Y-93744469D01*
X177322138Y-93683671D01*
X177385850Y-93652346D01*
X177407337Y-93650500D01*
X179285014Y-93650500D01*
X179353135Y-93670502D01*
X179359076Y-93674565D01*
X179366927Y-93680270D01*
X179366933Y-93680273D01*
X179372270Y-93684151D01*
X179545197Y-93761144D01*
X179643212Y-93781978D01*
X179723897Y-93799128D01*
X179723901Y-93799128D01*
X179730354Y-93800500D01*
X179919646Y-93800500D01*
X179926099Y-93799128D01*
X179926103Y-93799128D01*
X180006788Y-93781978D01*
X180104803Y-93761144D01*
X180277730Y-93684151D01*
X180296517Y-93670502D01*
X180425532Y-93576767D01*
X180430871Y-93572888D01*
X180536591Y-93455475D01*
X180553114Y-93437124D01*
X180553115Y-93437123D01*
X180557533Y-93432216D01*
X180569442Y-93411589D01*
X180648875Y-93274007D01*
X180648876Y-93274006D01*
X180652179Y-93268284D01*
X180710674Y-93088256D01*
X180730460Y-92900000D01*
X180710674Y-92711744D01*
X180652179Y-92531716D01*
X180557533Y-92367784D01*
X180430871Y-92227112D01*
X180323763Y-92149294D01*
X180283072Y-92119730D01*
X180283071Y-92119729D01*
X180277730Y-92115849D01*
X180104803Y-92038856D01*
X180006788Y-92018022D01*
X179926103Y-92000872D01*
X179926099Y-92000872D01*
X179919646Y-91999500D01*
X179730354Y-91999500D01*
X179723901Y-92000872D01*
X179723897Y-92000872D01*
X179643212Y-92018022D01*
X179545197Y-92038856D01*
X179372270Y-92115849D01*
X179366933Y-92119727D01*
X179366927Y-92119730D01*
X179359076Y-92125435D01*
X179292209Y-92149294D01*
X179285014Y-92149500D01*
X172851500Y-92149500D01*
X172783379Y-92129498D01*
X172736886Y-92075842D01*
X172725500Y-92023500D01*
X172725500Y-84409857D01*
X172742381Y-84346857D01*
X172798875Y-84249007D01*
X172798876Y-84249006D01*
X172802179Y-84243284D01*
X172860674Y-84063256D01*
X172880460Y-83875000D01*
X172866393Y-83741157D01*
X172861364Y-83693307D01*
X172861364Y-83693305D01*
X172860674Y-83686744D01*
X172802179Y-83506716D01*
X172707533Y-83342784D01*
X172662513Y-83292784D01*
X172585286Y-83207015D01*
X172585284Y-83207014D01*
X172580871Y-83202112D01*
X172490298Y-83136307D01*
X172433072Y-83094730D01*
X172433071Y-83094729D01*
X172427730Y-83090849D01*
X172254803Y-83013856D01*
X172155774Y-82992807D01*
X172076103Y-82975872D01*
X172076099Y-82975872D01*
X172069646Y-82974500D01*
X171880354Y-82974500D01*
X171873901Y-82975872D01*
X171873897Y-82975872D01*
X171794226Y-82992807D01*
X171695197Y-83013856D01*
X171522270Y-83090849D01*
X171516929Y-83094729D01*
X171516928Y-83094730D01*
X171459702Y-83136307D01*
X171369129Y-83202112D01*
X171364716Y-83207014D01*
X171364714Y-83207015D01*
X171287487Y-83292784D01*
X171242467Y-83342784D01*
X171147821Y-83506716D01*
X171089326Y-83686744D01*
X171088636Y-83693305D01*
X171088636Y-83693307D01*
X171083607Y-83741157D01*
X171069540Y-83875000D01*
X171089326Y-84063256D01*
X171147821Y-84243284D01*
X171151124Y-84249006D01*
X171151125Y-84249007D01*
X171207619Y-84346857D01*
X171224500Y-84409857D01*
X171224500Y-85897702D01*
X171204498Y-85965823D01*
X171150842Y-86012316D01*
X171080568Y-86022420D01*
X171026229Y-86000915D01*
X171007639Y-85987898D01*
X171002657Y-85985575D01*
X171002652Y-85985572D01*
X170814312Y-85897748D01*
X170814311Y-85897747D01*
X170809330Y-85895425D01*
X170804022Y-85894003D01*
X170804020Y-85894002D01*
X170738255Y-85876380D01*
X170597977Y-85838793D01*
X170380000Y-85819723D01*
X170162023Y-85838793D01*
X170021745Y-85876380D01*
X169955980Y-85894002D01*
X169955978Y-85894003D01*
X169950670Y-85895425D01*
X169945690Y-85897747D01*
X169945688Y-85897748D01*
X169757343Y-85985575D01*
X169757340Y-85985577D01*
X169752362Y-85987898D01*
X169573123Y-86113402D01*
X169418402Y-86268123D01*
X169292898Y-86447362D01*
X169290577Y-86452340D01*
X169290575Y-86452343D01*
X169224195Y-86594695D01*
X169177277Y-86647980D01*
X169109000Y-86667441D01*
X169041040Y-86646899D01*
X168995805Y-86594695D01*
X168929425Y-86452343D01*
X168929423Y-86452340D01*
X168927102Y-86447362D01*
X168801598Y-86268123D01*
X168646877Y-86113402D01*
X168642369Y-86110245D01*
X168642366Y-86110243D01*
X168472148Y-85991055D01*
X168472145Y-85991053D01*
X168467639Y-85987898D01*
X168462657Y-85985575D01*
X168462652Y-85985572D01*
X168274312Y-85897748D01*
X168274311Y-85897747D01*
X168269330Y-85895425D01*
X168264022Y-85894003D01*
X168264020Y-85894002D01*
X168198255Y-85876380D01*
X168057977Y-85838793D01*
X167840000Y-85819723D01*
X167622023Y-85838793D01*
X167481745Y-85876380D01*
X167415980Y-85894002D01*
X167415978Y-85894003D01*
X167410670Y-85895425D01*
X167405690Y-85897747D01*
X167405688Y-85897748D01*
X167217343Y-85985575D01*
X167217340Y-85985577D01*
X167212362Y-85987898D01*
X167033123Y-86113402D01*
X166878402Y-86268123D01*
X166813592Y-86360682D01*
X166779712Y-86409068D01*
X166724255Y-86453396D01*
X166653636Y-86460705D01*
X166590275Y-86428674D01*
X166554290Y-86367473D01*
X166550499Y-86336797D01*
X166550499Y-86277624D01*
X166543851Y-86216420D01*
X166493526Y-86082176D01*
X166488146Y-86074997D01*
X166488144Y-86074994D01*
X166412928Y-85974635D01*
X166407546Y-85967454D01*
X166400365Y-85962072D01*
X166300006Y-85886856D01*
X166300003Y-85886854D01*
X166292824Y-85881474D01*
X166186312Y-85841545D01*
X166165975Y-85833921D01*
X166165973Y-85833921D01*
X166158580Y-85831149D01*
X166150730Y-85830296D01*
X166150729Y-85830296D01*
X166100774Y-85824869D01*
X166100773Y-85824869D01*
X166097377Y-85824500D01*
X165300117Y-85824500D01*
X164502624Y-85824501D01*
X164499230Y-85824870D01*
X164499224Y-85824870D01*
X164449278Y-85830295D01*
X164449274Y-85830296D01*
X164441420Y-85831149D01*
X164307176Y-85881474D01*
X164299997Y-85886854D01*
X164299994Y-85886856D01*
X164199635Y-85962072D01*
X164192454Y-85967454D01*
X164187072Y-85974635D01*
X164111856Y-86074994D01*
X164111854Y-86074997D01*
X164106474Y-86082176D01*
X164056149Y-86216420D01*
X164049500Y-86277623D01*
X164049501Y-87872376D01*
X164049870Y-87875770D01*
X164049870Y-87875776D01*
X164051838Y-87893889D01*
X164056149Y-87933580D01*
X164106474Y-88067824D01*
X164111854Y-88075003D01*
X164111856Y-88075006D01*
X164154733Y-88132216D01*
X164192454Y-88182546D01*
X164199635Y-88187928D01*
X164299994Y-88263144D01*
X164299997Y-88263146D01*
X164307176Y-88268526D01*
X164396561Y-88302034D01*
X164434025Y-88316079D01*
X164434027Y-88316079D01*
X164441420Y-88318851D01*
X164449270Y-88319704D01*
X164449271Y-88319704D01*
X164499217Y-88325130D01*
X164502623Y-88325500D01*
X165299883Y-88325500D01*
X166097376Y-88325499D01*
X166100770Y-88325130D01*
X166100776Y-88325130D01*
X166150722Y-88319705D01*
X166150726Y-88319704D01*
X166158580Y-88318851D01*
X166292824Y-88268526D01*
X166300003Y-88263146D01*
X166300006Y-88263144D01*
X166400365Y-88187928D01*
X166407546Y-88182546D01*
X166445267Y-88132216D01*
X166488144Y-88075006D01*
X166488146Y-88075003D01*
X166493526Y-88067824D01*
X166543851Y-87933580D01*
X166550500Y-87872377D01*
X166550500Y-87813204D01*
X166570502Y-87745083D01*
X166624158Y-87698590D01*
X166694432Y-87688486D01*
X166759012Y-87717980D01*
X166779713Y-87740934D01*
X166878402Y-87881877D01*
X167033123Y-88036598D01*
X167037631Y-88039755D01*
X167037634Y-88039757D01*
X167207852Y-88158945D01*
X167212361Y-88162102D01*
X167217343Y-88164425D01*
X167217348Y-88164428D01*
X167405688Y-88252252D01*
X167410670Y-88254575D01*
X167415978Y-88255997D01*
X167415980Y-88255998D01*
X167462736Y-88268526D01*
X167622023Y-88311207D01*
X167840000Y-88330277D01*
X168057977Y-88311207D01*
X168217264Y-88268526D01*
X168264020Y-88255998D01*
X168264022Y-88255997D01*
X168269330Y-88254575D01*
X168274312Y-88252252D01*
X168462652Y-88164428D01*
X168462657Y-88164425D01*
X168467639Y-88162102D01*
X168472148Y-88158945D01*
X168642366Y-88039757D01*
X168642369Y-88039755D01*
X168646877Y-88036598D01*
X168801598Y-87881877D01*
X168927102Y-87702638D01*
X168933702Y-87688486D01*
X168995805Y-87555305D01*
X169042723Y-87502020D01*
X169111000Y-87482559D01*
X169178960Y-87503101D01*
X169224195Y-87555305D01*
X169286299Y-87688486D01*
X169292898Y-87702638D01*
X169418402Y-87881877D01*
X169573123Y-88036598D01*
X169577631Y-88039755D01*
X169577634Y-88039757D01*
X169747852Y-88158945D01*
X169752361Y-88162102D01*
X169757343Y-88164425D01*
X169757348Y-88164428D01*
X169945688Y-88252252D01*
X169950670Y-88254575D01*
X169955978Y-88255997D01*
X169955980Y-88255998D01*
X170002736Y-88268526D01*
X170162023Y-88311207D01*
X170380000Y-88330277D01*
X170597977Y-88311207D01*
X170757264Y-88268526D01*
X170804020Y-88255998D01*
X170804022Y-88255997D01*
X170809330Y-88254575D01*
X170814312Y-88252252D01*
X171002652Y-88164428D01*
X171002657Y-88164425D01*
X171007639Y-88162102D01*
X171026229Y-88149085D01*
X171093503Y-88126397D01*
X171162363Y-88143682D01*
X171210947Y-88195451D01*
X171224500Y-88252298D01*
X171224500Y-92365143D01*
X171207619Y-92428143D01*
X171147821Y-92531716D01*
X171089326Y-92711744D01*
X171069540Y-92900000D01*
X171089326Y-93088256D01*
X171147821Y-93268284D01*
X171151125Y-93274007D01*
X171151126Y-93274009D01*
X171151988Y-93275502D01*
X171152224Y-93276475D01*
X171153809Y-93280035D01*
X171153158Y-93280325D01*
X171168725Y-93344497D01*
X171145503Y-93411589D01*
X171089696Y-93455475D01*
X171042868Y-93464500D01*
X168239638Y-93464500D01*
X168171517Y-93444498D01*
X168150230Y-93426403D01*
X168150198Y-93426439D01*
X168148950Y-93425315D01*
X168145998Y-93422806D01*
X168145291Y-93422021D01*
X168140871Y-93417112D01*
X168135529Y-93413231D01*
X168135527Y-93413229D01*
X167993072Y-93309730D01*
X167993071Y-93309729D01*
X167987730Y-93305849D01*
X167814803Y-93228856D01*
X167716788Y-93208022D01*
X167636103Y-93190872D01*
X167636099Y-93190872D01*
X167629646Y-93189500D01*
X167440354Y-93189500D01*
X167433901Y-93190872D01*
X167433897Y-93190872D01*
X167353212Y-93208022D01*
X167255197Y-93228856D01*
X167082270Y-93305849D01*
X166929129Y-93417112D01*
X166924716Y-93422014D01*
X166924714Y-93422015D01*
X166806886Y-93552876D01*
X166802467Y-93557784D01*
X166799164Y-93563505D01*
X166735044Y-93674565D01*
X166707821Y-93721716D01*
X166649326Y-93901744D01*
X166629540Y-94090000D01*
X166630230Y-94096565D01*
X166647060Y-94256693D01*
X166649326Y-94278256D01*
X166707821Y-94458284D01*
X166802467Y-94622216D01*
X166806885Y-94627123D01*
X166806886Y-94627124D01*
X166913781Y-94745842D01*
X166929129Y-94762888D01*
X166934468Y-94766767D01*
X166991378Y-94808114D01*
X167082270Y-94874151D01*
X167255197Y-94951144D01*
X167353212Y-94971978D01*
X167433897Y-94989128D01*
X167433901Y-94989128D01*
X167440354Y-94990500D01*
X167629646Y-94990500D01*
X167636099Y-94989128D01*
X167636103Y-94989128D01*
X167716788Y-94971978D01*
X167814803Y-94951144D01*
X167987730Y-94874151D01*
X168062951Y-94819500D01*
X168135527Y-94766771D01*
X168135529Y-94766769D01*
X168140871Y-94762888D01*
X168145998Y-94757194D01*
X168146521Y-94756872D01*
X168150198Y-94753561D01*
X168150803Y-94754233D01*
X168206442Y-94719952D01*
X168239638Y-94715500D01*
X170429415Y-94715500D01*
X170497536Y-94735502D01*
X170544029Y-94789158D01*
X170554133Y-94859432D01*
X170538534Y-94904500D01*
X170522821Y-94931716D01*
X170464326Y-95111744D01*
X170444540Y-95300000D01*
X170456626Y-95414994D01*
X170456238Y-95444601D01*
X170453238Y-95467391D01*
X170453238Y-95532609D01*
X170470460Y-95663434D01*
X170476429Y-95685712D01*
X170478011Y-95689531D01*
X170525353Y-95803830D01*
X170525356Y-95803837D01*
X170526930Y-95807636D01*
X170559542Y-95864122D01*
X170639877Y-95968815D01*
X170656185Y-95985123D01*
X170760870Y-96065453D01*
X170817350Y-96098063D01*
X170821156Y-96099640D01*
X170821159Y-96099641D01*
X170935456Y-96146986D01*
X170939268Y-96148565D01*
X170978143Y-96158982D01*
X170980176Y-96159386D01*
X170980183Y-96159388D01*
X170999792Y-96163288D01*
X171043009Y-96171884D01*
X171045059Y-96172154D01*
X171045072Y-96172156D01*
X171073567Y-96175907D01*
X171073581Y-96175908D01*
X171075614Y-96176176D01*
X171077669Y-96176311D01*
X171077672Y-96176311D01*
X171139538Y-96180366D01*
X171139547Y-96180366D01*
X171141587Y-96180500D01*
X171148016Y-96180500D01*
X171174213Y-96183253D01*
X171248897Y-96199128D01*
X171248901Y-96199128D01*
X171255354Y-96200500D01*
X171444646Y-96200500D01*
X171451099Y-96199128D01*
X171451103Y-96199128D01*
X171525787Y-96183253D01*
X171551984Y-96180500D01*
X176070311Y-96180500D01*
X176138432Y-96200502D01*
X176184925Y-96254158D01*
X176195029Y-96324432D01*
X176165535Y-96389012D01*
X176121560Y-96421606D01*
X176105263Y-96428862D01*
X175977270Y-96485849D01*
X175824129Y-96597112D01*
X175819716Y-96602014D01*
X175819714Y-96602015D01*
X175804871Y-96618500D01*
X175697467Y-96737784D01*
X175694164Y-96743505D01*
X175612563Y-96884843D01*
X175602821Y-96901716D01*
X175544326Y-97081744D01*
X175543636Y-97088305D01*
X175543636Y-97088307D01*
X175541396Y-97109622D01*
X175524540Y-97270000D01*
X175525230Y-97276565D01*
X175539570Y-97413001D01*
X175544326Y-97458256D01*
X175602821Y-97638284D01*
X175606124Y-97644006D01*
X175606125Y-97644007D01*
X175614449Y-97658425D01*
X175697467Y-97802216D01*
X175701885Y-97807123D01*
X175701886Y-97807124D01*
X175817486Y-97935510D01*
X175824129Y-97942888D01*
X175977270Y-98054151D01*
X176150197Y-98131144D01*
X176234237Y-98149007D01*
X176328897Y-98169128D01*
X176328901Y-98169128D01*
X176335354Y-98170500D01*
X176524646Y-98170500D01*
X176531099Y-98169128D01*
X176531103Y-98169128D01*
X176625763Y-98149007D01*
X176709803Y-98131144D01*
X176882730Y-98054151D01*
X177035871Y-97942888D01*
X177042515Y-97935510D01*
X177158114Y-97807124D01*
X177158115Y-97807123D01*
X177162533Y-97802216D01*
X177245551Y-97658425D01*
X177253875Y-97644007D01*
X177253876Y-97644006D01*
X177257179Y-97638284D01*
X177315674Y-97458256D01*
X177320431Y-97413001D01*
X177334770Y-97276565D01*
X177335460Y-97270000D01*
X177318604Y-97109622D01*
X177316364Y-97088307D01*
X177316364Y-97088305D01*
X177315674Y-97081744D01*
X177257179Y-96901716D01*
X177247438Y-96884843D01*
X177165836Y-96743505D01*
X177162533Y-96737784D01*
X177055129Y-96618500D01*
X177040286Y-96602015D01*
X177040284Y-96602014D01*
X177035871Y-96597112D01*
X176882730Y-96485849D01*
X176754737Y-96428862D01*
X176738440Y-96421606D01*
X176684344Y-96375626D01*
X176663695Y-96307699D01*
X176683048Y-96239391D01*
X176736259Y-96192390D01*
X176789689Y-96180500D01*
X181289730Y-96180500D01*
X181357851Y-96200502D01*
X181404344Y-96254158D01*
X181415730Y-96306352D01*
X181424624Y-103900000D01*
X133455000Y-103900000D01*
X133455000Y-98200557D01*
X133475002Y-98132436D01*
X133528658Y-98085943D01*
X133598932Y-98075839D01*
X133663512Y-98105333D01*
X133670095Y-98111462D01*
X136582322Y-101023689D01*
X136594709Y-101038102D01*
X136603041Y-101049425D01*
X136603045Y-101049429D01*
X136607383Y-101055324D01*
X136647200Y-101089151D01*
X136654704Y-101096071D01*
X136660303Y-101101670D01*
X136682351Y-101119114D01*
X136685727Y-101121883D01*
X136735175Y-101163892D01*
X136735178Y-101163894D01*
X136740755Y-101168632D01*
X136747274Y-101171960D01*
X136752184Y-101175235D01*
X136757204Y-101178336D01*
X136762949Y-101182881D01*
X136769587Y-101185983D01*
X136769588Y-101185984D01*
X136828343Y-101213444D01*
X136832289Y-101215372D01*
X136896616Y-101248219D01*
X136903728Y-101249959D01*
X136909251Y-101252013D01*
X136914860Y-101253879D01*
X136921493Y-101256979D01*
X136992190Y-101271685D01*
X136996448Y-101272648D01*
X137066606Y-101289815D01*
X137072211Y-101290163D01*
X137072213Y-101290163D01*
X137077648Y-101290500D01*
X137077646Y-101290532D01*
X137081775Y-101290779D01*
X137085655Y-101291125D01*
X137092830Y-101292618D01*
X137100151Y-101292420D01*
X137100152Y-101292420D01*
X137169399Y-101290546D01*
X137172807Y-101290500D01*
X165968546Y-101290500D01*
X165987496Y-101291933D01*
X166001396Y-101294048D01*
X166001400Y-101294048D01*
X166008630Y-101295148D01*
X166015922Y-101294555D01*
X166015925Y-101294555D01*
X166060675Y-101290915D01*
X166070889Y-101290500D01*
X166078822Y-101290500D01*
X166088118Y-101289416D01*
X166106736Y-101287246D01*
X166111111Y-101286813D01*
X166141274Y-101284360D01*
X166183059Y-101280961D01*
X166190021Y-101278706D01*
X166195816Y-101277548D01*
X166201558Y-101276191D01*
X166208828Y-101275343D01*
X166276736Y-101250694D01*
X166280864Y-101249277D01*
X166342583Y-101229283D01*
X166342585Y-101229282D01*
X166349546Y-101227027D01*
X166355800Y-101223232D01*
X166361179Y-101220769D01*
X166366455Y-101218127D01*
X166373331Y-101215631D01*
X166433709Y-101176046D01*
X166437419Y-101173705D01*
X166494361Y-101139152D01*
X166494368Y-101139147D01*
X166499160Y-101136239D01*
X166507452Y-101128915D01*
X166507474Y-101128940D01*
X166510569Y-101126194D01*
X166513563Y-101123691D01*
X166519685Y-101119677D01*
X166572384Y-101064047D01*
X166574761Y-101061606D01*
X168952349Y-98684018D01*
X169015247Y-98649866D01*
X169073341Y-98637518D01*
X169073345Y-98637517D01*
X169079803Y-98636144D01*
X169252730Y-98559151D01*
X169405871Y-98447888D01*
X169532533Y-98307216D01*
X169542768Y-98289488D01*
X169623875Y-98149007D01*
X169623876Y-98149006D01*
X169627179Y-98143284D01*
X169685674Y-97963256D01*
X169686495Y-97955451D01*
X169704770Y-97781565D01*
X169705460Y-97775000D01*
X169696003Y-97685019D01*
X169686364Y-97593307D01*
X169686364Y-97593305D01*
X169685674Y-97586744D01*
X169627179Y-97406716D01*
X169532533Y-97242784D01*
X169528114Y-97237876D01*
X169410286Y-97107015D01*
X169410284Y-97107014D01*
X169405871Y-97102112D01*
X169252730Y-96990849D01*
X169079803Y-96913856D01*
X168981788Y-96893022D01*
X168901103Y-96875872D01*
X168901099Y-96875872D01*
X168894646Y-96874500D01*
X168705354Y-96874500D01*
X168698901Y-96875872D01*
X168698897Y-96875872D01*
X168618212Y-96893022D01*
X168520197Y-96913856D01*
X168347270Y-96990849D01*
X168194129Y-97102112D01*
X168189716Y-97107014D01*
X168189714Y-97107015D01*
X168071886Y-97237876D01*
X168067467Y-97242784D01*
X167972821Y-97406716D01*
X167932201Y-97531730D01*
X167917627Y-97576585D01*
X167886889Y-97626744D01*
X165761038Y-99752595D01*
X165698726Y-99786621D01*
X165671943Y-99789500D01*
X137523057Y-99789500D01*
X137454936Y-99769498D01*
X137433962Y-99752595D01*
X134731367Y-97050000D01*
X137594540Y-97050000D01*
X137595230Y-97056565D01*
X137595230Y-97056566D01*
X137600461Y-97106337D01*
X137600763Y-97109622D01*
X137603845Y-97148784D01*
X137604232Y-97151230D01*
X137604233Y-97151235D01*
X137606532Y-97165754D01*
X137607393Y-97172292D01*
X137614326Y-97238256D01*
X137616366Y-97244534D01*
X137628575Y-97282110D01*
X137631261Y-97291632D01*
X137635695Y-97310101D01*
X137647877Y-97347594D01*
X137648817Y-97349864D01*
X137648821Y-97349874D01*
X137655148Y-97365147D01*
X137658573Y-97374431D01*
X137672821Y-97418284D01*
X137676120Y-97423998D01*
X137705974Y-97475707D01*
X137709119Y-97481500D01*
X137715799Y-97494609D01*
X137716930Y-97496828D01*
X137718221Y-97498934D01*
X137718224Y-97498940D01*
X137737455Y-97530320D01*
X137739142Y-97533156D01*
X137767467Y-97582216D01*
X137771885Y-97587123D01*
X137771886Y-97587124D01*
X137805376Y-97624318D01*
X137807550Y-97626797D01*
X137827704Y-97650393D01*
X137833064Y-97656669D01*
X137845189Y-97668794D01*
X137849730Y-97673578D01*
X137894129Y-97722888D01*
X137899469Y-97726767D01*
X137899476Y-97726774D01*
X137931436Y-97749993D01*
X137939212Y-97756123D01*
X137951744Y-97766828D01*
X137951755Y-97766837D01*
X137953638Y-97768445D01*
X137955647Y-97769905D01*
X137955655Y-97769911D01*
X137971695Y-97781565D01*
X137985530Y-97791617D01*
X137993490Y-97796495D01*
X138001735Y-97801548D01*
X138009956Y-97807041D01*
X138047270Y-97834151D01*
X138089419Y-97852917D01*
X138107839Y-97861119D01*
X138113785Y-97863955D01*
X138125024Y-97869680D01*
X138129119Y-97871767D01*
X138165501Y-97886837D01*
X138168403Y-97888083D01*
X138220197Y-97911144D01*
X138226655Y-97912517D01*
X138226662Y-97912519D01*
X138275598Y-97922921D01*
X138278812Y-97923648D01*
X138314620Y-97932244D01*
X138314628Y-97932246D01*
X138317029Y-97932822D01*
X138332974Y-97935348D01*
X138334000Y-97935510D01*
X138340475Y-97936710D01*
X138369542Y-97942888D01*
X138398898Y-97949128D01*
X138398900Y-97949128D01*
X138405354Y-97950500D01*
X138427141Y-97950500D01*
X138441949Y-97951373D01*
X138449333Y-97952247D01*
X138449340Y-97952248D01*
X138450551Y-97952391D01*
X138451761Y-97952486D01*
X138451769Y-97952487D01*
X138469035Y-97953846D01*
X138469059Y-97953847D01*
X138470261Y-97953942D01*
X138471472Y-97953990D01*
X138471496Y-97953991D01*
X138499148Y-97955077D01*
X138509917Y-97955500D01*
X160615083Y-97955500D01*
X160625852Y-97955077D01*
X160653504Y-97953991D01*
X160653528Y-97953990D01*
X160654739Y-97953942D01*
X160655941Y-97953847D01*
X160655965Y-97953846D01*
X160673231Y-97952487D01*
X160673239Y-97952486D01*
X160674449Y-97952391D01*
X160675660Y-97952248D01*
X160675667Y-97952247D01*
X160683051Y-97951373D01*
X160697859Y-97950500D01*
X160719646Y-97950500D01*
X160726100Y-97949128D01*
X160726102Y-97949128D01*
X160755458Y-97942888D01*
X160784525Y-97936710D01*
X160791000Y-97935510D01*
X160792026Y-97935348D01*
X160807971Y-97932822D01*
X160810372Y-97932246D01*
X160810380Y-97932244D01*
X160846188Y-97923648D01*
X160849402Y-97922921D01*
X160898338Y-97912519D01*
X160898345Y-97912517D01*
X160904803Y-97911144D01*
X160956597Y-97888083D01*
X160959499Y-97886837D01*
X160995881Y-97871767D01*
X160999976Y-97869680D01*
X161011215Y-97863955D01*
X161017161Y-97861119D01*
X161035581Y-97852917D01*
X161077730Y-97834151D01*
X161115044Y-97807041D01*
X161123265Y-97801548D01*
X161131510Y-97796495D01*
X161139470Y-97791617D01*
X161153305Y-97781565D01*
X161169345Y-97769911D01*
X161169353Y-97769905D01*
X161171362Y-97768445D01*
X161173245Y-97766837D01*
X161173256Y-97766828D01*
X161185788Y-97756123D01*
X161193564Y-97749993D01*
X161225524Y-97726774D01*
X161225531Y-97726767D01*
X161230871Y-97722888D01*
X161275270Y-97673578D01*
X161279811Y-97668794D01*
X161291936Y-97656669D01*
X161297297Y-97650393D01*
X161317450Y-97626797D01*
X161319624Y-97624318D01*
X161353114Y-97587124D01*
X161353115Y-97587123D01*
X161357533Y-97582216D01*
X161385858Y-97533156D01*
X161387545Y-97530320D01*
X161406776Y-97498940D01*
X161406779Y-97498934D01*
X161408070Y-97496828D01*
X161409201Y-97494609D01*
X161415881Y-97481500D01*
X161419026Y-97475707D01*
X161448880Y-97423998D01*
X161452179Y-97418284D01*
X161466427Y-97374431D01*
X161469852Y-97365147D01*
X161476179Y-97349874D01*
X161476183Y-97349864D01*
X161477123Y-97347594D01*
X161489305Y-97310101D01*
X161493739Y-97291632D01*
X161496425Y-97282110D01*
X161508634Y-97244534D01*
X161510674Y-97238256D01*
X161517607Y-97172292D01*
X161518468Y-97165754D01*
X161520767Y-97151235D01*
X161520768Y-97151230D01*
X161521155Y-97148784D01*
X161524237Y-97109622D01*
X161524539Y-97106337D01*
X161529770Y-97056566D01*
X161529770Y-97056565D01*
X161530460Y-97050000D01*
X161524539Y-96993663D01*
X161524237Y-96990378D01*
X161521349Y-96953678D01*
X161521348Y-96953672D01*
X161521155Y-96951216D01*
X161520767Y-96948765D01*
X161518468Y-96934246D01*
X161517607Y-96927708D01*
X161511364Y-96868306D01*
X161511363Y-96868303D01*
X161510674Y-96861744D01*
X161496425Y-96817890D01*
X161493739Y-96808368D01*
X161489884Y-96792311D01*
X161489305Y-96789899D01*
X161477123Y-96752406D01*
X161469852Y-96734852D01*
X161466427Y-96725568D01*
X161454219Y-96687996D01*
X161452179Y-96681716D01*
X161419026Y-96624293D01*
X161415881Y-96618500D01*
X161409201Y-96605391D01*
X161409197Y-96605384D01*
X161408070Y-96603172D01*
X161387542Y-96569675D01*
X161385858Y-96566844D01*
X161360836Y-96523505D01*
X161357533Y-96517784D01*
X161319620Y-96475678D01*
X161317450Y-96473203D01*
X161293542Y-96445211D01*
X161293539Y-96445207D01*
X161291936Y-96443331D01*
X161279811Y-96431206D01*
X161275270Y-96426422D01*
X161235290Y-96382020D01*
X161230871Y-96377112D01*
X161225531Y-96373233D01*
X161225524Y-96373226D01*
X161193564Y-96350007D01*
X161185788Y-96343877D01*
X161173256Y-96333172D01*
X161173245Y-96333163D01*
X161171362Y-96331555D01*
X161169353Y-96330095D01*
X161169345Y-96330089D01*
X161141486Y-96309848D01*
X161139470Y-96308383D01*
X161123265Y-96298452D01*
X161115044Y-96292959D01*
X161083070Y-96269729D01*
X161077730Y-96265849D01*
X161017161Y-96238881D01*
X161011215Y-96236045D01*
X160998079Y-96229353D01*
X160995881Y-96228233D01*
X160959499Y-96213163D01*
X160956597Y-96211917D01*
X160904803Y-96188856D01*
X160898345Y-96187483D01*
X160898338Y-96187481D01*
X160849402Y-96177079D01*
X160846188Y-96176352D01*
X160810380Y-96167756D01*
X160810372Y-96167754D01*
X160807971Y-96167178D01*
X160791001Y-96164490D01*
X160784525Y-96163290D01*
X160750636Y-96156087D01*
X160726102Y-96150872D01*
X160726100Y-96150872D01*
X160719646Y-96149500D01*
X160697859Y-96149500D01*
X160683051Y-96148627D01*
X160675667Y-96147753D01*
X160675660Y-96147752D01*
X160674449Y-96147609D01*
X160673239Y-96147514D01*
X160673231Y-96147513D01*
X160655965Y-96146154D01*
X160655941Y-96146153D01*
X160654739Y-96146058D01*
X160653528Y-96146010D01*
X160653504Y-96146009D01*
X160625852Y-96144923D01*
X160615083Y-96144500D01*
X138509917Y-96144500D01*
X138499148Y-96144923D01*
X138471496Y-96146009D01*
X138471472Y-96146010D01*
X138470261Y-96146058D01*
X138469059Y-96146153D01*
X138469035Y-96146154D01*
X138451769Y-96147513D01*
X138451761Y-96147514D01*
X138450551Y-96147609D01*
X138449340Y-96147752D01*
X138449333Y-96147753D01*
X138441949Y-96148627D01*
X138427141Y-96149500D01*
X138405354Y-96149500D01*
X138398900Y-96150872D01*
X138398898Y-96150872D01*
X138374364Y-96156087D01*
X138340475Y-96163290D01*
X138333999Y-96164490D01*
X138317029Y-96167178D01*
X138314628Y-96167754D01*
X138314620Y-96167756D01*
X138278812Y-96176352D01*
X138275598Y-96177079D01*
X138226662Y-96187481D01*
X138226655Y-96187483D01*
X138220197Y-96188856D01*
X138168403Y-96211917D01*
X138165501Y-96213163D01*
X138129119Y-96228233D01*
X138126921Y-96229353D01*
X138113785Y-96236045D01*
X138107839Y-96238881D01*
X138047270Y-96265849D01*
X138041930Y-96269729D01*
X138009956Y-96292959D01*
X138001735Y-96298452D01*
X137985530Y-96308383D01*
X137983514Y-96309848D01*
X137955655Y-96330089D01*
X137955647Y-96330095D01*
X137953638Y-96331555D01*
X137951755Y-96333163D01*
X137951744Y-96333172D01*
X137939212Y-96343877D01*
X137931436Y-96350007D01*
X137899476Y-96373226D01*
X137899469Y-96373233D01*
X137894129Y-96377112D01*
X137889710Y-96382020D01*
X137849730Y-96426422D01*
X137845189Y-96431206D01*
X137833064Y-96443331D01*
X137831461Y-96445207D01*
X137831458Y-96445211D01*
X137807550Y-96473203D01*
X137805380Y-96475678D01*
X137767467Y-96517784D01*
X137764164Y-96523505D01*
X137739142Y-96566844D01*
X137737458Y-96569675D01*
X137716930Y-96603172D01*
X137715803Y-96605384D01*
X137715799Y-96605391D01*
X137709119Y-96618500D01*
X137705974Y-96624293D01*
X137672821Y-96681716D01*
X137670781Y-96687996D01*
X137658573Y-96725568D01*
X137655148Y-96734852D01*
X137647877Y-96752406D01*
X137635695Y-96789899D01*
X137635116Y-96792311D01*
X137631261Y-96808368D01*
X137628575Y-96817890D01*
X137614326Y-96861744D01*
X137613637Y-96868303D01*
X137613636Y-96868306D01*
X137607393Y-96927708D01*
X137606532Y-96934246D01*
X137604233Y-96948765D01*
X137603845Y-96951216D01*
X137603652Y-96953672D01*
X137603651Y-96953678D01*
X137600763Y-96990378D01*
X137600461Y-96993663D01*
X137594540Y-97050000D01*
X134731367Y-97050000D01*
X133491905Y-95810538D01*
X133457879Y-95748226D01*
X133455000Y-95721443D01*
X133455000Y-90799370D01*
X133475002Y-90731249D01*
X133528658Y-90684756D01*
X133598932Y-90674652D01*
X133653635Y-90696413D01*
X133799572Y-90799370D01*
X133818947Y-90813039D01*
X133867509Y-90844583D01*
X133884083Y-90854467D01*
X133885157Y-90855053D01*
X133885159Y-90855054D01*
X133933895Y-90881640D01*
X133933912Y-90881649D01*
X133934948Y-90882214D01*
X134018298Y-90923616D01*
X134020522Y-90924516D01*
X134020532Y-90924520D01*
X134075039Y-90946565D01*
X134125611Y-90967019D01*
X134127894Y-90967744D01*
X134127904Y-90967748D01*
X134144082Y-90972888D01*
X134162298Y-90978676D01*
X134164648Y-90979229D01*
X134164653Y-90979230D01*
X134272644Y-91004625D01*
X134272654Y-91004627D01*
X134274993Y-91005177D01*
X134366965Y-91019479D01*
X134368146Y-91019617D01*
X134368157Y-91019618D01*
X134394107Y-91022639D01*
X134424510Y-91026179D01*
X134443745Y-91027674D01*
X134477943Y-91029016D01*
X134500393Y-91029898D01*
X134500404Y-91029898D01*
X134501621Y-91029946D01*
X147401096Y-91041333D01*
X163038167Y-91055137D01*
X163038172Y-91055137D01*
X163039414Y-91055138D01*
X163098741Y-91052857D01*
X163118464Y-91051321D01*
X163119680Y-91051178D01*
X163119691Y-91051177D01*
X163138151Y-91049007D01*
X163177397Y-91044394D01*
X163271451Y-91029574D01*
X163386812Y-91001970D01*
X163389152Y-91001212D01*
X163389161Y-91001209D01*
X163421989Y-90990568D01*
X163421994Y-90990566D01*
X163424333Y-90989808D01*
X163426601Y-90988870D01*
X163426610Y-90988867D01*
X163508449Y-90955032D01*
X163533949Y-90944489D01*
X163536154Y-90943367D01*
X163536161Y-90943364D01*
X163607656Y-90906992D01*
X163607670Y-90906984D01*
X163609862Y-90905869D01*
X163711047Y-90843942D01*
X163742967Y-90820776D01*
X163833196Y-90743788D01*
X163865175Y-90711837D01*
X163891689Y-90685347D01*
X163891696Y-90685340D01*
X163893449Y-90683588D01*
X163970520Y-90593423D01*
X163993714Y-90561523D01*
X164055720Y-90460408D01*
X164060265Y-90451495D01*
X164093289Y-90386724D01*
X164094409Y-90384528D01*
X164139830Y-90274943D01*
X164152026Y-90237430D01*
X164172268Y-90153163D01*
X164179156Y-90124491D01*
X164179158Y-90124480D01*
X164179733Y-90122087D01*
X164193100Y-90037735D01*
X164202411Y-89919566D01*
X164202415Y-89880149D01*
X164193127Y-89761972D01*
X164189135Y-89736744D01*
X164180164Y-89680065D01*
X164180164Y-89680063D01*
X164179779Y-89677633D01*
X164152145Y-89562441D01*
X164139982Y-89524977D01*
X164139047Y-89522718D01*
X164139043Y-89522707D01*
X164095613Y-89417775D01*
X164094671Y-89415498D01*
X164093554Y-89413304D01*
X164093548Y-89413291D01*
X164057151Y-89341802D01*
X164056022Y-89339584D01*
X163994153Y-89238539D01*
X163971017Y-89206667D01*
X163894131Y-89116557D01*
X163833932Y-89056292D01*
X163743902Y-88979304D01*
X163712048Y-88956128D01*
X163611076Y-88894152D01*
X163535211Y-88855423D01*
X163425778Y-88809990D01*
X163388324Y-88797785D01*
X163385925Y-88797207D01*
X163385912Y-88797203D01*
X163275580Y-88770607D01*
X163273174Y-88770027D01*
X163196848Y-88757860D01*
X163180403Y-88755239D01*
X163180398Y-88755238D01*
X163179154Y-88755040D01*
X163161103Y-88752885D01*
X163121555Y-88748162D01*
X163121530Y-88748160D01*
X163120303Y-88748013D01*
X163119063Y-88747914D01*
X163119052Y-88747913D01*
X163113891Y-88747502D01*
X163100609Y-88746442D01*
X163061627Y-88744868D01*
X163042632Y-88744101D01*
X163042622Y-88744101D01*
X163041364Y-88744050D01*
X143367940Y-88722422D01*
X139454284Y-88718120D01*
X139454281Y-88718120D01*
X139452396Y-88718118D01*
X139450531Y-88718228D01*
X139450520Y-88718228D01*
X139442614Y-88718693D01*
X139432511Y-88719287D01*
X139425025Y-88719504D01*
X135389482Y-88715962D01*
X135320941Y-88695616D01*
X135028243Y-88505424D01*
X134376667Y-88082037D01*
X134375736Y-88081479D01*
X134375711Y-88081463D01*
X134352969Y-88067824D01*
X134330034Y-88054069D01*
X134314161Y-88045310D01*
X134313167Y-88044807D01*
X134313155Y-88044801D01*
X134289227Y-88032701D01*
X134265579Y-88020742D01*
X134186139Y-87984101D01*
X134184017Y-87983302D01*
X134184010Y-87983299D01*
X134086533Y-87946592D01*
X134086527Y-87946590D01*
X134084392Y-87945786D01*
X134049710Y-87935507D01*
X133943479Y-87912188D01*
X133856903Y-87899630D01*
X133833116Y-87897050D01*
X133803974Y-87893889D01*
X133803965Y-87893888D01*
X133802820Y-87893764D01*
X133801682Y-87893682D01*
X133801661Y-87893680D01*
X133794546Y-87893167D01*
X133784733Y-87892459D01*
X133764064Y-87891714D01*
X133731486Y-87890540D01*
X133731462Y-87890540D01*
X133730364Y-87890500D01*
X133581000Y-87890500D01*
X133512879Y-87870498D01*
X133466386Y-87816842D01*
X133455000Y-87764500D01*
X133455000Y-84796500D01*
X133475002Y-84728379D01*
X133528658Y-84681886D01*
X133581000Y-84670500D01*
X137625087Y-84670500D01*
X137677277Y-84684483D01*
X137678179Y-84682458D01*
X137851106Y-84759451D01*
X137940514Y-84778455D01*
X138029806Y-84797435D01*
X138029810Y-84797435D01*
X138036263Y-84798807D01*
X138225555Y-84798807D01*
X138232010Y-84797435D01*
X138232019Y-84797434D01*
X138265255Y-84790369D01*
X138306682Y-84788539D01*
X138334742Y-84791956D01*
X138354394Y-84793571D01*
X138355605Y-84793623D01*
X138355623Y-84793624D01*
X138392771Y-84795215D01*
X138392791Y-84795215D01*
X138393971Y-84795266D01*
X140349148Y-84802324D01*
X140379000Y-84801256D01*
X140387676Y-84800946D01*
X140387680Y-84800946D01*
X140388904Y-84800902D01*
X140408665Y-84799415D01*
X140429414Y-84797030D01*
X140446941Y-84795015D01*
X140446962Y-84795012D01*
X140448190Y-84794871D01*
X140449401Y-84794683D01*
X140449425Y-84794680D01*
X140486951Y-84788861D01*
X140532454Y-84790126D01*
X140668897Y-84819128D01*
X140668901Y-84819128D01*
X140675354Y-84820500D01*
X140864646Y-84820500D01*
X140871099Y-84819128D01*
X140871103Y-84819128D01*
X140957276Y-84800811D01*
X141049803Y-84781144D01*
X141222730Y-84704151D01*
X141375871Y-84592888D01*
X141415720Y-84548632D01*
X141498114Y-84457124D01*
X141498115Y-84457123D01*
X141502533Y-84452216D01*
X141597179Y-84288284D01*
X141655674Y-84108256D01*
X141661094Y-84056693D01*
X141674770Y-83926565D01*
X141675460Y-83920000D01*
X141661397Y-83786193D01*
X141656364Y-83738307D01*
X141656364Y-83738305D01*
X141655674Y-83731744D01*
X141597179Y-83551716D01*
X141569808Y-83504307D01*
X141505836Y-83393505D01*
X141502533Y-83387784D01*
X141471218Y-83353005D01*
X141380286Y-83252015D01*
X141380284Y-83252014D01*
X141375871Y-83247112D01*
X141245114Y-83152112D01*
X141228072Y-83139730D01*
X141228071Y-83139729D01*
X141222730Y-83135849D01*
X141049803Y-83058856D01*
X140941285Y-83035790D01*
X140871103Y-83020872D01*
X140871099Y-83020872D01*
X140864646Y-83019500D01*
X140675354Y-83019500D01*
X140668894Y-83020873D01*
X140668895Y-83020873D01*
X140642377Y-83026509D01*
X140586768Y-83025781D01*
X140546294Y-83016064D01*
X140546281Y-83016061D01*
X140543880Y-83015485D01*
X140541434Y-83015098D01*
X140541431Y-83015097D01*
X140483260Y-83005884D01*
X140449778Y-83000581D01*
X140448570Y-83000438D01*
X140448548Y-83000435D01*
X140411576Y-82996060D01*
X140411569Y-82996059D01*
X140410358Y-82995916D01*
X140409148Y-82995821D01*
X140409140Y-82995820D01*
X140391874Y-82994461D01*
X140391850Y-82994460D01*
X140390648Y-82994365D01*
X140389437Y-82994317D01*
X140389413Y-82994316D01*
X140361761Y-82993230D01*
X140350992Y-82992807D01*
X138395828Y-82992807D01*
X138385059Y-82993230D01*
X138357407Y-82994316D01*
X138357383Y-82994317D01*
X138356172Y-82994365D01*
X138354970Y-82994460D01*
X138354946Y-82994461D01*
X138337680Y-82995820D01*
X138337672Y-82995821D01*
X138336462Y-82995916D01*
X138335251Y-82996059D01*
X138335244Y-82996060D01*
X138321863Y-82997644D01*
X138297042Y-83000581D01*
X138295851Y-83000770D01*
X138295841Y-83000771D01*
X138286614Y-83002232D01*
X138240719Y-83001030D01*
X138239519Y-83000775D01*
X138225555Y-82997807D01*
X138036263Y-82997807D01*
X138029810Y-82999179D01*
X138029806Y-82999179D01*
X137954919Y-83015097D01*
X137851106Y-83037163D01*
X137678179Y-83114156D01*
X137644464Y-83138651D01*
X137635124Y-83145437D01*
X137561064Y-83169500D01*
X133581000Y-83169500D01*
X133512879Y-83149498D01*
X133466386Y-83095842D01*
X133455000Y-83043500D01*
X133455000Y-82256500D01*
X133475002Y-82188379D01*
X133528658Y-82141886D01*
X133581000Y-82130500D01*
X181076943Y-82130500D01*
X181145064Y-82150502D01*
G37*
%TD.AperFunction*%
%TD*%
%TA.AperFunction,Conductor*%
%TO.N,Net-(C15-Pad2)*%
G36*
X180137170Y-86302421D02*
G01*
X180166213Y-86308198D01*
X180186522Y-86312237D01*
X180231944Y-86331052D01*
X180263261Y-86351978D01*
X180298022Y-86386739D01*
X180318948Y-86418056D01*
X180337763Y-86463478D01*
X180345111Y-86500419D01*
X180345111Y-86549579D01*
X180341979Y-86565326D01*
X180337763Y-86586522D01*
X180318948Y-86631944D01*
X180298022Y-86663261D01*
X180263261Y-86698022D01*
X180231944Y-86718948D01*
X180186522Y-86737763D01*
X180166213Y-86741802D01*
X180137170Y-86747579D01*
X180112590Y-86750000D01*
X176050000Y-86750000D01*
X175920590Y-86767037D01*
X175912961Y-86770197D01*
X175807628Y-86813827D01*
X175807626Y-86813828D01*
X175800000Y-86816987D01*
X175696447Y-86896447D01*
X175616987Y-87000000D01*
X175567037Y-87120590D01*
X175550000Y-87250000D01*
X175550000Y-89890083D01*
X175548449Y-89909793D01*
X175533545Y-90003895D01*
X175521363Y-90041388D01*
X175482666Y-90117335D01*
X175459494Y-90149227D01*
X175399227Y-90209494D01*
X175367335Y-90232666D01*
X175291388Y-90271363D01*
X175253895Y-90283545D01*
X175169710Y-90296878D01*
X175130290Y-90296878D01*
X175046105Y-90283545D01*
X175008612Y-90271363D01*
X174932665Y-90232666D01*
X174900773Y-90209494D01*
X174840506Y-90149227D01*
X174817334Y-90117335D01*
X174778637Y-90041388D01*
X174766455Y-90003895D01*
X174751551Y-89909793D01*
X174750000Y-89890083D01*
X174750000Y-86808258D01*
X174751078Y-86791812D01*
X174764872Y-86687037D01*
X174773385Y-86655265D01*
X174810639Y-86565326D01*
X174827086Y-86536840D01*
X174886349Y-86459607D01*
X174909607Y-86436349D01*
X174986840Y-86377086D01*
X175015326Y-86360639D01*
X175105265Y-86323385D01*
X175137037Y-86314872D01*
X175241812Y-86301078D01*
X175258258Y-86300000D01*
X180112590Y-86300000D01*
X180137170Y-86302421D01*
G37*
%TD.AperFunction*%
%TD*%
%TA.AperFunction,Conductor*%
%TO.N,Net-(C1-Pad2)*%
G36*
X160634793Y-96651551D02*
G01*
X160728895Y-96666455D01*
X160766388Y-96678637D01*
X160842335Y-96717334D01*
X160874227Y-96740506D01*
X160934494Y-96800773D01*
X160957666Y-96832665D01*
X160996363Y-96908612D01*
X161008545Y-96946105D01*
X161021878Y-97030290D01*
X161021878Y-97069710D01*
X161008545Y-97153895D01*
X160996363Y-97191388D01*
X160957666Y-97267335D01*
X160934494Y-97299227D01*
X160874227Y-97359494D01*
X160842335Y-97382666D01*
X160766388Y-97421363D01*
X160728895Y-97433545D01*
X160634793Y-97448449D01*
X160615083Y-97450000D01*
X138509917Y-97450000D01*
X138490207Y-97448449D01*
X138396105Y-97433545D01*
X138358612Y-97421363D01*
X138282665Y-97382666D01*
X138250773Y-97359494D01*
X138190506Y-97299227D01*
X138167334Y-97267335D01*
X138128637Y-97191388D01*
X138116455Y-97153895D01*
X138103122Y-97069710D01*
X138103122Y-97030290D01*
X138116455Y-96946105D01*
X138128637Y-96908612D01*
X138167334Y-96832665D01*
X138190506Y-96800773D01*
X138250773Y-96740506D01*
X138282665Y-96717334D01*
X138358612Y-96678637D01*
X138396105Y-96666455D01*
X138490207Y-96651551D01*
X138509917Y-96650000D01*
X160615083Y-96650000D01*
X160634793Y-96651551D01*
G37*
%TD.AperFunction*%
%TD*%
%TA.AperFunction,Conductor*%
%TO.N,GNDA*%
G36*
X128273836Y-85655151D02*
G01*
X128616974Y-85655993D01*
X128636621Y-85657583D01*
X128682871Y-85665002D01*
X128730412Y-85672628D01*
X128767769Y-85684828D01*
X128843449Y-85723485D01*
X128875227Y-85746599D01*
X128935318Y-85806695D01*
X128958430Y-85838477D01*
X128997080Y-85914160D01*
X129009277Y-85951521D01*
X129024312Y-86045305D01*
X129025901Y-86064952D01*
X129031057Y-88246945D01*
X129050868Y-88370326D01*
X129107783Y-88481573D01*
X129114791Y-88488564D01*
X129114792Y-88488566D01*
X129189239Y-88562837D01*
X129196248Y-88569829D01*
X129307629Y-88626481D01*
X129431056Y-88646000D01*
X133730364Y-88646000D01*
X133748451Y-88647305D01*
X133793079Y-88653778D01*
X133835027Y-88659863D01*
X133869709Y-88670142D01*
X133949149Y-88706783D01*
X133965022Y-88715542D01*
X134471573Y-89044694D01*
X134763669Y-89234495D01*
X135024955Y-89404276D01*
X135024960Y-89404279D01*
X135028760Y-89406748D01*
X135032875Y-89408647D01*
X135124635Y-89450996D01*
X135124637Y-89450996D01*
X135132878Y-89454800D01*
X135246352Y-89471337D01*
X135250290Y-89471340D01*
X135250875Y-89471341D01*
X135250882Y-89471341D01*
X139439805Y-89475017D01*
X139439807Y-89475017D01*
X139445748Y-89475022D01*
X139446180Y-89474799D01*
X139446248Y-89474318D01*
X139446258Y-89474250D01*
X139451565Y-89473618D01*
X163040533Y-89499550D01*
X163060227Y-89501121D01*
X163154247Y-89516108D01*
X163191701Y-89528313D01*
X163267566Y-89567042D01*
X163299420Y-89590218D01*
X163328991Y-89619821D01*
X163359619Y-89650483D01*
X163382755Y-89682355D01*
X163421404Y-89758269D01*
X163433567Y-89795733D01*
X163446915Y-89880072D01*
X163446911Y-89919489D01*
X163433544Y-90003841D01*
X163421348Y-90041354D01*
X163382659Y-90117234D01*
X163359465Y-90149134D01*
X163329340Y-90179233D01*
X163299212Y-90209334D01*
X163267292Y-90232500D01*
X163191379Y-90271120D01*
X163153858Y-90283282D01*
X163059804Y-90298102D01*
X163040081Y-90299638D01*
X153044375Y-90290814D01*
X134502288Y-90274446D01*
X134483053Y-90272951D01*
X134391081Y-90258649D01*
X134354394Y-90246992D01*
X134271044Y-90205590D01*
X134254470Y-90195706D01*
X133961697Y-89989157D01*
X133852059Y-89934729D01*
X133731094Y-89916005D01*
X133726250Y-89916005D01*
X133019998Y-89916031D01*
X131008832Y-89916103D01*
X129380406Y-89916162D01*
X127794619Y-89916220D01*
X127774908Y-89914669D01*
X127680741Y-89899749D01*
X127643228Y-89887553D01*
X127567249Y-89848815D01*
X127535346Y-89825619D01*
X127475066Y-89765285D01*
X127451899Y-89733362D01*
X127413227Y-89657347D01*
X127401064Y-89619821D01*
X127394179Y-89576109D01*
X127386230Y-89525650D01*
X127384695Y-89505929D01*
X127384700Y-89501121D01*
X127386282Y-87793090D01*
X127387884Y-86063512D01*
X127389457Y-86043783D01*
X127404477Y-85949611D01*
X127416716Y-85912100D01*
X127455554Y-85836135D01*
X127478793Y-85804252D01*
X127539227Y-85744021D01*
X127571192Y-85720887D01*
X127647285Y-85682307D01*
X127684837Y-85670194D01*
X127700269Y-85667786D01*
X127779071Y-85655491D01*
X127798796Y-85653985D01*
X128273836Y-85655151D01*
G37*
%TD.AperFunction*%
%TD*%
%TA.AperFunction,Conductor*%
%TO.N,+5V*%
G36*
X140370702Y-83499858D02*
G01*
X140464804Y-83514762D01*
X140502297Y-83526944D01*
X140578244Y-83565641D01*
X140610136Y-83588813D01*
X140670403Y-83649080D01*
X140693575Y-83680972D01*
X140732272Y-83756919D01*
X140744454Y-83794412D01*
X140757783Y-83878573D01*
X140757776Y-83918039D01*
X140744449Y-84001986D01*
X140732212Y-84039554D01*
X140693552Y-84115226D01*
X140670281Y-84147158D01*
X140610087Y-84207135D01*
X140578072Y-84230290D01*
X140502261Y-84268677D01*
X140464648Y-84280778D01*
X140370734Y-84295340D01*
X140350973Y-84296827D01*
X139769850Y-84294729D01*
X138395796Y-84289769D01*
X138376144Y-84288154D01*
X138283400Y-84273156D01*
X138246029Y-84260894D01*
X138171342Y-84222600D01*
X138139577Y-84199416D01*
X138080334Y-84139959D01*
X138057268Y-84108115D01*
X138019241Y-84033285D01*
X138007116Y-83995874D01*
X137994020Y-83912997D01*
X137994027Y-83873620D01*
X138007121Y-83790952D01*
X138019301Y-83753466D01*
X138057289Y-83678909D01*
X138080459Y-83647020D01*
X138139622Y-83587857D01*
X138171511Y-83564687D01*
X138246068Y-83526699D01*
X138283556Y-83514518D01*
X138325791Y-83507829D01*
X138376118Y-83499858D01*
X138395828Y-83498307D01*
X140350992Y-83498307D01*
X140370702Y-83499858D01*
G37*
%TD.AperFunction*%
%TD*%
%TA.AperFunction,Conductor*%
%TO.N,GNDA*%
G36*
X154631736Y-114225202D02*
G01*
X163040535Y-114234545D01*
X163060230Y-114236116D01*
X163154252Y-114251104D01*
X163191707Y-114263311D01*
X163267567Y-114302038D01*
X163299422Y-114325214D01*
X163359617Y-114385476D01*
X163382758Y-114417356D01*
X163421403Y-114493263D01*
X163433567Y-114530730D01*
X163445094Y-114603558D01*
X163446916Y-114615069D01*
X163446912Y-114654486D01*
X163437451Y-114714187D01*
X163433543Y-114738845D01*
X163421348Y-114776354D01*
X163382661Y-114852233D01*
X163359466Y-114884135D01*
X163299215Y-114944334D01*
X163267292Y-114967502D01*
X163191379Y-115006123D01*
X163153859Y-115018285D01*
X163059802Y-115033107D01*
X163040078Y-115034643D01*
X154976511Y-115027619D01*
X141561533Y-115015933D01*
X136516576Y-115011539D01*
X135159555Y-115010357D01*
X135139867Y-115008790D01*
X135045828Y-114993821D01*
X135008364Y-114981620D01*
X134932481Y-114942897D01*
X134900619Y-114919722D01*
X134840408Y-114859459D01*
X134817260Y-114827575D01*
X134791179Y-114776354D01*
X134778604Y-114751659D01*
X134766438Y-114714195D01*
X134752582Y-114626659D01*
X134752587Y-114587241D01*
X134766480Y-114499591D01*
X134778678Y-114462077D01*
X134817426Y-114386091D01*
X134840626Y-114354187D01*
X134900974Y-114293906D01*
X134932902Y-114270742D01*
X135008932Y-114232077D01*
X135046455Y-114219921D01*
X135140650Y-114205099D01*
X135160364Y-114203569D01*
X154631736Y-114225202D01*
G37*
%TD.AperFunction*%
%TD*%
M02*
