%TF.GenerationSoftware,KiCad,Pcbnew,6.0.7-f9a2dced07~116~ubuntu20.04.1*%
%TF.CreationDate,2022-08-31T15:18:07+02:00*%
%TF.ProjectId,NVM-Amp,4e564d2d-416d-4702-9e6b-696361645f70,rev?*%
%TF.SameCoordinates,Original*%
%TF.FileFunction,Legend,Top*%
%TF.FilePolarity,Positive*%
%FSLAX46Y46*%
G04 Gerber Fmt 4.6, Leading zero omitted, Abs format (unit mm)*
G04 Created by KiCad (PCBNEW 6.0.7-f9a2dced07~116~ubuntu20.04.1) date 2022-08-31 15:18:07*
%MOMM*%
%LPD*%
G01*
G04 APERTURE LIST*
%ADD10C,0.150000*%
%ADD11C,0.125000*%
%ADD12C,0.120000*%
G04 APERTURE END LIST*
D10*
X130238666Y-94400666D02*
X130714857Y-94400666D01*
X130143428Y-94686380D02*
X130476761Y-93686380D01*
X130810095Y-94686380D01*
X131095809Y-93781619D02*
X131143428Y-93734000D01*
X131238666Y-93686380D01*
X131476761Y-93686380D01*
X131572000Y-93734000D01*
X131619619Y-93781619D01*
X131667238Y-93876857D01*
X131667238Y-93972095D01*
X131619619Y-94114952D01*
X131048190Y-94686380D01*
X131667238Y-94686380D01*
X132095809Y-94305428D02*
X132857714Y-94305428D01*
X132476761Y-94686380D02*
X132476761Y-93924476D01*
X130238666Y-91860666D02*
X130714857Y-91860666D01*
X130143428Y-92146380D02*
X130476761Y-91146380D01*
X130810095Y-92146380D01*
X131667238Y-92146380D02*
X131095809Y-92146380D01*
X131381523Y-92146380D02*
X131381523Y-91146380D01*
X131286285Y-91289238D01*
X131191047Y-91384476D01*
X131095809Y-91432095D01*
X132095809Y-91765428D02*
X132857714Y-91765428D01*
X132476761Y-92146380D02*
X132476761Y-91384476D01*
X130810095Y-88400000D02*
X130714857Y-88352380D01*
X130572000Y-88352380D01*
X130429142Y-88400000D01*
X130333904Y-88495238D01*
X130286285Y-88590476D01*
X130238666Y-88780952D01*
X130238666Y-88923809D01*
X130286285Y-89114285D01*
X130333904Y-89209523D01*
X130429142Y-89304761D01*
X130572000Y-89352380D01*
X130667238Y-89352380D01*
X130810095Y-89304761D01*
X130857714Y-89257142D01*
X130857714Y-88923809D01*
X130667238Y-88923809D01*
X131286285Y-89352380D02*
X131286285Y-88352380D01*
X131857714Y-89352380D01*
X131857714Y-88352380D01*
X132333904Y-89352380D02*
X132333904Y-88352380D01*
X132572000Y-88352380D01*
X132714857Y-88400000D01*
X132810095Y-88495238D01*
X132857714Y-88590476D01*
X132905333Y-88780952D01*
X132905333Y-88923809D01*
X132857714Y-89114285D01*
X132810095Y-89209523D01*
X132714857Y-89304761D01*
X132572000Y-89352380D01*
X132333904Y-89352380D01*
X130810095Y-85860000D02*
X130714857Y-85812380D01*
X130572000Y-85812380D01*
X130429142Y-85860000D01*
X130333904Y-85955238D01*
X130286285Y-86050476D01*
X130238666Y-86240952D01*
X130238666Y-86383809D01*
X130286285Y-86574285D01*
X130333904Y-86669523D01*
X130429142Y-86764761D01*
X130572000Y-86812380D01*
X130667238Y-86812380D01*
X130810095Y-86764761D01*
X130857714Y-86717142D01*
X130857714Y-86383809D01*
X130667238Y-86383809D01*
X131286285Y-86812380D02*
X131286285Y-85812380D01*
X131857714Y-86812380D01*
X131857714Y-85812380D01*
X132333904Y-86812380D02*
X132333904Y-85812380D01*
X132572000Y-85812380D01*
X132714857Y-85860000D01*
X132810095Y-85955238D01*
X132857714Y-86050476D01*
X132905333Y-86240952D01*
X132905333Y-86383809D01*
X132857714Y-86574285D01*
X132810095Y-86669523D01*
X132714857Y-86764761D01*
X132572000Y-86812380D01*
X132333904Y-86812380D01*
X130286285Y-83891428D02*
X131048190Y-83891428D01*
X130667238Y-84272380D02*
X130667238Y-83510476D01*
X132000571Y-83272380D02*
X131524380Y-83272380D01*
X131476761Y-83748571D01*
X131524380Y-83700952D01*
X131619619Y-83653333D01*
X131857714Y-83653333D01*
X131952952Y-83700952D01*
X132000571Y-83748571D01*
X132048190Y-83843809D01*
X132048190Y-84081904D01*
X132000571Y-84177142D01*
X131952952Y-84224761D01*
X131857714Y-84272380D01*
X131619619Y-84272380D01*
X131524380Y-84224761D01*
X131476761Y-84177142D01*
X132333904Y-83272380D02*
X132667238Y-84272380D01*
X133000571Y-83272380D01*
X130286285Y-81351428D02*
X131048190Y-81351428D01*
X132000571Y-80732380D02*
X131524380Y-80732380D01*
X131476761Y-81208571D01*
X131524380Y-81160952D01*
X131619619Y-81113333D01*
X131857714Y-81113333D01*
X131952952Y-81160952D01*
X132000571Y-81208571D01*
X132048190Y-81303809D01*
X132048190Y-81541904D01*
X132000571Y-81637142D01*
X131952952Y-81684761D01*
X131857714Y-81732380D01*
X131619619Y-81732380D01*
X131524380Y-81684761D01*
X131476761Y-81637142D01*
X132333904Y-80732380D02*
X132667238Y-81732380D01*
X133000571Y-80732380D01*
D11*
%TO.C,R35*%
X185136190Y-122968928D02*
X184898095Y-123135595D01*
X185136190Y-123254642D02*
X184636190Y-123254642D01*
X184636190Y-123064166D01*
X184660000Y-123016547D01*
X184683809Y-122992738D01*
X184731428Y-122968928D01*
X184802857Y-122968928D01*
X184850476Y-122992738D01*
X184874285Y-123016547D01*
X184898095Y-123064166D01*
X184898095Y-123254642D01*
X184636190Y-122802261D02*
X184636190Y-122492738D01*
X184826666Y-122659404D01*
X184826666Y-122587976D01*
X184850476Y-122540357D01*
X184874285Y-122516547D01*
X184921904Y-122492738D01*
X185040952Y-122492738D01*
X185088571Y-122516547D01*
X185112380Y-122540357D01*
X185136190Y-122587976D01*
X185136190Y-122730833D01*
X185112380Y-122778452D01*
X185088571Y-122802261D01*
X184636190Y-122040357D02*
X184636190Y-122278452D01*
X184874285Y-122302261D01*
X184850476Y-122278452D01*
X184826666Y-122230833D01*
X184826666Y-122111785D01*
X184850476Y-122064166D01*
X184874285Y-122040357D01*
X184921904Y-122016547D01*
X185040952Y-122016547D01*
X185088571Y-122040357D01*
X185112380Y-122064166D01*
X185136190Y-122111785D01*
X185136190Y-122230833D01*
X185112380Y-122278452D01*
X185088571Y-122302261D01*
%TO.C,C14*%
X173233571Y-110458928D02*
X173257380Y-110482738D01*
X173281190Y-110554166D01*
X173281190Y-110601785D01*
X173257380Y-110673214D01*
X173209761Y-110720833D01*
X173162142Y-110744642D01*
X173066904Y-110768452D01*
X172995476Y-110768452D01*
X172900238Y-110744642D01*
X172852619Y-110720833D01*
X172805000Y-110673214D01*
X172781190Y-110601785D01*
X172781190Y-110554166D01*
X172805000Y-110482738D01*
X172828809Y-110458928D01*
X173281190Y-109982738D02*
X173281190Y-110268452D01*
X173281190Y-110125595D02*
X172781190Y-110125595D01*
X172852619Y-110173214D01*
X172900238Y-110220833D01*
X172924047Y-110268452D01*
X172947857Y-109554166D02*
X173281190Y-109554166D01*
X172757380Y-109673214D02*
X173114523Y-109792261D01*
X173114523Y-109482738D01*
%TO.C,R22*%
X175711190Y-110456428D02*
X175473095Y-110623095D01*
X175711190Y-110742142D02*
X175211190Y-110742142D01*
X175211190Y-110551666D01*
X175235000Y-110504047D01*
X175258809Y-110480238D01*
X175306428Y-110456428D01*
X175377857Y-110456428D01*
X175425476Y-110480238D01*
X175449285Y-110504047D01*
X175473095Y-110551666D01*
X175473095Y-110742142D01*
X175258809Y-110265952D02*
X175235000Y-110242142D01*
X175211190Y-110194523D01*
X175211190Y-110075476D01*
X175235000Y-110027857D01*
X175258809Y-110004047D01*
X175306428Y-109980238D01*
X175354047Y-109980238D01*
X175425476Y-110004047D01*
X175711190Y-110289761D01*
X175711190Y-109980238D01*
X175258809Y-109789761D02*
X175235000Y-109765952D01*
X175211190Y-109718333D01*
X175211190Y-109599285D01*
X175235000Y-109551666D01*
X175258809Y-109527857D01*
X175306428Y-109504047D01*
X175354047Y-109504047D01*
X175425476Y-109527857D01*
X175711190Y-109813571D01*
X175711190Y-109504047D01*
D10*
%TO.C,R4*%
X150077380Y-85741666D02*
X149601190Y-86075000D01*
X150077380Y-86313095D02*
X149077380Y-86313095D01*
X149077380Y-85932142D01*
X149125000Y-85836904D01*
X149172619Y-85789285D01*
X149267857Y-85741666D01*
X149410714Y-85741666D01*
X149505952Y-85789285D01*
X149553571Y-85836904D01*
X149601190Y-85932142D01*
X149601190Y-86313095D01*
X149410714Y-84884523D02*
X150077380Y-84884523D01*
X149029761Y-85122619D02*
X149744047Y-85360714D01*
X149744047Y-84741666D01*
%TO.C,R6*%
X156627380Y-85741666D02*
X156151190Y-86075000D01*
X156627380Y-86313095D02*
X155627380Y-86313095D01*
X155627380Y-85932142D01*
X155675000Y-85836904D01*
X155722619Y-85789285D01*
X155817857Y-85741666D01*
X155960714Y-85741666D01*
X156055952Y-85789285D01*
X156103571Y-85836904D01*
X156151190Y-85932142D01*
X156151190Y-86313095D01*
X155627380Y-84884523D02*
X155627380Y-85075000D01*
X155675000Y-85170238D01*
X155722619Y-85217857D01*
X155865476Y-85313095D01*
X156055952Y-85360714D01*
X156436904Y-85360714D01*
X156532142Y-85313095D01*
X156579761Y-85265476D01*
X156627380Y-85170238D01*
X156627380Y-84979761D01*
X156579761Y-84884523D01*
X156532142Y-84836904D01*
X156436904Y-84789285D01*
X156198809Y-84789285D01*
X156103571Y-84836904D01*
X156055952Y-84884523D01*
X156008333Y-84979761D01*
X156008333Y-85170238D01*
X156055952Y-85265476D01*
X156103571Y-85313095D01*
X156198809Y-85360714D01*
D11*
%TO.C,R17*%
X164476190Y-91821428D02*
X164238095Y-91988095D01*
X164476190Y-92107142D02*
X163976190Y-92107142D01*
X163976190Y-91916666D01*
X164000000Y-91869047D01*
X164023809Y-91845238D01*
X164071428Y-91821428D01*
X164142857Y-91821428D01*
X164190476Y-91845238D01*
X164214285Y-91869047D01*
X164238095Y-91916666D01*
X164238095Y-92107142D01*
X164476190Y-91345238D02*
X164476190Y-91630952D01*
X164476190Y-91488095D02*
X163976190Y-91488095D01*
X164047619Y-91535714D01*
X164095238Y-91583333D01*
X164119047Y-91630952D01*
X163976190Y-91178571D02*
X163976190Y-90845238D01*
X164476190Y-91059523D01*
D10*
%TO.C,J2*%
X196008666Y-89412380D02*
X196008666Y-90126666D01*
X195961047Y-90269523D01*
X195865809Y-90364761D01*
X195722952Y-90412380D01*
X195627714Y-90412380D01*
X196437238Y-89507619D02*
X196484857Y-89460000D01*
X196580095Y-89412380D01*
X196818190Y-89412380D01*
X196913428Y-89460000D01*
X196961047Y-89507619D01*
X197008666Y-89602857D01*
X197008666Y-89698095D01*
X196961047Y-89840952D01*
X196389619Y-90412380D01*
X197008666Y-90412380D01*
D11*
%TO.C,R13*%
X157876190Y-91796428D02*
X157638095Y-91963095D01*
X157876190Y-92082142D02*
X157376190Y-92082142D01*
X157376190Y-91891666D01*
X157400000Y-91844047D01*
X157423809Y-91820238D01*
X157471428Y-91796428D01*
X157542857Y-91796428D01*
X157590476Y-91820238D01*
X157614285Y-91844047D01*
X157638095Y-91891666D01*
X157638095Y-92082142D01*
X157876190Y-91320238D02*
X157876190Y-91605952D01*
X157876190Y-91463095D02*
X157376190Y-91463095D01*
X157447619Y-91510714D01*
X157495238Y-91558333D01*
X157519047Y-91605952D01*
X157376190Y-91153571D02*
X157376190Y-90844047D01*
X157566666Y-91010714D01*
X157566666Y-90939285D01*
X157590476Y-90891666D01*
X157614285Y-90867857D01*
X157661904Y-90844047D01*
X157780952Y-90844047D01*
X157828571Y-90867857D01*
X157852380Y-90891666D01*
X157876190Y-90939285D01*
X157876190Y-91082142D01*
X157852380Y-91129761D01*
X157828571Y-91153571D01*
D10*
%TO.C,R1*%
X130512380Y-123476666D02*
X130036190Y-123810000D01*
X130512380Y-124048095D02*
X129512380Y-124048095D01*
X129512380Y-123667142D01*
X129560000Y-123571904D01*
X129607619Y-123524285D01*
X129702857Y-123476666D01*
X129845714Y-123476666D01*
X129940952Y-123524285D01*
X129988571Y-123571904D01*
X130036190Y-123667142D01*
X130036190Y-124048095D01*
X130512380Y-122524285D02*
X130512380Y-123095714D01*
X130512380Y-122810000D02*
X129512380Y-122810000D01*
X129655238Y-122905238D01*
X129750476Y-123000476D01*
X129798095Y-123095714D01*
D11*
%TO.C,R28*%
X187476190Y-93221428D02*
X187238095Y-93388095D01*
X187476190Y-93507142D02*
X186976190Y-93507142D01*
X186976190Y-93316666D01*
X187000000Y-93269047D01*
X187023809Y-93245238D01*
X187071428Y-93221428D01*
X187142857Y-93221428D01*
X187190476Y-93245238D01*
X187214285Y-93269047D01*
X187238095Y-93316666D01*
X187238095Y-93507142D01*
X187023809Y-93030952D02*
X187000000Y-93007142D01*
X186976190Y-92959523D01*
X186976190Y-92840476D01*
X187000000Y-92792857D01*
X187023809Y-92769047D01*
X187071428Y-92745238D01*
X187119047Y-92745238D01*
X187190476Y-92769047D01*
X187476190Y-93054761D01*
X187476190Y-92745238D01*
X187190476Y-92459523D02*
X187166666Y-92507142D01*
X187142857Y-92530952D01*
X187095238Y-92554761D01*
X187071428Y-92554761D01*
X187023809Y-92530952D01*
X187000000Y-92507142D01*
X186976190Y-92459523D01*
X186976190Y-92364285D01*
X187000000Y-92316666D01*
X187023809Y-92292857D01*
X187071428Y-92269047D01*
X187095238Y-92269047D01*
X187142857Y-92292857D01*
X187166666Y-92316666D01*
X187190476Y-92364285D01*
X187190476Y-92459523D01*
X187214285Y-92507142D01*
X187238095Y-92530952D01*
X187285714Y-92554761D01*
X187380952Y-92554761D01*
X187428571Y-92530952D01*
X187452380Y-92507142D01*
X187476190Y-92459523D01*
X187476190Y-92364285D01*
X187452380Y-92316666D01*
X187428571Y-92292857D01*
X187380952Y-92269047D01*
X187285714Y-92269047D01*
X187238095Y-92292857D01*
X187214285Y-92316666D01*
X187190476Y-92364285D01*
%TO.C,R29*%
X187476190Y-98258928D02*
X187238095Y-98425595D01*
X187476190Y-98544642D02*
X186976190Y-98544642D01*
X186976190Y-98354166D01*
X187000000Y-98306547D01*
X187023809Y-98282738D01*
X187071428Y-98258928D01*
X187142857Y-98258928D01*
X187190476Y-98282738D01*
X187214285Y-98306547D01*
X187238095Y-98354166D01*
X187238095Y-98544642D01*
X187023809Y-98068452D02*
X187000000Y-98044642D01*
X186976190Y-97997023D01*
X186976190Y-97877976D01*
X187000000Y-97830357D01*
X187023809Y-97806547D01*
X187071428Y-97782738D01*
X187119047Y-97782738D01*
X187190476Y-97806547D01*
X187476190Y-98092261D01*
X187476190Y-97782738D01*
X187476190Y-97544642D02*
X187476190Y-97449404D01*
X187452380Y-97401785D01*
X187428571Y-97377976D01*
X187357142Y-97330357D01*
X187261904Y-97306547D01*
X187071428Y-97306547D01*
X187023809Y-97330357D01*
X187000000Y-97354166D01*
X186976190Y-97401785D01*
X186976190Y-97497023D01*
X187000000Y-97544642D01*
X187023809Y-97568452D01*
X187071428Y-97592261D01*
X187190476Y-97592261D01*
X187238095Y-97568452D01*
X187261904Y-97544642D01*
X187285714Y-97497023D01*
X187285714Y-97401785D01*
X187261904Y-97354166D01*
X187238095Y-97330357D01*
X187190476Y-97306547D01*
%TO.C,Q8*%
X162747380Y-120153809D02*
X162699761Y-120130000D01*
X162652142Y-120082380D01*
X162580714Y-120010952D01*
X162533095Y-119987142D01*
X162485476Y-119987142D01*
X162509285Y-120106190D02*
X162461666Y-120082380D01*
X162414047Y-120034761D01*
X162390238Y-119939523D01*
X162390238Y-119772857D01*
X162414047Y-119677619D01*
X162461666Y-119630000D01*
X162509285Y-119606190D01*
X162604523Y-119606190D01*
X162652142Y-119630000D01*
X162699761Y-119677619D01*
X162723571Y-119772857D01*
X162723571Y-119939523D01*
X162699761Y-120034761D01*
X162652142Y-120082380D01*
X162604523Y-120106190D01*
X162509285Y-120106190D01*
X163009285Y-119820476D02*
X162961666Y-119796666D01*
X162937857Y-119772857D01*
X162914047Y-119725238D01*
X162914047Y-119701428D01*
X162937857Y-119653809D01*
X162961666Y-119630000D01*
X163009285Y-119606190D01*
X163104523Y-119606190D01*
X163152142Y-119630000D01*
X163175952Y-119653809D01*
X163199761Y-119701428D01*
X163199761Y-119725238D01*
X163175952Y-119772857D01*
X163152142Y-119796666D01*
X163104523Y-119820476D01*
X163009285Y-119820476D01*
X162961666Y-119844285D01*
X162937857Y-119868095D01*
X162914047Y-119915714D01*
X162914047Y-120010952D01*
X162937857Y-120058571D01*
X162961666Y-120082380D01*
X163009285Y-120106190D01*
X163104523Y-120106190D01*
X163152142Y-120082380D01*
X163175952Y-120058571D01*
X163199761Y-120010952D01*
X163199761Y-119915714D01*
X163175952Y-119868095D01*
X163152142Y-119844285D01*
X163104523Y-119820476D01*
%TO.C,C4*%
X136621666Y-116748571D02*
X136597857Y-116772380D01*
X136526428Y-116796190D01*
X136478809Y-116796190D01*
X136407380Y-116772380D01*
X136359761Y-116724761D01*
X136335952Y-116677142D01*
X136312142Y-116581904D01*
X136312142Y-116510476D01*
X136335952Y-116415238D01*
X136359761Y-116367619D01*
X136407380Y-116320000D01*
X136478809Y-116296190D01*
X136526428Y-116296190D01*
X136597857Y-116320000D01*
X136621666Y-116343809D01*
X137050238Y-116462857D02*
X137050238Y-116796190D01*
X136931190Y-116272380D02*
X136812142Y-116629523D01*
X137121666Y-116629523D01*
D10*
%TO.C,R9*%
X151464285Y-91600000D02*
X151107142Y-91850000D01*
X151464285Y-92028571D02*
X150714285Y-92028571D01*
X150714285Y-91742857D01*
X150750000Y-91671428D01*
X150785714Y-91635714D01*
X150857142Y-91600000D01*
X150964285Y-91600000D01*
X151035714Y-91635714D01*
X151071428Y-91671428D01*
X151107142Y-91742857D01*
X151107142Y-92028571D01*
X151464285Y-91242857D02*
X151464285Y-91100000D01*
X151428571Y-91028571D01*
X151392857Y-90992857D01*
X151285714Y-90921428D01*
X151142857Y-90885714D01*
X150857142Y-90885714D01*
X150785714Y-90921428D01*
X150750000Y-90957142D01*
X150714285Y-91028571D01*
X150714285Y-91171428D01*
X150750000Y-91242857D01*
X150785714Y-91278571D01*
X150857142Y-91314285D01*
X151035714Y-91314285D01*
X151107142Y-91278571D01*
X151142857Y-91242857D01*
X151178571Y-91171428D01*
X151178571Y-91028571D01*
X151142857Y-90957142D01*
X151107142Y-90921428D01*
X151035714Y-90885714D01*
D11*
%TO.C,R30*%
X187471190Y-117961428D02*
X187233095Y-118128095D01*
X187471190Y-118247142D02*
X186971190Y-118247142D01*
X186971190Y-118056666D01*
X186995000Y-118009047D01*
X187018809Y-117985238D01*
X187066428Y-117961428D01*
X187137857Y-117961428D01*
X187185476Y-117985238D01*
X187209285Y-118009047D01*
X187233095Y-118056666D01*
X187233095Y-118247142D01*
X186971190Y-117794761D02*
X186971190Y-117485238D01*
X187161666Y-117651904D01*
X187161666Y-117580476D01*
X187185476Y-117532857D01*
X187209285Y-117509047D01*
X187256904Y-117485238D01*
X187375952Y-117485238D01*
X187423571Y-117509047D01*
X187447380Y-117532857D01*
X187471190Y-117580476D01*
X187471190Y-117723333D01*
X187447380Y-117770952D01*
X187423571Y-117794761D01*
X186971190Y-117175714D02*
X186971190Y-117128095D01*
X186995000Y-117080476D01*
X187018809Y-117056666D01*
X187066428Y-117032857D01*
X187161666Y-117009047D01*
X187280714Y-117009047D01*
X187375952Y-117032857D01*
X187423571Y-117056666D01*
X187447380Y-117080476D01*
X187471190Y-117128095D01*
X187471190Y-117175714D01*
X187447380Y-117223333D01*
X187423571Y-117247142D01*
X187375952Y-117270952D01*
X187280714Y-117294761D01*
X187161666Y-117294761D01*
X187066428Y-117270952D01*
X187018809Y-117247142D01*
X186995000Y-117223333D01*
X186971190Y-117175714D01*
D10*
%TO.C,R18*%
X163177380Y-110952857D02*
X162701190Y-111286190D01*
X163177380Y-111524285D02*
X162177380Y-111524285D01*
X162177380Y-111143333D01*
X162225000Y-111048095D01*
X162272619Y-111000476D01*
X162367857Y-110952857D01*
X162510714Y-110952857D01*
X162605952Y-111000476D01*
X162653571Y-111048095D01*
X162701190Y-111143333D01*
X162701190Y-111524285D01*
X163177380Y-110000476D02*
X163177380Y-110571904D01*
X163177380Y-110286190D02*
X162177380Y-110286190D01*
X162320238Y-110381428D01*
X162415476Y-110476666D01*
X162463095Y-110571904D01*
X162605952Y-109429047D02*
X162558333Y-109524285D01*
X162510714Y-109571904D01*
X162415476Y-109619523D01*
X162367857Y-109619523D01*
X162272619Y-109571904D01*
X162225000Y-109524285D01*
X162177380Y-109429047D01*
X162177380Y-109238571D01*
X162225000Y-109143333D01*
X162272619Y-109095714D01*
X162367857Y-109048095D01*
X162415476Y-109048095D01*
X162510714Y-109095714D01*
X162558333Y-109143333D01*
X162605952Y-109238571D01*
X162605952Y-109429047D01*
X162653571Y-109524285D01*
X162701190Y-109571904D01*
X162796428Y-109619523D01*
X162986904Y-109619523D01*
X163082142Y-109571904D01*
X163129761Y-109524285D01*
X163177380Y-109429047D01*
X163177380Y-109238571D01*
X163129761Y-109143333D01*
X163082142Y-109095714D01*
X162986904Y-109048095D01*
X162796428Y-109048095D01*
X162701190Y-109095714D01*
X162653571Y-109143333D01*
X162605952Y-109238571D01*
D11*
%TO.C,R23*%
X178051190Y-110478928D02*
X177813095Y-110645595D01*
X178051190Y-110764642D02*
X177551190Y-110764642D01*
X177551190Y-110574166D01*
X177575000Y-110526547D01*
X177598809Y-110502738D01*
X177646428Y-110478928D01*
X177717857Y-110478928D01*
X177765476Y-110502738D01*
X177789285Y-110526547D01*
X177813095Y-110574166D01*
X177813095Y-110764642D01*
X177598809Y-110288452D02*
X177575000Y-110264642D01*
X177551190Y-110217023D01*
X177551190Y-110097976D01*
X177575000Y-110050357D01*
X177598809Y-110026547D01*
X177646428Y-110002738D01*
X177694047Y-110002738D01*
X177765476Y-110026547D01*
X178051190Y-110312261D01*
X178051190Y-110002738D01*
X177551190Y-109836071D02*
X177551190Y-109526547D01*
X177741666Y-109693214D01*
X177741666Y-109621785D01*
X177765476Y-109574166D01*
X177789285Y-109550357D01*
X177836904Y-109526547D01*
X177955952Y-109526547D01*
X178003571Y-109550357D01*
X178027380Y-109574166D01*
X178051190Y-109621785D01*
X178051190Y-109764642D01*
X178027380Y-109812261D01*
X178003571Y-109836071D01*
%TO.C,Q1*%
X143132380Y-95353809D02*
X143084761Y-95330000D01*
X143037142Y-95282380D01*
X142965714Y-95210952D01*
X142918095Y-95187142D01*
X142870476Y-95187142D01*
X142894285Y-95306190D02*
X142846666Y-95282380D01*
X142799047Y-95234761D01*
X142775238Y-95139523D01*
X142775238Y-94972857D01*
X142799047Y-94877619D01*
X142846666Y-94830000D01*
X142894285Y-94806190D01*
X142989523Y-94806190D01*
X143037142Y-94830000D01*
X143084761Y-94877619D01*
X143108571Y-94972857D01*
X143108571Y-95139523D01*
X143084761Y-95234761D01*
X143037142Y-95282380D01*
X142989523Y-95306190D01*
X142894285Y-95306190D01*
X143584761Y-95306190D02*
X143299047Y-95306190D01*
X143441904Y-95306190D02*
X143441904Y-94806190D01*
X143394285Y-94877619D01*
X143346666Y-94925238D01*
X143299047Y-94949047D01*
D10*
%TO.C,R11*%
X150067380Y-110952857D02*
X149591190Y-111286190D01*
X150067380Y-111524285D02*
X149067380Y-111524285D01*
X149067380Y-111143333D01*
X149115000Y-111048095D01*
X149162619Y-111000476D01*
X149257857Y-110952857D01*
X149400714Y-110952857D01*
X149495952Y-111000476D01*
X149543571Y-111048095D01*
X149591190Y-111143333D01*
X149591190Y-111524285D01*
X150067380Y-110000476D02*
X150067380Y-110571904D01*
X150067380Y-110286190D02*
X149067380Y-110286190D01*
X149210238Y-110381428D01*
X149305476Y-110476666D01*
X149353095Y-110571904D01*
X150067380Y-109048095D02*
X150067380Y-109619523D01*
X150067380Y-109333809D02*
X149067380Y-109333809D01*
X149210238Y-109429047D01*
X149305476Y-109524285D01*
X149353095Y-109619523D01*
%TO.C,U3*%
X179927380Y-94886904D02*
X180736904Y-94886904D01*
X180832142Y-94839285D01*
X180879761Y-94791666D01*
X180927380Y-94696428D01*
X180927380Y-94505952D01*
X180879761Y-94410714D01*
X180832142Y-94363095D01*
X180736904Y-94315476D01*
X179927380Y-94315476D01*
X179927380Y-93934523D02*
X179927380Y-93315476D01*
X180308333Y-93648809D01*
X180308333Y-93505952D01*
X180355952Y-93410714D01*
X180403571Y-93363095D01*
X180498809Y-93315476D01*
X180736904Y-93315476D01*
X180832142Y-93363095D01*
X180879761Y-93410714D01*
X180927380Y-93505952D01*
X180927380Y-93791666D01*
X180879761Y-93886904D01*
X180832142Y-93934523D01*
%TO.C,R3*%
X143102380Y-85754166D02*
X142626190Y-86087500D01*
X143102380Y-86325595D02*
X142102380Y-86325595D01*
X142102380Y-85944642D01*
X142150000Y-85849404D01*
X142197619Y-85801785D01*
X142292857Y-85754166D01*
X142435714Y-85754166D01*
X142530952Y-85801785D01*
X142578571Y-85849404D01*
X142626190Y-85944642D01*
X142626190Y-86325595D01*
X142102380Y-85420833D02*
X142102380Y-84801785D01*
X142483333Y-85135119D01*
X142483333Y-84992261D01*
X142530952Y-84897023D01*
X142578571Y-84849404D01*
X142673809Y-84801785D01*
X142911904Y-84801785D01*
X143007142Y-84849404D01*
X143054761Y-84897023D01*
X143102380Y-84992261D01*
X143102380Y-85277976D01*
X143054761Y-85373214D01*
X143007142Y-85420833D01*
D11*
%TO.C,Q6*%
X156197380Y-120153809D02*
X156149761Y-120130000D01*
X156102142Y-120082380D01*
X156030714Y-120010952D01*
X155983095Y-119987142D01*
X155935476Y-119987142D01*
X155959285Y-120106190D02*
X155911666Y-120082380D01*
X155864047Y-120034761D01*
X155840238Y-119939523D01*
X155840238Y-119772857D01*
X155864047Y-119677619D01*
X155911666Y-119630000D01*
X155959285Y-119606190D01*
X156054523Y-119606190D01*
X156102142Y-119630000D01*
X156149761Y-119677619D01*
X156173571Y-119772857D01*
X156173571Y-119939523D01*
X156149761Y-120034761D01*
X156102142Y-120082380D01*
X156054523Y-120106190D01*
X155959285Y-120106190D01*
X156602142Y-119606190D02*
X156506904Y-119606190D01*
X156459285Y-119630000D01*
X156435476Y-119653809D01*
X156387857Y-119725238D01*
X156364047Y-119820476D01*
X156364047Y-120010952D01*
X156387857Y-120058571D01*
X156411666Y-120082380D01*
X156459285Y-120106190D01*
X156554523Y-120106190D01*
X156602142Y-120082380D01*
X156625952Y-120058571D01*
X156649761Y-120010952D01*
X156649761Y-119891904D01*
X156625952Y-119844285D01*
X156602142Y-119820476D01*
X156554523Y-119796666D01*
X156459285Y-119796666D01*
X156411666Y-119820476D01*
X156387857Y-119844285D01*
X156364047Y-119891904D01*
%TO.C,R16*%
X161101190Y-85896428D02*
X160863095Y-86063095D01*
X161101190Y-86182142D02*
X160601190Y-86182142D01*
X160601190Y-85991666D01*
X160625000Y-85944047D01*
X160648809Y-85920238D01*
X160696428Y-85896428D01*
X160767857Y-85896428D01*
X160815476Y-85920238D01*
X160839285Y-85944047D01*
X160863095Y-85991666D01*
X160863095Y-86182142D01*
X161101190Y-85420238D02*
X161101190Y-85705952D01*
X161101190Y-85563095D02*
X160601190Y-85563095D01*
X160672619Y-85610714D01*
X160720238Y-85658333D01*
X160744047Y-85705952D01*
X160601190Y-84991666D02*
X160601190Y-85086904D01*
X160625000Y-85134523D01*
X160648809Y-85158333D01*
X160720238Y-85205952D01*
X160815476Y-85229761D01*
X161005952Y-85229761D01*
X161053571Y-85205952D01*
X161077380Y-85182142D01*
X161101190Y-85134523D01*
X161101190Y-85039285D01*
X161077380Y-84991666D01*
X161053571Y-84967857D01*
X161005952Y-84944047D01*
X160886904Y-84944047D01*
X160839285Y-84967857D01*
X160815476Y-84991666D01*
X160791666Y-85039285D01*
X160791666Y-85134523D01*
X160815476Y-85182142D01*
X160839285Y-85205952D01*
X160886904Y-85229761D01*
%TO.C,R10*%
X144781190Y-116523928D02*
X144543095Y-116690595D01*
X144781190Y-116809642D02*
X144281190Y-116809642D01*
X144281190Y-116619166D01*
X144305000Y-116571547D01*
X144328809Y-116547738D01*
X144376428Y-116523928D01*
X144447857Y-116523928D01*
X144495476Y-116547738D01*
X144519285Y-116571547D01*
X144543095Y-116619166D01*
X144543095Y-116809642D01*
X144781190Y-116047738D02*
X144781190Y-116333452D01*
X144781190Y-116190595D02*
X144281190Y-116190595D01*
X144352619Y-116238214D01*
X144400238Y-116285833D01*
X144424047Y-116333452D01*
X144281190Y-115738214D02*
X144281190Y-115690595D01*
X144305000Y-115642976D01*
X144328809Y-115619166D01*
X144376428Y-115595357D01*
X144471666Y-115571547D01*
X144590714Y-115571547D01*
X144685952Y-115595357D01*
X144733571Y-115619166D01*
X144757380Y-115642976D01*
X144781190Y-115690595D01*
X144781190Y-115738214D01*
X144757380Y-115785833D01*
X144733571Y-115809642D01*
X144685952Y-115833452D01*
X144590714Y-115857261D01*
X144471666Y-115857261D01*
X144376428Y-115833452D01*
X144328809Y-115809642D01*
X144305000Y-115785833D01*
X144281190Y-115738214D01*
%TO.C,C12*%
X162053571Y-116521428D02*
X162077380Y-116545238D01*
X162101190Y-116616666D01*
X162101190Y-116664285D01*
X162077380Y-116735714D01*
X162029761Y-116783333D01*
X161982142Y-116807142D01*
X161886904Y-116830952D01*
X161815476Y-116830952D01*
X161720238Y-116807142D01*
X161672619Y-116783333D01*
X161625000Y-116735714D01*
X161601190Y-116664285D01*
X161601190Y-116616666D01*
X161625000Y-116545238D01*
X161648809Y-116521428D01*
X162101190Y-116045238D02*
X162101190Y-116330952D01*
X162101190Y-116188095D02*
X161601190Y-116188095D01*
X161672619Y-116235714D01*
X161720238Y-116283333D01*
X161744047Y-116330952D01*
X161648809Y-115854761D02*
X161625000Y-115830952D01*
X161601190Y-115783333D01*
X161601190Y-115664285D01*
X161625000Y-115616666D01*
X161648809Y-115592857D01*
X161696428Y-115569047D01*
X161744047Y-115569047D01*
X161815476Y-115592857D01*
X162101190Y-115878571D01*
X162101190Y-115569047D01*
%TO.C,C15*%
X180328571Y-85733928D02*
X180352380Y-85757738D01*
X180376190Y-85829166D01*
X180376190Y-85876785D01*
X180352380Y-85948214D01*
X180304761Y-85995833D01*
X180257142Y-86019642D01*
X180161904Y-86043452D01*
X180090476Y-86043452D01*
X179995238Y-86019642D01*
X179947619Y-85995833D01*
X179900000Y-85948214D01*
X179876190Y-85876785D01*
X179876190Y-85829166D01*
X179900000Y-85757738D01*
X179923809Y-85733928D01*
X180376190Y-85257738D02*
X180376190Y-85543452D01*
X180376190Y-85400595D02*
X179876190Y-85400595D01*
X179947619Y-85448214D01*
X179995238Y-85495833D01*
X180019047Y-85543452D01*
X179876190Y-84805357D02*
X179876190Y-85043452D01*
X180114285Y-85067261D01*
X180090476Y-85043452D01*
X180066666Y-84995833D01*
X180066666Y-84876785D01*
X180090476Y-84829166D01*
X180114285Y-84805357D01*
X180161904Y-84781547D01*
X180280952Y-84781547D01*
X180328571Y-84805357D01*
X180352380Y-84829166D01*
X180376190Y-84876785D01*
X180376190Y-84995833D01*
X180352380Y-85043452D01*
X180328571Y-85067261D01*
D10*
%TO.C,U1*%
X171437380Y-94886904D02*
X172246904Y-94886904D01*
X172342142Y-94839285D01*
X172389761Y-94791666D01*
X172437380Y-94696428D01*
X172437380Y-94505952D01*
X172389761Y-94410714D01*
X172342142Y-94363095D01*
X172246904Y-94315476D01*
X171437380Y-94315476D01*
X172437380Y-93315476D02*
X172437380Y-93886904D01*
X172437380Y-93601190D02*
X171437380Y-93601190D01*
X171580238Y-93696428D01*
X171675476Y-93791666D01*
X171723095Y-93886904D01*
%TO.C,C9*%
X155592857Y-91600000D02*
X155628571Y-91635714D01*
X155664285Y-91742857D01*
X155664285Y-91814285D01*
X155628571Y-91921428D01*
X155557142Y-91992857D01*
X155485714Y-92028571D01*
X155342857Y-92064285D01*
X155235714Y-92064285D01*
X155092857Y-92028571D01*
X155021428Y-91992857D01*
X154950000Y-91921428D01*
X154914285Y-91814285D01*
X154914285Y-91742857D01*
X154950000Y-91635714D01*
X154985714Y-91600000D01*
X155664285Y-91242857D02*
X155664285Y-91100000D01*
X155628571Y-91028571D01*
X155592857Y-90992857D01*
X155485714Y-90921428D01*
X155342857Y-90885714D01*
X155057142Y-90885714D01*
X154985714Y-90921428D01*
X154950000Y-90957142D01*
X154914285Y-91028571D01*
X154914285Y-91171428D01*
X154950000Y-91242857D01*
X154985714Y-91278571D01*
X155057142Y-91314285D01*
X155235714Y-91314285D01*
X155307142Y-91278571D01*
X155342857Y-91242857D01*
X155378571Y-91171428D01*
X155378571Y-91028571D01*
X155342857Y-90957142D01*
X155307142Y-90921428D01*
X155235714Y-90885714D01*
%TO.C,U2*%
X171432380Y-119621904D02*
X172241904Y-119621904D01*
X172337142Y-119574285D01*
X172384761Y-119526666D01*
X172432380Y-119431428D01*
X172432380Y-119240952D01*
X172384761Y-119145714D01*
X172337142Y-119098095D01*
X172241904Y-119050476D01*
X171432380Y-119050476D01*
X171527619Y-118621904D02*
X171480000Y-118574285D01*
X171432380Y-118479047D01*
X171432380Y-118240952D01*
X171480000Y-118145714D01*
X171527619Y-118098095D01*
X171622857Y-118050476D01*
X171718095Y-118050476D01*
X171860952Y-118098095D01*
X172432380Y-118669523D01*
X172432380Y-118050476D01*
D11*
%TO.C,C16*%
X180363571Y-110468928D02*
X180387380Y-110492738D01*
X180411190Y-110564166D01*
X180411190Y-110611785D01*
X180387380Y-110683214D01*
X180339761Y-110730833D01*
X180292142Y-110754642D01*
X180196904Y-110778452D01*
X180125476Y-110778452D01*
X180030238Y-110754642D01*
X179982619Y-110730833D01*
X179935000Y-110683214D01*
X179911190Y-110611785D01*
X179911190Y-110564166D01*
X179935000Y-110492738D01*
X179958809Y-110468928D01*
X180411190Y-109992738D02*
X180411190Y-110278452D01*
X180411190Y-110135595D02*
X179911190Y-110135595D01*
X179982619Y-110183214D01*
X180030238Y-110230833D01*
X180054047Y-110278452D01*
X179911190Y-109564166D02*
X179911190Y-109659404D01*
X179935000Y-109707023D01*
X179958809Y-109730833D01*
X180030238Y-109778452D01*
X180125476Y-109802261D01*
X180315952Y-109802261D01*
X180363571Y-109778452D01*
X180387380Y-109754642D01*
X180411190Y-109707023D01*
X180411190Y-109611785D01*
X180387380Y-109564166D01*
X180363571Y-109540357D01*
X180315952Y-109516547D01*
X180196904Y-109516547D01*
X180149285Y-109540357D01*
X180125476Y-109564166D01*
X180101666Y-109611785D01*
X180101666Y-109707023D01*
X180125476Y-109754642D01*
X180149285Y-109778452D01*
X180196904Y-109802261D01*
D10*
%TO.C,R2*%
X136575000Y-94539285D02*
X136325000Y-94182142D01*
X136146428Y-94539285D02*
X136146428Y-93789285D01*
X136432142Y-93789285D01*
X136503571Y-93825000D01*
X136539285Y-93860714D01*
X136575000Y-93932142D01*
X136575000Y-94039285D01*
X136539285Y-94110714D01*
X136503571Y-94146428D01*
X136432142Y-94182142D01*
X136146428Y-94182142D01*
X136860714Y-93860714D02*
X136896428Y-93825000D01*
X136967857Y-93789285D01*
X137146428Y-93789285D01*
X137217857Y-93825000D01*
X137253571Y-93860714D01*
X137289285Y-93932142D01*
X137289285Y-94003571D01*
X137253571Y-94110714D01*
X136825000Y-94539285D01*
X137289285Y-94539285D01*
D11*
%TO.C,R31*%
X187466190Y-122968928D02*
X187228095Y-123135595D01*
X187466190Y-123254642D02*
X186966190Y-123254642D01*
X186966190Y-123064166D01*
X186990000Y-123016547D01*
X187013809Y-122992738D01*
X187061428Y-122968928D01*
X187132857Y-122968928D01*
X187180476Y-122992738D01*
X187204285Y-123016547D01*
X187228095Y-123064166D01*
X187228095Y-123254642D01*
X186966190Y-122802261D02*
X186966190Y-122492738D01*
X187156666Y-122659404D01*
X187156666Y-122587976D01*
X187180476Y-122540357D01*
X187204285Y-122516547D01*
X187251904Y-122492738D01*
X187370952Y-122492738D01*
X187418571Y-122516547D01*
X187442380Y-122540357D01*
X187466190Y-122587976D01*
X187466190Y-122730833D01*
X187442380Y-122778452D01*
X187418571Y-122802261D01*
X187466190Y-122016547D02*
X187466190Y-122302261D01*
X187466190Y-122159404D02*
X186966190Y-122159404D01*
X187037619Y-122207023D01*
X187085238Y-122254642D01*
X187109047Y-122302261D01*
%TO.C,Q2*%
X143107380Y-120093809D02*
X143059761Y-120070000D01*
X143012142Y-120022380D01*
X142940714Y-119950952D01*
X142893095Y-119927142D01*
X142845476Y-119927142D01*
X142869285Y-120046190D02*
X142821666Y-120022380D01*
X142774047Y-119974761D01*
X142750238Y-119879523D01*
X142750238Y-119712857D01*
X142774047Y-119617619D01*
X142821666Y-119570000D01*
X142869285Y-119546190D01*
X142964523Y-119546190D01*
X143012142Y-119570000D01*
X143059761Y-119617619D01*
X143083571Y-119712857D01*
X143083571Y-119879523D01*
X143059761Y-119974761D01*
X143012142Y-120022380D01*
X142964523Y-120046190D01*
X142869285Y-120046190D01*
X143274047Y-119593809D02*
X143297857Y-119570000D01*
X143345476Y-119546190D01*
X143464523Y-119546190D01*
X143512142Y-119570000D01*
X143535952Y-119593809D01*
X143559761Y-119641428D01*
X143559761Y-119689047D01*
X143535952Y-119760476D01*
X143250238Y-120046190D01*
X143559761Y-120046190D01*
%TO.C,Q3*%
X149677380Y-95348809D02*
X149629761Y-95325000D01*
X149582142Y-95277380D01*
X149510714Y-95205952D01*
X149463095Y-95182142D01*
X149415476Y-95182142D01*
X149439285Y-95301190D02*
X149391666Y-95277380D01*
X149344047Y-95229761D01*
X149320238Y-95134523D01*
X149320238Y-94967857D01*
X149344047Y-94872619D01*
X149391666Y-94825000D01*
X149439285Y-94801190D01*
X149534523Y-94801190D01*
X149582142Y-94825000D01*
X149629761Y-94872619D01*
X149653571Y-94967857D01*
X149653571Y-95134523D01*
X149629761Y-95229761D01*
X149582142Y-95277380D01*
X149534523Y-95301190D01*
X149439285Y-95301190D01*
X149820238Y-94801190D02*
X150129761Y-94801190D01*
X149963095Y-94991666D01*
X150034523Y-94991666D01*
X150082142Y-95015476D01*
X150105952Y-95039285D01*
X150129761Y-95086904D01*
X150129761Y-95205952D01*
X150105952Y-95253571D01*
X150082142Y-95277380D01*
X150034523Y-95301190D01*
X149891666Y-95301190D01*
X149844047Y-95277380D01*
X149820238Y-95253571D01*
D10*
%TO.C,J1*%
X127826666Y-95862380D02*
X127826666Y-96576666D01*
X127779047Y-96719523D01*
X127683809Y-96814761D01*
X127540952Y-96862380D01*
X127445714Y-96862380D01*
X128826666Y-96862380D02*
X128255238Y-96862380D01*
X128540952Y-96862380D02*
X128540952Y-95862380D01*
X128445714Y-96005238D01*
X128350476Y-96100476D01*
X128255238Y-96148095D01*
D11*
%TO.C,Q7*%
X162802380Y-95298809D02*
X162754761Y-95275000D01*
X162707142Y-95227380D01*
X162635714Y-95155952D01*
X162588095Y-95132142D01*
X162540476Y-95132142D01*
X162564285Y-95251190D02*
X162516666Y-95227380D01*
X162469047Y-95179761D01*
X162445238Y-95084523D01*
X162445238Y-94917857D01*
X162469047Y-94822619D01*
X162516666Y-94775000D01*
X162564285Y-94751190D01*
X162659523Y-94751190D01*
X162707142Y-94775000D01*
X162754761Y-94822619D01*
X162778571Y-94917857D01*
X162778571Y-95084523D01*
X162754761Y-95179761D01*
X162707142Y-95227380D01*
X162659523Y-95251190D01*
X162564285Y-95251190D01*
X162945238Y-94751190D02*
X163278571Y-94751190D01*
X163064285Y-95251190D01*
D10*
%TO.C,R5*%
X144914285Y-91612500D02*
X144557142Y-91862500D01*
X144914285Y-92041071D02*
X144164285Y-92041071D01*
X144164285Y-91755357D01*
X144200000Y-91683928D01*
X144235714Y-91648214D01*
X144307142Y-91612500D01*
X144414285Y-91612500D01*
X144485714Y-91648214D01*
X144521428Y-91683928D01*
X144557142Y-91755357D01*
X144557142Y-92041071D01*
X144164285Y-90933928D02*
X144164285Y-91291071D01*
X144521428Y-91326785D01*
X144485714Y-91291071D01*
X144450000Y-91219642D01*
X144450000Y-91041071D01*
X144485714Y-90969642D01*
X144521428Y-90933928D01*
X144592857Y-90898214D01*
X144771428Y-90898214D01*
X144842857Y-90933928D01*
X144878571Y-90969642D01*
X144914285Y-91041071D01*
X144914285Y-91219642D01*
X144878571Y-91291071D01*
X144842857Y-91326785D01*
%TO.C,C5*%
X142492857Y-91587500D02*
X142528571Y-91623214D01*
X142564285Y-91730357D01*
X142564285Y-91801785D01*
X142528571Y-91908928D01*
X142457142Y-91980357D01*
X142385714Y-92016071D01*
X142242857Y-92051785D01*
X142135714Y-92051785D01*
X141992857Y-92016071D01*
X141921428Y-91980357D01*
X141850000Y-91908928D01*
X141814285Y-91801785D01*
X141814285Y-91730357D01*
X141850000Y-91623214D01*
X141885714Y-91587500D01*
X141814285Y-90908928D02*
X141814285Y-91266071D01*
X142171428Y-91301785D01*
X142135714Y-91266071D01*
X142100000Y-91194642D01*
X142100000Y-91016071D01*
X142135714Y-90944642D01*
X142171428Y-90908928D01*
X142242857Y-90873214D01*
X142421428Y-90873214D01*
X142492857Y-90908928D01*
X142528571Y-90944642D01*
X142564285Y-91016071D01*
X142564285Y-91194642D01*
X142528571Y-91266071D01*
X142492857Y-91301785D01*
D11*
%TO.C,R21*%
X178051190Y-85733928D02*
X177813095Y-85900595D01*
X178051190Y-86019642D02*
X177551190Y-86019642D01*
X177551190Y-85829166D01*
X177575000Y-85781547D01*
X177598809Y-85757738D01*
X177646428Y-85733928D01*
X177717857Y-85733928D01*
X177765476Y-85757738D01*
X177789285Y-85781547D01*
X177813095Y-85829166D01*
X177813095Y-86019642D01*
X177598809Y-85543452D02*
X177575000Y-85519642D01*
X177551190Y-85472023D01*
X177551190Y-85352976D01*
X177575000Y-85305357D01*
X177598809Y-85281547D01*
X177646428Y-85257738D01*
X177694047Y-85257738D01*
X177765476Y-85281547D01*
X178051190Y-85567261D01*
X178051190Y-85257738D01*
X178051190Y-84781547D02*
X178051190Y-85067261D01*
X178051190Y-84924404D02*
X177551190Y-84924404D01*
X177622619Y-84972023D01*
X177670238Y-85019642D01*
X177694047Y-85067261D01*
D10*
%TO.C,R8*%
X143102380Y-110489166D02*
X142626190Y-110822500D01*
X143102380Y-111060595D02*
X142102380Y-111060595D01*
X142102380Y-110679642D01*
X142150000Y-110584404D01*
X142197619Y-110536785D01*
X142292857Y-110489166D01*
X142435714Y-110489166D01*
X142530952Y-110536785D01*
X142578571Y-110584404D01*
X142626190Y-110679642D01*
X142626190Y-111060595D01*
X142530952Y-109917738D02*
X142483333Y-110012976D01*
X142435714Y-110060595D01*
X142340476Y-110108214D01*
X142292857Y-110108214D01*
X142197619Y-110060595D01*
X142150000Y-110012976D01*
X142102380Y-109917738D01*
X142102380Y-109727261D01*
X142150000Y-109632023D01*
X142197619Y-109584404D01*
X142292857Y-109536785D01*
X142340476Y-109536785D01*
X142435714Y-109584404D01*
X142483333Y-109632023D01*
X142530952Y-109727261D01*
X142530952Y-109917738D01*
X142578571Y-110012976D01*
X142626190Y-110060595D01*
X142721428Y-110108214D01*
X142911904Y-110108214D01*
X143007142Y-110060595D01*
X143054761Y-110012976D01*
X143102380Y-109917738D01*
X143102380Y-109727261D01*
X143054761Y-109632023D01*
X143007142Y-109584404D01*
X142911904Y-109536785D01*
X142721428Y-109536785D01*
X142626190Y-109584404D01*
X142578571Y-109632023D01*
X142530952Y-109727261D01*
D11*
%TO.C,R34*%
X185126190Y-117956428D02*
X184888095Y-118123095D01*
X185126190Y-118242142D02*
X184626190Y-118242142D01*
X184626190Y-118051666D01*
X184650000Y-118004047D01*
X184673809Y-117980238D01*
X184721428Y-117956428D01*
X184792857Y-117956428D01*
X184840476Y-117980238D01*
X184864285Y-118004047D01*
X184888095Y-118051666D01*
X184888095Y-118242142D01*
X184626190Y-117789761D02*
X184626190Y-117480238D01*
X184816666Y-117646904D01*
X184816666Y-117575476D01*
X184840476Y-117527857D01*
X184864285Y-117504047D01*
X184911904Y-117480238D01*
X185030952Y-117480238D01*
X185078571Y-117504047D01*
X185102380Y-117527857D01*
X185126190Y-117575476D01*
X185126190Y-117718333D01*
X185102380Y-117765952D01*
X185078571Y-117789761D01*
X184792857Y-117051666D02*
X185126190Y-117051666D01*
X184602380Y-117170714D02*
X184959523Y-117289761D01*
X184959523Y-116980238D01*
D10*
%TO.C,J3*%
X196008666Y-114055380D02*
X196008666Y-114769666D01*
X195961047Y-114912523D01*
X195865809Y-115007761D01*
X195722952Y-115055380D01*
X195627714Y-115055380D01*
X196389619Y-114055380D02*
X197008666Y-114055380D01*
X196675333Y-114436333D01*
X196818190Y-114436333D01*
X196913428Y-114483952D01*
X196961047Y-114531571D01*
X197008666Y-114626809D01*
X197008666Y-114864904D01*
X196961047Y-114960142D01*
X196913428Y-115007761D01*
X196818190Y-115055380D01*
X196532476Y-115055380D01*
X196437238Y-115007761D01*
X196389619Y-114960142D01*
%TO.C,C3*%
X136575000Y-92117857D02*
X136539285Y-92153571D01*
X136432142Y-92189285D01*
X136360714Y-92189285D01*
X136253571Y-92153571D01*
X136182142Y-92082142D01*
X136146428Y-92010714D01*
X136110714Y-91867857D01*
X136110714Y-91760714D01*
X136146428Y-91617857D01*
X136182142Y-91546428D01*
X136253571Y-91475000D01*
X136360714Y-91439285D01*
X136432142Y-91439285D01*
X136539285Y-91475000D01*
X136575000Y-91510714D01*
X136825000Y-91439285D02*
X137289285Y-91439285D01*
X137039285Y-91725000D01*
X137146428Y-91725000D01*
X137217857Y-91760714D01*
X137253571Y-91796428D01*
X137289285Y-91867857D01*
X137289285Y-92046428D01*
X137253571Y-92117857D01*
X137217857Y-92153571D01*
X137146428Y-92189285D01*
X136932142Y-92189285D01*
X136860714Y-92153571D01*
X136825000Y-92117857D01*
%TO.C,Q9*%
X167828571Y-85785714D02*
X167757142Y-85750000D01*
X167685714Y-85678571D01*
X167578571Y-85571428D01*
X167507142Y-85535714D01*
X167435714Y-85535714D01*
X167471428Y-85714285D02*
X167400000Y-85678571D01*
X167328571Y-85607142D01*
X167292857Y-85464285D01*
X167292857Y-85214285D01*
X167328571Y-85071428D01*
X167400000Y-85000000D01*
X167471428Y-84964285D01*
X167614285Y-84964285D01*
X167685714Y-85000000D01*
X167757142Y-85071428D01*
X167792857Y-85214285D01*
X167792857Y-85464285D01*
X167757142Y-85607142D01*
X167685714Y-85678571D01*
X167614285Y-85714285D01*
X167471428Y-85714285D01*
X168150000Y-85714285D02*
X168292857Y-85714285D01*
X168364285Y-85678571D01*
X168400000Y-85642857D01*
X168471428Y-85535714D01*
X168507142Y-85392857D01*
X168507142Y-85107142D01*
X168471428Y-85035714D01*
X168435714Y-85000000D01*
X168364285Y-84964285D01*
X168221428Y-84964285D01*
X168150000Y-85000000D01*
X168114285Y-85035714D01*
X168078571Y-85107142D01*
X168078571Y-85285714D01*
X168114285Y-85357142D01*
X168150000Y-85392857D01*
X168221428Y-85428571D01*
X168364285Y-85428571D01*
X168435714Y-85392857D01*
X168471428Y-85357142D01*
X168507142Y-85285714D01*
D11*
%TO.C,C8*%
X148953571Y-116303333D02*
X148977380Y-116327142D01*
X149001190Y-116398571D01*
X149001190Y-116446190D01*
X148977380Y-116517619D01*
X148929761Y-116565238D01*
X148882142Y-116589047D01*
X148786904Y-116612857D01*
X148715476Y-116612857D01*
X148620238Y-116589047D01*
X148572619Y-116565238D01*
X148525000Y-116517619D01*
X148501190Y-116446190D01*
X148501190Y-116398571D01*
X148525000Y-116327142D01*
X148548809Y-116303333D01*
X148715476Y-116017619D02*
X148691666Y-116065238D01*
X148667857Y-116089047D01*
X148620238Y-116112857D01*
X148596428Y-116112857D01*
X148548809Y-116089047D01*
X148525000Y-116065238D01*
X148501190Y-116017619D01*
X148501190Y-115922380D01*
X148525000Y-115874761D01*
X148548809Y-115850952D01*
X148596428Y-115827142D01*
X148620238Y-115827142D01*
X148667857Y-115850952D01*
X148691666Y-115874761D01*
X148715476Y-115922380D01*
X148715476Y-116017619D01*
X148739285Y-116065238D01*
X148763095Y-116089047D01*
X148810714Y-116112857D01*
X148905952Y-116112857D01*
X148953571Y-116089047D01*
X148977380Y-116065238D01*
X149001190Y-116017619D01*
X149001190Y-115922380D01*
X148977380Y-115874761D01*
X148953571Y-115850952D01*
X148905952Y-115827142D01*
X148810714Y-115827142D01*
X148763095Y-115850952D01*
X148739285Y-115874761D01*
X148715476Y-115922380D01*
%TO.C,R19*%
X164481190Y-116541428D02*
X164243095Y-116708095D01*
X164481190Y-116827142D02*
X163981190Y-116827142D01*
X163981190Y-116636666D01*
X164005000Y-116589047D01*
X164028809Y-116565238D01*
X164076428Y-116541428D01*
X164147857Y-116541428D01*
X164195476Y-116565238D01*
X164219285Y-116589047D01*
X164243095Y-116636666D01*
X164243095Y-116827142D01*
X164481190Y-116065238D02*
X164481190Y-116350952D01*
X164481190Y-116208095D02*
X163981190Y-116208095D01*
X164052619Y-116255714D01*
X164100238Y-116303333D01*
X164124047Y-116350952D01*
X164481190Y-115827142D02*
X164481190Y-115731904D01*
X164457380Y-115684285D01*
X164433571Y-115660476D01*
X164362142Y-115612857D01*
X164266904Y-115589047D01*
X164076428Y-115589047D01*
X164028809Y-115612857D01*
X164005000Y-115636666D01*
X163981190Y-115684285D01*
X163981190Y-115779523D01*
X164005000Y-115827142D01*
X164028809Y-115850952D01*
X164076428Y-115874761D01*
X164195476Y-115874761D01*
X164243095Y-115850952D01*
X164266904Y-115827142D01*
X164290714Y-115779523D01*
X164290714Y-115684285D01*
X164266904Y-115636666D01*
X164243095Y-115612857D01*
X164195476Y-115589047D01*
%TO.C,R24*%
X182776190Y-85746428D02*
X182538095Y-85913095D01*
X182776190Y-86032142D02*
X182276190Y-86032142D01*
X182276190Y-85841666D01*
X182300000Y-85794047D01*
X182323809Y-85770238D01*
X182371428Y-85746428D01*
X182442857Y-85746428D01*
X182490476Y-85770238D01*
X182514285Y-85794047D01*
X182538095Y-85841666D01*
X182538095Y-86032142D01*
X182323809Y-85555952D02*
X182300000Y-85532142D01*
X182276190Y-85484523D01*
X182276190Y-85365476D01*
X182300000Y-85317857D01*
X182323809Y-85294047D01*
X182371428Y-85270238D01*
X182419047Y-85270238D01*
X182490476Y-85294047D01*
X182776190Y-85579761D01*
X182776190Y-85270238D01*
X182442857Y-84841666D02*
X182776190Y-84841666D01*
X182252380Y-84960714D02*
X182609523Y-85079761D01*
X182609523Y-84770238D01*
%TO.C,R20*%
X175651190Y-85721428D02*
X175413095Y-85888095D01*
X175651190Y-86007142D02*
X175151190Y-86007142D01*
X175151190Y-85816666D01*
X175175000Y-85769047D01*
X175198809Y-85745238D01*
X175246428Y-85721428D01*
X175317857Y-85721428D01*
X175365476Y-85745238D01*
X175389285Y-85769047D01*
X175413095Y-85816666D01*
X175413095Y-86007142D01*
X175198809Y-85530952D02*
X175175000Y-85507142D01*
X175151190Y-85459523D01*
X175151190Y-85340476D01*
X175175000Y-85292857D01*
X175198809Y-85269047D01*
X175246428Y-85245238D01*
X175294047Y-85245238D01*
X175365476Y-85269047D01*
X175651190Y-85554761D01*
X175651190Y-85245238D01*
X175151190Y-84935714D02*
X175151190Y-84888095D01*
X175175000Y-84840476D01*
X175198809Y-84816666D01*
X175246428Y-84792857D01*
X175341666Y-84769047D01*
X175460714Y-84769047D01*
X175555952Y-84792857D01*
X175603571Y-84816666D01*
X175627380Y-84840476D01*
X175651190Y-84888095D01*
X175651190Y-84935714D01*
X175627380Y-84983333D01*
X175603571Y-85007142D01*
X175555952Y-85030952D01*
X175460714Y-85054761D01*
X175341666Y-85054761D01*
X175246428Y-85030952D01*
X175198809Y-85007142D01*
X175175000Y-84983333D01*
X175151190Y-84935714D01*
D10*
%TO.C,R14*%
X156627380Y-110952857D02*
X156151190Y-111286190D01*
X156627380Y-111524285D02*
X155627380Y-111524285D01*
X155627380Y-111143333D01*
X155675000Y-111048095D01*
X155722619Y-111000476D01*
X155817857Y-110952857D01*
X155960714Y-110952857D01*
X156055952Y-111000476D01*
X156103571Y-111048095D01*
X156151190Y-111143333D01*
X156151190Y-111524285D01*
X156627380Y-110000476D02*
X156627380Y-110571904D01*
X156627380Y-110286190D02*
X155627380Y-110286190D01*
X155770238Y-110381428D01*
X155865476Y-110476666D01*
X155913095Y-110571904D01*
X155960714Y-109143333D02*
X156627380Y-109143333D01*
X155579761Y-109381428D02*
X156294047Y-109619523D01*
X156294047Y-109000476D01*
D11*
%TO.C,R15*%
X157931190Y-116548928D02*
X157693095Y-116715595D01*
X157931190Y-116834642D02*
X157431190Y-116834642D01*
X157431190Y-116644166D01*
X157455000Y-116596547D01*
X157478809Y-116572738D01*
X157526428Y-116548928D01*
X157597857Y-116548928D01*
X157645476Y-116572738D01*
X157669285Y-116596547D01*
X157693095Y-116644166D01*
X157693095Y-116834642D01*
X157931190Y-116072738D02*
X157931190Y-116358452D01*
X157931190Y-116215595D02*
X157431190Y-116215595D01*
X157502619Y-116263214D01*
X157550238Y-116310833D01*
X157574047Y-116358452D01*
X157431190Y-115620357D02*
X157431190Y-115858452D01*
X157669285Y-115882261D01*
X157645476Y-115858452D01*
X157621666Y-115810833D01*
X157621666Y-115691785D01*
X157645476Y-115644166D01*
X157669285Y-115620357D01*
X157716904Y-115596547D01*
X157835952Y-115596547D01*
X157883571Y-115620357D01*
X157907380Y-115644166D01*
X157931190Y-115691785D01*
X157931190Y-115810833D01*
X157907380Y-115858452D01*
X157883571Y-115882261D01*
%TO.C,C11*%
X162053571Y-91796428D02*
X162077380Y-91820238D01*
X162101190Y-91891666D01*
X162101190Y-91939285D01*
X162077380Y-92010714D01*
X162029761Y-92058333D01*
X161982142Y-92082142D01*
X161886904Y-92105952D01*
X161815476Y-92105952D01*
X161720238Y-92082142D01*
X161672619Y-92058333D01*
X161625000Y-92010714D01*
X161601190Y-91939285D01*
X161601190Y-91891666D01*
X161625000Y-91820238D01*
X161648809Y-91796428D01*
X162101190Y-91320238D02*
X162101190Y-91605952D01*
X162101190Y-91463095D02*
X161601190Y-91463095D01*
X161672619Y-91510714D01*
X161720238Y-91558333D01*
X161744047Y-91605952D01*
X162101190Y-90844047D02*
X162101190Y-91129761D01*
X162101190Y-90986904D02*
X161601190Y-90986904D01*
X161672619Y-91034523D01*
X161720238Y-91082142D01*
X161744047Y-91129761D01*
%TO.C,C13*%
X173278571Y-85733928D02*
X173302380Y-85757738D01*
X173326190Y-85829166D01*
X173326190Y-85876785D01*
X173302380Y-85948214D01*
X173254761Y-85995833D01*
X173207142Y-86019642D01*
X173111904Y-86043452D01*
X173040476Y-86043452D01*
X172945238Y-86019642D01*
X172897619Y-85995833D01*
X172850000Y-85948214D01*
X172826190Y-85876785D01*
X172826190Y-85829166D01*
X172850000Y-85757738D01*
X172873809Y-85733928D01*
X173326190Y-85257738D02*
X173326190Y-85543452D01*
X173326190Y-85400595D02*
X172826190Y-85400595D01*
X172897619Y-85448214D01*
X172945238Y-85495833D01*
X172969047Y-85543452D01*
X172826190Y-85091071D02*
X172826190Y-84781547D01*
X173016666Y-84948214D01*
X173016666Y-84876785D01*
X173040476Y-84829166D01*
X173064285Y-84805357D01*
X173111904Y-84781547D01*
X173230952Y-84781547D01*
X173278571Y-84805357D01*
X173302380Y-84829166D01*
X173326190Y-84876785D01*
X173326190Y-85019642D01*
X173302380Y-85067261D01*
X173278571Y-85091071D01*
%TO.C,R33*%
X185126190Y-98208928D02*
X184888095Y-98375595D01*
X185126190Y-98494642D02*
X184626190Y-98494642D01*
X184626190Y-98304166D01*
X184650000Y-98256547D01*
X184673809Y-98232738D01*
X184721428Y-98208928D01*
X184792857Y-98208928D01*
X184840476Y-98232738D01*
X184864285Y-98256547D01*
X184888095Y-98304166D01*
X184888095Y-98494642D01*
X184626190Y-98042261D02*
X184626190Y-97732738D01*
X184816666Y-97899404D01*
X184816666Y-97827976D01*
X184840476Y-97780357D01*
X184864285Y-97756547D01*
X184911904Y-97732738D01*
X185030952Y-97732738D01*
X185078571Y-97756547D01*
X185102380Y-97780357D01*
X185126190Y-97827976D01*
X185126190Y-97970833D01*
X185102380Y-98018452D01*
X185078571Y-98042261D01*
X184626190Y-97566071D02*
X184626190Y-97256547D01*
X184816666Y-97423214D01*
X184816666Y-97351785D01*
X184840476Y-97304166D01*
X184864285Y-97280357D01*
X184911904Y-97256547D01*
X185030952Y-97256547D01*
X185078571Y-97280357D01*
X185102380Y-97304166D01*
X185126190Y-97351785D01*
X185126190Y-97494642D01*
X185102380Y-97542261D01*
X185078571Y-97566071D01*
D10*
%TO.C,C1*%
X136575000Y-96817857D02*
X136539285Y-96853571D01*
X136432142Y-96889285D01*
X136360714Y-96889285D01*
X136253571Y-96853571D01*
X136182142Y-96782142D01*
X136146428Y-96710714D01*
X136110714Y-96567857D01*
X136110714Y-96460714D01*
X136146428Y-96317857D01*
X136182142Y-96246428D01*
X136253571Y-96175000D01*
X136360714Y-96139285D01*
X136432142Y-96139285D01*
X136539285Y-96175000D01*
X136575000Y-96210714D01*
X137289285Y-96889285D02*
X136860714Y-96889285D01*
X137075000Y-96889285D02*
X137075000Y-96139285D01*
X137003571Y-96246428D01*
X136932142Y-96317857D01*
X136860714Y-96353571D01*
D11*
%TO.C,R12*%
X151351190Y-116541428D02*
X151113095Y-116708095D01*
X151351190Y-116827142D02*
X150851190Y-116827142D01*
X150851190Y-116636666D01*
X150875000Y-116589047D01*
X150898809Y-116565238D01*
X150946428Y-116541428D01*
X151017857Y-116541428D01*
X151065476Y-116565238D01*
X151089285Y-116589047D01*
X151113095Y-116636666D01*
X151113095Y-116827142D01*
X151351190Y-116065238D02*
X151351190Y-116350952D01*
X151351190Y-116208095D02*
X150851190Y-116208095D01*
X150922619Y-116255714D01*
X150970238Y-116303333D01*
X150994047Y-116350952D01*
X150898809Y-115874761D02*
X150875000Y-115850952D01*
X150851190Y-115803333D01*
X150851190Y-115684285D01*
X150875000Y-115636666D01*
X150898809Y-115612857D01*
X150946428Y-115589047D01*
X150994047Y-115589047D01*
X151065476Y-115612857D01*
X151351190Y-115898571D01*
X151351190Y-115589047D01*
%TO.C,C10*%
X155533571Y-116541428D02*
X155557380Y-116565238D01*
X155581190Y-116636666D01*
X155581190Y-116684285D01*
X155557380Y-116755714D01*
X155509761Y-116803333D01*
X155462142Y-116827142D01*
X155366904Y-116850952D01*
X155295476Y-116850952D01*
X155200238Y-116827142D01*
X155152619Y-116803333D01*
X155105000Y-116755714D01*
X155081190Y-116684285D01*
X155081190Y-116636666D01*
X155105000Y-116565238D01*
X155128809Y-116541428D01*
X155581190Y-116065238D02*
X155581190Y-116350952D01*
X155581190Y-116208095D02*
X155081190Y-116208095D01*
X155152619Y-116255714D01*
X155200238Y-116303333D01*
X155224047Y-116350952D01*
X155081190Y-115755714D02*
X155081190Y-115708095D01*
X155105000Y-115660476D01*
X155128809Y-115636666D01*
X155176428Y-115612857D01*
X155271666Y-115589047D01*
X155390714Y-115589047D01*
X155485952Y-115612857D01*
X155533571Y-115636666D01*
X155557380Y-115660476D01*
X155581190Y-115708095D01*
X155581190Y-115755714D01*
X155557380Y-115803333D01*
X155533571Y-115827142D01*
X155485952Y-115850952D01*
X155390714Y-115874761D01*
X155271666Y-115874761D01*
X155176428Y-115850952D01*
X155128809Y-115827142D01*
X155105000Y-115803333D01*
X155081190Y-115755714D01*
D10*
%TO.C,C7*%
X149042857Y-91600000D02*
X149078571Y-91635714D01*
X149114285Y-91742857D01*
X149114285Y-91814285D01*
X149078571Y-91921428D01*
X149007142Y-91992857D01*
X148935714Y-92028571D01*
X148792857Y-92064285D01*
X148685714Y-92064285D01*
X148542857Y-92028571D01*
X148471428Y-91992857D01*
X148400000Y-91921428D01*
X148364285Y-91814285D01*
X148364285Y-91742857D01*
X148400000Y-91635714D01*
X148435714Y-91600000D01*
X148364285Y-91350000D02*
X148364285Y-90850000D01*
X149114285Y-91171428D01*
D11*
%TO.C,R27*%
X175463571Y-124206190D02*
X175296904Y-123968095D01*
X175177857Y-124206190D02*
X175177857Y-123706190D01*
X175368333Y-123706190D01*
X175415952Y-123730000D01*
X175439761Y-123753809D01*
X175463571Y-123801428D01*
X175463571Y-123872857D01*
X175439761Y-123920476D01*
X175415952Y-123944285D01*
X175368333Y-123968095D01*
X175177857Y-123968095D01*
X175654047Y-123753809D02*
X175677857Y-123730000D01*
X175725476Y-123706190D01*
X175844523Y-123706190D01*
X175892142Y-123730000D01*
X175915952Y-123753809D01*
X175939761Y-123801428D01*
X175939761Y-123849047D01*
X175915952Y-123920476D01*
X175630238Y-124206190D01*
X175939761Y-124206190D01*
X176106428Y-123706190D02*
X176439761Y-123706190D01*
X176225476Y-124206190D01*
D10*
%TO.C,U6*%
X179897380Y-119631904D02*
X180706904Y-119631904D01*
X180802142Y-119584285D01*
X180849761Y-119536666D01*
X180897380Y-119441428D01*
X180897380Y-119250952D01*
X180849761Y-119155714D01*
X180802142Y-119108095D01*
X180706904Y-119060476D01*
X179897380Y-119060476D01*
X179897380Y-118155714D02*
X179897380Y-118346190D01*
X179945000Y-118441428D01*
X179992619Y-118489047D01*
X180135476Y-118584285D01*
X180325952Y-118631904D01*
X180706904Y-118631904D01*
X180802142Y-118584285D01*
X180849761Y-118536666D01*
X180897380Y-118441428D01*
X180897380Y-118250952D01*
X180849761Y-118155714D01*
X180802142Y-118108095D01*
X180706904Y-118060476D01*
X180468809Y-118060476D01*
X180373571Y-118108095D01*
X180325952Y-118155714D01*
X180278333Y-118250952D01*
X180278333Y-118441428D01*
X180325952Y-118536666D01*
X180373571Y-118584285D01*
X180468809Y-118631904D01*
D11*
%TO.C,R26*%
X175516071Y-99476190D02*
X175349404Y-99238095D01*
X175230357Y-99476190D02*
X175230357Y-98976190D01*
X175420833Y-98976190D01*
X175468452Y-99000000D01*
X175492261Y-99023809D01*
X175516071Y-99071428D01*
X175516071Y-99142857D01*
X175492261Y-99190476D01*
X175468452Y-99214285D01*
X175420833Y-99238095D01*
X175230357Y-99238095D01*
X175706547Y-99023809D02*
X175730357Y-99000000D01*
X175777976Y-98976190D01*
X175897023Y-98976190D01*
X175944642Y-99000000D01*
X175968452Y-99023809D01*
X175992261Y-99071428D01*
X175992261Y-99119047D01*
X175968452Y-99190476D01*
X175682738Y-99476190D01*
X175992261Y-99476190D01*
X176420833Y-98976190D02*
X176325595Y-98976190D01*
X176277976Y-99000000D01*
X176254166Y-99023809D01*
X176206547Y-99095238D01*
X176182738Y-99190476D01*
X176182738Y-99380952D01*
X176206547Y-99428571D01*
X176230357Y-99452380D01*
X176277976Y-99476190D01*
X176373214Y-99476190D01*
X176420833Y-99452380D01*
X176444642Y-99428571D01*
X176468452Y-99380952D01*
X176468452Y-99261904D01*
X176444642Y-99214285D01*
X176420833Y-99190476D01*
X176373214Y-99166666D01*
X176277976Y-99166666D01*
X176230357Y-99190476D01*
X176206547Y-99214285D01*
X176182738Y-99261904D01*
D10*
%TO.C,Q10*%
X167268571Y-108797619D02*
X167173333Y-108750000D01*
X167078095Y-108654761D01*
X166935238Y-108511904D01*
X166840000Y-108464285D01*
X166744761Y-108464285D01*
X166792380Y-108702380D02*
X166697142Y-108654761D01*
X166601904Y-108559523D01*
X166554285Y-108369047D01*
X166554285Y-108035714D01*
X166601904Y-107845238D01*
X166697142Y-107750000D01*
X166792380Y-107702380D01*
X166982857Y-107702380D01*
X167078095Y-107750000D01*
X167173333Y-107845238D01*
X167220952Y-108035714D01*
X167220952Y-108369047D01*
X167173333Y-108559523D01*
X167078095Y-108654761D01*
X166982857Y-108702380D01*
X166792380Y-108702380D01*
X168173333Y-108702380D02*
X167601904Y-108702380D01*
X167887619Y-108702380D02*
X167887619Y-107702380D01*
X167792380Y-107845238D01*
X167697142Y-107940476D01*
X167601904Y-107988095D01*
X168792380Y-107702380D02*
X168887619Y-107702380D01*
X168982857Y-107750000D01*
X169030476Y-107797619D01*
X169078095Y-107892857D01*
X169125714Y-108083333D01*
X169125714Y-108321428D01*
X169078095Y-108511904D01*
X169030476Y-108607142D01*
X168982857Y-108654761D01*
X168887619Y-108702380D01*
X168792380Y-108702380D01*
X168697142Y-108654761D01*
X168649523Y-108607142D01*
X168601904Y-108511904D01*
X168554285Y-108321428D01*
X168554285Y-108083333D01*
X168601904Y-107892857D01*
X168649523Y-107797619D01*
X168697142Y-107750000D01*
X168792380Y-107702380D01*
D11*
%TO.C,R32*%
X185126190Y-93221428D02*
X184888095Y-93388095D01*
X185126190Y-93507142D02*
X184626190Y-93507142D01*
X184626190Y-93316666D01*
X184650000Y-93269047D01*
X184673809Y-93245238D01*
X184721428Y-93221428D01*
X184792857Y-93221428D01*
X184840476Y-93245238D01*
X184864285Y-93269047D01*
X184888095Y-93316666D01*
X184888095Y-93507142D01*
X184626190Y-93054761D02*
X184626190Y-92745238D01*
X184816666Y-92911904D01*
X184816666Y-92840476D01*
X184840476Y-92792857D01*
X184864285Y-92769047D01*
X184911904Y-92745238D01*
X185030952Y-92745238D01*
X185078571Y-92769047D01*
X185102380Y-92792857D01*
X185126190Y-92840476D01*
X185126190Y-92983333D01*
X185102380Y-93030952D01*
X185078571Y-93054761D01*
X184673809Y-92554761D02*
X184650000Y-92530952D01*
X184626190Y-92483333D01*
X184626190Y-92364285D01*
X184650000Y-92316666D01*
X184673809Y-92292857D01*
X184721428Y-92269047D01*
X184769047Y-92269047D01*
X184840476Y-92292857D01*
X185126190Y-92578571D01*
X185126190Y-92269047D01*
%TO.C,Q4*%
X149647380Y-120053809D02*
X149599761Y-120030000D01*
X149552142Y-119982380D01*
X149480714Y-119910952D01*
X149433095Y-119887142D01*
X149385476Y-119887142D01*
X149409285Y-120006190D02*
X149361666Y-119982380D01*
X149314047Y-119934761D01*
X149290238Y-119839523D01*
X149290238Y-119672857D01*
X149314047Y-119577619D01*
X149361666Y-119530000D01*
X149409285Y-119506190D01*
X149504523Y-119506190D01*
X149552142Y-119530000D01*
X149599761Y-119577619D01*
X149623571Y-119672857D01*
X149623571Y-119839523D01*
X149599761Y-119934761D01*
X149552142Y-119982380D01*
X149504523Y-120006190D01*
X149409285Y-120006190D01*
X150052142Y-119672857D02*
X150052142Y-120006190D01*
X149933095Y-119482380D02*
X149814047Y-119839523D01*
X150123571Y-119839523D01*
%TO.C,R7*%
X136616666Y-119151190D02*
X136450000Y-118913095D01*
X136330952Y-119151190D02*
X136330952Y-118651190D01*
X136521428Y-118651190D01*
X136569047Y-118675000D01*
X136592857Y-118698809D01*
X136616666Y-118746428D01*
X136616666Y-118817857D01*
X136592857Y-118865476D01*
X136569047Y-118889285D01*
X136521428Y-118913095D01*
X136330952Y-118913095D01*
X136783333Y-118651190D02*
X137116666Y-118651190D01*
X136902380Y-119151190D01*
%TO.C,R25*%
X182741190Y-110491428D02*
X182503095Y-110658095D01*
X182741190Y-110777142D02*
X182241190Y-110777142D01*
X182241190Y-110586666D01*
X182265000Y-110539047D01*
X182288809Y-110515238D01*
X182336428Y-110491428D01*
X182407857Y-110491428D01*
X182455476Y-110515238D01*
X182479285Y-110539047D01*
X182503095Y-110586666D01*
X182503095Y-110777142D01*
X182288809Y-110300952D02*
X182265000Y-110277142D01*
X182241190Y-110229523D01*
X182241190Y-110110476D01*
X182265000Y-110062857D01*
X182288809Y-110039047D01*
X182336428Y-110015238D01*
X182384047Y-110015238D01*
X182455476Y-110039047D01*
X182741190Y-110324761D01*
X182741190Y-110015238D01*
X182241190Y-109562857D02*
X182241190Y-109800952D01*
X182479285Y-109824761D01*
X182455476Y-109800952D01*
X182431666Y-109753333D01*
X182431666Y-109634285D01*
X182455476Y-109586666D01*
X182479285Y-109562857D01*
X182526904Y-109539047D01*
X182645952Y-109539047D01*
X182693571Y-109562857D01*
X182717380Y-109586666D01*
X182741190Y-109634285D01*
X182741190Y-109753333D01*
X182717380Y-109800952D01*
X182693571Y-109824761D01*
%TO.C,Q5*%
X156227380Y-95348809D02*
X156179761Y-95325000D01*
X156132142Y-95277380D01*
X156060714Y-95205952D01*
X156013095Y-95182142D01*
X155965476Y-95182142D01*
X155989285Y-95301190D02*
X155941666Y-95277380D01*
X155894047Y-95229761D01*
X155870238Y-95134523D01*
X155870238Y-94967857D01*
X155894047Y-94872619D01*
X155941666Y-94825000D01*
X155989285Y-94801190D01*
X156084523Y-94801190D01*
X156132142Y-94825000D01*
X156179761Y-94872619D01*
X156203571Y-94967857D01*
X156203571Y-95134523D01*
X156179761Y-95229761D01*
X156132142Y-95277380D01*
X156084523Y-95301190D01*
X155989285Y-95301190D01*
X156655952Y-94801190D02*
X156417857Y-94801190D01*
X156394047Y-95039285D01*
X156417857Y-95015476D01*
X156465476Y-94991666D01*
X156584523Y-94991666D01*
X156632142Y-95015476D01*
X156655952Y-95039285D01*
X156679761Y-95086904D01*
X156679761Y-95205952D01*
X156655952Y-95253571D01*
X156632142Y-95277380D01*
X156584523Y-95301190D01*
X156465476Y-95301190D01*
X156417857Y-95277380D01*
X156394047Y-95253571D01*
%TO.C,C2*%
X136626666Y-121463571D02*
X136602857Y-121487380D01*
X136531428Y-121511190D01*
X136483809Y-121511190D01*
X136412380Y-121487380D01*
X136364761Y-121439761D01*
X136340952Y-121392142D01*
X136317142Y-121296904D01*
X136317142Y-121225476D01*
X136340952Y-121130238D01*
X136364761Y-121082619D01*
X136412380Y-121035000D01*
X136483809Y-121011190D01*
X136531428Y-121011190D01*
X136602857Y-121035000D01*
X136626666Y-121058809D01*
X136817142Y-121058809D02*
X136840952Y-121035000D01*
X136888571Y-121011190D01*
X137007619Y-121011190D01*
X137055238Y-121035000D01*
X137079047Y-121058809D01*
X137102857Y-121106428D01*
X137102857Y-121154047D01*
X137079047Y-121225476D01*
X136793333Y-121511190D01*
X137102857Y-121511190D01*
%TO.C,C6*%
X142403571Y-116280833D02*
X142427380Y-116304642D01*
X142451190Y-116376071D01*
X142451190Y-116423690D01*
X142427380Y-116495119D01*
X142379761Y-116542738D01*
X142332142Y-116566547D01*
X142236904Y-116590357D01*
X142165476Y-116590357D01*
X142070238Y-116566547D01*
X142022619Y-116542738D01*
X141975000Y-116495119D01*
X141951190Y-116423690D01*
X141951190Y-116376071D01*
X141975000Y-116304642D01*
X141998809Y-116280833D01*
X141951190Y-115852261D02*
X141951190Y-115947500D01*
X141975000Y-115995119D01*
X141998809Y-116018928D01*
X142070238Y-116066547D01*
X142165476Y-116090357D01*
X142355952Y-116090357D01*
X142403571Y-116066547D01*
X142427380Y-116042738D01*
X142451190Y-115995119D01*
X142451190Y-115899880D01*
X142427380Y-115852261D01*
X142403571Y-115828452D01*
X142355952Y-115804642D01*
X142236904Y-115804642D01*
X142189285Y-115828452D01*
X142165476Y-115852261D01*
X142141666Y-115899880D01*
X142141666Y-115995119D01*
X142165476Y-116042738D01*
X142189285Y-116066547D01*
X142236904Y-116090357D01*
D12*
%TO.C,R35*%
X185810000Y-121936248D02*
X185810000Y-123358752D01*
X183990000Y-121936248D02*
X183990000Y-123358752D01*
%TO.C,C14*%
X172215000Y-109436248D02*
X172215000Y-110858752D01*
X174035000Y-109436248D02*
X174035000Y-110858752D01*
%TO.C,R22*%
X176385000Y-109436248D02*
X176385000Y-110858752D01*
X174565000Y-109436248D02*
X174565000Y-110858752D01*
%TO.C,JP6*%
X188695000Y-117060000D02*
X190695000Y-117060000D01*
X188695000Y-119860000D02*
X188695000Y-117060000D01*
X190695000Y-119860000D02*
X188695000Y-119860000D01*
X190695000Y-117060000D02*
X190695000Y-119860000D01*
%TO.C,R4*%
X146865000Y-84863748D02*
X146865000Y-86286252D01*
X148685000Y-84863748D02*
X148685000Y-86286252D01*
%TO.C,R6*%
X155235000Y-84863748D02*
X155235000Y-86286252D01*
X153415000Y-84863748D02*
X153415000Y-86286252D01*
%TO.C,JP5*%
X188375000Y-85975000D02*
X188375000Y-83975000D01*
X191175000Y-85975000D02*
X188375000Y-85975000D01*
X191175000Y-83975000D02*
X191175000Y-85975000D01*
X188375000Y-83975000D02*
X191175000Y-83975000D01*
%TO.C,R17*%
X165135000Y-92173752D02*
X165135000Y-90751248D01*
X163315000Y-92173752D02*
X163315000Y-90751248D01*
%TO.C,J2*%
X197672000Y-87630000D02*
X197672000Y-88960000D01*
X197672000Y-88960000D02*
X196342000Y-88960000D01*
X197672000Y-86360000D02*
X197672000Y-83760000D01*
X197672000Y-86360000D02*
X195012000Y-86360000D01*
X195012000Y-86360000D02*
X195012000Y-83760000D01*
X197672000Y-83760000D02*
X195012000Y-83760000D01*
%TO.C,R13*%
X156765000Y-92186252D02*
X156765000Y-90763748D01*
X158585000Y-92186252D02*
X158585000Y-90763748D01*
%TO.C,R1*%
X131000000Y-124021252D02*
X131000000Y-122598748D01*
X132820000Y-124021252D02*
X132820000Y-122598748D01*
%TO.C,R28*%
X188160000Y-92188748D02*
X188160000Y-93611252D01*
X186340000Y-92188748D02*
X186340000Y-93611252D01*
%TO.C,R29*%
X186340000Y-97201248D02*
X186340000Y-98623752D01*
X188160000Y-97201248D02*
X188160000Y-98623752D01*
%TO.C,Q8*%
X163435000Y-119260000D02*
X160275000Y-119260000D01*
X163435000Y-122420000D02*
X161975000Y-122420000D01*
X163435000Y-122420000D02*
X163435000Y-121490000D01*
X163435000Y-119260000D02*
X163435000Y-120190000D01*
%TO.C,C4*%
X137416252Y-115660000D02*
X135993748Y-115660000D01*
X137416252Y-117480000D02*
X135993748Y-117480000D01*
%TO.C,R9*%
X150215000Y-92186252D02*
X150215000Y-90763748D01*
X152035000Y-92186252D02*
X152035000Y-90763748D01*
%TO.C,R30*%
X188155000Y-116928748D02*
X188155000Y-118351252D01*
X186335000Y-116928748D02*
X186335000Y-118351252D01*
%TO.C,R18*%
X159965000Y-109598748D02*
X159965000Y-111021252D01*
X161785000Y-109598748D02*
X161785000Y-111021252D01*
%TO.C,R23*%
X178735000Y-109436248D02*
X178735000Y-110858752D01*
X176915000Y-109436248D02*
X176915000Y-110858752D01*
%TO.C,JP2*%
X190700000Y-92325000D02*
X190700000Y-95125000D01*
X190700000Y-95125000D02*
X188700000Y-95125000D01*
X188700000Y-92325000D02*
X190700000Y-92325000D01*
X188700000Y-95125000D02*
X188700000Y-92325000D01*
%TO.C,Q1*%
X143785000Y-97680000D02*
X142325000Y-97680000D01*
X143785000Y-94520000D02*
X143785000Y-95450000D01*
X143785000Y-94520000D02*
X140625000Y-94520000D01*
X143785000Y-97680000D02*
X143785000Y-96750000D01*
%TO.C,R11*%
X148675000Y-109598748D02*
X148675000Y-111021252D01*
X146855000Y-109598748D02*
X146855000Y-111021252D01*
%TO.C,JP7*%
X188375000Y-110710000D02*
X188375000Y-108710000D01*
X191175000Y-108710000D02*
X191175000Y-110710000D01*
X191175000Y-110710000D02*
X188375000Y-110710000D01*
X188375000Y-108710000D02*
X191175000Y-108710000D01*
%TO.C,U3*%
X183010000Y-94125000D02*
X183010000Y-96075000D01*
X183010000Y-94125000D02*
X183010000Y-92175000D01*
X177890000Y-94125000D02*
X177890000Y-97575000D01*
X177890000Y-94125000D02*
X177890000Y-92175000D01*
%TO.C,R3*%
X141710000Y-84876248D02*
X141710000Y-86298752D01*
X139890000Y-84876248D02*
X139890000Y-86298752D01*
%TO.C,TP1*%
X188975000Y-84975000D02*
G75*
G03*
X188975000Y-84975000I-1700000J0D01*
G01*
%TO.C,JP4*%
X188700000Y-120410000D02*
X190700000Y-120410000D01*
X188700000Y-123210000D02*
X188700000Y-120410000D01*
X190700000Y-123210000D02*
X188700000Y-123210000D01*
X190700000Y-120410000D02*
X190700000Y-123210000D01*
%TO.C,Q6*%
X156885000Y-119260000D02*
X153725000Y-119260000D01*
X156885000Y-122420000D02*
X155425000Y-122420000D01*
X156885000Y-122420000D02*
X156885000Y-121490000D01*
X156885000Y-119260000D02*
X156885000Y-120190000D01*
%TO.C,R16*%
X161785000Y-84863748D02*
X161785000Y-86286252D01*
X159965000Y-84863748D02*
X159965000Y-86286252D01*
%TO.C,R10*%
X143665000Y-116903752D02*
X143665000Y-115481248D01*
X145485000Y-116903752D02*
X145485000Y-115481248D01*
%TO.C,C12*%
X160965000Y-116921252D02*
X160965000Y-115498748D01*
X162785000Y-116921252D02*
X162785000Y-115498748D01*
%TO.C,C15*%
X179265000Y-84701248D02*
X179265000Y-86123752D01*
X181085000Y-84701248D02*
X181085000Y-86123752D01*
%TO.C,U1*%
X177040000Y-94125000D02*
X177040000Y-92175000D01*
X177040000Y-94125000D02*
X177040000Y-96075000D01*
X166920000Y-94125000D02*
X166920000Y-92175000D01*
X166920000Y-94125000D02*
X166920000Y-97575000D01*
%TO.C,C9*%
X154415000Y-92186252D02*
X154415000Y-90763748D01*
X156235000Y-92186252D02*
X156235000Y-90763748D01*
%TO.C,U2*%
X177040000Y-118860000D02*
X177040000Y-120810000D01*
X166920000Y-118860000D02*
X166920000Y-116910000D01*
X177040000Y-118860000D02*
X177040000Y-116910000D01*
X166920000Y-118860000D02*
X166920000Y-122310000D01*
%TO.C,JP3*%
X191800000Y-125210000D02*
X191800000Y-123210000D01*
X191800000Y-123210000D02*
X194600000Y-123210000D01*
X194600000Y-123210000D02*
X194600000Y-125210000D01*
X194600000Y-125210000D02*
X191800000Y-125210000D01*
%TO.C,C16*%
X179265000Y-109436248D02*
X179265000Y-110858752D01*
X181085000Y-109436248D02*
X181085000Y-110858752D01*
%TO.C,R2*%
X137411252Y-95110000D02*
X135988748Y-95110000D01*
X137411252Y-93290000D02*
X135988748Y-93290000D01*
%TO.C,R31*%
X186340000Y-121936248D02*
X186340000Y-123358752D01*
X188160000Y-121936248D02*
X188160000Y-123358752D01*
%TO.C,Q2*%
X143785000Y-122415000D02*
X142325000Y-122415000D01*
X143785000Y-122415000D02*
X143785000Y-121485000D01*
X143785000Y-119255000D02*
X143785000Y-120185000D01*
X143785000Y-119255000D02*
X140625000Y-119255000D01*
%TO.C,JP3*%
X191800000Y-98475000D02*
X194600000Y-98475000D01*
X194600000Y-100475000D02*
X191800000Y-100475000D01*
X191800000Y-100475000D02*
X191800000Y-98475000D01*
X194600000Y-98475000D02*
X194600000Y-100475000D01*
%TO.C,Q3*%
X150335000Y-94520000D02*
X147175000Y-94520000D01*
X150335000Y-97680000D02*
X150335000Y-96750000D01*
X150335000Y-97680000D02*
X148875000Y-97680000D01*
X150335000Y-94520000D02*
X150335000Y-95450000D01*
%TO.C,J1*%
X126830000Y-92810000D02*
X126830000Y-80050000D01*
X129490000Y-92810000D02*
X126830000Y-92810000D01*
X129490000Y-94080000D02*
X129490000Y-95410000D01*
X129490000Y-80050000D02*
X126830000Y-80050000D01*
X129490000Y-95410000D02*
X128160000Y-95410000D01*
X129490000Y-92810000D02*
X129490000Y-80050000D01*
%TO.C,Q7*%
X163435000Y-94520000D02*
X163435000Y-95450000D01*
X163435000Y-97680000D02*
X161975000Y-97680000D01*
X163435000Y-97680000D02*
X163435000Y-96750000D01*
X163435000Y-94520000D02*
X160275000Y-94520000D01*
%TO.C,R5*%
X143665000Y-92173752D02*
X143665000Y-90751248D01*
X145485000Y-92173752D02*
X145485000Y-90751248D01*
%TO.C,C5*%
X143135000Y-92173752D02*
X143135000Y-90751248D01*
X141315000Y-92173752D02*
X141315000Y-90751248D01*
%TO.C,R21*%
X176915000Y-84701248D02*
X176915000Y-86123752D01*
X178735000Y-84701248D02*
X178735000Y-86123752D01*
%TO.C,R8*%
X141710000Y-109611248D02*
X141710000Y-111033752D01*
X139890000Y-109611248D02*
X139890000Y-111033752D01*
%TO.C,R34*%
X183990000Y-116923748D02*
X183990000Y-118346252D01*
X185810000Y-116923748D02*
X185810000Y-118346252D01*
%TO.C,J3*%
X197672000Y-108403000D02*
X195012000Y-108403000D01*
X197672000Y-113603000D02*
X196342000Y-113603000D01*
X197672000Y-112273000D02*
X197672000Y-113603000D01*
X197672000Y-111003000D02*
X197672000Y-108403000D01*
X195012000Y-111003000D02*
X195012000Y-108403000D01*
X197672000Y-111003000D02*
X195012000Y-111003000D01*
%TO.C,C3*%
X137411252Y-90940000D02*
X135988748Y-90940000D01*
X137411252Y-92760000D02*
X135988748Y-92760000D01*
%TO.C,Q9*%
X165900000Y-88775000D02*
X169750000Y-88775000D01*
X167840000Y-84475000D02*
G75*
G03*
X165483600Y-85976193I0J-2600000D01*
G01*
X169750000Y-88775000D02*
G75*
G03*
X170142383Y-88187264I-1910000J1700000D01*
G01*
X165517369Y-88197045D02*
G75*
G03*
X165900000Y-88775000I2322631J1122045D01*
G01*
X170196400Y-85976193D02*
G75*
G03*
X167840000Y-84475000I-2356400J-1098807D01*
G01*
%TO.C,C8*%
X149685000Y-116921252D02*
X149685000Y-115498748D01*
X147865000Y-116921252D02*
X147865000Y-115498748D01*
%TO.C,R19*%
X165135000Y-116921252D02*
X165135000Y-115498748D01*
X163315000Y-116921252D02*
X163315000Y-115498748D01*
%TO.C,R24*%
X183435000Y-86111252D02*
X183435000Y-84688748D01*
X181615000Y-86111252D02*
X181615000Y-84688748D01*
%TO.C,R20*%
X174565000Y-84701248D02*
X174565000Y-86123752D01*
X176385000Y-84701248D02*
X176385000Y-86123752D01*
%TO.C,R14*%
X153415000Y-109598748D02*
X153415000Y-111021252D01*
X155235000Y-109598748D02*
X155235000Y-111021252D01*
%TO.C,R15*%
X158585000Y-116921252D02*
X158585000Y-115498748D01*
X156765000Y-116921252D02*
X156765000Y-115498748D01*
%TO.C,C11*%
X160965000Y-92186252D02*
X160965000Y-90763748D01*
X162785000Y-92186252D02*
X162785000Y-90763748D01*
%TO.C,C13*%
X172215000Y-84701248D02*
X172215000Y-86123752D01*
X174035000Y-84701248D02*
X174035000Y-86123752D01*
%TO.C,R33*%
X183990000Y-97201248D02*
X183990000Y-98623752D01*
X185810000Y-97201248D02*
X185810000Y-98623752D01*
%TO.C,C1*%
X135988748Y-97460000D02*
X137411252Y-97460000D01*
X135988748Y-95640000D02*
X137411252Y-95640000D01*
%TO.C,R12*%
X152035000Y-116921252D02*
X152035000Y-115498748D01*
X150215000Y-116921252D02*
X150215000Y-115498748D01*
%TO.C,C10*%
X154415000Y-116921252D02*
X154415000Y-115498748D01*
X156235000Y-116921252D02*
X156235000Y-115498748D01*
%TO.C,C7*%
X149685000Y-92186252D02*
X149685000Y-90763748D01*
X147865000Y-92186252D02*
X147865000Y-90763748D01*
%TO.C,R27*%
X176523752Y-124895000D02*
X175101248Y-124895000D01*
X176523752Y-123075000D02*
X175101248Y-123075000D01*
%TO.C,U6*%
X177890000Y-118860000D02*
X177890000Y-116910000D01*
X183010000Y-118860000D02*
X183010000Y-120810000D01*
X177890000Y-118860000D02*
X177890000Y-122310000D01*
X183010000Y-118860000D02*
X183010000Y-116910000D01*
%TO.C,R26*%
X176523752Y-100160000D02*
X175101248Y-100160000D01*
X176523752Y-98340000D02*
X175101248Y-98340000D01*
%TO.C,Q10*%
X165900000Y-113510000D02*
X169750000Y-113510000D01*
X167840000Y-109210000D02*
G75*
G03*
X165483600Y-110711193I0J-2600000D01*
G01*
X169750000Y-113510000D02*
G75*
G03*
X170142383Y-112922264I-1910000J1700000D01*
G01*
X165517369Y-112932045D02*
G75*
G03*
X165900000Y-113510000I2322631J1122045D01*
G01*
X170196400Y-110711193D02*
G75*
G03*
X167840000Y-109210000I-2356400J-1098807D01*
G01*
%TO.C,TP2*%
X188975000Y-109710000D02*
G75*
G03*
X188975000Y-109710000I-1700000J0D01*
G01*
%TO.C,R32*%
X185810000Y-92188748D02*
X185810000Y-93611252D01*
X183990000Y-92188748D02*
X183990000Y-93611252D01*
%TO.C,JP1*%
X188700000Y-95675000D02*
X190700000Y-95675000D01*
X188700000Y-98475000D02*
X188700000Y-95675000D01*
X190700000Y-95675000D02*
X190700000Y-98475000D01*
X190700000Y-98475000D02*
X188700000Y-98475000D01*
%TO.C,Q4*%
X150335000Y-119255000D02*
X150335000Y-120185000D01*
X150335000Y-122415000D02*
X148875000Y-122415000D01*
X150335000Y-119255000D02*
X147175000Y-119255000D01*
X150335000Y-122415000D02*
X150335000Y-121485000D01*
%TO.C,R7*%
X137411252Y-119845000D02*
X135988748Y-119845000D01*
X137411252Y-118025000D02*
X135988748Y-118025000D01*
%TO.C,R25*%
X183425000Y-110861252D02*
X183425000Y-109438748D01*
X181605000Y-110861252D02*
X181605000Y-109438748D01*
%TO.C,Q5*%
X156885000Y-97680000D02*
X156885000Y-96750000D01*
X156885000Y-94520000D02*
X156885000Y-95450000D01*
X156885000Y-97680000D02*
X155425000Y-97680000D01*
X156885000Y-94520000D02*
X153725000Y-94520000D01*
%TO.C,C2*%
X135988748Y-120375000D02*
X137411252Y-120375000D01*
X135988748Y-122195000D02*
X137411252Y-122195000D01*
%TO.C,C6*%
X141315000Y-116908752D02*
X141315000Y-115486248D01*
X143135000Y-116908752D02*
X143135000Y-115486248D01*
%TD*%
M02*
