%TF.GenerationSoftware,KiCad,Pcbnew,6.0.7-f9a2dced07~116~ubuntu20.04.1*%
%TF.CreationDate,2022-08-31T15:18:07+02:00*%
%TF.ProjectId,NVM-Amp,4e564d2d-416d-4702-9e6b-696361645f70,rev?*%
%TF.SameCoordinates,Original*%
%TF.FileFunction,Copper,L1,Top*%
%TF.FilePolarity,Positive*%
%FSLAX46Y46*%
G04 Gerber Fmt 4.6, Leading zero omitted, Abs format (unit mm)*
G04 Created by KiCad (PCBNEW 6.0.7-f9a2dced07~116~ubuntu20.04.1) date 2022-08-31 15:18:07*
%MOMM*%
%LPD*%
G01*
G04 APERTURE LIST*
G04 Aperture macros list*
%AMRoundRect*
0 Rectangle with rounded corners*
0 $1 Rounding radius*
0 $2 $3 $4 $5 $6 $7 $8 $9 X,Y pos of 4 corners*
0 Add a 4 corners polygon primitive as box body*
4,1,4,$2,$3,$4,$5,$6,$7,$8,$9,$2,$3,0*
0 Add four circle primitives for the rounded corners*
1,1,$1+$1,$2,$3*
1,1,$1+$1,$4,$5*
1,1,$1+$1,$6,$7*
1,1,$1+$1,$8,$9*
0 Add four rect primitives between the rounded corners*
20,1,$1+$1,$2,$3,$4,$5,0*
20,1,$1+$1,$4,$5,$6,$7,0*
20,1,$1+$1,$6,$7,$8,$9,0*
20,1,$1+$1,$8,$9,$2,$3,0*%
%AMFreePoly0*
4,1,6,1.000000,0.000000,0.500000,-0.750000,-0.500000,-0.750000,-0.500000,0.750000,0.500000,0.750000,1.000000,0.000000,1.000000,0.000000,$1*%
%AMFreePoly1*
4,1,6,0.500000,-0.750000,-0.650000,-0.750000,-0.150000,0.000000,-0.650000,0.750000,0.500000,0.750000,0.500000,-0.750000,0.500000,-0.750000,$1*%
G04 Aperture macros list end*
%TA.AperFunction,SMDPad,CuDef*%
%ADD10RoundRect,0.250000X-0.650000X0.412500X-0.650000X-0.412500X0.650000X-0.412500X0.650000X0.412500X0*%
%TD*%
%TA.AperFunction,SMDPad,CuDef*%
%ADD11FreePoly0,90.000000*%
%TD*%
%TA.AperFunction,SMDPad,CuDef*%
%ADD12FreePoly1,90.000000*%
%TD*%
%TA.AperFunction,SMDPad,CuDef*%
%ADD13FreePoly0,0.000000*%
%TD*%
%TA.AperFunction,SMDPad,CuDef*%
%ADD14FreePoly1,0.000000*%
%TD*%
%TA.AperFunction,SMDPad,CuDef*%
%ADD15RoundRect,0.250000X0.650000X-0.412500X0.650000X0.412500X-0.650000X0.412500X-0.650000X-0.412500X0*%
%TD*%
%TA.AperFunction,ComponentPad*%
%ADD16R,1.700000X1.700000*%
%TD*%
%TA.AperFunction,ComponentPad*%
%ADD17O,1.700000X1.700000*%
%TD*%
%TA.AperFunction,SMDPad,CuDef*%
%ADD18R,1.900000X0.800000*%
%TD*%
%TA.AperFunction,SMDPad,CuDef*%
%ADD19RoundRect,0.250000X0.412500X0.650000X-0.412500X0.650000X-0.412500X-0.650000X0.412500X-0.650000X0*%
%TD*%
%TA.AperFunction,SMDPad,CuDef*%
%ADD20RoundRect,0.150000X0.150000X-0.825000X0.150000X0.825000X-0.150000X0.825000X-0.150000X-0.825000X0*%
%TD*%
%TA.AperFunction,ComponentPad*%
%ADD21C,2.800000*%
%TD*%
%TA.AperFunction,SMDPad,CuDef*%
%ADD22FreePoly0,270.000000*%
%TD*%
%TA.AperFunction,SMDPad,CuDef*%
%ADD23FreePoly1,270.000000*%
%TD*%
%TA.AperFunction,SMDPad,CuDef*%
%ADD24FreePoly0,180.000000*%
%TD*%
%TA.AperFunction,SMDPad,CuDef*%
%ADD25FreePoly1,180.000000*%
%TD*%
%TA.AperFunction,ComponentPad*%
%ADD26R,1.500000X1.500000*%
%TD*%
%TA.AperFunction,ComponentPad*%
%ADD27C,1.500000*%
%TD*%
%TA.AperFunction,SMDPad,CuDef*%
%ADD28RoundRect,0.250000X-0.412500X-0.650000X0.412500X-0.650000X0.412500X0.650000X-0.412500X0.650000X0*%
%TD*%
%TA.AperFunction,ViaPad*%
%ADD29C,0.800000*%
%TD*%
%TA.AperFunction,Conductor*%
%ADD30C,0.250000*%
%TD*%
%TA.AperFunction,Conductor*%
%ADD31C,0.500000*%
%TD*%
%TA.AperFunction,Conductor*%
%ADD32C,2.000000*%
%TD*%
G04 APERTURE END LIST*
D10*
%TO.P,R35,1*%
%TO.N,Net-(JP4-Pad2)*%
X184900000Y-121085000D03*
%TO.P,R35,2*%
%TO.N,GNDA*%
X184900000Y-124210000D03*
%TD*%
%TO.P,C14,1*%
%TO.N,+5V*%
X173125000Y-108585000D03*
%TO.P,C14,2*%
%TO.N,Net-(C14-Pad2)*%
X173125000Y-111710000D03*
%TD*%
%TO.P,R22,1*%
%TO.N,+5V*%
X175475000Y-108585000D03*
%TO.P,R22,2*%
%TO.N,Net-(C14-Pad2)*%
X175475000Y-111710000D03*
%TD*%
D11*
%TO.P,JP6,1,A*%
%TO.N,Net-(JP4-Pad1)*%
X189695000Y-119185000D03*
D12*
%TO.P,JP6,2,B*%
%TO.N,Net-(JP6-Pad2)*%
X189695000Y-117735000D03*
%TD*%
D10*
%TO.P,R4,1*%
%TO.N,+5V*%
X147775000Y-84012500D03*
%TO.P,R4,2*%
%TO.N,Net-(Q1-Pad1)*%
X147775000Y-87137500D03*
%TD*%
%TO.P,R6,1*%
%TO.N,+5V*%
X154325000Y-84012500D03*
%TO.P,R6,2*%
%TO.N,Net-(Q1-Pad1)*%
X154325000Y-87137500D03*
%TD*%
D13*
%TO.P,JP5,1,A*%
%TO.N,Net-(JP5-Pad1)*%
X189050000Y-84975000D03*
D14*
%TO.P,JP5,2,B*%
%TO.N,Net-(JP5-Pad2)*%
X190500000Y-84975000D03*
%TD*%
D15*
%TO.P,R17,1*%
%TO.N,Net-(C11-Pad1)*%
X164225000Y-93025000D03*
%TO.P,R17,2*%
%TO.N,GNDA*%
X164225000Y-89900000D03*
%TD*%
D16*
%TO.P,J2,1,Pin_1*%
%TO.N,GNDA*%
X196342000Y-87630000D03*
D17*
%TO.P,J2,2,Pin_2*%
%TO.N,Net-(R28-Pad1)*%
X196342000Y-85090000D03*
%TD*%
D15*
%TO.P,R13,1*%
%TO.N,Net-(C9-Pad1)*%
X157675000Y-93037500D03*
%TO.P,R13,2*%
%TO.N,GNDA*%
X157675000Y-89912500D03*
%TD*%
%TO.P,R1,1*%
%TO.N,Net-(R1-Pad1)*%
X131910000Y-124872500D03*
%TO.P,R1,2*%
%TO.N,GNDA*%
X131910000Y-121747500D03*
%TD*%
D10*
%TO.P,R28,1*%
%TO.N,Net-(R28-Pad1)*%
X187250000Y-91337500D03*
%TO.P,R28,2*%
%TO.N,Net-(JP2-Pad2)*%
X187250000Y-94462500D03*
%TD*%
%TO.P,R29,1*%
%TO.N,Net-(JP2-Pad2)*%
X187250000Y-96350000D03*
%TO.P,R29,2*%
%TO.N,GNDA*%
X187250000Y-99475000D03*
%TD*%
D18*
%TO.P,Q8,1,D*%
%TO.N,Net-(Q10-Pad1)*%
X161175000Y-119890000D03*
%TO.P,Q8,2,G*%
%TO.N,Net-(C2-Pad2)*%
X161175000Y-121790000D03*
%TO.P,Q8,3,S*%
%TO.N,Net-(C12-Pad1)*%
X164175000Y-120840000D03*
%TD*%
D19*
%TO.P,C4,1*%
%TO.N,Net-(C2-Pad2)*%
X138267500Y-116570000D03*
%TO.P,C4,2*%
%TO.N,GNDA*%
X135142500Y-116570000D03*
%TD*%
D15*
%TO.P,R9,1*%
%TO.N,Net-(C7-Pad1)*%
X151125000Y-93037500D03*
%TO.P,R9,2*%
%TO.N,GNDA*%
X151125000Y-89912500D03*
%TD*%
D10*
%TO.P,R30,1*%
%TO.N,Net-(R30-Pad1)*%
X187245000Y-116077500D03*
%TO.P,R30,2*%
%TO.N,Net-(JP6-Pad2)*%
X187245000Y-119202500D03*
%TD*%
%TO.P,R18,1*%
%TO.N,+5V*%
X160875000Y-108747500D03*
%TO.P,R18,2*%
%TO.N,Net-(Q10-Pad1)*%
X160875000Y-111872500D03*
%TD*%
%TO.P,R23,1*%
%TO.N,Net-(C16-Pad1)*%
X177825000Y-108585000D03*
%TO.P,R23,2*%
%TO.N,-5V*%
X177825000Y-111710000D03*
%TD*%
D11*
%TO.P,JP2,1,A*%
%TO.N,Net-(JP1-Pad1)*%
X189700000Y-94450000D03*
D12*
%TO.P,JP2,2,B*%
%TO.N,Net-(JP2-Pad2)*%
X189700000Y-93000000D03*
%TD*%
D18*
%TO.P,Q1,1,D*%
%TO.N,Net-(Q1-Pad1)*%
X141525000Y-95150000D03*
%TO.P,Q1,2,G*%
%TO.N,Net-(C1-Pad2)*%
X141525000Y-97050000D03*
%TO.P,Q1,3,S*%
%TO.N,Net-(C5-Pad1)*%
X144525000Y-96100000D03*
%TD*%
D10*
%TO.P,R11,1*%
%TO.N,+5V*%
X147765000Y-108747500D03*
%TO.P,R11,2*%
%TO.N,Net-(Q10-Pad1)*%
X147765000Y-111872500D03*
%TD*%
D13*
%TO.P,JP7,1,A*%
%TO.N,Net-(JP7-Pad1)*%
X189050000Y-109710000D03*
D14*
%TO.P,JP7,2,B*%
%TO.N,Net-(JP7-Pad2)*%
X190500000Y-109710000D03*
%TD*%
D20*
%TO.P,U3,1,NC*%
%TO.N,unconnected-(U3-Pad1)*%
X178545000Y-96600000D03*
%TO.P,U3,2,-*%
%TO.N,Net-(R26-Pad1)*%
X179815000Y-96600000D03*
%TO.P,U3,3,+*%
%TO.N,GNDA*%
X181085000Y-96600000D03*
%TO.P,U3,4,V-*%
%TO.N,-5V*%
X182355000Y-96600000D03*
%TO.P,U3,5,NC*%
%TO.N,unconnected-(U3-Pad5)*%
X182355000Y-91650000D03*
%TO.P,U3,6*%
%TO.N,Net-(R28-Pad1)*%
X181085000Y-91650000D03*
%TO.P,U3,7,V+*%
%TO.N,+5V*%
X179815000Y-91650000D03*
%TO.P,U3,8,NC*%
%TO.N,unconnected-(U3-Pad8)*%
X178545000Y-91650000D03*
%TD*%
D10*
%TO.P,R3,1*%
%TO.N,+5V*%
X140800000Y-84025000D03*
%TO.P,R3,2*%
%TO.N,Net-(Q1-Pad1)*%
X140800000Y-87150000D03*
%TD*%
D21*
%TO.P,TP1,1,1*%
%TO.N,Net-(R28-Pad1)*%
X187275000Y-84975000D03*
%TD*%
D22*
%TO.P,JP4,1,A*%
%TO.N,Net-(JP4-Pad1)*%
X189700000Y-121085000D03*
D23*
%TO.P,JP4,2,B*%
%TO.N,Net-(JP4-Pad2)*%
X189700000Y-122535000D03*
%TD*%
D18*
%TO.P,Q6,1,D*%
%TO.N,Net-(Q10-Pad1)*%
X154625000Y-119890000D03*
%TO.P,Q6,2,G*%
%TO.N,Net-(C2-Pad2)*%
X154625000Y-121790000D03*
%TO.P,Q6,3,S*%
%TO.N,Net-(C10-Pad1)*%
X157625000Y-120840000D03*
%TD*%
D10*
%TO.P,R16,1*%
%TO.N,+5V*%
X160875000Y-84012500D03*
%TO.P,R16,2*%
%TO.N,Net-(Q1-Pad1)*%
X160875000Y-87137500D03*
%TD*%
D15*
%TO.P,R10,1*%
%TO.N,Net-(C6-Pad1)*%
X144575000Y-117755000D03*
%TO.P,R10,2*%
%TO.N,GNDA*%
X144575000Y-114630000D03*
%TD*%
%TO.P,C12,1*%
%TO.N,Net-(C12-Pad1)*%
X161875000Y-117772500D03*
%TO.P,C12,2*%
%TO.N,GNDA*%
X161875000Y-114647500D03*
%TD*%
D10*
%TO.P,C15,1*%
%TO.N,Net-(C15-Pad1)*%
X180175000Y-83850000D03*
%TO.P,C15,2*%
%TO.N,Net-(C15-Pad2)*%
X180175000Y-86975000D03*
%TD*%
D20*
%TO.P,U1,1*%
%TO.N,OSC*%
X167535000Y-96600000D03*
%TO.P,U1,2*%
%TO.N,Net-(U1-Pad2)*%
X168805000Y-96600000D03*
%TO.P,U1,3*%
%TO.N,Net-(C1-Pad1)*%
X170075000Y-96600000D03*
%TO.P,U1,4,V-*%
%TO.N,-5V*%
X171345000Y-96600000D03*
%TO.P,U1,5,GND*%
%TO.N,GNDA*%
X172615000Y-96600000D03*
%TO.P,U1,6*%
%TO.N,Net-(R26-Pad2)*%
X173885000Y-96600000D03*
%TO.P,U1,7*%
%TO.N,GNDA*%
X175155000Y-96600000D03*
%TO.P,U1,8*%
%TO.N,OSC*%
X176425000Y-96600000D03*
%TO.P,U1,9*%
X176425000Y-91650000D03*
%TO.P,U1,10*%
%TO.N,Net-(C15-Pad2)*%
X175155000Y-91650000D03*
%TO.P,U1,11*%
%TO.N,Net-(R26-Pad2)*%
X173885000Y-91650000D03*
%TO.P,U1,12,VL*%
%TO.N,+5V*%
X172615000Y-91650000D03*
%TO.P,U1,13,V+*%
X171345000Y-91650000D03*
%TO.P,U1,14*%
%TO.N,Net-(C1-Pad1)*%
X170075000Y-91650000D03*
%TO.P,U1,15*%
%TO.N,Net-(JP1-Pad1)*%
X168805000Y-91650000D03*
%TO.P,U1,16*%
%TO.N,OSC*%
X167535000Y-91650000D03*
%TD*%
D15*
%TO.P,C9,1*%
%TO.N,Net-(C9-Pad1)*%
X155325000Y-93037500D03*
%TO.P,C9,2*%
%TO.N,GNDA*%
X155325000Y-89912500D03*
%TD*%
D20*
%TO.P,U2,1*%
%TO.N,OSC*%
X167535000Y-121335000D03*
%TO.P,U2,2*%
%TO.N,Net-(R1-Pad1)*%
X168805000Y-121335000D03*
%TO.P,U2,3*%
%TO.N,Net-(C2-Pad1)*%
X170075000Y-121335000D03*
%TO.P,U2,4,V-*%
%TO.N,-5V*%
X171345000Y-121335000D03*
%TO.P,U2,5,GND*%
%TO.N,GNDA*%
X172615000Y-121335000D03*
%TO.P,U2,6*%
%TO.N,Net-(R27-Pad2)*%
X173885000Y-121335000D03*
%TO.P,U2,7*%
%TO.N,GNDA*%
X175155000Y-121335000D03*
%TO.P,U2,8*%
%TO.N,OSC*%
X176425000Y-121335000D03*
%TO.P,U2,9*%
X176425000Y-116385000D03*
%TO.P,U2,10*%
%TO.N,Net-(C16-Pad2)*%
X175155000Y-116385000D03*
%TO.P,U2,11*%
%TO.N,Net-(R27-Pad2)*%
X173885000Y-116385000D03*
%TO.P,U2,12,VL*%
%TO.N,+5V*%
X172615000Y-116385000D03*
%TO.P,U2,13,V+*%
X171345000Y-116385000D03*
%TO.P,U2,14*%
%TO.N,Net-(C2-Pad1)*%
X170075000Y-116385000D03*
%TO.P,U2,15*%
%TO.N,Net-(JP4-Pad1)*%
X168805000Y-116385000D03*
%TO.P,U2,16*%
%TO.N,OSC*%
X167535000Y-116385000D03*
%TD*%
D24*
%TO.P,JP3,1,A*%
%TO.N,GND*%
X193925000Y-124210000D03*
D25*
%TO.P,JP3,2,B*%
%TO.N,GNDA*%
X192475000Y-124210000D03*
%TD*%
D10*
%TO.P,C16,1*%
%TO.N,Net-(C16-Pad1)*%
X180175000Y-108585000D03*
%TO.P,C16,2*%
%TO.N,Net-(C16-Pad2)*%
X180175000Y-111710000D03*
%TD*%
D19*
%TO.P,R2,1*%
%TO.N,Net-(C1-Pad2)*%
X138262500Y-94200000D03*
%TO.P,R2,2*%
%TO.N,GNDA*%
X135137500Y-94200000D03*
%TD*%
D10*
%TO.P,R31,1*%
%TO.N,Net-(JP6-Pad2)*%
X187250000Y-121085000D03*
%TO.P,R31,2*%
%TO.N,GNDA*%
X187250000Y-124210000D03*
%TD*%
D18*
%TO.P,Q2,1,D*%
%TO.N,Net-(Q10-Pad1)*%
X141525000Y-119885000D03*
%TO.P,Q2,2,G*%
%TO.N,Net-(C2-Pad2)*%
X141525000Y-121785000D03*
%TO.P,Q2,3,S*%
%TO.N,Net-(C6-Pad1)*%
X144525000Y-120835000D03*
%TD*%
D24*
%TO.P,JP3,1,A*%
%TO.N,GND*%
X193925000Y-99475000D03*
D25*
%TO.P,JP3,2,B*%
%TO.N,GNDA*%
X192475000Y-99475000D03*
%TD*%
D18*
%TO.P,Q3,1,D*%
%TO.N,Net-(Q1-Pad1)*%
X148075000Y-95150000D03*
%TO.P,Q3,2,G*%
%TO.N,Net-(C1-Pad2)*%
X148075000Y-97050000D03*
%TO.P,Q3,3,S*%
%TO.N,Net-(C7-Pad1)*%
X151075000Y-96100000D03*
%TD*%
D16*
%TO.P,J1,1,Pin_1*%
%TO.N,Net-(R1-Pad1)*%
X128160000Y-94080000D03*
D17*
%TO.P,J1,2,Pin_2*%
%TO.N,Net-(U1-Pad2)*%
X128160000Y-91540000D03*
%TO.P,J1,3,Pin_3*%
%TO.N,GNDA*%
X128160000Y-89000000D03*
%TO.P,J1,4,Pin_4*%
X128160000Y-86460000D03*
%TO.P,J1,5,Pin_5*%
%TO.N,+5V*%
X128160000Y-83920000D03*
%TO.P,J1,6,Pin_6*%
%TO.N,-5V*%
X128160000Y-81380000D03*
%TD*%
D18*
%TO.P,Q7,1,D*%
%TO.N,Net-(Q1-Pad1)*%
X161175000Y-95150000D03*
%TO.P,Q7,2,G*%
%TO.N,Net-(C1-Pad2)*%
X161175000Y-97050000D03*
%TO.P,Q7,3,S*%
%TO.N,Net-(C11-Pad1)*%
X164175000Y-96100000D03*
%TD*%
D15*
%TO.P,R5,1*%
%TO.N,Net-(C5-Pad1)*%
X144575000Y-93025000D03*
%TO.P,R5,2*%
%TO.N,GNDA*%
X144575000Y-89900000D03*
%TD*%
%TO.P,C5,1*%
%TO.N,Net-(C5-Pad1)*%
X142225000Y-93025000D03*
%TO.P,C5,2*%
%TO.N,GNDA*%
X142225000Y-89900000D03*
%TD*%
D10*
%TO.P,R21,1*%
%TO.N,Net-(C15-Pad1)*%
X177825000Y-83850000D03*
%TO.P,R21,2*%
%TO.N,-5V*%
X177825000Y-86975000D03*
%TD*%
%TO.P,R8,1*%
%TO.N,+5V*%
X140800000Y-108760000D03*
%TO.P,R8,2*%
%TO.N,Net-(Q10-Pad1)*%
X140800000Y-111885000D03*
%TD*%
%TO.P,R34,1*%
%TO.N,Net-(R30-Pad1)*%
X184900000Y-116072500D03*
%TO.P,R34,2*%
%TO.N,Net-(JP4-Pad2)*%
X184900000Y-119197500D03*
%TD*%
D16*
%TO.P,J3,1,Pin_1*%
%TO.N,GNDA*%
X196342000Y-112273000D03*
D17*
%TO.P,J3,2,Pin_2*%
%TO.N,Net-(R30-Pad1)*%
X196342000Y-109733000D03*
%TD*%
D19*
%TO.P,C3,1*%
%TO.N,Net-(C1-Pad2)*%
X138262500Y-91850000D03*
%TO.P,C3,2*%
%TO.N,GNDA*%
X135137500Y-91850000D03*
%TD*%
D26*
%TO.P,Q9,1,B*%
%TO.N,Net-(Q1-Pad1)*%
X165300000Y-87075000D03*
D27*
%TO.P,Q9,2,C*%
%TO.N,Net-(C15-Pad1)*%
X167840000Y-87075000D03*
%TO.P,Q9,3,E*%
%TO.N,Net-(C13-Pad2)*%
X170380000Y-87075000D03*
%TD*%
D15*
%TO.P,C8,1*%
%TO.N,Net-(C8-Pad1)*%
X148775000Y-117772500D03*
%TO.P,C8,2*%
%TO.N,GNDA*%
X148775000Y-114647500D03*
%TD*%
%TO.P,R19,1*%
%TO.N,Net-(C12-Pad1)*%
X164225000Y-117772500D03*
%TO.P,R19,2*%
%TO.N,GNDA*%
X164225000Y-114647500D03*
%TD*%
%TO.P,R24,1*%
%TO.N,Net-(C15-Pad2)*%
X182525000Y-86962500D03*
%TO.P,R24,2*%
%TO.N,GNDA*%
X182525000Y-83837500D03*
%TD*%
D10*
%TO.P,R20,1*%
%TO.N,+5V*%
X175475000Y-83850000D03*
%TO.P,R20,2*%
%TO.N,Net-(C13-Pad2)*%
X175475000Y-86975000D03*
%TD*%
%TO.P,R14,1*%
%TO.N,+5V*%
X154325000Y-108747500D03*
%TO.P,R14,2*%
%TO.N,Net-(Q10-Pad1)*%
X154325000Y-111872500D03*
%TD*%
D15*
%TO.P,R15,1*%
%TO.N,Net-(C10-Pad1)*%
X157675000Y-117772500D03*
%TO.P,R15,2*%
%TO.N,GNDA*%
X157675000Y-114647500D03*
%TD*%
%TO.P,C11,1*%
%TO.N,Net-(C11-Pad1)*%
X161875000Y-93037500D03*
%TO.P,C11,2*%
%TO.N,GNDA*%
X161875000Y-89912500D03*
%TD*%
D10*
%TO.P,C13,1*%
%TO.N,+5V*%
X173125000Y-83850000D03*
%TO.P,C13,2*%
%TO.N,Net-(C13-Pad2)*%
X173125000Y-86975000D03*
%TD*%
%TO.P,R33,1*%
%TO.N,Net-(JP1-Pad2)*%
X184900000Y-96350000D03*
%TO.P,R33,2*%
%TO.N,GNDA*%
X184900000Y-99475000D03*
%TD*%
D28*
%TO.P,C1,1*%
%TO.N,Net-(C1-Pad1)*%
X135137500Y-96550000D03*
%TO.P,C1,2*%
%TO.N,Net-(C1-Pad2)*%
X138262500Y-96550000D03*
%TD*%
D15*
%TO.P,R12,1*%
%TO.N,Net-(C8-Pad1)*%
X151125000Y-117772500D03*
%TO.P,R12,2*%
%TO.N,GNDA*%
X151125000Y-114647500D03*
%TD*%
%TO.P,C10,1*%
%TO.N,Net-(C10-Pad1)*%
X155325000Y-117772500D03*
%TO.P,C10,2*%
%TO.N,GNDA*%
X155325000Y-114647500D03*
%TD*%
%TO.P,C7,1*%
%TO.N,Net-(C7-Pad1)*%
X148775000Y-93037500D03*
%TO.P,C7,2*%
%TO.N,GNDA*%
X148775000Y-89912500D03*
%TD*%
D19*
%TO.P,R27,1*%
%TO.N,Net-(R27-Pad1)*%
X177375000Y-123985000D03*
%TO.P,R27,2*%
%TO.N,Net-(R27-Pad2)*%
X174250000Y-123985000D03*
%TD*%
D20*
%TO.P,U6,1,NC*%
%TO.N,unconnected-(U6-Pad1)*%
X178545000Y-121335000D03*
%TO.P,U6,2,-*%
%TO.N,Net-(R27-Pad1)*%
X179815000Y-121335000D03*
%TO.P,U6,3,+*%
%TO.N,GNDA*%
X181085000Y-121335000D03*
%TO.P,U6,4,V-*%
%TO.N,-5V*%
X182355000Y-121335000D03*
%TO.P,U6,5,NC*%
%TO.N,unconnected-(U6-Pad5)*%
X182355000Y-116385000D03*
%TO.P,U6,6*%
%TO.N,Net-(R30-Pad1)*%
X181085000Y-116385000D03*
%TO.P,U6,7,V+*%
%TO.N,+5V*%
X179815000Y-116385000D03*
%TO.P,U6,8,NC*%
%TO.N,unconnected-(U6-Pad8)*%
X178545000Y-116385000D03*
%TD*%
D19*
%TO.P,R26,1*%
%TO.N,Net-(R26-Pad1)*%
X177375000Y-99250000D03*
%TO.P,R26,2*%
%TO.N,Net-(R26-Pad2)*%
X174250000Y-99250000D03*
%TD*%
D26*
%TO.P,Q10,1,B*%
%TO.N,Net-(Q10-Pad1)*%
X165300000Y-111810000D03*
D27*
%TO.P,Q10,2,C*%
%TO.N,Net-(C16-Pad1)*%
X167840000Y-111810000D03*
%TO.P,Q10,3,E*%
%TO.N,Net-(C14-Pad2)*%
X170380000Y-111810000D03*
%TD*%
D21*
%TO.P,TP2,1,1*%
%TO.N,Net-(R30-Pad1)*%
X187275000Y-109710000D03*
%TD*%
D10*
%TO.P,R32,1*%
%TO.N,Net-(R28-Pad1)*%
X184900000Y-91337500D03*
%TO.P,R32,2*%
%TO.N,Net-(JP1-Pad2)*%
X184900000Y-94462500D03*
%TD*%
D22*
%TO.P,JP1,1,A*%
%TO.N,Net-(JP1-Pad1)*%
X189700000Y-96350000D03*
D23*
%TO.P,JP1,2,B*%
%TO.N,Net-(JP1-Pad2)*%
X189700000Y-97800000D03*
%TD*%
D18*
%TO.P,Q4,1,D*%
%TO.N,Net-(Q10-Pad1)*%
X148075000Y-119885000D03*
%TO.P,Q4,2,G*%
%TO.N,Net-(C2-Pad2)*%
X148075000Y-121785000D03*
%TO.P,Q4,3,S*%
%TO.N,Net-(C8-Pad1)*%
X151075000Y-120835000D03*
%TD*%
D19*
%TO.P,R7,1*%
%TO.N,Net-(C2-Pad2)*%
X138262500Y-118935000D03*
%TO.P,R7,2*%
%TO.N,GNDA*%
X135137500Y-118935000D03*
%TD*%
D15*
%TO.P,R25,1*%
%TO.N,Net-(C16-Pad2)*%
X182515000Y-111712500D03*
%TO.P,R25,2*%
%TO.N,GNDA*%
X182515000Y-108587500D03*
%TD*%
D18*
%TO.P,Q5,1,D*%
%TO.N,Net-(Q1-Pad1)*%
X154625000Y-95150000D03*
%TO.P,Q5,2,G*%
%TO.N,Net-(C1-Pad2)*%
X154625000Y-97050000D03*
%TO.P,Q5,3,S*%
%TO.N,Net-(C9-Pad1)*%
X157625000Y-96100000D03*
%TD*%
D28*
%TO.P,C2,1*%
%TO.N,Net-(C2-Pad1)*%
X135137500Y-121285000D03*
%TO.P,C2,2*%
%TO.N,Net-(C2-Pad2)*%
X138262500Y-121285000D03*
%TD*%
D15*
%TO.P,C6,1*%
%TO.N,Net-(C6-Pad1)*%
X142225000Y-117760000D03*
%TO.P,C6,2*%
%TO.N,GNDA*%
X142225000Y-114635000D03*
%TD*%
D29*
%TO.N,Net-(C1-Pad2)*%
X138500000Y-97050000D03*
X147550000Y-97050000D03*
X154075000Y-97050000D03*
X160625000Y-97050000D03*
X140975000Y-97050000D03*
%TO.N,GNDA*%
X139175000Y-89875000D03*
X143400000Y-114610000D03*
X149950000Y-89900000D03*
X163050000Y-89900000D03*
X135150000Y-114610000D03*
X135150000Y-89875000D03*
X139175000Y-114610000D03*
X186075000Y-99475000D03*
X183775000Y-83825000D03*
X149950000Y-114635000D03*
X156500000Y-114635000D03*
X183775000Y-108560000D03*
X143400000Y-89875000D03*
X186075000Y-124210000D03*
X156500000Y-89900000D03*
X163050000Y-114635000D03*
%TO.N,+5V*%
X171975000Y-108610000D03*
X138130909Y-83898307D03*
X140740000Y-108610000D03*
X138120000Y-108610000D03*
X140770000Y-83920000D03*
X171975000Y-83875000D03*
X179825000Y-117635000D03*
X171975000Y-92900000D03*
X179825000Y-92900000D03*
X171975000Y-117635000D03*
%TO.N,Net-(C15-Pad2)*%
X180175000Y-86700000D03*
X175150000Y-90300000D03*
%TO.N,-5V*%
X177875000Y-87600000D03*
X182350000Y-120010000D03*
X171350000Y-95300000D03*
X171350000Y-120035000D03*
X177875000Y-112335000D03*
X182350000Y-95275000D03*
%TO.N,OSC*%
X176440000Y-121990000D03*
X176425000Y-118810000D03*
X176425000Y-94075000D03*
X167535000Y-118825000D03*
X176420000Y-90940000D03*
X176430000Y-97270000D03*
X167535000Y-94090000D03*
%TO.N,GND*%
X186890000Y-127645000D03*
X134700000Y-104935000D03*
X186800000Y-104945000D03*
X134700000Y-80200000D03*
X186890000Y-102910000D03*
X134890000Y-102910000D03*
X134890000Y-127645000D03*
X186800000Y-80210000D03*
X194025000Y-124235000D03*
X194025000Y-99500000D03*
%TO.N,Net-(C2-Pad2)*%
X140975000Y-121785000D03*
X154075000Y-121785000D03*
X147550000Y-121785000D03*
X160625000Y-121785000D03*
X138500000Y-121785000D03*
%TO.N,Net-(C16-Pad2)*%
X175150000Y-115035000D03*
X180175000Y-111435000D03*
%TO.N,Net-(R1-Pad1)*%
X168800000Y-122510000D03*
X131940000Y-124950000D03*
%TO.N,Net-(U1-Pad2)*%
X168800000Y-97775000D03*
%TO.N,Net-(R28-Pad1)*%
X187250000Y-89925000D03*
%TO.N,Net-(R30-Pad1)*%
X187250000Y-114660000D03*
%TD*%
D30*
%TO.N,Net-(Q1-Pad1)*%
X147775000Y-87137500D02*
X147775000Y-87350000D01*
X147775000Y-87350000D02*
X147875000Y-87450000D01*
X141100000Y-87450000D02*
X140800000Y-87150000D01*
%TO.N,GNDA*%
X164212500Y-89912500D02*
X164225000Y-89900000D01*
X182525000Y-83837500D02*
X183762500Y-83837500D01*
D31*
X139175000Y-89875000D02*
X139175000Y-82855000D01*
D30*
X148775000Y-89912500D02*
X151125000Y-89912500D01*
X184900000Y-99475000D02*
X186075000Y-99475000D01*
X175825000Y-123135000D02*
X175825000Y-125410000D01*
D31*
X188885000Y-105495000D02*
X188885000Y-99475000D01*
D30*
X144575000Y-114635000D02*
X142225000Y-114635000D01*
D31*
X180897500Y-82210000D02*
X182525000Y-83837500D01*
X196342000Y-112273000D02*
X192475000Y-116140000D01*
D30*
X175155000Y-122465000D02*
X175825000Y-123135000D01*
X164212500Y-114647500D02*
X164225000Y-114635000D01*
D31*
X181022500Y-107070000D02*
X182525000Y-108572500D01*
X187370000Y-107010000D02*
X188885000Y-105495000D01*
D30*
X175155000Y-96600000D02*
X175155000Y-97730000D01*
X148775000Y-114647500D02*
X151125000Y-114647500D01*
X183762500Y-83837500D02*
X183775000Y-83825000D01*
X161875000Y-89912500D02*
X164212500Y-89912500D01*
D31*
X192475000Y-99475000D02*
X188885000Y-99475000D01*
D30*
X184900000Y-124210000D02*
X186075000Y-124210000D01*
D31*
X184092500Y-107010000D02*
X187370000Y-107010000D01*
D30*
X175155000Y-97730000D02*
X175825000Y-98400000D01*
D31*
X192475000Y-91497000D02*
X192475000Y-99475000D01*
D30*
X182525000Y-108572500D02*
X183762500Y-108572500D01*
D31*
X139175000Y-107730000D02*
X139835000Y-107070000D01*
D30*
X175155000Y-121335000D02*
X175155000Y-122465000D01*
X186075000Y-99475000D02*
X187250000Y-99475000D01*
D31*
X139835000Y-107070000D02*
X181022500Y-107070000D01*
X188885000Y-99475000D02*
X187250000Y-99475000D01*
D30*
X192475000Y-124210000D02*
X187250000Y-124210000D01*
X155325000Y-89912500D02*
X157675000Y-89912500D01*
D31*
X139175000Y-82855000D02*
X139820000Y-82210000D01*
X192475000Y-116140000D02*
X192475000Y-124210000D01*
X139175000Y-114610000D02*
X139175000Y-107730000D01*
D30*
X186075000Y-124210000D02*
X187250000Y-124210000D01*
D31*
X139820000Y-82210000D02*
X180897500Y-82210000D01*
D30*
X175825000Y-98400000D02*
X175825000Y-100675000D01*
X161875000Y-114647500D02*
X164212500Y-114647500D01*
D31*
X196342000Y-87630000D02*
X192475000Y-91497000D01*
X182515000Y-108587500D02*
X184092500Y-107010000D01*
D30*
X183762500Y-108572500D02*
X183775000Y-108560000D01*
X144575000Y-89900000D02*
X142225000Y-89900000D01*
X155325000Y-114647500D02*
X157675000Y-114647500D01*
%TO.N,Net-(C15-Pad2)*%
X175155000Y-90305000D02*
X175150000Y-90300000D01*
X175155000Y-91650000D02*
X175155000Y-90305000D01*
%TO.N,OSC*%
X167535000Y-118825000D02*
X167535000Y-116385000D01*
X176410000Y-94090000D02*
X176425000Y-94075000D01*
X176425000Y-94075000D02*
X176425000Y-91650000D01*
X167535000Y-121335000D02*
X167535000Y-118825000D01*
X167535000Y-94090000D02*
X167535000Y-91650000D01*
X176425000Y-121335000D02*
X176425000Y-118810000D01*
X176425000Y-96600000D02*
X176425000Y-94075000D01*
X176410000Y-118825000D02*
X176425000Y-118810000D01*
X176425000Y-118810000D02*
X176425000Y-116385000D01*
X167535000Y-96600000D02*
X167535000Y-94090000D01*
D32*
%TO.N,GND*%
X186950000Y-102890000D02*
X134890000Y-102910000D01*
X134800000Y-104945000D02*
X134530000Y-104945000D01*
X134800000Y-80210000D02*
X134530000Y-80210000D01*
X186950000Y-127625000D02*
X134890000Y-127645000D01*
X186860000Y-80190000D02*
X134800000Y-80210000D01*
X134890000Y-127645000D02*
X134620000Y-127645000D01*
X186860000Y-104925000D02*
X134800000Y-104945000D01*
X134890000Y-102910000D02*
X134620000Y-102910000D01*
D30*
%TO.N,Net-(C16-Pad2)*%
X175155000Y-116385000D02*
X175155000Y-115040000D01*
X175155000Y-115040000D02*
X175150000Y-115035000D01*
%TO.N,Net-(Q10-Pad1)*%
X147775000Y-112085000D02*
X147875000Y-112185000D01*
X141100000Y-112185000D02*
X140800000Y-111885000D01*
X147775000Y-111872500D02*
X147775000Y-112085000D01*
D31*
%TO.N,Net-(R28-Pad1)*%
X194056000Y-82804000D02*
X196342000Y-85090000D01*
X187275000Y-84863604D02*
X189334604Y-82804000D01*
X187275000Y-84975000D02*
X187275000Y-84863604D01*
X189334604Y-82804000D02*
X194056000Y-82804000D01*
%TO.N,Net-(R30-Pad1)*%
X193797000Y-107188000D02*
X196342000Y-109733000D01*
X189685604Y-107188000D02*
X193797000Y-107188000D01*
X187275000Y-109710000D02*
X187275000Y-109598604D01*
X187275000Y-109598604D02*
X189685604Y-107188000D01*
%TD*%
%TA.AperFunction,Conductor*%
%TO.N,Net-(C15-Pad2)*%
G36*
X182917121Y-86320002D02*
G01*
X182963614Y-86373658D01*
X182975000Y-86426000D01*
X182975000Y-87499000D01*
X182954998Y-87567121D01*
X182901342Y-87613614D01*
X182849000Y-87625000D01*
X179651000Y-87625000D01*
X179582879Y-87604998D01*
X179536386Y-87551342D01*
X179525000Y-87499000D01*
X179525000Y-86589003D01*
X179545002Y-86520882D01*
X179598658Y-86474389D01*
X179650788Y-86463003D01*
X181349110Y-86460139D01*
X181351162Y-86460001D01*
X181351166Y-86460001D01*
X181412980Y-86455848D01*
X181412986Y-86455847D01*
X181415031Y-86455710D01*
X181418092Y-86455302D01*
X181445560Y-86451642D01*
X181445570Y-86451640D01*
X181447606Y-86451369D01*
X181449622Y-86450965D01*
X181449627Y-86450964D01*
X181469471Y-86446985D01*
X181512374Y-86438384D01*
X181517450Y-86437016D01*
X181596236Y-86408597D01*
X181598608Y-86407512D01*
X181598617Y-86407508D01*
X181619787Y-86397821D01*
X181634071Y-86391285D01*
X181707077Y-86350251D01*
X181726313Y-86332764D01*
X181790175Y-86301744D01*
X181811067Y-86300000D01*
X182849000Y-86300000D01*
X182917121Y-86320002D01*
G37*
%TD.AperFunction*%
%TD*%
%TA.AperFunction,Conductor*%
%TO.N,GNDA*%
G36*
X176355373Y-84835488D02*
G01*
X176356043Y-84835667D01*
X176372757Y-84840137D01*
X176429298Y-84872764D01*
X176429880Y-84873346D01*
X176462472Y-84929756D01*
X176462685Y-84930549D01*
X176462751Y-84995671D01*
X176462540Y-84996463D01*
X176429882Y-85053121D01*
X176429303Y-85053700D01*
X176372880Y-85086295D01*
X176355501Y-85090961D01*
X176322891Y-85095271D01*
X172079480Y-85097346D01*
X167143865Y-85099760D01*
X167124868Y-85099769D01*
X167119983Y-85100545D01*
X167119982Y-85100545D01*
X167098624Y-85103938D01*
X167001312Y-85119395D01*
X166889860Y-85176230D01*
X166801417Y-85264714D01*
X166744634Y-85376193D01*
X166743084Y-85385981D01*
X166743083Y-85385984D01*
X166728766Y-85476395D01*
X166725066Y-85499761D01*
X166725009Y-88146318D01*
X166744584Y-88269927D01*
X166801399Y-88381437D01*
X166889892Y-88469932D01*
X167001400Y-88526749D01*
X167125009Y-88546327D01*
X168600000Y-88546327D01*
X168723607Y-88526750D01*
X168835114Y-88469934D01*
X168923607Y-88381441D01*
X168967464Y-88295367D01*
X168975922Y-88278768D01*
X168975922Y-88278767D01*
X168980423Y-88269934D01*
X169000000Y-88146327D01*
X169000000Y-86109917D01*
X169001551Y-86090207D01*
X169005378Y-86066047D01*
X169016455Y-85996105D01*
X169028637Y-85958612D01*
X169067334Y-85882665D01*
X169090506Y-85850773D01*
X169150773Y-85790506D01*
X169182665Y-85767334D01*
X169258612Y-85728637D01*
X169296105Y-85716455D01*
X169390207Y-85701551D01*
X169409917Y-85700000D01*
X181348374Y-85700000D01*
X181380986Y-85704294D01*
X181385734Y-85705567D01*
X181446356Y-85742518D01*
X181477377Y-85806379D01*
X181468947Y-85876873D01*
X181423744Y-85931619D01*
X181385909Y-85948931D01*
X181380833Y-85950299D01*
X181348258Y-85954640D01*
X169752844Y-85974194D01*
X169673839Y-85974327D01*
X169550472Y-85994046D01*
X169439204Y-86050864D01*
X169350892Y-86139236D01*
X169294151Y-86250543D01*
X169292595Y-86260322D01*
X169275293Y-86369041D01*
X169274516Y-86373926D01*
X169272508Y-88377589D01*
X169272471Y-88414040D01*
X169270900Y-88433748D01*
X169256076Y-88526750D01*
X169255904Y-88527827D01*
X169243685Y-88565307D01*
X169204915Y-88641212D01*
X169181715Y-88673078D01*
X169121391Y-88733287D01*
X169089477Y-88756428D01*
X169013499Y-88795050D01*
X168975998Y-88807196D01*
X168903726Y-88818574D01*
X168881887Y-88822012D01*
X168862180Y-88823545D01*
X166450533Y-88821327D01*
X166313027Y-88821327D01*
X166305052Y-88823464D01*
X166305050Y-88823464D01*
X166260384Y-88835431D01*
X166260382Y-88835432D01*
X166244363Y-88839724D01*
X166194096Y-88889987D01*
X166175693Y-88958649D01*
X166175692Y-88966907D01*
X166175692Y-88966910D01*
X166175597Y-90192669D01*
X166174995Y-97984560D01*
X166174994Y-97993058D01*
X166173443Y-98012755D01*
X166169267Y-98039126D01*
X166158547Y-98106810D01*
X166146376Y-98144281D01*
X166107711Y-98220200D01*
X166084567Y-98252073D01*
X166030453Y-98306225D01*
X166024348Y-98312334D01*
X165992483Y-98335506D01*
X165916598Y-98374222D01*
X165879133Y-98386421D01*
X165785092Y-98401382D01*
X165765398Y-98402947D01*
X136755951Y-98425617D01*
X136723109Y-98421288D01*
X136696337Y-98414081D01*
X136639547Y-98381059D01*
X136632224Y-98373662D01*
X136599776Y-98316550D01*
X136597107Y-98306225D01*
X136597684Y-98241004D01*
X136600857Y-98229568D01*
X136633623Y-98173714D01*
X136642237Y-98165186D01*
X136698425Y-98132980D01*
X136726605Y-98125467D01*
X136758979Y-98121214D01*
X165625004Y-98101794D01*
X165741782Y-98101716D01*
X165741785Y-98101716D01*
X165750040Y-98101710D01*
X165760076Y-98099015D01*
X165796550Y-98089220D01*
X165796551Y-98089219D01*
X165812564Y-98084919D01*
X165858326Y-98039126D01*
X165875074Y-97976590D01*
X165875000Y-88826708D01*
X165877421Y-88802126D01*
X165890092Y-88738425D01*
X165908905Y-88693006D01*
X165937957Y-88649526D01*
X165972719Y-88614764D01*
X166016202Y-88585708D01*
X166061624Y-88566892D01*
X166137495Y-88551801D01*
X166237949Y-88531819D01*
X166323110Y-88474916D01*
X166380013Y-88389756D01*
X166399996Y-88289302D01*
X166400025Y-86460011D01*
X166380457Y-86336427D01*
X166375958Y-86327595D01*
X166375956Y-86327589D01*
X166360266Y-86296788D01*
X166352776Y-86272171D01*
X166351005Y-86272658D01*
X166348499Y-86263542D01*
X166347382Y-86254154D01*
X166301939Y-86151847D01*
X166222713Y-86072759D01*
X166212076Y-86068056D01*
X166212074Y-86068055D01*
X166152538Y-86041735D01*
X166120327Y-86027494D01*
X166094646Y-86024500D01*
X164505354Y-86024500D01*
X164501650Y-86024941D01*
X164501647Y-86024941D01*
X164494254Y-86025821D01*
X164479154Y-86027618D01*
X164470514Y-86031456D01*
X164470513Y-86031456D01*
X164431849Y-86048629D01*
X164380661Y-86059477D01*
X139849998Y-86051486D01*
X139850002Y-86051486D01*
X139712563Y-86051441D01*
X139643847Y-86069833D01*
X139593537Y-86120123D01*
X139575120Y-86188832D01*
X139574925Y-89839391D01*
X139574924Y-89854176D01*
X139573373Y-89873879D01*
X139561035Y-89951750D01*
X139560299Y-89956398D01*
X139548116Y-89993887D01*
X139524622Y-90039994D01*
X139514745Y-90059376D01*
X139491572Y-90091268D01*
X139439597Y-90143239D01*
X139407706Y-90166408D01*
X139342213Y-90199777D01*
X139304725Y-90211956D01*
X139222209Y-90225024D01*
X139202503Y-90226575D01*
X139167964Y-90226574D01*
X139124750Y-90226573D01*
X139100169Y-90224151D01*
X139038872Y-90211957D01*
X139036508Y-90211487D01*
X138991084Y-90192669D01*
X138947635Y-90163633D01*
X138912874Y-90128867D01*
X138883847Y-90085418D01*
X138865036Y-90039994D01*
X138860424Y-90016796D01*
X138852379Y-89976328D01*
X138849960Y-89951750D01*
X138849970Y-89855980D01*
X138854266Y-89823374D01*
X138859678Y-89803186D01*
X138892299Y-89746705D01*
X138894930Y-89744075D01*
X138951422Y-89711475D01*
X138987631Y-89701782D01*
X138987633Y-89701782D01*
X139024523Y-89691906D01*
X139040427Y-89687648D01*
X139040428Y-89687647D01*
X139056453Y-89683357D01*
X139106841Y-89632988D01*
X139125292Y-89564172D01*
X139125378Y-88889987D01*
X139125687Y-86460011D01*
X139125712Y-86260322D01*
X139125737Y-86066047D01*
X139127290Y-86046341D01*
X139142199Y-85952262D01*
X139154381Y-85914778D01*
X139193070Y-85838852D01*
X139216234Y-85806968D01*
X139246805Y-85776393D01*
X139276489Y-85746707D01*
X139308372Y-85723538D01*
X139384297Y-85684841D01*
X139421778Y-85672656D01*
X139515855Y-85657737D01*
X139535561Y-85656182D01*
X147733216Y-85654294D01*
X154106213Y-85652827D01*
X166000198Y-85650088D01*
X166005078Y-85649314D01*
X166005080Y-85649314D01*
X166113970Y-85632047D01*
X166113971Y-85632047D01*
X166123763Y-85630494D01*
X166178523Y-85602587D01*
X166226398Y-85578189D01*
X166226400Y-85578187D01*
X166235231Y-85573687D01*
X166323697Y-85485224D01*
X166380508Y-85373758D01*
X166400106Y-85250194D01*
X166400107Y-85245243D01*
X166400497Y-85240309D01*
X166400515Y-85240310D01*
X166401662Y-85225772D01*
X166410233Y-85171729D01*
X166416578Y-85131715D01*
X166428759Y-85094242D01*
X166449714Y-85053121D01*
X166467440Y-85018334D01*
X166490599Y-84986457D01*
X166550836Y-84926207D01*
X166582711Y-84903040D01*
X166594241Y-84897162D01*
X166640954Y-84873346D01*
X166658611Y-84864344D01*
X166696081Y-84852156D01*
X166719604Y-84848421D01*
X166790139Y-84837221D01*
X166809830Y-84835662D01*
X172552102Y-84832975D01*
X176322761Y-84831210D01*
X176355373Y-84835488D01*
G37*
%TD.AperFunction*%
%TD*%
%TA.AperFunction,Conductor*%
%TO.N,Net-(C2-Pad2)*%
G36*
X138534793Y-116211551D02*
G01*
X138628895Y-116226455D01*
X138666388Y-116238637D01*
X138742335Y-116277334D01*
X138774227Y-116300506D01*
X138834494Y-116360773D01*
X138857666Y-116392665D01*
X138896363Y-116468612D01*
X138908545Y-116506105D01*
X138923449Y-116600207D01*
X138925000Y-116619917D01*
X138925000Y-121450083D01*
X138923449Y-121469793D01*
X138908545Y-121563895D01*
X138896363Y-121601388D01*
X138857666Y-121677335D01*
X138834494Y-121709227D01*
X138774227Y-121769494D01*
X138742335Y-121792666D01*
X138666388Y-121831363D01*
X138628895Y-121843545D01*
X138534793Y-121858449D01*
X138515083Y-121860000D01*
X138009917Y-121860000D01*
X137990207Y-121858449D01*
X137896105Y-121843545D01*
X137858612Y-121831363D01*
X137782665Y-121792666D01*
X137750773Y-121769494D01*
X137690506Y-121709227D01*
X137667334Y-121677335D01*
X137628637Y-121601388D01*
X137616455Y-121563895D01*
X137601551Y-121469793D01*
X137600000Y-121450083D01*
X137600000Y-116619917D01*
X137601551Y-116600207D01*
X137616455Y-116506105D01*
X137628637Y-116468612D01*
X137667334Y-116392665D01*
X137690506Y-116360773D01*
X137750773Y-116300506D01*
X137782665Y-116277334D01*
X137858612Y-116238637D01*
X137896105Y-116226455D01*
X137990207Y-116211551D01*
X138009917Y-116210000D01*
X138515083Y-116210000D01*
X138534793Y-116211551D01*
G37*
%TD.AperFunction*%
%TD*%
%TA.AperFunction,Conductor*%
%TO.N,Net-(Q10-Pad1)*%
G36*
X149675000Y-112522500D02*
G01*
X147275000Y-112522500D01*
X147151393Y-112542077D01*
X147039886Y-112598893D01*
X146951393Y-112687386D01*
X146894577Y-112798893D01*
X146875000Y-112922500D01*
X146875000Y-119097500D01*
X146894577Y-119221107D01*
X146951393Y-119332614D01*
X147039886Y-119421107D01*
X147151393Y-119477923D01*
X147275000Y-119497500D01*
X148627581Y-119497500D01*
X148647293Y-119499051D01*
X148737537Y-119513345D01*
X148775023Y-119525525D01*
X148847490Y-119562448D01*
X148879379Y-119585618D01*
X148936882Y-119643121D01*
X148960052Y-119675010D01*
X148996975Y-119747477D01*
X149009156Y-119784965D01*
X149021878Y-119865289D01*
X149021878Y-119904711D01*
X149009156Y-119985035D01*
X148996975Y-120022523D01*
X148960052Y-120094990D01*
X148936882Y-120126879D01*
X148879379Y-120184382D01*
X148847490Y-120207552D01*
X148775023Y-120244475D01*
X148737537Y-120256655D01*
X148662171Y-120268592D01*
X148647292Y-120270949D01*
X148627581Y-120272500D01*
X146884917Y-120272500D01*
X146865207Y-120270949D01*
X146771105Y-120256045D01*
X146733612Y-120243863D01*
X146657665Y-120205166D01*
X146625773Y-120181994D01*
X146565506Y-120121727D01*
X146542334Y-120089835D01*
X146503637Y-120013888D01*
X146491455Y-119976395D01*
X146476551Y-119882293D01*
X146475000Y-119862583D01*
X146475000Y-111922500D01*
X149675000Y-111922500D01*
X149675000Y-112522500D01*
G37*
%TD.AperFunction*%
%TD*%
%TA.AperFunction,Conductor*%
%TO.N,Net-(C16-Pad2)*%
G36*
X182917121Y-111055002D02*
G01*
X182963614Y-111108658D01*
X182975000Y-111161000D01*
X182975000Y-112234000D01*
X182954998Y-112302121D01*
X182901342Y-112348614D01*
X182849000Y-112360000D01*
X179651000Y-112360000D01*
X179582879Y-112339998D01*
X179536386Y-112286342D01*
X179525000Y-112234000D01*
X179525000Y-111324003D01*
X179545002Y-111255882D01*
X179598658Y-111209389D01*
X179650788Y-111198003D01*
X181349110Y-111195139D01*
X181351162Y-111195001D01*
X181351166Y-111195001D01*
X181412980Y-111190848D01*
X181412986Y-111190847D01*
X181415031Y-111190710D01*
X181418092Y-111190302D01*
X181445560Y-111186642D01*
X181445570Y-111186640D01*
X181447606Y-111186369D01*
X181449622Y-111185965D01*
X181449627Y-111185964D01*
X181469471Y-111181985D01*
X181512374Y-111173384D01*
X181517450Y-111172016D01*
X181596236Y-111143597D01*
X181598608Y-111142512D01*
X181598617Y-111142508D01*
X181619787Y-111132821D01*
X181634071Y-111126285D01*
X181707077Y-111085251D01*
X181726313Y-111067764D01*
X181790175Y-111036744D01*
X181811067Y-111035000D01*
X182849000Y-111035000D01*
X182917121Y-111055002D01*
G37*
%TD.AperFunction*%
%TD*%
%TA.AperFunction,Conductor*%
%TO.N,Net-(C9-Pad1)*%
G36*
X158184793Y-92376551D02*
G01*
X158278895Y-92391455D01*
X158316388Y-92403637D01*
X158392335Y-92442334D01*
X158424227Y-92465506D01*
X158484494Y-92525773D01*
X158507666Y-92557665D01*
X158546363Y-92633612D01*
X158558545Y-92671105D01*
X158573449Y-92765207D01*
X158575000Y-92784917D01*
X158575000Y-96090083D01*
X158573449Y-96109793D01*
X158558545Y-96203895D01*
X158546363Y-96241388D01*
X158507666Y-96317335D01*
X158484494Y-96349227D01*
X158424227Y-96409494D01*
X158392335Y-96432666D01*
X158316388Y-96471363D01*
X158278895Y-96483545D01*
X158184793Y-96498449D01*
X158165083Y-96500000D01*
X157084917Y-96500000D01*
X157065207Y-96498449D01*
X156971105Y-96483545D01*
X156933612Y-96471363D01*
X156857665Y-96432666D01*
X156825773Y-96409494D01*
X156765506Y-96349227D01*
X156742334Y-96317335D01*
X156703637Y-96241388D01*
X156691455Y-96203895D01*
X156676551Y-96109793D01*
X156675000Y-96090083D01*
X156675000Y-94100000D01*
X156655423Y-93976393D01*
X156598607Y-93864886D01*
X156510114Y-93776393D01*
X156398607Y-93719577D01*
X156275000Y-93700000D01*
X154834917Y-93700000D01*
X154815207Y-93698449D01*
X154721105Y-93683545D01*
X154683612Y-93671363D01*
X154607665Y-93632666D01*
X154575773Y-93609494D01*
X154515506Y-93549227D01*
X154492334Y-93517335D01*
X154453637Y-93441388D01*
X154441455Y-93403895D01*
X154426551Y-93309793D01*
X154425000Y-93290083D01*
X154425000Y-92784917D01*
X154426551Y-92765207D01*
X154441455Y-92671105D01*
X154453637Y-92633612D01*
X154492334Y-92557665D01*
X154515506Y-92525773D01*
X154575773Y-92465506D01*
X154607665Y-92442334D01*
X154683612Y-92403637D01*
X154721105Y-92391455D01*
X154815207Y-92376551D01*
X154834917Y-92375000D01*
X158165083Y-92375000D01*
X158184793Y-92376551D01*
G37*
%TD.AperFunction*%
%TD*%
%TA.AperFunction,Conductor*%
%TO.N,Net-(C11-Pad1)*%
G36*
X164734793Y-92376551D02*
G01*
X164828895Y-92391455D01*
X164866388Y-92403637D01*
X164942335Y-92442334D01*
X164974227Y-92465506D01*
X165034494Y-92525773D01*
X165057666Y-92557665D01*
X165096363Y-92633612D01*
X165108545Y-92671105D01*
X165123449Y-92765207D01*
X165125000Y-92784917D01*
X165125000Y-96090083D01*
X165123449Y-96109793D01*
X165108545Y-96203895D01*
X165096363Y-96241388D01*
X165057666Y-96317335D01*
X165034494Y-96349227D01*
X164974227Y-96409494D01*
X164942335Y-96432666D01*
X164866388Y-96471363D01*
X164828895Y-96483545D01*
X164734793Y-96498449D01*
X164715083Y-96500000D01*
X163634917Y-96500000D01*
X163615207Y-96498449D01*
X163521105Y-96483545D01*
X163483612Y-96471363D01*
X163407665Y-96432666D01*
X163375773Y-96409494D01*
X163315506Y-96349227D01*
X163292334Y-96317335D01*
X163253637Y-96241388D01*
X163241455Y-96203895D01*
X163226551Y-96109793D01*
X163225000Y-96090083D01*
X163225000Y-94100000D01*
X163205423Y-93976393D01*
X163148607Y-93864886D01*
X163060114Y-93776393D01*
X162948607Y-93719577D01*
X162825000Y-93700000D01*
X161384917Y-93700000D01*
X161365207Y-93698449D01*
X161271105Y-93683545D01*
X161233612Y-93671363D01*
X161157665Y-93632666D01*
X161125773Y-93609494D01*
X161065506Y-93549227D01*
X161042334Y-93517335D01*
X161003637Y-93441388D01*
X160991455Y-93403895D01*
X160976551Y-93309793D01*
X160975000Y-93290083D01*
X160975000Y-92784917D01*
X160976551Y-92765207D01*
X160991455Y-92671105D01*
X161003637Y-92633612D01*
X161042334Y-92557665D01*
X161065506Y-92525773D01*
X161125773Y-92465506D01*
X161157665Y-92442334D01*
X161233612Y-92403637D01*
X161271105Y-92391455D01*
X161365207Y-92376551D01*
X161384917Y-92375000D01*
X164715083Y-92375000D01*
X164734793Y-92376551D01*
G37*
%TD.AperFunction*%
%TD*%
%TA.AperFunction,Conductor*%
%TO.N,+5V*%
G36*
X176192121Y-107955002D02*
G01*
X176238614Y-108008658D01*
X176250000Y-108061000D01*
X176250000Y-109109000D01*
X176229998Y-109177121D01*
X176176342Y-109223614D01*
X176124000Y-109235000D01*
X140026000Y-109235000D01*
X139957879Y-109214998D01*
X139911386Y-109161342D01*
X139900000Y-109109000D01*
X139900000Y-108061000D01*
X139920002Y-107992879D01*
X139973658Y-107946386D01*
X140026000Y-107935000D01*
X176124000Y-107935000D01*
X176192121Y-107955002D01*
G37*
%TD.AperFunction*%
%TD*%
%TA.AperFunction,Conductor*%
%TO.N,Net-(C2-Pad1)*%
G36*
X170165225Y-115852947D02*
G01*
X170210642Y-115871759D01*
X170266295Y-115908945D01*
X170301055Y-115943705D01*
X170338241Y-115999358D01*
X170357054Y-116044777D01*
X170372579Y-116122829D01*
X170375000Y-116147410D01*
X170375000Y-124075083D01*
X170373449Y-124094793D01*
X170358545Y-124188895D01*
X170346363Y-124226388D01*
X170307666Y-124302335D01*
X170284494Y-124334227D01*
X170224227Y-124394494D01*
X170192335Y-124417666D01*
X170116388Y-124456363D01*
X170078895Y-124468545D01*
X169984793Y-124483449D01*
X169965083Y-124485000D01*
X134884917Y-124485000D01*
X134865207Y-124483449D01*
X134771105Y-124468545D01*
X134733612Y-124456363D01*
X134657665Y-124417666D01*
X134625773Y-124394494D01*
X134565506Y-124334227D01*
X134542334Y-124302335D01*
X134503637Y-124226388D01*
X134491455Y-124188895D01*
X134476551Y-124094793D01*
X134475000Y-124075083D01*
X134475000Y-121227807D01*
X134476589Y-121207857D01*
X134491857Y-121112644D01*
X134504332Y-121074749D01*
X134543936Y-120998117D01*
X134567633Y-120966023D01*
X134629214Y-120905615D01*
X134661758Y-120882540D01*
X134739135Y-120844417D01*
X134777268Y-120832672D01*
X134814343Y-120827456D01*
X134872747Y-120819239D01*
X134892724Y-120818033D01*
X135372901Y-120827268D01*
X135392338Y-120829156D01*
X135456586Y-120840474D01*
X135485033Y-120845485D01*
X135521882Y-120858088D01*
X135596398Y-120897329D01*
X135627635Y-120920580D01*
X135686604Y-120980693D01*
X135709250Y-121012370D01*
X135747051Y-121087631D01*
X135758940Y-121124709D01*
X135773486Y-121217703D01*
X135775000Y-121237175D01*
X135775000Y-123510000D01*
X135794577Y-123633607D01*
X135851393Y-123745114D01*
X135939886Y-123833607D01*
X136051393Y-123890423D01*
X136175000Y-123910000D01*
X169375000Y-123910000D01*
X169498607Y-123890423D01*
X169610114Y-123833607D01*
X169698607Y-123745114D01*
X169755423Y-123633607D01*
X169775000Y-123510000D01*
X169775000Y-116147410D01*
X169777421Y-116122829D01*
X169792946Y-116044777D01*
X169811759Y-115999358D01*
X169848945Y-115943705D01*
X169883705Y-115908945D01*
X169939358Y-115871759D01*
X169984775Y-115852947D01*
X170050421Y-115839889D01*
X170099579Y-115839889D01*
X170165225Y-115852947D01*
G37*
%TD.AperFunction*%
%TD*%
%TA.AperFunction,Conductor*%
%TO.N,GNDA*%
G36*
X135742100Y-114230002D02*
G01*
X135788593Y-114283658D01*
X135799979Y-114336021D01*
X135799366Y-118059641D01*
X135799092Y-119719805D01*
X135779079Y-119787922D01*
X135725415Y-119834406D01*
X135672883Y-119845784D01*
X133018395Y-119841389D01*
X132779071Y-119840993D01*
X132779006Y-119854437D01*
X132770607Y-121589610D01*
X132750275Y-121657633D01*
X132696395Y-121703866D01*
X132644608Y-121715000D01*
X131121000Y-121715000D01*
X131052879Y-121694998D01*
X131006386Y-121641342D01*
X130995000Y-121589000D01*
X130995000Y-118185640D01*
X131015002Y-118117519D01*
X131068658Y-118071026D01*
X131120639Y-118059641D01*
X134471885Y-118050052D01*
X134471886Y-118050052D01*
X134490000Y-118050000D01*
X134475494Y-114336492D01*
X134495230Y-114268294D01*
X134548703Y-114221592D01*
X134601493Y-114210000D01*
X135673979Y-114210000D01*
X135742100Y-114230002D01*
G37*
%TD.AperFunction*%
%TD*%
%TA.AperFunction,Conductor*%
%TO.N,Net-(C6-Pad1)*%
G36*
X145084793Y-117111551D02*
G01*
X145178895Y-117126455D01*
X145216388Y-117138637D01*
X145292335Y-117177334D01*
X145324227Y-117200506D01*
X145384494Y-117260773D01*
X145407666Y-117292665D01*
X145446363Y-117368612D01*
X145458545Y-117406105D01*
X145473449Y-117500207D01*
X145475000Y-117519917D01*
X145475000Y-120825083D01*
X145473449Y-120844793D01*
X145458545Y-120938895D01*
X145446363Y-120976388D01*
X145407666Y-121052335D01*
X145384494Y-121084227D01*
X145324227Y-121144494D01*
X145292335Y-121167666D01*
X145216388Y-121206363D01*
X145178895Y-121218545D01*
X145084793Y-121233449D01*
X145065083Y-121235000D01*
X143984917Y-121235000D01*
X143965207Y-121233449D01*
X143871105Y-121218545D01*
X143833612Y-121206363D01*
X143757665Y-121167666D01*
X143725773Y-121144494D01*
X143665506Y-121084227D01*
X143642334Y-121052335D01*
X143603637Y-120976388D01*
X143591455Y-120938895D01*
X143576551Y-120844793D01*
X143575000Y-120825083D01*
X143575000Y-118810000D01*
X143555423Y-118686393D01*
X143498607Y-118574886D01*
X143410114Y-118486393D01*
X143298607Y-118429577D01*
X143175000Y-118410000D01*
X141734917Y-118410000D01*
X141715207Y-118408449D01*
X141621105Y-118393545D01*
X141583612Y-118381363D01*
X141507665Y-118342666D01*
X141475773Y-118319494D01*
X141415506Y-118259227D01*
X141392334Y-118227335D01*
X141353637Y-118151388D01*
X141341455Y-118113895D01*
X141326551Y-118019793D01*
X141325000Y-118000083D01*
X141325000Y-117519917D01*
X141326551Y-117500207D01*
X141341455Y-117406105D01*
X141353637Y-117368612D01*
X141392334Y-117292665D01*
X141415506Y-117260773D01*
X141475773Y-117200506D01*
X141507665Y-117177334D01*
X141583612Y-117138637D01*
X141621105Y-117126455D01*
X141715207Y-117111551D01*
X141734917Y-117110000D01*
X145065083Y-117110000D01*
X145084793Y-117111551D01*
G37*
%TD.AperFunction*%
%TD*%
%TA.AperFunction,Conductor*%
%TO.N,Net-(C13-Pad2)*%
G36*
X175883188Y-86326078D02*
G01*
X175987963Y-86339872D01*
X176019735Y-86348385D01*
X176109674Y-86385639D01*
X176138160Y-86402086D01*
X176215393Y-86461349D01*
X176238651Y-86484607D01*
X176297914Y-86561840D01*
X176314361Y-86590326D01*
X176351615Y-86680265D01*
X176360128Y-86712037D01*
X176373922Y-86816812D01*
X176375000Y-86833258D01*
X176375000Y-87116742D01*
X176373922Y-87133188D01*
X176360128Y-87237963D01*
X176351615Y-87269735D01*
X176314361Y-87359674D01*
X176297914Y-87388160D01*
X176238651Y-87465393D01*
X176215393Y-87488651D01*
X176138160Y-87547914D01*
X176109674Y-87564361D01*
X176019735Y-87601615D01*
X175987963Y-87610128D01*
X175883188Y-87623922D01*
X175866742Y-87625000D01*
X170383258Y-87625000D01*
X170366812Y-87623922D01*
X170262037Y-87610128D01*
X170230265Y-87601615D01*
X170140326Y-87564361D01*
X170111840Y-87547914D01*
X170034607Y-87488651D01*
X170011349Y-87465393D01*
X169952086Y-87388160D01*
X169935639Y-87359674D01*
X169898385Y-87269735D01*
X169889872Y-87237963D01*
X169876078Y-87133188D01*
X169875000Y-87116742D01*
X169875000Y-86833258D01*
X169876078Y-86816812D01*
X169889872Y-86712037D01*
X169898385Y-86680265D01*
X169935639Y-86590326D01*
X169952086Y-86561840D01*
X170011349Y-86484607D01*
X170034607Y-86461349D01*
X170111840Y-86402086D01*
X170140326Y-86385639D01*
X170230265Y-86348385D01*
X170262037Y-86339872D01*
X170366812Y-86326078D01*
X170383258Y-86325000D01*
X175866742Y-86325000D01*
X175883188Y-86326078D01*
G37*
%TD.AperFunction*%
%TD*%
%TA.AperFunction,Conductor*%
%TO.N,Net-(C8-Pad1)*%
G36*
X151634793Y-117111551D02*
G01*
X151728895Y-117126455D01*
X151766388Y-117138637D01*
X151842335Y-117177334D01*
X151874227Y-117200506D01*
X151934494Y-117260773D01*
X151957666Y-117292665D01*
X151996363Y-117368612D01*
X152008545Y-117406105D01*
X152023449Y-117500207D01*
X152025000Y-117519917D01*
X152025000Y-120825083D01*
X152023449Y-120844793D01*
X152008545Y-120938895D01*
X151996363Y-120976388D01*
X151957666Y-121052335D01*
X151934494Y-121084227D01*
X151874227Y-121144494D01*
X151842335Y-121167666D01*
X151766388Y-121206363D01*
X151728895Y-121218545D01*
X151634793Y-121233449D01*
X151615083Y-121235000D01*
X150534917Y-121235000D01*
X150515207Y-121233449D01*
X150421105Y-121218545D01*
X150383612Y-121206363D01*
X150307665Y-121167666D01*
X150275773Y-121144494D01*
X150215506Y-121084227D01*
X150192334Y-121052335D01*
X150153637Y-120976388D01*
X150141455Y-120938895D01*
X150126551Y-120844793D01*
X150125000Y-120825083D01*
X150125000Y-118835000D01*
X150105423Y-118711393D01*
X150048607Y-118599886D01*
X149960114Y-118511393D01*
X149848607Y-118454577D01*
X149725000Y-118435000D01*
X148284917Y-118435000D01*
X148265207Y-118433449D01*
X148171105Y-118418545D01*
X148133612Y-118406363D01*
X148057665Y-118367666D01*
X148025773Y-118344494D01*
X147965506Y-118284227D01*
X147942334Y-118252335D01*
X147903637Y-118176388D01*
X147891455Y-118138895D01*
X147876551Y-118044793D01*
X147875000Y-118025083D01*
X147875000Y-117519917D01*
X147876551Y-117500207D01*
X147891455Y-117406105D01*
X147903637Y-117368612D01*
X147942334Y-117292665D01*
X147965506Y-117260773D01*
X148025773Y-117200506D01*
X148057665Y-117177334D01*
X148133612Y-117138637D01*
X148171105Y-117126455D01*
X148265207Y-117111551D01*
X148284917Y-117110000D01*
X151615083Y-117110000D01*
X151634793Y-117111551D01*
G37*
%TD.AperFunction*%
%TD*%
%TA.AperFunction,Conductor*%
%TO.N,Net-(C7-Pad1)*%
G36*
X151634793Y-92376551D02*
G01*
X151728895Y-92391455D01*
X151766388Y-92403637D01*
X151842335Y-92442334D01*
X151874227Y-92465506D01*
X151934494Y-92525773D01*
X151957666Y-92557665D01*
X151996363Y-92633612D01*
X152008545Y-92671105D01*
X152023449Y-92765207D01*
X152025000Y-92784917D01*
X152025000Y-96090083D01*
X152023449Y-96109793D01*
X152008545Y-96203895D01*
X151996363Y-96241388D01*
X151957666Y-96317335D01*
X151934494Y-96349227D01*
X151874227Y-96409494D01*
X151842335Y-96432666D01*
X151766388Y-96471363D01*
X151728895Y-96483545D01*
X151634793Y-96498449D01*
X151615083Y-96500000D01*
X150534917Y-96500000D01*
X150515207Y-96498449D01*
X150421105Y-96483545D01*
X150383612Y-96471363D01*
X150307665Y-96432666D01*
X150275773Y-96409494D01*
X150215506Y-96349227D01*
X150192334Y-96317335D01*
X150153637Y-96241388D01*
X150141455Y-96203895D01*
X150126551Y-96109793D01*
X150125000Y-96090083D01*
X150125000Y-94100000D01*
X150105423Y-93976393D01*
X150048607Y-93864886D01*
X149960114Y-93776393D01*
X149848607Y-93719577D01*
X149725000Y-93700000D01*
X148284917Y-93700000D01*
X148265207Y-93698449D01*
X148171105Y-93683545D01*
X148133612Y-93671363D01*
X148057665Y-93632666D01*
X148025773Y-93609494D01*
X147965506Y-93549227D01*
X147942334Y-93517335D01*
X147903637Y-93441388D01*
X147891455Y-93403895D01*
X147876551Y-93309793D01*
X147875000Y-93290083D01*
X147875000Y-92784917D01*
X147876551Y-92765207D01*
X147891455Y-92671105D01*
X147903637Y-92633612D01*
X147942334Y-92557665D01*
X147965506Y-92525773D01*
X148025773Y-92465506D01*
X148057665Y-92442334D01*
X148133612Y-92403637D01*
X148171105Y-92391455D01*
X148265207Y-92376551D01*
X148284917Y-92375000D01*
X151615083Y-92375000D01*
X151634793Y-92376551D01*
G37*
%TD.AperFunction*%
%TD*%
%TA.AperFunction,Conductor*%
%TO.N,Net-(Q10-Pad1)*%
G36*
X165634793Y-111411551D02*
G01*
X165728895Y-111426455D01*
X165766388Y-111438637D01*
X165842335Y-111477334D01*
X165874227Y-111500506D01*
X165934494Y-111560773D01*
X165957666Y-111592665D01*
X165996363Y-111668612D01*
X166008545Y-111706105D01*
X166023449Y-111800207D01*
X166025000Y-111819917D01*
X166025000Y-112125083D01*
X166023449Y-112144793D01*
X166016860Y-112186393D01*
X166008545Y-112238895D01*
X165996363Y-112276388D01*
X165957666Y-112352335D01*
X165934494Y-112384227D01*
X165874227Y-112444494D01*
X165842335Y-112467666D01*
X165766388Y-112506363D01*
X165728895Y-112518545D01*
X165634793Y-112533449D01*
X165615083Y-112535000D01*
X140725000Y-112535000D01*
X140601393Y-112554577D01*
X140489886Y-112611393D01*
X140401393Y-112699886D01*
X140344577Y-112811393D01*
X140325000Y-112935000D01*
X140325000Y-119085000D01*
X140344577Y-119208607D01*
X140401393Y-119320114D01*
X140489886Y-119408607D01*
X140601393Y-119465423D01*
X140725000Y-119485000D01*
X142065083Y-119485000D01*
X142084793Y-119486551D01*
X142178895Y-119501455D01*
X142216388Y-119513637D01*
X142292335Y-119552334D01*
X142324227Y-119575506D01*
X142384494Y-119635773D01*
X142407666Y-119667665D01*
X142446363Y-119743612D01*
X142458545Y-119781105D01*
X142471878Y-119865290D01*
X142471878Y-119904710D01*
X142458545Y-119988895D01*
X142446363Y-120026388D01*
X142407666Y-120102335D01*
X142384494Y-120134227D01*
X142324227Y-120194494D01*
X142292335Y-120217666D01*
X142216388Y-120256363D01*
X142178895Y-120268545D01*
X142084793Y-120283449D01*
X142065083Y-120285000D01*
X140334917Y-120285000D01*
X140315207Y-120283449D01*
X140221105Y-120268545D01*
X140183612Y-120256363D01*
X140107665Y-120217666D01*
X140075773Y-120194494D01*
X140015506Y-120134227D01*
X139992334Y-120102335D01*
X139953637Y-120026388D01*
X139941455Y-119988895D01*
X139926551Y-119894793D01*
X139925000Y-119875083D01*
X139925000Y-112319917D01*
X139926551Y-112300207D01*
X139930324Y-112276388D01*
X139941455Y-112206105D01*
X139953637Y-112168612D01*
X139992334Y-112092665D01*
X140015506Y-112060773D01*
X140075773Y-112000506D01*
X140107665Y-111977334D01*
X140183612Y-111938637D01*
X140221105Y-111926455D01*
X140315207Y-111911551D01*
X140334917Y-111910000D01*
X164400000Y-111910000D01*
X164495671Y-111890970D01*
X164505989Y-111884076D01*
X164505991Y-111884075D01*
X164566461Y-111843670D01*
X164576777Y-111836777D01*
X164583670Y-111826461D01*
X164624075Y-111765991D01*
X164624076Y-111765989D01*
X164630970Y-111755671D01*
X164664141Y-111588907D01*
X164682955Y-111543488D01*
X164709300Y-111504061D01*
X164744061Y-111469300D01*
X164763671Y-111456196D01*
X164783490Y-111442954D01*
X164828909Y-111424141D01*
X164863927Y-111417175D01*
X164887830Y-111412421D01*
X164912410Y-111410000D01*
X165615083Y-111410000D01*
X165634793Y-111411551D01*
G37*
%TD.AperFunction*%
%TD*%
%TA.AperFunction,Conductor*%
%TO.N,GNDA*%
G36*
X172697941Y-120876996D02*
G01*
X172743360Y-120895810D01*
X172794953Y-120930283D01*
X172829717Y-120965047D01*
X172864190Y-121016640D01*
X172883004Y-121062058D01*
X172897579Y-121135328D01*
X172900000Y-121159911D01*
X172900000Y-124770008D01*
X172917037Y-124899418D01*
X172920197Y-124907047D01*
X172946601Y-124970791D01*
X172966987Y-125020008D01*
X173046447Y-125123561D01*
X173150000Y-125203021D01*
X173157626Y-125206180D01*
X173157628Y-125206181D01*
X173186616Y-125218188D01*
X173270590Y-125252971D01*
X173400000Y-125270008D01*
X180300000Y-125270008D01*
X180429410Y-125252971D01*
X180513384Y-125218188D01*
X180542372Y-125206181D01*
X180542374Y-125206180D01*
X180550000Y-125203021D01*
X180653553Y-125123561D01*
X180733013Y-125020008D01*
X180753400Y-124970791D01*
X180779803Y-124907047D01*
X180782963Y-124899418D01*
X180800000Y-124770008D01*
X180800000Y-121509911D01*
X180802421Y-121485328D01*
X180816996Y-121412058D01*
X180835810Y-121366640D01*
X180870283Y-121315047D01*
X180905047Y-121280283D01*
X180956640Y-121245810D01*
X181002059Y-121226996D01*
X181062918Y-121214890D01*
X181112082Y-121214890D01*
X181172941Y-121226996D01*
X181218360Y-121245810D01*
X181269953Y-121280283D01*
X181304717Y-121315047D01*
X181339190Y-121366640D01*
X181358004Y-121412058D01*
X181372579Y-121485328D01*
X181375000Y-121509911D01*
X181375000Y-123035000D01*
X181392037Y-123164410D01*
X181441987Y-123285000D01*
X181521447Y-123388553D01*
X181625000Y-123468013D01*
X181632626Y-123471172D01*
X181632628Y-123471173D01*
X181737961Y-123514803D01*
X181745590Y-123517963D01*
X181875000Y-123535000D01*
X187641742Y-123535000D01*
X187658188Y-123536078D01*
X187762963Y-123549872D01*
X187794735Y-123558385D01*
X187884674Y-123595639D01*
X187913160Y-123612086D01*
X187990393Y-123671349D01*
X188013651Y-123694607D01*
X188072914Y-123771840D01*
X188089361Y-123800326D01*
X188126615Y-123890265D01*
X188135128Y-123922037D01*
X188148922Y-124026812D01*
X188150000Y-124043258D01*
X188150000Y-124376742D01*
X188148922Y-124393188D01*
X188135128Y-124497963D01*
X188126615Y-124529735D01*
X188089361Y-124619674D01*
X188072914Y-124648160D01*
X188013651Y-124725393D01*
X187990393Y-124748651D01*
X187913160Y-124807914D01*
X187884674Y-124824361D01*
X187794735Y-124861615D01*
X187762963Y-124870128D01*
X187658188Y-124883922D01*
X187641742Y-124885000D01*
X182812500Y-124885000D01*
X182685030Y-124905189D01*
X182570039Y-124963780D01*
X182478780Y-125055039D01*
X182420189Y-125170030D01*
X182418638Y-125179821D01*
X182418638Y-125179822D01*
X182382933Y-125405259D01*
X182370751Y-125442751D01*
X182330279Y-125522182D01*
X182307107Y-125554074D01*
X182244074Y-125617107D01*
X182212183Y-125640279D01*
X182169116Y-125662222D01*
X182132751Y-125680751D01*
X182095260Y-125692933D01*
X181997292Y-125708449D01*
X181977583Y-125710000D01*
X172833258Y-125710000D01*
X172816812Y-125708922D01*
X172712037Y-125695128D01*
X172680265Y-125686615D01*
X172590326Y-125649361D01*
X172561840Y-125632914D01*
X172484607Y-125573651D01*
X172461349Y-125550393D01*
X172402086Y-125473160D01*
X172385639Y-125444674D01*
X172348385Y-125354735D01*
X172339872Y-125322963D01*
X172326078Y-125218188D01*
X172325000Y-125201742D01*
X172325000Y-121159911D01*
X172327421Y-121135328D01*
X172341996Y-121062058D01*
X172360810Y-121016640D01*
X172395283Y-120965047D01*
X172430047Y-120930283D01*
X172481640Y-120895810D01*
X172527059Y-120876996D01*
X172587918Y-120864890D01*
X172637082Y-120864890D01*
X172697941Y-120876996D01*
G37*
%TD.AperFunction*%
%TD*%
%TA.AperFunction,Conductor*%
%TO.N,Net-(R27-Pad2)*%
G36*
X173972941Y-116026996D02*
G01*
X174018360Y-116045810D01*
X174069953Y-116080283D01*
X174104717Y-116115047D01*
X174139190Y-116166640D01*
X174158004Y-116212058D01*
X174172579Y-116285328D01*
X174175000Y-116309911D01*
X174175000Y-122722500D01*
X174192742Y-122834519D01*
X174244231Y-122935572D01*
X174324428Y-123015769D01*
X174425481Y-123067258D01*
X174435270Y-123068808D01*
X174435272Y-123068809D01*
X174534298Y-123084493D01*
X174629811Y-123099620D01*
X174667299Y-123111801D01*
X174732793Y-123145172D01*
X174764685Y-123168344D01*
X174816656Y-123220315D01*
X174839828Y-123252207D01*
X174873198Y-123317699D01*
X174885380Y-123355192D01*
X174898449Y-123437708D01*
X174900000Y-123457418D01*
X174900000Y-124376742D01*
X174898922Y-124393188D01*
X174885128Y-124497963D01*
X174876615Y-124529735D01*
X174839361Y-124619674D01*
X174822914Y-124648160D01*
X174763651Y-124725393D01*
X174740393Y-124748651D01*
X174663160Y-124807914D01*
X174634674Y-124824361D01*
X174544735Y-124861615D01*
X174512963Y-124870128D01*
X174408188Y-124883922D01*
X174391742Y-124885000D01*
X174108258Y-124885000D01*
X174091812Y-124883922D01*
X173987037Y-124870128D01*
X173955265Y-124861615D01*
X173865326Y-124824361D01*
X173836840Y-124807914D01*
X173759607Y-124748651D01*
X173736349Y-124725393D01*
X173677086Y-124648160D01*
X173660639Y-124619674D01*
X173623385Y-124529735D01*
X173614872Y-124497963D01*
X173601078Y-124393188D01*
X173600000Y-124376742D01*
X173600000Y-116309911D01*
X173602421Y-116285328D01*
X173616996Y-116212058D01*
X173635810Y-116166640D01*
X173670283Y-116115047D01*
X173705047Y-116080283D01*
X173756640Y-116045810D01*
X173802059Y-116026996D01*
X173862918Y-116014890D01*
X173912082Y-116014890D01*
X173972941Y-116026996D01*
G37*
%TD.AperFunction*%
%TD*%
%TA.AperFunction,Conductor*%
%TO.N,Net-(R27-Pad1)*%
G36*
X179897941Y-121676996D02*
G01*
X179943360Y-121695810D01*
X179994953Y-121730283D01*
X180029717Y-121765047D01*
X180064190Y-121816640D01*
X180083004Y-121862058D01*
X180097579Y-121935328D01*
X180100000Y-121959911D01*
X180100000Y-124376742D01*
X180098922Y-124393188D01*
X180085128Y-124497963D01*
X180076615Y-124529735D01*
X180039361Y-124619674D01*
X180022914Y-124648160D01*
X179963651Y-124725393D01*
X179940393Y-124748651D01*
X179863160Y-124807914D01*
X179834674Y-124824361D01*
X179744735Y-124861615D01*
X179712963Y-124870128D01*
X179608188Y-124883922D01*
X179591742Y-124885000D01*
X177233258Y-124885000D01*
X177216812Y-124883922D01*
X177112037Y-124870128D01*
X177080265Y-124861615D01*
X176990326Y-124824361D01*
X176961840Y-124807914D01*
X176884607Y-124748651D01*
X176861349Y-124725393D01*
X176802086Y-124648160D01*
X176785639Y-124619674D01*
X176748385Y-124529735D01*
X176739872Y-124497963D01*
X176726078Y-124393188D01*
X176725000Y-124376742D01*
X176725000Y-123593258D01*
X176726078Y-123576812D01*
X176739872Y-123472037D01*
X176748385Y-123440265D01*
X176785639Y-123350326D01*
X176802086Y-123321840D01*
X176861349Y-123244607D01*
X176884607Y-123221349D01*
X176961840Y-123162086D01*
X176990326Y-123145639D01*
X177080265Y-123108385D01*
X177112037Y-123099872D01*
X177216812Y-123086078D01*
X177233258Y-123085000D01*
X179312500Y-123085000D01*
X179393820Y-123068824D01*
X179462760Y-123022760D01*
X179508824Y-122953820D01*
X179525000Y-122872500D01*
X179525000Y-121959911D01*
X179527421Y-121935328D01*
X179541996Y-121862058D01*
X179560810Y-121816640D01*
X179595283Y-121765047D01*
X179630047Y-121730283D01*
X179681640Y-121695810D01*
X179727059Y-121676996D01*
X179787918Y-121664890D01*
X179837082Y-121664890D01*
X179897941Y-121676996D01*
G37*
%TD.AperFunction*%
%TD*%
%TA.AperFunction,Conductor*%
%TO.N,Net-(C10-Pad1)*%
G36*
X158184793Y-117111551D02*
G01*
X158278895Y-117126455D01*
X158316388Y-117138637D01*
X158392335Y-117177334D01*
X158424227Y-117200506D01*
X158484494Y-117260773D01*
X158507666Y-117292665D01*
X158546363Y-117368612D01*
X158558545Y-117406105D01*
X158573449Y-117500207D01*
X158575000Y-117519917D01*
X158575000Y-120825083D01*
X158573449Y-120844793D01*
X158558545Y-120938895D01*
X158546363Y-120976388D01*
X158507666Y-121052335D01*
X158484494Y-121084227D01*
X158424227Y-121144494D01*
X158392335Y-121167666D01*
X158316388Y-121206363D01*
X158278895Y-121218545D01*
X158184793Y-121233449D01*
X158165083Y-121235000D01*
X157084917Y-121235000D01*
X157065207Y-121233449D01*
X156971105Y-121218545D01*
X156933612Y-121206363D01*
X156857665Y-121167666D01*
X156825773Y-121144494D01*
X156765506Y-121084227D01*
X156742334Y-121052335D01*
X156703637Y-120976388D01*
X156691455Y-120938895D01*
X156676551Y-120844793D01*
X156675000Y-120825083D01*
X156675000Y-118835000D01*
X156655423Y-118711393D01*
X156598607Y-118599886D01*
X156510114Y-118511393D01*
X156398607Y-118454577D01*
X156275000Y-118435000D01*
X154834917Y-118435000D01*
X154815207Y-118433449D01*
X154721105Y-118418545D01*
X154683612Y-118406363D01*
X154607665Y-118367666D01*
X154575773Y-118344494D01*
X154515506Y-118284227D01*
X154492334Y-118252335D01*
X154453637Y-118176388D01*
X154441455Y-118138895D01*
X154426551Y-118044793D01*
X154425000Y-118025083D01*
X154425000Y-117519917D01*
X154426551Y-117500207D01*
X154441455Y-117406105D01*
X154453637Y-117368612D01*
X154492334Y-117292665D01*
X154515506Y-117260773D01*
X154575773Y-117200506D01*
X154607665Y-117177334D01*
X154683612Y-117138637D01*
X154721105Y-117126455D01*
X154815207Y-117111551D01*
X154834917Y-117110000D01*
X158165083Y-117110000D01*
X158184793Y-117111551D01*
G37*
%TD.AperFunction*%
%TD*%
%TA.AperFunction,Conductor*%
%TO.N,Net-(Q1-Pad1)*%
G36*
X156225000Y-87762500D02*
G01*
X153825000Y-87762500D01*
X153701393Y-87782077D01*
X153589886Y-87838893D01*
X153501393Y-87927386D01*
X153444577Y-88038893D01*
X153425000Y-88162500D01*
X153425000Y-94362500D01*
X153444577Y-94486107D01*
X153501393Y-94597614D01*
X153589886Y-94686107D01*
X153701393Y-94742923D01*
X153825000Y-94762500D01*
X155177581Y-94762500D01*
X155197293Y-94764051D01*
X155287537Y-94778345D01*
X155325023Y-94790525D01*
X155397490Y-94827448D01*
X155429379Y-94850618D01*
X155486882Y-94908121D01*
X155510052Y-94940010D01*
X155546975Y-95012477D01*
X155559156Y-95049965D01*
X155571878Y-95130289D01*
X155571878Y-95169711D01*
X155559156Y-95250035D01*
X155546975Y-95287523D01*
X155510052Y-95359990D01*
X155486882Y-95391879D01*
X155429379Y-95449382D01*
X155397490Y-95472552D01*
X155325023Y-95509475D01*
X155287537Y-95521655D01*
X155212171Y-95533592D01*
X155197292Y-95535949D01*
X155177581Y-95537500D01*
X153434917Y-95537500D01*
X153415207Y-95535949D01*
X153321105Y-95521045D01*
X153283612Y-95508863D01*
X153207665Y-95470166D01*
X153175773Y-95446994D01*
X153115506Y-95386727D01*
X153092334Y-95354835D01*
X153053637Y-95278888D01*
X153041455Y-95241395D01*
X153026551Y-95147293D01*
X153025000Y-95127583D01*
X153025000Y-87212500D01*
X156225000Y-87212500D01*
X156225000Y-87762500D01*
G37*
%TD.AperFunction*%
%TD*%
%TA.AperFunction,Conductor*%
%TO.N,Net-(JP6-Pad2)*%
G36*
X189309792Y-117236551D02*
G01*
X189388446Y-117249008D01*
X189425937Y-117261190D01*
X189487946Y-117292785D01*
X189519838Y-117315957D01*
X189569043Y-117365162D01*
X189592215Y-117397054D01*
X189623810Y-117459063D01*
X189635992Y-117496554D01*
X189645899Y-117559105D01*
X189636800Y-117629514D01*
X189591078Y-117683828D01*
X189558976Y-117699096D01*
X189553305Y-117700865D01*
X189544411Y-117702297D01*
X189496148Y-117725326D01*
X189418579Y-117762338D01*
X189418576Y-117762340D01*
X189414518Y-117764276D01*
X189130571Y-117953574D01*
X189062796Y-117974718D01*
X188994349Y-117955864D01*
X188946961Y-117902997D01*
X188938976Y-117881358D01*
X188931578Y-117853750D01*
X188881250Y-117803422D01*
X188812500Y-117785000D01*
X188550000Y-117785000D01*
X188426393Y-117804577D01*
X188417560Y-117809078D01*
X188417559Y-117809078D01*
X188405417Y-117815265D01*
X188314886Y-117861393D01*
X188226393Y-117949886D01*
X188169577Y-118061393D01*
X188150000Y-118185000D01*
X188150000Y-120401742D01*
X188148922Y-120418188D01*
X188135128Y-120522963D01*
X188126615Y-120554735D01*
X188089361Y-120644674D01*
X188072914Y-120673160D01*
X188013651Y-120750393D01*
X187990393Y-120773651D01*
X187913160Y-120832914D01*
X187884674Y-120849361D01*
X187794735Y-120886615D01*
X187762963Y-120895128D01*
X187658188Y-120908922D01*
X187641742Y-120910000D01*
X186858258Y-120910000D01*
X186841812Y-120908922D01*
X186737037Y-120895128D01*
X186705265Y-120886615D01*
X186615326Y-120849361D01*
X186586840Y-120832914D01*
X186509607Y-120773651D01*
X186486349Y-120750393D01*
X186427086Y-120673160D01*
X186410639Y-120644674D01*
X186373385Y-120554735D01*
X186364872Y-120522963D01*
X186351078Y-120418188D01*
X186350000Y-120401742D01*
X186350000Y-117968258D01*
X186351078Y-117951812D01*
X186364872Y-117847037D01*
X186373385Y-117815265D01*
X186410639Y-117725326D01*
X186427086Y-117696840D01*
X186486349Y-117619607D01*
X186509607Y-117596349D01*
X186586840Y-117537086D01*
X186615326Y-117520639D01*
X186705265Y-117483385D01*
X186737037Y-117474872D01*
X186841812Y-117461078D01*
X186858258Y-117460000D01*
X188837500Y-117460000D01*
X188865943Y-117452379D01*
X188877729Y-117449221D01*
X188877730Y-117449221D01*
X188893750Y-117444928D01*
X188934928Y-117403750D01*
X188954946Y-117329042D01*
X188991898Y-117268419D01*
X189044029Y-117239950D01*
X189046465Y-117239297D01*
X189079089Y-117235000D01*
X189290083Y-117235000D01*
X189309792Y-117236551D01*
G37*
%TD.AperFunction*%
%TD*%
%TA.AperFunction,Conductor*%
%TO.N,Net-(C16-Pad1)*%
G36*
X180558188Y-107936078D02*
G01*
X180662963Y-107949872D01*
X180694735Y-107958385D01*
X180784674Y-107995639D01*
X180813160Y-108012086D01*
X180890393Y-108071349D01*
X180913651Y-108094607D01*
X180972914Y-108171840D01*
X180989361Y-108200326D01*
X181026615Y-108290265D01*
X181035128Y-108322037D01*
X181048922Y-108426812D01*
X181050000Y-108443258D01*
X181050000Y-109751742D01*
X181048922Y-109768188D01*
X181035128Y-109872963D01*
X181026615Y-109904735D01*
X180989361Y-109994674D01*
X180972914Y-110023160D01*
X180913651Y-110100393D01*
X180890393Y-110123651D01*
X180813160Y-110182914D01*
X180784674Y-110199361D01*
X180694735Y-110236615D01*
X180662963Y-110245128D01*
X180558188Y-110258922D01*
X180541742Y-110260000D01*
X169050000Y-110260000D01*
X168920590Y-110277037D01*
X168912961Y-110280197D01*
X168807628Y-110323827D01*
X168807626Y-110323828D01*
X168800000Y-110326987D01*
X168696447Y-110406447D01*
X168616987Y-110510000D01*
X168567037Y-110630590D01*
X168550000Y-110760000D01*
X168550000Y-111401742D01*
X168548922Y-111418188D01*
X168535128Y-111522963D01*
X168526615Y-111554735D01*
X168489361Y-111644674D01*
X168472914Y-111673160D01*
X168413651Y-111750393D01*
X168390393Y-111773651D01*
X168313160Y-111832914D01*
X168284674Y-111849361D01*
X168194735Y-111886615D01*
X168162963Y-111895128D01*
X168058188Y-111908922D01*
X168041742Y-111910000D01*
X167658258Y-111910000D01*
X167641812Y-111908922D01*
X167537037Y-111895128D01*
X167505265Y-111886615D01*
X167415326Y-111849361D01*
X167386840Y-111832914D01*
X167309607Y-111773651D01*
X167286349Y-111750393D01*
X167227086Y-111673160D01*
X167210639Y-111644674D01*
X167173385Y-111554735D01*
X167164872Y-111522963D01*
X167151078Y-111418188D01*
X167150000Y-111401742D01*
X167150000Y-110493258D01*
X167151078Y-110476812D01*
X167164872Y-110372037D01*
X167173385Y-110340265D01*
X167210639Y-110250326D01*
X167227086Y-110221840D01*
X167286349Y-110144607D01*
X167309607Y-110121349D01*
X167386840Y-110062086D01*
X167415326Y-110045639D01*
X167505265Y-110008385D01*
X167537037Y-109999872D01*
X167641812Y-109986078D01*
X167658258Y-109985000D01*
X176450000Y-109985000D01*
X176579410Y-109967963D01*
X176587039Y-109964803D01*
X176692372Y-109921173D01*
X176692374Y-109921172D01*
X176700000Y-109918013D01*
X176803553Y-109838553D01*
X176883013Y-109735000D01*
X176932963Y-109614410D01*
X176950000Y-109485000D01*
X176950000Y-108443258D01*
X176951078Y-108426812D01*
X176964872Y-108322037D01*
X176973385Y-108290265D01*
X177010639Y-108200326D01*
X177027086Y-108171840D01*
X177086349Y-108094607D01*
X177109607Y-108071349D01*
X177186840Y-108012086D01*
X177215326Y-107995639D01*
X177305265Y-107958385D01*
X177337037Y-107949872D01*
X177441812Y-107936078D01*
X177458258Y-107935000D01*
X180541742Y-107935000D01*
X180558188Y-107936078D01*
G37*
%TD.AperFunction*%
%TD*%
%TA.AperFunction,Conductor*%
%TO.N,+5V*%
G36*
X172408188Y-90676078D02*
G01*
X172512963Y-90689872D01*
X172544735Y-90698385D01*
X172634674Y-90735639D01*
X172663160Y-90752086D01*
X172740393Y-90811349D01*
X172763651Y-90834607D01*
X172822914Y-90911840D01*
X172839361Y-90940326D01*
X172876615Y-91030265D01*
X172885128Y-91062037D01*
X172898922Y-91166812D01*
X172900000Y-91183258D01*
X172900000Y-92791742D01*
X172898922Y-92808188D01*
X172885128Y-92912963D01*
X172876615Y-92944735D01*
X172839361Y-93034674D01*
X172822914Y-93063160D01*
X172763651Y-93140393D01*
X172740393Y-93163651D01*
X172663160Y-93222914D01*
X172634674Y-93239361D01*
X172544735Y-93276615D01*
X172512963Y-93285128D01*
X172408188Y-93298922D01*
X172391742Y-93300000D01*
X171558258Y-93300000D01*
X171541812Y-93298922D01*
X171437037Y-93285128D01*
X171405265Y-93276615D01*
X171315326Y-93239361D01*
X171286840Y-93222914D01*
X171209607Y-93163651D01*
X171186349Y-93140393D01*
X171127086Y-93063160D01*
X171110639Y-93034674D01*
X171073385Y-92944735D01*
X171064872Y-92912963D01*
X171051078Y-92808188D01*
X171050000Y-92791742D01*
X171050000Y-91183258D01*
X171051078Y-91166812D01*
X171064872Y-91062037D01*
X171073385Y-91030265D01*
X171110639Y-90940326D01*
X171127086Y-90911840D01*
X171186349Y-90834607D01*
X171209607Y-90811349D01*
X171286840Y-90752086D01*
X171315326Y-90735639D01*
X171405265Y-90698385D01*
X171437037Y-90689872D01*
X171541812Y-90676078D01*
X171558258Y-90675000D01*
X172391742Y-90675000D01*
X172408188Y-90676078D01*
G37*
%TD.AperFunction*%
%TD*%
%TA.AperFunction,Conductor*%
%TO.N,Net-(Q1-Pad1)*%
G36*
X165634793Y-86676551D02*
G01*
X165728895Y-86691455D01*
X165766388Y-86703637D01*
X165842335Y-86742334D01*
X165874227Y-86765506D01*
X165934494Y-86825773D01*
X165957666Y-86857665D01*
X165996363Y-86933612D01*
X166008545Y-86971105D01*
X166023449Y-87065207D01*
X166025000Y-87084917D01*
X166025000Y-87390083D01*
X166023449Y-87409793D01*
X166016860Y-87451393D01*
X166008545Y-87503895D01*
X165996363Y-87541388D01*
X165957666Y-87617335D01*
X165934494Y-87649227D01*
X165874227Y-87709494D01*
X165842335Y-87732666D01*
X165766388Y-87771363D01*
X165728895Y-87783545D01*
X165634793Y-87798449D01*
X165615083Y-87800000D01*
X140725000Y-87800000D01*
X140601393Y-87819577D01*
X140489886Y-87876393D01*
X140401393Y-87964886D01*
X140344577Y-88076393D01*
X140325000Y-88200000D01*
X140325000Y-94350000D01*
X140344577Y-94473607D01*
X140401393Y-94585114D01*
X140489886Y-94673607D01*
X140601393Y-94730423D01*
X140725000Y-94750000D01*
X142065083Y-94750000D01*
X142084793Y-94751551D01*
X142178895Y-94766455D01*
X142216388Y-94778637D01*
X142292335Y-94817334D01*
X142324227Y-94840506D01*
X142384494Y-94900773D01*
X142407666Y-94932665D01*
X142446363Y-95008612D01*
X142458545Y-95046105D01*
X142471878Y-95130290D01*
X142471878Y-95169710D01*
X142458545Y-95253895D01*
X142446363Y-95291388D01*
X142407666Y-95367335D01*
X142384494Y-95399227D01*
X142324227Y-95459494D01*
X142292335Y-95482666D01*
X142216388Y-95521363D01*
X142178895Y-95533545D01*
X142084793Y-95548449D01*
X142065083Y-95550000D01*
X140334917Y-95550000D01*
X140315207Y-95548449D01*
X140221105Y-95533545D01*
X140183612Y-95521363D01*
X140107665Y-95482666D01*
X140075773Y-95459494D01*
X140015506Y-95399227D01*
X139992334Y-95367335D01*
X139953637Y-95291388D01*
X139941455Y-95253895D01*
X139926551Y-95159793D01*
X139925000Y-95140083D01*
X139925000Y-87584917D01*
X139926551Y-87565207D01*
X139930324Y-87541388D01*
X139941455Y-87471105D01*
X139953637Y-87433612D01*
X139992334Y-87357665D01*
X140015506Y-87325773D01*
X140075773Y-87265506D01*
X140107665Y-87242334D01*
X140183612Y-87203637D01*
X140221105Y-87191455D01*
X140315207Y-87176551D01*
X140334917Y-87175000D01*
X164400000Y-87175000D01*
X164495671Y-87155970D01*
X164505989Y-87149076D01*
X164505991Y-87149075D01*
X164566461Y-87108670D01*
X164576777Y-87101777D01*
X164583670Y-87091461D01*
X164624075Y-87030991D01*
X164624076Y-87030989D01*
X164630970Y-87020671D01*
X164664141Y-86853907D01*
X164682955Y-86808488D01*
X164709300Y-86769061D01*
X164744061Y-86734300D01*
X164763671Y-86721196D01*
X164783490Y-86707954D01*
X164828909Y-86689141D01*
X164863927Y-86682175D01*
X164887830Y-86677421D01*
X164912410Y-86675000D01*
X165615083Y-86675000D01*
X165634793Y-86676551D01*
G37*
%TD.AperFunction*%
%TD*%
%TA.AperFunction,Conductor*%
%TO.N,Net-(C15-Pad1)*%
G36*
X180558188Y-83201078D02*
G01*
X180662963Y-83214872D01*
X180694735Y-83223385D01*
X180784674Y-83260639D01*
X180813160Y-83277086D01*
X180890393Y-83336349D01*
X180913651Y-83359607D01*
X180972914Y-83436840D01*
X180989361Y-83465326D01*
X181026615Y-83555265D01*
X181035128Y-83587037D01*
X181048922Y-83691812D01*
X181050000Y-83708258D01*
X181050000Y-85016742D01*
X181048922Y-85033188D01*
X181035128Y-85137963D01*
X181026615Y-85169735D01*
X180989361Y-85259674D01*
X180972914Y-85288160D01*
X180913651Y-85365393D01*
X180890393Y-85388651D01*
X180813160Y-85447914D01*
X180784674Y-85464361D01*
X180694735Y-85501615D01*
X180662963Y-85510128D01*
X180558188Y-85523922D01*
X180541742Y-85525000D01*
X169050000Y-85525000D01*
X168920590Y-85542037D01*
X168912961Y-85545197D01*
X168807628Y-85588827D01*
X168807626Y-85588828D01*
X168800000Y-85591987D01*
X168696447Y-85671447D01*
X168616987Y-85775000D01*
X168567037Y-85895590D01*
X168550000Y-86025000D01*
X168550000Y-86666742D01*
X168548922Y-86683188D01*
X168535128Y-86787963D01*
X168526615Y-86819735D01*
X168489361Y-86909674D01*
X168472914Y-86938160D01*
X168413651Y-87015393D01*
X168390393Y-87038651D01*
X168313160Y-87097914D01*
X168284674Y-87114361D01*
X168194735Y-87151615D01*
X168162963Y-87160128D01*
X168058188Y-87173922D01*
X168041742Y-87175000D01*
X167658258Y-87175000D01*
X167641812Y-87173922D01*
X167537037Y-87160128D01*
X167505265Y-87151615D01*
X167415326Y-87114361D01*
X167386840Y-87097914D01*
X167309607Y-87038651D01*
X167286349Y-87015393D01*
X167227086Y-86938160D01*
X167210639Y-86909674D01*
X167173385Y-86819735D01*
X167164872Y-86787963D01*
X167151078Y-86683188D01*
X167150000Y-86666742D01*
X167150000Y-85758258D01*
X167151078Y-85741812D01*
X167164872Y-85637037D01*
X167173385Y-85605265D01*
X167210639Y-85515326D01*
X167227086Y-85486840D01*
X167286349Y-85409607D01*
X167309607Y-85386349D01*
X167386840Y-85327086D01*
X167415326Y-85310639D01*
X167505265Y-85273385D01*
X167537037Y-85264872D01*
X167641812Y-85251078D01*
X167658258Y-85250000D01*
X176450000Y-85250000D01*
X176579410Y-85232963D01*
X176587039Y-85229803D01*
X176692372Y-85186173D01*
X176692374Y-85186172D01*
X176700000Y-85183013D01*
X176803553Y-85103553D01*
X176883013Y-85000000D01*
X176932963Y-84879410D01*
X176950000Y-84750000D01*
X176950000Y-83708258D01*
X176951078Y-83691812D01*
X176964872Y-83587037D01*
X176973385Y-83555265D01*
X177010639Y-83465326D01*
X177027086Y-83436840D01*
X177086349Y-83359607D01*
X177109607Y-83336349D01*
X177186840Y-83277086D01*
X177215326Y-83260639D01*
X177305265Y-83223385D01*
X177337037Y-83214872D01*
X177441812Y-83201078D01*
X177458258Y-83200000D01*
X180541742Y-83200000D01*
X180558188Y-83201078D01*
G37*
%TD.AperFunction*%
%TD*%
%TA.AperFunction,Conductor*%
%TO.N,Net-(Q1-Pad1)*%
G36*
X149675000Y-87787500D02*
G01*
X147275000Y-87787500D01*
X147151393Y-87807077D01*
X147039886Y-87863893D01*
X146951393Y-87952386D01*
X146894577Y-88063893D01*
X146875000Y-88187500D01*
X146875000Y-94362500D01*
X146894577Y-94486107D01*
X146951393Y-94597614D01*
X147039886Y-94686107D01*
X147151393Y-94742923D01*
X147275000Y-94762500D01*
X148627581Y-94762500D01*
X148647293Y-94764051D01*
X148737537Y-94778345D01*
X148775023Y-94790525D01*
X148847490Y-94827448D01*
X148879379Y-94850618D01*
X148936882Y-94908121D01*
X148960052Y-94940010D01*
X148996975Y-95012477D01*
X149009156Y-95049965D01*
X149021878Y-95130289D01*
X149021878Y-95169711D01*
X149009156Y-95250035D01*
X148996975Y-95287523D01*
X148960052Y-95359990D01*
X148936882Y-95391879D01*
X148879379Y-95449382D01*
X148847490Y-95472552D01*
X148775023Y-95509475D01*
X148737537Y-95521655D01*
X148662171Y-95533592D01*
X148647292Y-95535949D01*
X148627581Y-95537500D01*
X146884917Y-95537500D01*
X146865207Y-95535949D01*
X146771105Y-95521045D01*
X146733612Y-95508863D01*
X146657665Y-95470166D01*
X146625773Y-95446994D01*
X146565506Y-95386727D01*
X146542334Y-95354835D01*
X146503637Y-95278888D01*
X146491455Y-95241395D01*
X146476551Y-95147293D01*
X146475000Y-95127583D01*
X146475000Y-87187500D01*
X149675000Y-87187500D01*
X149675000Y-87787500D01*
G37*
%TD.AperFunction*%
%TD*%
%TA.AperFunction,Conductor*%
%TO.N,+5V*%
G36*
X172408188Y-115411078D02*
G01*
X172512963Y-115424872D01*
X172544735Y-115433385D01*
X172634674Y-115470639D01*
X172663160Y-115487086D01*
X172740393Y-115546349D01*
X172763651Y-115569607D01*
X172822914Y-115646840D01*
X172839361Y-115675326D01*
X172876615Y-115765265D01*
X172885128Y-115797037D01*
X172898922Y-115901812D01*
X172900000Y-115918258D01*
X172900000Y-117526742D01*
X172898922Y-117543188D01*
X172885128Y-117647963D01*
X172876615Y-117679735D01*
X172839361Y-117769674D01*
X172822914Y-117798160D01*
X172763651Y-117875393D01*
X172740393Y-117898651D01*
X172663160Y-117957914D01*
X172634674Y-117974361D01*
X172544735Y-118011615D01*
X172512963Y-118020128D01*
X172408188Y-118033922D01*
X172391742Y-118035000D01*
X171558258Y-118035000D01*
X171541812Y-118033922D01*
X171437037Y-118020128D01*
X171405265Y-118011615D01*
X171315326Y-117974361D01*
X171286840Y-117957914D01*
X171209607Y-117898651D01*
X171186349Y-117875393D01*
X171127086Y-117798160D01*
X171110639Y-117769674D01*
X171073385Y-117679735D01*
X171064872Y-117647963D01*
X171051078Y-117543188D01*
X171050000Y-117526742D01*
X171050000Y-115918258D01*
X171051078Y-115901812D01*
X171064872Y-115797037D01*
X171073385Y-115765265D01*
X171110639Y-115675326D01*
X171127086Y-115646840D01*
X171186349Y-115569607D01*
X171209607Y-115546349D01*
X171286840Y-115487086D01*
X171315326Y-115470639D01*
X171405265Y-115433385D01*
X171437037Y-115424872D01*
X171541812Y-115411078D01*
X171558258Y-115410000D01*
X172391742Y-115410000D01*
X172408188Y-115411078D01*
G37*
%TD.AperFunction*%
%TD*%
%TA.AperFunction,Conductor*%
%TO.N,Net-(C12-Pad1)*%
G36*
X164734793Y-117111551D02*
G01*
X164828895Y-117126455D01*
X164866388Y-117138637D01*
X164942335Y-117177334D01*
X164974227Y-117200506D01*
X165034494Y-117260773D01*
X165057666Y-117292665D01*
X165096363Y-117368612D01*
X165108545Y-117406105D01*
X165123449Y-117500207D01*
X165125000Y-117519917D01*
X165125000Y-120825083D01*
X165123449Y-120844793D01*
X165108545Y-120938895D01*
X165096363Y-120976388D01*
X165057666Y-121052335D01*
X165034494Y-121084227D01*
X164974227Y-121144494D01*
X164942335Y-121167666D01*
X164866388Y-121206363D01*
X164828895Y-121218545D01*
X164734793Y-121233449D01*
X164715083Y-121235000D01*
X163634917Y-121235000D01*
X163615207Y-121233449D01*
X163521105Y-121218545D01*
X163483612Y-121206363D01*
X163407665Y-121167666D01*
X163375773Y-121144494D01*
X163315506Y-121084227D01*
X163292334Y-121052335D01*
X163253637Y-120976388D01*
X163241455Y-120938895D01*
X163226551Y-120844793D01*
X163225000Y-120825083D01*
X163225000Y-118835000D01*
X163205423Y-118711393D01*
X163148607Y-118599886D01*
X163060114Y-118511393D01*
X162948607Y-118454577D01*
X162825000Y-118435000D01*
X161384917Y-118435000D01*
X161365207Y-118433449D01*
X161271105Y-118418545D01*
X161233612Y-118406363D01*
X161157665Y-118367666D01*
X161125773Y-118344494D01*
X161065506Y-118284227D01*
X161042334Y-118252335D01*
X161003637Y-118176388D01*
X160991455Y-118138895D01*
X160976551Y-118044793D01*
X160975000Y-118025083D01*
X160975000Y-117519917D01*
X160976551Y-117500207D01*
X160991455Y-117406105D01*
X161003637Y-117368612D01*
X161042334Y-117292665D01*
X161065506Y-117260773D01*
X161125773Y-117200506D01*
X161157665Y-117177334D01*
X161233612Y-117138637D01*
X161271105Y-117126455D01*
X161365207Y-117111551D01*
X161384917Y-117110000D01*
X164715083Y-117110000D01*
X164734793Y-117111551D01*
G37*
%TD.AperFunction*%
%TD*%
%TA.AperFunction,Conductor*%
%TO.N,+5V*%
G36*
X138079837Y-83491575D02*
G01*
X138176219Y-83506961D01*
X138213967Y-83519328D01*
X138254918Y-83540383D01*
X138291767Y-83559329D01*
X138323789Y-83582834D01*
X138385268Y-83645067D01*
X138408381Y-83677374D01*
X138447431Y-83755656D01*
X138459337Y-83793549D01*
X138472097Y-83880259D01*
X138471664Y-83919673D01*
X138456760Y-84007522D01*
X138444309Y-84044607D01*
X138403107Y-84123791D01*
X138379885Y-84155266D01*
X138316384Y-84217997D01*
X138284625Y-84240835D01*
X138204942Y-84281067D01*
X138167713Y-84293063D01*
X138069689Y-84308463D01*
X138050138Y-84309990D01*
X134883281Y-84309917D01*
X133553512Y-84309886D01*
X133549381Y-84309886D01*
X133420003Y-84326911D01*
X133299437Y-84376834D01*
X133292889Y-84381856D01*
X133292888Y-84381857D01*
X133202446Y-84451228D01*
X133202444Y-84451230D01*
X133195894Y-84456254D01*
X133116429Y-84559761D01*
X133066453Y-84680306D01*
X133049370Y-84809676D01*
X133039785Y-107709676D01*
X133056777Y-107839125D01*
X133106701Y-107959761D01*
X133186154Y-108063361D01*
X133289718Y-108142860D01*
X133410333Y-108192837D01*
X133539770Y-108209886D01*
X133543902Y-108209886D01*
X138105086Y-108209991D01*
X138124788Y-108211541D01*
X138217357Y-108226205D01*
X138254838Y-108238384D01*
X138329399Y-108276376D01*
X138361285Y-108299543D01*
X138420453Y-108358712D01*
X138443620Y-108390599D01*
X138481609Y-108465159D01*
X138493789Y-108502646D01*
X138506878Y-108585290D01*
X138506878Y-108624710D01*
X138493789Y-108707352D01*
X138481608Y-108744841D01*
X138443620Y-108819398D01*
X138420450Y-108851287D01*
X138361287Y-108910450D01*
X138329398Y-108933620D01*
X138254841Y-108971608D01*
X138217353Y-108983789D01*
X138175118Y-108990478D01*
X138124791Y-108998449D01*
X138105081Y-109000000D01*
X132568655Y-109000000D01*
X132552200Y-108998921D01*
X132447373Y-108985113D01*
X132415590Y-108976592D01*
X132325607Y-108939300D01*
X132297116Y-108922840D01*
X132219864Y-108863522D01*
X132196604Y-108840243D01*
X132137347Y-108762945D01*
X132120907Y-108734436D01*
X132083688Y-108644431D01*
X132075191Y-108612640D01*
X132071610Y-108585290D01*
X132061463Y-108507784D01*
X132060399Y-108491366D01*
X132060492Y-108372822D01*
X132078965Y-84809676D01*
X132079602Y-83997860D01*
X132080692Y-83981423D01*
X132094554Y-83876714D01*
X132103083Y-83844964D01*
X132132669Y-83773654D01*
X132140373Y-83755087D01*
X132156825Y-83726625D01*
X132194652Y-83677374D01*
X132216094Y-83649457D01*
X132239350Y-83626220D01*
X132316566Y-83567010D01*
X132345040Y-83550580D01*
X132434944Y-83513362D01*
X132466698Y-83504857D01*
X132571423Y-83491077D01*
X132587861Y-83490000D01*
X138059974Y-83490000D01*
X138079837Y-83491575D01*
G37*
%TD.AperFunction*%
%TD*%
%TA.AperFunction,Conductor*%
%TO.N,GNDA*%
G36*
X172697941Y-96141996D02*
G01*
X172743360Y-96160810D01*
X172794953Y-96195283D01*
X172829717Y-96230047D01*
X172864190Y-96281640D01*
X172883004Y-96327058D01*
X172897579Y-96400328D01*
X172900000Y-96424911D01*
X172900000Y-100035008D01*
X172917037Y-100164418D01*
X172920197Y-100172047D01*
X172946601Y-100235791D01*
X172966987Y-100285008D01*
X173046447Y-100388561D01*
X173150000Y-100468021D01*
X173157626Y-100471180D01*
X173157628Y-100471181D01*
X173186616Y-100483188D01*
X173270590Y-100517971D01*
X173400000Y-100535008D01*
X180300000Y-100535008D01*
X180429410Y-100517971D01*
X180513384Y-100483188D01*
X180542372Y-100471181D01*
X180542374Y-100471180D01*
X180550000Y-100468021D01*
X180653553Y-100388561D01*
X180733013Y-100285008D01*
X180753400Y-100235791D01*
X180779803Y-100172047D01*
X180782963Y-100164418D01*
X180800000Y-100035008D01*
X180800000Y-96774911D01*
X180802421Y-96750328D01*
X180816996Y-96677058D01*
X180835810Y-96631640D01*
X180870283Y-96580047D01*
X180905047Y-96545283D01*
X180956640Y-96510810D01*
X181002059Y-96491996D01*
X181062918Y-96479890D01*
X181112082Y-96479890D01*
X181172941Y-96491996D01*
X181218360Y-96510810D01*
X181269953Y-96545283D01*
X181304717Y-96580047D01*
X181339190Y-96631640D01*
X181358004Y-96677058D01*
X181372579Y-96750328D01*
X181375000Y-96774911D01*
X181375000Y-98300000D01*
X181392037Y-98429410D01*
X181441987Y-98550000D01*
X181521447Y-98653553D01*
X181625000Y-98733013D01*
X181632626Y-98736172D01*
X181632628Y-98736173D01*
X181737961Y-98779803D01*
X181745590Y-98782963D01*
X181875000Y-98800000D01*
X187641742Y-98800000D01*
X187658188Y-98801078D01*
X187762963Y-98814872D01*
X187794735Y-98823385D01*
X187884674Y-98860639D01*
X187913160Y-98877086D01*
X187990393Y-98936349D01*
X188013651Y-98959607D01*
X188072914Y-99036840D01*
X188089361Y-99065326D01*
X188126615Y-99155265D01*
X188135128Y-99187037D01*
X188148922Y-99291812D01*
X188150000Y-99308258D01*
X188150000Y-99641742D01*
X188148922Y-99658188D01*
X188135128Y-99762963D01*
X188126615Y-99794735D01*
X188089361Y-99884674D01*
X188072914Y-99913160D01*
X188013651Y-99990393D01*
X187990393Y-100013651D01*
X187913160Y-100072914D01*
X187884674Y-100089361D01*
X187794735Y-100126615D01*
X187762963Y-100135128D01*
X187658188Y-100148922D01*
X187641742Y-100150000D01*
X182812500Y-100150000D01*
X182685030Y-100170189D01*
X182570039Y-100228780D01*
X182478780Y-100320039D01*
X182420189Y-100435030D01*
X182418638Y-100444821D01*
X182418638Y-100444822D01*
X182382933Y-100670259D01*
X182370751Y-100707751D01*
X182330279Y-100787182D01*
X182307107Y-100819074D01*
X182244074Y-100882107D01*
X182212183Y-100905279D01*
X182169116Y-100927222D01*
X182132751Y-100945751D01*
X182095260Y-100957933D01*
X181997292Y-100973449D01*
X181977583Y-100975000D01*
X172833258Y-100975000D01*
X172816812Y-100973922D01*
X172712037Y-100960128D01*
X172680265Y-100951615D01*
X172590326Y-100914361D01*
X172561840Y-100897914D01*
X172484607Y-100838651D01*
X172461349Y-100815393D01*
X172402086Y-100738160D01*
X172385639Y-100709674D01*
X172348385Y-100619735D01*
X172339872Y-100587963D01*
X172326078Y-100483188D01*
X172325000Y-100466742D01*
X172325000Y-96424911D01*
X172327421Y-96400328D01*
X172341996Y-96327058D01*
X172360810Y-96281640D01*
X172395283Y-96230047D01*
X172430047Y-96195283D01*
X172481640Y-96160810D01*
X172527059Y-96141996D01*
X172587918Y-96129890D01*
X172637082Y-96129890D01*
X172697941Y-96141996D01*
G37*
%TD.AperFunction*%
%TD*%
%TA.AperFunction,Conductor*%
%TO.N,Net-(C1-Pad1)*%
G36*
X170165225Y-91117947D02*
G01*
X170210642Y-91136759D01*
X170266295Y-91173945D01*
X170301055Y-91208705D01*
X170338241Y-91264358D01*
X170357054Y-91309777D01*
X170372579Y-91387829D01*
X170375000Y-91412410D01*
X170375000Y-99340083D01*
X170373449Y-99359793D01*
X170358545Y-99453895D01*
X170346363Y-99491388D01*
X170307666Y-99567335D01*
X170284494Y-99599227D01*
X170224227Y-99659494D01*
X170192335Y-99682666D01*
X170116388Y-99721363D01*
X170078895Y-99733545D01*
X169984793Y-99748449D01*
X169965083Y-99750000D01*
X134884917Y-99750000D01*
X134865207Y-99748449D01*
X134771105Y-99733545D01*
X134733612Y-99721363D01*
X134657665Y-99682666D01*
X134625773Y-99659494D01*
X134565506Y-99599227D01*
X134542334Y-99567335D01*
X134503637Y-99491388D01*
X134491455Y-99453895D01*
X134476551Y-99359793D01*
X134475000Y-99340083D01*
X134475000Y-96492807D01*
X134476589Y-96472857D01*
X134491857Y-96377644D01*
X134504332Y-96339749D01*
X134543936Y-96263117D01*
X134567633Y-96231023D01*
X134629214Y-96170615D01*
X134661758Y-96147540D01*
X134739135Y-96109417D01*
X134777268Y-96097672D01*
X134814343Y-96092456D01*
X134872747Y-96084239D01*
X134892724Y-96083033D01*
X134899407Y-96083162D01*
X135054566Y-96086146D01*
X135153416Y-96088047D01*
X135372901Y-96092268D01*
X135392338Y-96094156D01*
X135456586Y-96105474D01*
X135485033Y-96110485D01*
X135521882Y-96123088D01*
X135596398Y-96162329D01*
X135627635Y-96185580D01*
X135686604Y-96245693D01*
X135709250Y-96277370D01*
X135747051Y-96352631D01*
X135758940Y-96389709D01*
X135773486Y-96482703D01*
X135775000Y-96502175D01*
X135775000Y-98775000D01*
X135794577Y-98898607D01*
X135851393Y-99010114D01*
X135939886Y-99098607D01*
X136051393Y-99155423D01*
X136175000Y-99175000D01*
X169375000Y-99175000D01*
X169498607Y-99155423D01*
X169610114Y-99098607D01*
X169698607Y-99010114D01*
X169755423Y-98898607D01*
X169775000Y-98775000D01*
X169775000Y-91412410D01*
X169777421Y-91387829D01*
X169792946Y-91309777D01*
X169811759Y-91264358D01*
X169848945Y-91208705D01*
X169883705Y-91173945D01*
X169939358Y-91136759D01*
X169984775Y-91117947D01*
X170050421Y-91104889D01*
X170099579Y-91104889D01*
X170165225Y-91117947D01*
G37*
%TD.AperFunction*%
%TD*%
%TA.AperFunction,Conductor*%
%TO.N,Net-(R28-Pad1)*%
G36*
X187633188Y-89526078D02*
G01*
X187737963Y-89539872D01*
X187769735Y-89548385D01*
X187859674Y-89585639D01*
X187888160Y-89602086D01*
X187965393Y-89661349D01*
X187988651Y-89684607D01*
X188047914Y-89761840D01*
X188064361Y-89790326D01*
X188101615Y-89880265D01*
X188110128Y-89912037D01*
X188123922Y-90016812D01*
X188125000Y-90033258D01*
X188125000Y-91291742D01*
X188123922Y-91308188D01*
X188110128Y-91412963D01*
X188101615Y-91444735D01*
X188064361Y-91534674D01*
X188047914Y-91563160D01*
X187988651Y-91640393D01*
X187965393Y-91663651D01*
X187888160Y-91722914D01*
X187859674Y-91739361D01*
X187769735Y-91776615D01*
X187737963Y-91785128D01*
X187633188Y-91798922D01*
X187616742Y-91800000D01*
X184508258Y-91800000D01*
X184491812Y-91798922D01*
X184387037Y-91785128D01*
X184355265Y-91776615D01*
X184265326Y-91739361D01*
X184236840Y-91722914D01*
X184159607Y-91663651D01*
X184136349Y-91640393D01*
X184077086Y-91563160D01*
X184060639Y-91534674D01*
X184023385Y-91444735D01*
X184014872Y-91412963D01*
X184001078Y-91308188D01*
X184000000Y-91291742D01*
X184000000Y-90475000D01*
X183982963Y-90345590D01*
X183933013Y-90225000D01*
X183853553Y-90121447D01*
X183750000Y-90041987D01*
X183742374Y-90038828D01*
X183742372Y-90038827D01*
X183637039Y-89995197D01*
X183629410Y-89992037D01*
X183500000Y-89975000D01*
X181875000Y-89975000D01*
X181745590Y-89992037D01*
X181737961Y-89995197D01*
X181632628Y-90038827D01*
X181632626Y-90038828D01*
X181625000Y-90041987D01*
X181521447Y-90121447D01*
X181441987Y-90225000D01*
X181392037Y-90345590D01*
X181375000Y-90475000D01*
X181375000Y-91875089D01*
X181372579Y-91899672D01*
X181358004Y-91972942D01*
X181339190Y-92018360D01*
X181304717Y-92069953D01*
X181269953Y-92104717D01*
X181218360Y-92139190D01*
X181172941Y-92158004D01*
X181112082Y-92170110D01*
X181062918Y-92170110D01*
X181002059Y-92158004D01*
X180956640Y-92139190D01*
X180905047Y-92104717D01*
X180870283Y-92069953D01*
X180835810Y-92018360D01*
X180816996Y-91972942D01*
X180802421Y-91899672D01*
X180800000Y-91875089D01*
X180800000Y-90033258D01*
X180801078Y-90016812D01*
X180814872Y-89912037D01*
X180823385Y-89880265D01*
X180860639Y-89790326D01*
X180877086Y-89761840D01*
X180936349Y-89684607D01*
X180959607Y-89661349D01*
X181036840Y-89602086D01*
X181065326Y-89585639D01*
X181155265Y-89548385D01*
X181187037Y-89539872D01*
X181291812Y-89526078D01*
X181308258Y-89525000D01*
X187616742Y-89525000D01*
X187633188Y-89526078D01*
G37*
%TD.AperFunction*%
%TD*%
%TA.AperFunction,Conductor*%
%TO.N,Net-(JP1-Pad1)*%
G36*
X191344694Y-88548434D02*
G01*
X191352510Y-88549462D01*
X191449477Y-88562218D01*
X191481246Y-88570727D01*
X191571196Y-88607973D01*
X191599675Y-88624411D01*
X191676920Y-88683671D01*
X191700180Y-88706927D01*
X191759453Y-88784157D01*
X191775902Y-88812641D01*
X191813166Y-88902580D01*
X191821681Y-88934345D01*
X191833487Y-89023951D01*
X191835485Y-89039119D01*
X191836565Y-89055562D01*
X191836677Y-90252070D01*
X191836752Y-91062034D01*
X191824900Y-91115395D01*
X191801556Y-91165343D01*
X191799628Y-91169289D01*
X191766781Y-91233616D01*
X191765042Y-91240725D01*
X191762983Y-91246260D01*
X191761117Y-91251868D01*
X191758021Y-91258493D01*
X191756532Y-91265653D01*
X191756531Y-91265655D01*
X191743315Y-91329193D01*
X191742344Y-91333482D01*
X191739322Y-91345833D01*
X191725185Y-91403606D01*
X191724500Y-91414648D01*
X191724468Y-91414646D01*
X191724221Y-91418776D01*
X191723875Y-91422656D01*
X191722382Y-91429831D01*
X191722580Y-91437152D01*
X191722580Y-91437153D01*
X191724454Y-91506400D01*
X191724500Y-91509808D01*
X191724500Y-96387295D01*
X191704498Y-96455416D01*
X191675209Y-96487253D01*
X191600407Y-96544657D01*
X191571924Y-96561104D01*
X191571702Y-96561196D01*
X191481981Y-96598365D01*
X191450208Y-96606880D01*
X191345433Y-96620678D01*
X191328987Y-96621757D01*
X190982420Y-96621770D01*
X190516598Y-96621787D01*
X190392444Y-96621792D01*
X189458695Y-96621827D01*
X189442252Y-96620749D01*
X189337472Y-96606957D01*
X189305702Y-96598446D01*
X189215761Y-96561196D01*
X189187278Y-96544753D01*
X189110036Y-96485488D01*
X189086782Y-96462235D01*
X189027514Y-96385001D01*
X189011067Y-96356517D01*
X188973809Y-96266578D01*
X188965295Y-96234806D01*
X188951498Y-96130037D01*
X188950419Y-96113591D01*
X188950361Y-94633355D01*
X188951437Y-94616916D01*
X188965229Y-94512130D01*
X188973741Y-94480360D01*
X189010991Y-94390417D01*
X189027433Y-94361935D01*
X189086698Y-94284693D01*
X189109952Y-94261438D01*
X189123831Y-94250787D01*
X189187184Y-94202171D01*
X189215668Y-94185724D01*
X189305610Y-94148465D01*
X189337381Y-94139951D01*
X189442150Y-94126154D01*
X189458596Y-94125075D01*
X189967167Y-94125055D01*
X190148835Y-94125048D01*
X190273218Y-94125043D01*
X190308720Y-94130147D01*
X190365829Y-94146915D01*
X190378039Y-94150500D01*
X190521961Y-94150500D01*
X190591332Y-94130131D01*
X190626814Y-94125029D01*
X190850022Y-94125020D01*
X190979425Y-94107978D01*
X190987049Y-94104820D01*
X190987052Y-94104819D01*
X191092386Y-94061185D01*
X191092388Y-94061184D01*
X191100011Y-94058026D01*
X191203560Y-93978566D01*
X191283016Y-93875014D01*
X191332964Y-93754426D01*
X191350000Y-93625020D01*
X191350000Y-89350001D01*
X191339950Y-89273659D01*
X191334041Y-89228779D01*
X191332963Y-89220591D01*
X191283013Y-89100001D01*
X191203553Y-88996447D01*
X191099999Y-88916988D01*
X190979409Y-88867038D01*
X190850000Y-88850001D01*
X190845877Y-88850001D01*
X182777650Y-88850019D01*
X173074015Y-88850041D01*
X173069121Y-88850816D01*
X173069122Y-88850816D01*
X172945034Y-88870468D01*
X172945032Y-88870468D01*
X172935236Y-88872020D01*
X172810039Y-88935807D01*
X172710680Y-89035157D01*
X172646882Y-89160348D01*
X172645330Y-89170140D01*
X172645330Y-89170141D01*
X172624890Y-89299123D01*
X172606021Y-89418186D01*
X172593837Y-89455674D01*
X172565348Y-89511574D01*
X172548159Y-89545301D01*
X172524985Y-89577190D01*
X172456852Y-89645311D01*
X172453848Y-89648314D01*
X172421957Y-89671480D01*
X172332320Y-89717141D01*
X172294831Y-89729319D01*
X172242240Y-89737643D01*
X172185555Y-89746615D01*
X172165845Y-89748164D01*
X169604115Y-89747921D01*
X169599981Y-89747921D01*
X169470562Y-89764949D01*
X169349958Y-89814897D01*
X169307467Y-89847498D01*
X169252943Y-89889332D01*
X169252940Y-89889335D01*
X169246392Y-89894359D01*
X169166925Y-89997920D01*
X169116971Y-90118522D01*
X169099937Y-90247943D01*
X169099937Y-90252070D01*
X169100017Y-92097991D01*
X169097608Y-92122516D01*
X169083023Y-92196032D01*
X169064295Y-92241367D01*
X169029740Y-92293239D01*
X168995124Y-92327985D01*
X168943375Y-92362736D01*
X168898112Y-92381631D01*
X168837081Y-92393975D01*
X168787919Y-92394133D01*
X168727229Y-92382264D01*
X168681648Y-92363531D01*
X168630198Y-92329322D01*
X168595292Y-92294542D01*
X168560899Y-92243220D01*
X168542001Y-92197711D01*
X168541666Y-92196032D01*
X168527441Y-92124679D01*
X168525010Y-92100045D01*
X168525011Y-92097991D01*
X168525085Y-89997920D01*
X168525093Y-89782969D01*
X168526171Y-89766524D01*
X168539967Y-89661754D01*
X168548480Y-89629986D01*
X168585730Y-89540056D01*
X168602174Y-89511574D01*
X168661428Y-89434347D01*
X168684685Y-89411088D01*
X168757694Y-89355061D01*
X168823913Y-89329457D01*
X168834518Y-89329020D01*
X168860465Y-89329044D01*
X168860473Y-89329044D01*
X168861715Y-89329045D01*
X168862959Y-89328997D01*
X168862972Y-89328997D01*
X168900119Y-89327571D01*
X168900141Y-89327570D01*
X168901384Y-89327522D01*
X168921091Y-89325989D01*
X168922324Y-89325844D01*
X168922347Y-89325842D01*
X168959259Y-89321508D01*
X168959274Y-89321506D01*
X168960500Y-89321362D01*
X169054611Y-89306546D01*
X169131756Y-89288101D01*
X169134102Y-89287341D01*
X169134124Y-89287335D01*
X169154184Y-89280838D01*
X169192992Y-89274708D01*
X171632700Y-89274435D01*
X171632706Y-89274435D01*
X171637652Y-89274434D01*
X171749648Y-89256682D01*
X171758486Y-89252178D01*
X171758488Y-89252177D01*
X171841843Y-89209694D01*
X171841846Y-89209692D01*
X171850681Y-89205189D01*
X171930856Y-89124995D01*
X171982327Y-89023951D01*
X171985644Y-89002997D01*
X172000054Y-88911948D01*
X172006661Y-88870198D01*
X172014660Y-88819656D01*
X172026838Y-88782163D01*
X172060193Y-88716682D01*
X172083358Y-88684789D01*
X172135317Y-88632818D01*
X172167207Y-88609644D01*
X172232679Y-88576276D01*
X172270167Y-88564090D01*
X172295110Y-88560137D01*
X172352669Y-88551014D01*
X172372379Y-88549461D01*
X176972853Y-88548951D01*
X178114977Y-88548824D01*
X185136361Y-88548045D01*
X191328248Y-88547358D01*
X191344694Y-88548434D01*
G37*
%TD.AperFunction*%
%TD*%
%TA.AperFunction,Conductor*%
%TO.N,GNDA*%
G36*
X135742121Y-89495002D02*
G01*
X135788614Y-89548658D01*
X135800000Y-89601000D01*
X135800000Y-94424000D01*
X135779998Y-94492121D01*
X135726342Y-94538614D01*
X135674000Y-94550000D01*
X134601000Y-94550000D01*
X134532879Y-94529998D01*
X134486386Y-94476342D01*
X134475000Y-94424000D01*
X134475000Y-89601000D01*
X134495002Y-89532879D01*
X134548658Y-89486386D01*
X134601000Y-89475000D01*
X135674000Y-89475000D01*
X135742121Y-89495002D01*
G37*
%TD.AperFunction*%
%TD*%
%TA.AperFunction,Conductor*%
%TO.N,Net-(C5-Pad1)*%
G36*
X145084793Y-92376551D02*
G01*
X145178895Y-92391455D01*
X145216388Y-92403637D01*
X145292335Y-92442334D01*
X145324227Y-92465506D01*
X145384494Y-92525773D01*
X145407666Y-92557665D01*
X145446363Y-92633612D01*
X145458545Y-92671105D01*
X145473449Y-92765207D01*
X145475000Y-92784917D01*
X145475000Y-96090083D01*
X145473449Y-96109793D01*
X145458545Y-96203895D01*
X145446363Y-96241388D01*
X145407666Y-96317335D01*
X145384494Y-96349227D01*
X145324227Y-96409494D01*
X145292335Y-96432666D01*
X145216388Y-96471363D01*
X145178895Y-96483545D01*
X145084793Y-96498449D01*
X145065083Y-96500000D01*
X143984917Y-96500000D01*
X143965207Y-96498449D01*
X143871105Y-96483545D01*
X143833612Y-96471363D01*
X143757665Y-96432666D01*
X143725773Y-96409494D01*
X143665506Y-96349227D01*
X143642334Y-96317335D01*
X143603637Y-96241388D01*
X143591455Y-96203895D01*
X143576551Y-96109793D01*
X143575000Y-96090083D01*
X143575000Y-94075000D01*
X143555423Y-93951393D01*
X143498607Y-93839886D01*
X143410114Y-93751393D01*
X143298607Y-93694577D01*
X143175000Y-93675000D01*
X141734917Y-93675000D01*
X141715207Y-93673449D01*
X141621105Y-93658545D01*
X141583612Y-93646363D01*
X141507665Y-93607666D01*
X141475773Y-93584494D01*
X141415506Y-93524227D01*
X141392334Y-93492335D01*
X141353637Y-93416388D01*
X141341455Y-93378895D01*
X141326551Y-93284793D01*
X141325000Y-93265083D01*
X141325000Y-92784917D01*
X141326551Y-92765207D01*
X141341455Y-92671105D01*
X141353637Y-92633612D01*
X141392334Y-92557665D01*
X141415506Y-92525773D01*
X141475773Y-92465506D01*
X141507665Y-92442334D01*
X141583612Y-92403637D01*
X141621105Y-92391455D01*
X141715207Y-92376551D01*
X141734917Y-92375000D01*
X145065083Y-92375000D01*
X145084793Y-92376551D01*
G37*
%TD.AperFunction*%
%TD*%
%TA.AperFunction,Conductor*%
%TO.N,Net-(R30-Pad1)*%
G36*
X187633188Y-114261078D02*
G01*
X187737963Y-114274872D01*
X187769735Y-114283385D01*
X187859674Y-114320639D01*
X187888160Y-114337086D01*
X187965393Y-114396349D01*
X187988651Y-114419607D01*
X188047914Y-114496840D01*
X188064361Y-114525326D01*
X188101615Y-114615265D01*
X188110128Y-114647037D01*
X188123922Y-114751812D01*
X188125000Y-114768258D01*
X188125000Y-116026742D01*
X188123922Y-116043188D01*
X188110128Y-116147963D01*
X188101615Y-116179735D01*
X188064361Y-116269674D01*
X188047914Y-116298160D01*
X187988651Y-116375393D01*
X187965393Y-116398651D01*
X187888160Y-116457914D01*
X187859674Y-116474361D01*
X187769735Y-116511615D01*
X187737963Y-116520128D01*
X187633188Y-116533922D01*
X187616742Y-116535000D01*
X184508258Y-116535000D01*
X184491812Y-116533922D01*
X184387037Y-116520128D01*
X184355265Y-116511615D01*
X184265326Y-116474361D01*
X184236840Y-116457914D01*
X184159607Y-116398651D01*
X184136349Y-116375393D01*
X184077086Y-116298160D01*
X184060639Y-116269674D01*
X184023385Y-116179735D01*
X184014872Y-116147963D01*
X184001078Y-116043188D01*
X184000000Y-116026742D01*
X184000000Y-115210000D01*
X183982963Y-115080590D01*
X183933013Y-114960000D01*
X183853553Y-114856447D01*
X183750000Y-114776987D01*
X183742374Y-114773828D01*
X183742372Y-114773827D01*
X183637039Y-114730197D01*
X183629410Y-114727037D01*
X183500000Y-114710000D01*
X181875000Y-114710000D01*
X181745590Y-114727037D01*
X181737961Y-114730197D01*
X181632628Y-114773827D01*
X181632626Y-114773828D01*
X181625000Y-114776987D01*
X181521447Y-114856447D01*
X181441987Y-114960000D01*
X181392037Y-115080590D01*
X181375000Y-115210000D01*
X181375000Y-116610089D01*
X181372579Y-116634672D01*
X181358004Y-116707942D01*
X181339190Y-116753360D01*
X181304717Y-116804953D01*
X181269953Y-116839717D01*
X181218360Y-116874190D01*
X181172941Y-116893004D01*
X181112082Y-116905110D01*
X181062918Y-116905110D01*
X181002059Y-116893004D01*
X180956640Y-116874190D01*
X180905047Y-116839717D01*
X180870283Y-116804953D01*
X180835810Y-116753360D01*
X180816996Y-116707942D01*
X180802421Y-116634672D01*
X180800000Y-116610089D01*
X180800000Y-114768258D01*
X180801078Y-114751812D01*
X180814872Y-114647037D01*
X180823385Y-114615265D01*
X180860639Y-114525326D01*
X180877086Y-114496840D01*
X180936349Y-114419607D01*
X180959607Y-114396349D01*
X181036840Y-114337086D01*
X181065326Y-114320639D01*
X181155265Y-114283385D01*
X181187037Y-114274872D01*
X181291812Y-114261078D01*
X181308258Y-114260000D01*
X187616742Y-114260000D01*
X187633188Y-114261078D01*
G37*
%TD.AperFunction*%
%TD*%
%TA.AperFunction,Conductor*%
%TO.N,Net-(Q10-Pad1)*%
G36*
X161475000Y-112522500D02*
G01*
X160375000Y-112522500D01*
X160251393Y-112542077D01*
X160139886Y-112598893D01*
X160051393Y-112687386D01*
X159994577Y-112798893D01*
X159975000Y-112922500D01*
X159975000Y-119097500D01*
X159994577Y-119221107D01*
X160051393Y-119332614D01*
X160139886Y-119421107D01*
X160251393Y-119477923D01*
X160375000Y-119497500D01*
X161727581Y-119497500D01*
X161747293Y-119499051D01*
X161837537Y-119513345D01*
X161875023Y-119525525D01*
X161947490Y-119562448D01*
X161979379Y-119585618D01*
X162036882Y-119643121D01*
X162060052Y-119675010D01*
X162096975Y-119747477D01*
X162109156Y-119784965D01*
X162121878Y-119865289D01*
X162121878Y-119904711D01*
X162109156Y-119985035D01*
X162096975Y-120022523D01*
X162060052Y-120094990D01*
X162036882Y-120126879D01*
X161979379Y-120184382D01*
X161947490Y-120207552D01*
X161875023Y-120244475D01*
X161837537Y-120256655D01*
X161762171Y-120268592D01*
X161747292Y-120270949D01*
X161727581Y-120272500D01*
X159984917Y-120272500D01*
X159965207Y-120270949D01*
X159871105Y-120256045D01*
X159833612Y-120243863D01*
X159757665Y-120205166D01*
X159725773Y-120181994D01*
X159665506Y-120121727D01*
X159642334Y-120089835D01*
X159603637Y-120013888D01*
X159591455Y-119976395D01*
X159576551Y-119882293D01*
X159575000Y-119862583D01*
X159575000Y-111922500D01*
X161475000Y-111922500D01*
X161475000Y-112522500D01*
G37*
%TD.AperFunction*%
%TD*%
%TA.AperFunction,Conductor*%
%TO.N,Net-(JP1-Pad2)*%
G36*
X185308188Y-94051078D02*
G01*
X185412963Y-94064872D01*
X185444735Y-94073385D01*
X185534674Y-94110639D01*
X185563160Y-94127086D01*
X185640393Y-94186349D01*
X185663651Y-94209607D01*
X185722914Y-94286840D01*
X185739361Y-94315326D01*
X185776615Y-94405265D01*
X185785128Y-94437037D01*
X185798922Y-94541812D01*
X185800000Y-94558258D01*
X185800000Y-97250000D01*
X185817037Y-97379410D01*
X185820197Y-97387039D01*
X185856632Y-97475000D01*
X185866987Y-97500000D01*
X185946447Y-97603553D01*
X185952993Y-97608576D01*
X186026819Y-97665225D01*
X186050000Y-97683013D01*
X186057626Y-97686172D01*
X186057628Y-97686173D01*
X186162961Y-97729803D01*
X186170590Y-97732963D01*
X186178778Y-97734041D01*
X186283753Y-97747861D01*
X186300000Y-97750000D01*
X188812500Y-97750000D01*
X188881250Y-97731578D01*
X188931578Y-97681250D01*
X188939731Y-97650823D01*
X188976683Y-97590201D01*
X189040544Y-97559180D01*
X189111038Y-97567610D01*
X189131329Y-97578598D01*
X189419043Y-97770408D01*
X189419095Y-97770442D01*
X189419518Y-97770724D01*
X189433813Y-97779911D01*
X189565715Y-97837490D01*
X189574659Y-97838623D01*
X189699557Y-97854444D01*
X189699559Y-97854444D01*
X189708496Y-97855576D01*
X189850589Y-97832703D01*
X189852935Y-97831583D01*
X189920684Y-97830442D01*
X189981048Y-97867815D01*
X190011624Y-97931891D01*
X190011675Y-97971627D01*
X190007933Y-97995256D01*
X189995751Y-98032751D01*
X189986962Y-98050000D01*
X189972453Y-98078477D01*
X189955279Y-98112182D01*
X189932107Y-98144074D01*
X189869074Y-98207107D01*
X189837182Y-98230279D01*
X189757751Y-98270751D01*
X189720260Y-98282933D01*
X189622292Y-98298449D01*
X189602583Y-98300000D01*
X189091590Y-98300000D01*
X189058974Y-98295705D01*
X189046679Y-98292410D01*
X188986057Y-98255456D01*
X188957589Y-98203317D01*
X188937548Y-98128525D01*
X188937546Y-98128522D01*
X188933253Y-98112500D01*
X188887500Y-98066747D01*
X188861861Y-98059877D01*
X188832973Y-98052136D01*
X188832970Y-98052136D01*
X188825000Y-98050000D01*
X184508258Y-98050000D01*
X184491812Y-98048922D01*
X184387037Y-98035128D01*
X184355265Y-98026615D01*
X184265326Y-97989361D01*
X184236840Y-97972914D01*
X184159607Y-97913651D01*
X184136349Y-97890393D01*
X184077086Y-97813160D01*
X184060639Y-97784674D01*
X184023385Y-97694735D01*
X184014872Y-97662963D01*
X184001078Y-97558188D01*
X184000000Y-97541742D01*
X184000000Y-94558258D01*
X184001078Y-94541812D01*
X184014872Y-94437037D01*
X184023385Y-94405265D01*
X184060639Y-94315326D01*
X184077086Y-94286840D01*
X184136349Y-94209607D01*
X184159607Y-94186349D01*
X184236840Y-94127086D01*
X184265326Y-94110639D01*
X184355265Y-94073385D01*
X184387037Y-94064872D01*
X184491812Y-94051078D01*
X184508258Y-94050000D01*
X185291742Y-94050000D01*
X185308188Y-94051078D01*
G37*
%TD.AperFunction*%
%TD*%
%TA.AperFunction,Conductor*%
%TO.N,GNDA*%
G36*
X176355373Y-109570488D02*
G01*
X176356043Y-109570667D01*
X176372757Y-109575137D01*
X176429298Y-109607764D01*
X176429880Y-109608346D01*
X176462472Y-109664756D01*
X176462685Y-109665549D01*
X176462751Y-109730671D01*
X176462540Y-109731463D01*
X176429882Y-109788121D01*
X176429303Y-109788700D01*
X176372880Y-109821295D01*
X176355501Y-109825961D01*
X176322891Y-109830271D01*
X172079480Y-109832346D01*
X167143865Y-109834760D01*
X167124868Y-109834769D01*
X167119983Y-109835545D01*
X167119982Y-109835545D01*
X167098624Y-109838938D01*
X167001312Y-109854395D01*
X166889860Y-109911230D01*
X166801417Y-109999714D01*
X166744634Y-110111193D01*
X166743084Y-110120981D01*
X166743083Y-110120984D01*
X166728968Y-110210120D01*
X166725066Y-110234761D01*
X166725009Y-112881318D01*
X166744584Y-113004927D01*
X166801399Y-113116437D01*
X166889892Y-113204932D01*
X167001400Y-113261749D01*
X167125009Y-113281327D01*
X168600000Y-113281327D01*
X168723607Y-113261750D01*
X168835114Y-113204934D01*
X168923607Y-113116441D01*
X168967464Y-113030367D01*
X168975922Y-113013768D01*
X168975922Y-113013767D01*
X168980423Y-113004934D01*
X169000000Y-112881327D01*
X169000000Y-110844917D01*
X169001551Y-110825207D01*
X169016455Y-110731105D01*
X169028637Y-110693612D01*
X169067334Y-110617665D01*
X169090506Y-110585773D01*
X169150773Y-110525506D01*
X169182665Y-110502334D01*
X169258612Y-110463637D01*
X169296105Y-110451455D01*
X169390207Y-110436551D01*
X169409917Y-110435000D01*
X181348374Y-110435000D01*
X181380986Y-110439294D01*
X181385734Y-110440567D01*
X181446356Y-110477518D01*
X181477377Y-110541379D01*
X181468947Y-110611873D01*
X181423744Y-110666619D01*
X181385909Y-110683931D01*
X181380833Y-110685299D01*
X181348258Y-110689640D01*
X169752844Y-110709194D01*
X169673839Y-110709327D01*
X169550472Y-110729046D01*
X169439204Y-110785864D01*
X169350892Y-110874236D01*
X169294151Y-110985543D01*
X169292595Y-110995322D01*
X169275293Y-111104041D01*
X169274516Y-111108926D01*
X169272508Y-113112589D01*
X169272471Y-113149040D01*
X169270900Y-113168748D01*
X169256076Y-113261750D01*
X169255904Y-113262827D01*
X169243685Y-113300307D01*
X169204915Y-113376212D01*
X169181715Y-113408078D01*
X169121391Y-113468287D01*
X169089477Y-113491428D01*
X169013499Y-113530050D01*
X168975998Y-113542196D01*
X168903726Y-113553574D01*
X168881887Y-113557012D01*
X168862180Y-113558545D01*
X166450533Y-113556327D01*
X166313027Y-113556327D01*
X166305052Y-113558464D01*
X166305050Y-113558464D01*
X166260384Y-113570431D01*
X166260382Y-113570432D01*
X166244363Y-113574724D01*
X166194096Y-113624987D01*
X166175693Y-113693649D01*
X166175692Y-113701907D01*
X166175692Y-113701910D01*
X166175597Y-114927669D01*
X166174995Y-122719560D01*
X166174994Y-122728058D01*
X166173443Y-122747755D01*
X166169267Y-122774126D01*
X166158547Y-122841810D01*
X166146376Y-122879281D01*
X166107711Y-122955200D01*
X166084567Y-122987073D01*
X166030453Y-123041225D01*
X166024348Y-123047334D01*
X165992483Y-123070506D01*
X165916598Y-123109222D01*
X165879133Y-123121421D01*
X165785092Y-123136382D01*
X165765398Y-123137947D01*
X136755951Y-123160617D01*
X136723109Y-123156288D01*
X136696337Y-123149081D01*
X136639547Y-123116059D01*
X136632224Y-123108662D01*
X136599776Y-123051550D01*
X136597107Y-123041225D01*
X136597684Y-122976004D01*
X136600857Y-122964568D01*
X136633623Y-122908714D01*
X136642237Y-122900186D01*
X136698425Y-122867980D01*
X136726605Y-122860467D01*
X136758979Y-122856214D01*
X165625004Y-122836794D01*
X165741782Y-122836716D01*
X165741785Y-122836716D01*
X165750040Y-122836710D01*
X165760076Y-122834015D01*
X165796550Y-122824220D01*
X165796551Y-122824219D01*
X165812564Y-122819919D01*
X165858326Y-122774126D01*
X165875074Y-122711590D01*
X165875000Y-113561708D01*
X165877421Y-113537126D01*
X165890092Y-113473425D01*
X165908905Y-113428006D01*
X165937957Y-113384526D01*
X165972719Y-113349764D01*
X166016202Y-113320708D01*
X166061624Y-113301892D01*
X166137495Y-113286801D01*
X166237949Y-113266819D01*
X166323110Y-113209916D01*
X166380013Y-113124756D01*
X166399996Y-113024302D01*
X166400025Y-111195011D01*
X166380457Y-111071427D01*
X166375958Y-111062595D01*
X166375956Y-111062589D01*
X166360266Y-111031788D01*
X166352776Y-111007171D01*
X166351005Y-111007658D01*
X166348499Y-110998542D01*
X166347382Y-110989154D01*
X166301939Y-110886847D01*
X166222713Y-110807759D01*
X166212076Y-110803056D01*
X166212074Y-110803055D01*
X166152538Y-110776735D01*
X166120327Y-110762494D01*
X166094646Y-110759500D01*
X164505354Y-110759500D01*
X164501650Y-110759941D01*
X164501647Y-110759941D01*
X164494254Y-110760821D01*
X164479154Y-110762618D01*
X164470514Y-110766456D01*
X164470513Y-110766456D01*
X164431849Y-110783629D01*
X164380661Y-110794477D01*
X139849998Y-110786486D01*
X139712563Y-110786441D01*
X139643847Y-110804833D01*
X139593537Y-110855123D01*
X139575120Y-110923832D01*
X139574925Y-114574391D01*
X139574924Y-114589176D01*
X139573373Y-114608879D01*
X139561035Y-114686750D01*
X139560299Y-114691398D01*
X139548116Y-114728887D01*
X139524622Y-114774994D01*
X139514745Y-114794376D01*
X139491572Y-114826268D01*
X139439597Y-114878239D01*
X139407706Y-114901408D01*
X139342213Y-114934777D01*
X139304725Y-114946956D01*
X139222209Y-114960024D01*
X139202503Y-114961575D01*
X139167964Y-114961574D01*
X139124750Y-114961573D01*
X139100169Y-114959151D01*
X139038872Y-114946957D01*
X139036508Y-114946487D01*
X138991084Y-114927669D01*
X138947635Y-114898633D01*
X138912874Y-114863867D01*
X138883847Y-114820418D01*
X138865036Y-114774994D01*
X138860424Y-114751796D01*
X138852379Y-114711328D01*
X138849960Y-114686750D01*
X138849970Y-114590980D01*
X138854266Y-114558374D01*
X138859678Y-114538186D01*
X138892299Y-114481705D01*
X138894930Y-114479075D01*
X138951422Y-114446475D01*
X138987631Y-114436782D01*
X138987633Y-114436782D01*
X139024523Y-114426906D01*
X139040427Y-114422648D01*
X139040428Y-114422647D01*
X139056453Y-114418357D01*
X139106841Y-114367988D01*
X139125292Y-114299172D01*
X139125378Y-113624987D01*
X139125721Y-110923832D01*
X139125738Y-110791133D01*
X139125738Y-110791132D01*
X139125789Y-110391276D01*
X154106214Y-110387827D01*
X166000198Y-110385088D01*
X166005078Y-110384314D01*
X166005080Y-110384314D01*
X166113970Y-110367047D01*
X166113971Y-110367047D01*
X166123763Y-110365494D01*
X166182275Y-110335675D01*
X166226398Y-110313189D01*
X166226400Y-110313187D01*
X166235231Y-110308687D01*
X166323697Y-110220224D01*
X166380508Y-110108758D01*
X166400106Y-109985194D01*
X166400107Y-109980243D01*
X166400497Y-109975309D01*
X166400515Y-109975310D01*
X166401662Y-109960772D01*
X166410233Y-109906729D01*
X166416578Y-109866715D01*
X166428759Y-109829242D01*
X166449714Y-109788121D01*
X166467440Y-109753334D01*
X166490599Y-109721457D01*
X166550836Y-109661207D01*
X166582711Y-109638040D01*
X166594241Y-109632162D01*
X166640954Y-109608346D01*
X166658611Y-109599344D01*
X166696081Y-109587156D01*
X166719604Y-109583421D01*
X166790139Y-109572221D01*
X166809830Y-109570662D01*
X172552102Y-109567975D01*
X176322761Y-109566210D01*
X176355373Y-109570488D01*
G37*
%TD.AperFunction*%
%TD*%
%TA.AperFunction,Conductor*%
%TO.N,Net-(R26-Pad2)*%
G36*
X173972941Y-91291996D02*
G01*
X174018360Y-91310810D01*
X174069953Y-91345283D01*
X174104717Y-91380047D01*
X174139190Y-91431640D01*
X174158004Y-91477058D01*
X174172579Y-91550328D01*
X174175000Y-91574911D01*
X174175000Y-97987500D01*
X174192742Y-98099519D01*
X174244231Y-98200572D01*
X174324428Y-98280769D01*
X174425481Y-98332258D01*
X174435270Y-98333808D01*
X174435272Y-98333809D01*
X174534298Y-98349493D01*
X174629811Y-98364620D01*
X174667299Y-98376801D01*
X174732793Y-98410172D01*
X174764685Y-98433344D01*
X174816656Y-98485315D01*
X174839828Y-98517207D01*
X174873198Y-98582699D01*
X174885380Y-98620192D01*
X174898449Y-98702708D01*
X174900000Y-98722418D01*
X174900000Y-99641742D01*
X174898922Y-99658188D01*
X174885128Y-99762963D01*
X174876615Y-99794735D01*
X174839361Y-99884674D01*
X174822914Y-99913160D01*
X174763651Y-99990393D01*
X174740393Y-100013651D01*
X174663160Y-100072914D01*
X174634674Y-100089361D01*
X174544735Y-100126615D01*
X174512963Y-100135128D01*
X174408188Y-100148922D01*
X174391742Y-100150000D01*
X174108258Y-100150000D01*
X174091812Y-100148922D01*
X173987037Y-100135128D01*
X173955265Y-100126615D01*
X173865326Y-100089361D01*
X173836840Y-100072914D01*
X173759607Y-100013651D01*
X173736349Y-99990393D01*
X173677086Y-99913160D01*
X173660639Y-99884674D01*
X173623385Y-99794735D01*
X173614872Y-99762963D01*
X173601078Y-99658188D01*
X173600000Y-99641742D01*
X173600000Y-91574911D01*
X173602421Y-91550328D01*
X173616996Y-91477058D01*
X173635810Y-91431640D01*
X173670283Y-91380047D01*
X173705047Y-91345283D01*
X173756640Y-91310810D01*
X173802059Y-91291996D01*
X173862918Y-91279890D01*
X173912082Y-91279890D01*
X173972941Y-91291996D01*
G37*
%TD.AperFunction*%
%TD*%
%TA.AperFunction,Conductor*%
%TO.N,Net-(C14-Pad2)*%
G36*
X175883188Y-111061078D02*
G01*
X175987963Y-111074872D01*
X176019735Y-111083385D01*
X176109674Y-111120639D01*
X176138160Y-111137086D01*
X176215393Y-111196349D01*
X176238651Y-111219607D01*
X176297914Y-111296840D01*
X176314361Y-111325326D01*
X176351615Y-111415265D01*
X176360128Y-111447037D01*
X176373922Y-111551812D01*
X176375000Y-111568258D01*
X176375000Y-111851742D01*
X176373922Y-111868188D01*
X176360128Y-111972963D01*
X176351615Y-112004735D01*
X176314361Y-112094674D01*
X176297914Y-112123160D01*
X176238651Y-112200393D01*
X176215393Y-112223651D01*
X176138160Y-112282914D01*
X176109674Y-112299361D01*
X176019735Y-112336615D01*
X175987963Y-112345128D01*
X175883188Y-112358922D01*
X175866742Y-112360000D01*
X170383258Y-112360000D01*
X170366812Y-112358922D01*
X170262037Y-112345128D01*
X170230265Y-112336615D01*
X170140326Y-112299361D01*
X170111840Y-112282914D01*
X170034607Y-112223651D01*
X170011349Y-112200393D01*
X169952086Y-112123160D01*
X169935639Y-112094674D01*
X169898385Y-112004735D01*
X169889872Y-111972963D01*
X169876078Y-111868188D01*
X169875000Y-111851742D01*
X169875000Y-111568258D01*
X169876078Y-111551812D01*
X169889872Y-111447037D01*
X169898385Y-111415265D01*
X169935639Y-111325326D01*
X169952086Y-111296840D01*
X170011349Y-111219607D01*
X170034607Y-111196349D01*
X170111840Y-111137086D01*
X170140326Y-111120639D01*
X170230265Y-111083385D01*
X170262037Y-111074872D01*
X170366812Y-111061078D01*
X170383258Y-111060000D01*
X175866742Y-111060000D01*
X175883188Y-111061078D01*
G37*
%TD.AperFunction*%
%TD*%
%TA.AperFunction,Conductor*%
%TO.N,Net-(R26-Pad1)*%
G36*
X179897941Y-96941996D02*
G01*
X179943360Y-96960810D01*
X179994953Y-96995283D01*
X180029717Y-97030047D01*
X180064190Y-97081640D01*
X180083004Y-97127058D01*
X180097579Y-97200328D01*
X180100000Y-97224911D01*
X180100000Y-99641742D01*
X180098922Y-99658188D01*
X180085128Y-99762963D01*
X180076615Y-99794735D01*
X180039361Y-99884674D01*
X180022914Y-99913160D01*
X179963651Y-99990393D01*
X179940393Y-100013651D01*
X179863160Y-100072914D01*
X179834674Y-100089361D01*
X179744735Y-100126615D01*
X179712963Y-100135128D01*
X179608188Y-100148922D01*
X179591742Y-100150000D01*
X177233258Y-100150000D01*
X177216812Y-100148922D01*
X177112037Y-100135128D01*
X177080265Y-100126615D01*
X176990326Y-100089361D01*
X176961840Y-100072914D01*
X176884607Y-100013651D01*
X176861349Y-99990393D01*
X176802086Y-99913160D01*
X176785639Y-99884674D01*
X176748385Y-99794735D01*
X176739872Y-99762963D01*
X176726078Y-99658188D01*
X176725000Y-99641742D01*
X176725000Y-98858258D01*
X176726078Y-98841812D01*
X176739872Y-98737037D01*
X176748385Y-98705265D01*
X176785639Y-98615326D01*
X176802086Y-98586840D01*
X176861349Y-98509607D01*
X176884607Y-98486349D01*
X176961840Y-98427086D01*
X176990326Y-98410639D01*
X177080265Y-98373385D01*
X177112037Y-98364872D01*
X177216812Y-98351078D01*
X177233258Y-98350000D01*
X179312500Y-98350000D01*
X179393820Y-98333824D01*
X179462760Y-98287760D01*
X179508824Y-98218820D01*
X179525000Y-98137500D01*
X179525000Y-97224911D01*
X179527421Y-97200328D01*
X179541996Y-97127058D01*
X179560810Y-97081640D01*
X179595283Y-97030047D01*
X179630047Y-96995283D01*
X179681640Y-96960810D01*
X179727059Y-96941996D01*
X179787918Y-96929890D01*
X179837082Y-96929890D01*
X179897941Y-96941996D01*
G37*
%TD.AperFunction*%
%TD*%
%TA.AperFunction,Conductor*%
%TO.N,Net-(JP4-Pad1)*%
G36*
X191344694Y-113283434D02*
G01*
X191352510Y-113284462D01*
X191449477Y-113297218D01*
X191481246Y-113305727D01*
X191571196Y-113342973D01*
X191599675Y-113359411D01*
X191676920Y-113418671D01*
X191700180Y-113441927D01*
X191759453Y-113519157D01*
X191775902Y-113547641D01*
X191813166Y-113637580D01*
X191821681Y-113669345D01*
X191833487Y-113758951D01*
X191835485Y-113774119D01*
X191836565Y-113790562D01*
X191836643Y-114629359D01*
X191836743Y-115705053D01*
X191824893Y-115758410D01*
X191801532Y-115808395D01*
X191799628Y-115812289D01*
X191766781Y-115876616D01*
X191765042Y-115883725D01*
X191762983Y-115889260D01*
X191761117Y-115894868D01*
X191758021Y-115901493D01*
X191756532Y-115908653D01*
X191756531Y-115908655D01*
X191743315Y-115972193D01*
X191742344Y-115976482D01*
X191725185Y-116046606D01*
X191724500Y-116057648D01*
X191724468Y-116057646D01*
X191724221Y-116061776D01*
X191723875Y-116065656D01*
X191722382Y-116072831D01*
X191722580Y-116080152D01*
X191722580Y-116080153D01*
X191724454Y-116149400D01*
X191724500Y-116152808D01*
X191724500Y-121122295D01*
X191704498Y-121190416D01*
X191675209Y-121222253D01*
X191600407Y-121279657D01*
X191571924Y-121296104D01*
X191571702Y-121296196D01*
X191481981Y-121333365D01*
X191450208Y-121341880D01*
X191345433Y-121355678D01*
X191328987Y-121356757D01*
X190982420Y-121356770D01*
X190516598Y-121356787D01*
X190392444Y-121356792D01*
X189458695Y-121356827D01*
X189442252Y-121355749D01*
X189337472Y-121341957D01*
X189305702Y-121333446D01*
X189215761Y-121296196D01*
X189187278Y-121279753D01*
X189110036Y-121220488D01*
X189086782Y-121197235D01*
X189027514Y-121120001D01*
X189011067Y-121091517D01*
X188973809Y-121001578D01*
X188965295Y-120969806D01*
X188951498Y-120865037D01*
X188950419Y-120848591D01*
X188950361Y-119368355D01*
X188951437Y-119351916D01*
X188965229Y-119247130D01*
X188973741Y-119215360D01*
X189010991Y-119125417D01*
X189027433Y-119096935D01*
X189086698Y-119019693D01*
X189109952Y-118996438D01*
X189123831Y-118985787D01*
X189187184Y-118937171D01*
X189215668Y-118920724D01*
X189305610Y-118883465D01*
X189337381Y-118874951D01*
X189442150Y-118861154D01*
X189458596Y-118860075D01*
X189825380Y-118860061D01*
X190148835Y-118860048D01*
X190268221Y-118860043D01*
X190303722Y-118865147D01*
X190364394Y-118882962D01*
X190364396Y-118882962D01*
X190373039Y-118885500D01*
X190516961Y-118885500D01*
X190586327Y-118865133D01*
X190621816Y-118860029D01*
X190850022Y-118860020D01*
X190979425Y-118842978D01*
X190987049Y-118839820D01*
X190987052Y-118839819D01*
X191092386Y-118796185D01*
X191092388Y-118796184D01*
X191100011Y-118793026D01*
X191203560Y-118713566D01*
X191283016Y-118610014D01*
X191332964Y-118489426D01*
X191350000Y-118360020D01*
X191350000Y-114085001D01*
X191339950Y-114008659D01*
X191334041Y-113963779D01*
X191332963Y-113955591D01*
X191283013Y-113835001D01*
X191203553Y-113731447D01*
X191099999Y-113651988D01*
X190979409Y-113602038D01*
X190850000Y-113585001D01*
X190845877Y-113585001D01*
X182777665Y-113585019D01*
X173074015Y-113585041D01*
X173069121Y-113585816D01*
X173069122Y-113585816D01*
X172945034Y-113605468D01*
X172945032Y-113605468D01*
X172935236Y-113607020D01*
X172810039Y-113670807D01*
X172710680Y-113770157D01*
X172646882Y-113895348D01*
X172645330Y-113905140D01*
X172645330Y-113905141D01*
X172624890Y-114034123D01*
X172606021Y-114153186D01*
X172593837Y-114190674D01*
X172565348Y-114246574D01*
X172548159Y-114280301D01*
X172524985Y-114312190D01*
X172456852Y-114380311D01*
X172453848Y-114383314D01*
X172421957Y-114406480D01*
X172332320Y-114452141D01*
X172294831Y-114464319D01*
X172242240Y-114472643D01*
X172185555Y-114481615D01*
X172165845Y-114483164D01*
X169604115Y-114482921D01*
X169599981Y-114482921D01*
X169470562Y-114499949D01*
X169349958Y-114549897D01*
X169307467Y-114582498D01*
X169252943Y-114624332D01*
X169252940Y-114624335D01*
X169246392Y-114629359D01*
X169166925Y-114732920D01*
X169116971Y-114853522D01*
X169099937Y-114982943D01*
X169099937Y-114987070D01*
X169100017Y-116832991D01*
X169097608Y-116857516D01*
X169083023Y-116931032D01*
X169064295Y-116976367D01*
X169029740Y-117028239D01*
X168995124Y-117062985D01*
X168943375Y-117097736D01*
X168898112Y-117116631D01*
X168837081Y-117128975D01*
X168787919Y-117129133D01*
X168727229Y-117117264D01*
X168681648Y-117098531D01*
X168630198Y-117064322D01*
X168595292Y-117029542D01*
X168560899Y-116978220D01*
X168542001Y-116932711D01*
X168541666Y-116931032D01*
X168527441Y-116859679D01*
X168525010Y-116835045D01*
X168525011Y-116832991D01*
X168525085Y-114732920D01*
X168525093Y-114517969D01*
X168526171Y-114501524D01*
X168539967Y-114396754D01*
X168548480Y-114364986D01*
X168585730Y-114275056D01*
X168602174Y-114246574D01*
X168661428Y-114169347D01*
X168684685Y-114146088D01*
X168757694Y-114090061D01*
X168823913Y-114064457D01*
X168834518Y-114064020D01*
X168860465Y-114064044D01*
X168860473Y-114064044D01*
X168861715Y-114064045D01*
X168862959Y-114063997D01*
X168862972Y-114063997D01*
X168900119Y-114062571D01*
X168900141Y-114062570D01*
X168901384Y-114062522D01*
X168921091Y-114060989D01*
X168922324Y-114060844D01*
X168922347Y-114060842D01*
X168959259Y-114056508D01*
X168959274Y-114056506D01*
X168960500Y-114056362D01*
X169054611Y-114041546D01*
X169131756Y-114023101D01*
X169134102Y-114022341D01*
X169134124Y-114022335D01*
X169154184Y-114015838D01*
X169192992Y-114009708D01*
X171632700Y-114009435D01*
X171632706Y-114009435D01*
X171637652Y-114009434D01*
X171749648Y-113991682D01*
X171758486Y-113987178D01*
X171758488Y-113987177D01*
X171841843Y-113944694D01*
X171841846Y-113944692D01*
X171850681Y-113940189D01*
X171930856Y-113859995D01*
X171982327Y-113758951D01*
X171985644Y-113737997D01*
X172000054Y-113646948D01*
X172006661Y-113605198D01*
X172014660Y-113554656D01*
X172026838Y-113517163D01*
X172060193Y-113451682D01*
X172083358Y-113419789D01*
X172135317Y-113367818D01*
X172167207Y-113344644D01*
X172232679Y-113311276D01*
X172270167Y-113299090D01*
X172295110Y-113295137D01*
X172352669Y-113286014D01*
X172372379Y-113284461D01*
X176972853Y-113283951D01*
X178114977Y-113283824D01*
X185136362Y-113283045D01*
X191328248Y-113282358D01*
X191344694Y-113283434D01*
G37*
%TD.AperFunction*%
%TD*%
%TA.AperFunction,Conductor*%
%TO.N,Net-(Q1-Pad1)*%
G36*
X161475000Y-87787500D02*
G01*
X160375000Y-87787500D01*
X160251393Y-87807077D01*
X160139886Y-87863893D01*
X160051393Y-87952386D01*
X159994577Y-88063893D01*
X159975000Y-88187500D01*
X159975000Y-94362500D01*
X159994577Y-94486107D01*
X160051393Y-94597614D01*
X160139886Y-94686107D01*
X160251393Y-94742923D01*
X160375000Y-94762500D01*
X161727581Y-94762500D01*
X161747293Y-94764051D01*
X161837537Y-94778345D01*
X161875023Y-94790525D01*
X161947490Y-94827448D01*
X161979379Y-94850618D01*
X162036882Y-94908121D01*
X162060052Y-94940010D01*
X162096975Y-95012477D01*
X162109156Y-95049965D01*
X162121878Y-95130289D01*
X162121878Y-95169711D01*
X162109156Y-95250035D01*
X162096975Y-95287523D01*
X162060052Y-95359990D01*
X162036882Y-95391879D01*
X161979379Y-95449382D01*
X161947490Y-95472552D01*
X161875023Y-95509475D01*
X161837537Y-95521655D01*
X161762171Y-95533592D01*
X161747292Y-95535949D01*
X161727581Y-95537500D01*
X159984917Y-95537500D01*
X159965207Y-95535949D01*
X159871105Y-95521045D01*
X159833612Y-95508863D01*
X159757665Y-95470166D01*
X159725773Y-95446994D01*
X159665506Y-95386727D01*
X159642334Y-95354835D01*
X159603637Y-95278888D01*
X159591455Y-95241395D01*
X159576551Y-95147293D01*
X159575000Y-95127583D01*
X159575000Y-87187500D01*
X161475000Y-87187500D01*
X161475000Y-87787500D01*
G37*
%TD.AperFunction*%
%TD*%
%TA.AperFunction,Conductor*%
%TO.N,Net-(JP4-Pad2)*%
G36*
X185308188Y-118786078D02*
G01*
X185412963Y-118799872D01*
X185444735Y-118808385D01*
X185534674Y-118845639D01*
X185563160Y-118862086D01*
X185640393Y-118921349D01*
X185663651Y-118944607D01*
X185722914Y-119021840D01*
X185739361Y-119050326D01*
X185776615Y-119140265D01*
X185785128Y-119172037D01*
X185798922Y-119276812D01*
X185800000Y-119293258D01*
X185800000Y-121985000D01*
X185817037Y-122114410D01*
X185820197Y-122122039D01*
X185856632Y-122210000D01*
X185866987Y-122235000D01*
X185946447Y-122338553D01*
X185952993Y-122343576D01*
X186026819Y-122400225D01*
X186050000Y-122418013D01*
X186057626Y-122421172D01*
X186057628Y-122421173D01*
X186162961Y-122464803D01*
X186170590Y-122467963D01*
X186178778Y-122469041D01*
X186283753Y-122482861D01*
X186300000Y-122485000D01*
X188812500Y-122485000D01*
X188881250Y-122466578D01*
X188931578Y-122416250D01*
X188939731Y-122385823D01*
X188976683Y-122325201D01*
X189040544Y-122294180D01*
X189111038Y-122302610D01*
X189131329Y-122313598D01*
X189419043Y-122505408D01*
X189419095Y-122505442D01*
X189419518Y-122505724D01*
X189433813Y-122514911D01*
X189565715Y-122572490D01*
X189574659Y-122573623D01*
X189699557Y-122589444D01*
X189699559Y-122589444D01*
X189708496Y-122590576D01*
X189850589Y-122567703D01*
X189852935Y-122566583D01*
X189920684Y-122565442D01*
X189981048Y-122602815D01*
X190011624Y-122666891D01*
X190011675Y-122706627D01*
X190007933Y-122730256D01*
X189995751Y-122767751D01*
X189986962Y-122785000D01*
X189972453Y-122813477D01*
X189955279Y-122847182D01*
X189932107Y-122879074D01*
X189869074Y-122942107D01*
X189837182Y-122965279D01*
X189757751Y-123005751D01*
X189720260Y-123017933D01*
X189622292Y-123033449D01*
X189602583Y-123035000D01*
X189091590Y-123035000D01*
X189058974Y-123030705D01*
X189046679Y-123027410D01*
X188986057Y-122990456D01*
X188957589Y-122938317D01*
X188937548Y-122863525D01*
X188937546Y-122863522D01*
X188933253Y-122847500D01*
X188887500Y-122801747D01*
X188861861Y-122794877D01*
X188832973Y-122787136D01*
X188832970Y-122787136D01*
X188825000Y-122785000D01*
X184508258Y-122785000D01*
X184491812Y-122783922D01*
X184387037Y-122770128D01*
X184355265Y-122761615D01*
X184265326Y-122724361D01*
X184236840Y-122707914D01*
X184159607Y-122648651D01*
X184136349Y-122625393D01*
X184077086Y-122548160D01*
X184060639Y-122519674D01*
X184023385Y-122429735D01*
X184014872Y-122397963D01*
X184001078Y-122293188D01*
X184000000Y-122276742D01*
X184000000Y-119293258D01*
X184001078Y-119276812D01*
X184014872Y-119172037D01*
X184023385Y-119140265D01*
X184060639Y-119050326D01*
X184077086Y-119021840D01*
X184136349Y-118944607D01*
X184159607Y-118921349D01*
X184236840Y-118862086D01*
X184265326Y-118845639D01*
X184355265Y-118808385D01*
X184387037Y-118799872D01*
X184491812Y-118786078D01*
X184508258Y-118785000D01*
X185291742Y-118785000D01*
X185308188Y-118786078D01*
G37*
%TD.AperFunction*%
%TD*%
%TA.AperFunction,Conductor*%
%TO.N,+5V*%
G36*
X176192121Y-83220002D02*
G01*
X176238614Y-83273658D01*
X176250000Y-83326000D01*
X176250000Y-84374000D01*
X176229998Y-84442121D01*
X176176342Y-84488614D01*
X176124000Y-84500000D01*
X140026000Y-84500000D01*
X139957879Y-84479998D01*
X139911386Y-84426342D01*
X139900000Y-84374000D01*
X139900000Y-83326000D01*
X139920002Y-83257879D01*
X139973658Y-83211386D01*
X140026000Y-83200000D01*
X176124000Y-83200000D01*
X176192121Y-83220002D01*
G37*
%TD.AperFunction*%
%TD*%
%TA.AperFunction,Conductor*%
%TO.N,Net-(Q10-Pad1)*%
G36*
X156225000Y-112497500D02*
G01*
X153825000Y-112497500D01*
X153701393Y-112517077D01*
X153589886Y-112573893D01*
X153501393Y-112662386D01*
X153444577Y-112773893D01*
X153425000Y-112897500D01*
X153425000Y-119097500D01*
X153444577Y-119221107D01*
X153501393Y-119332614D01*
X153589886Y-119421107D01*
X153701393Y-119477923D01*
X153825000Y-119497500D01*
X155177581Y-119497500D01*
X155197293Y-119499051D01*
X155287537Y-119513345D01*
X155325023Y-119525525D01*
X155397490Y-119562448D01*
X155429379Y-119585618D01*
X155486882Y-119643121D01*
X155510052Y-119675010D01*
X155546975Y-119747477D01*
X155559156Y-119784965D01*
X155571878Y-119865289D01*
X155571878Y-119904711D01*
X155559156Y-119985035D01*
X155546975Y-120022523D01*
X155510052Y-120094990D01*
X155486882Y-120126879D01*
X155429379Y-120184382D01*
X155397490Y-120207552D01*
X155325023Y-120244475D01*
X155287537Y-120256655D01*
X155212171Y-120268592D01*
X155197292Y-120270949D01*
X155177581Y-120272500D01*
X153434917Y-120272500D01*
X153415207Y-120270949D01*
X153321105Y-120256045D01*
X153283612Y-120243863D01*
X153207665Y-120205166D01*
X153175773Y-120181994D01*
X153115506Y-120121727D01*
X153092334Y-120089835D01*
X153053637Y-120013888D01*
X153041455Y-119976395D01*
X153026551Y-119882293D01*
X153025000Y-119862583D01*
X153025000Y-111947500D01*
X156225000Y-111947500D01*
X156225000Y-112497500D01*
G37*
%TD.AperFunction*%
%TD*%
%TA.AperFunction,Conductor*%
%TO.N,Net-(C1-Pad2)*%
G36*
X138534793Y-91476551D02*
G01*
X138628895Y-91491455D01*
X138666388Y-91503637D01*
X138742335Y-91542334D01*
X138774227Y-91565506D01*
X138834494Y-91625773D01*
X138857666Y-91657665D01*
X138896363Y-91733612D01*
X138908545Y-91771105D01*
X138923449Y-91865207D01*
X138925000Y-91884917D01*
X138925000Y-96715083D01*
X138923449Y-96734793D01*
X138908545Y-96828895D01*
X138896363Y-96866388D01*
X138857666Y-96942335D01*
X138834494Y-96974227D01*
X138774227Y-97034494D01*
X138742335Y-97057666D01*
X138666388Y-97096363D01*
X138628895Y-97108545D01*
X138534793Y-97123449D01*
X138515083Y-97125000D01*
X138009917Y-97125000D01*
X137990207Y-97123449D01*
X137896105Y-97108545D01*
X137858612Y-97096363D01*
X137782665Y-97057666D01*
X137750773Y-97034494D01*
X137690506Y-96974227D01*
X137667334Y-96942335D01*
X137628637Y-96866388D01*
X137616455Y-96828895D01*
X137601551Y-96734793D01*
X137600000Y-96715083D01*
X137600000Y-91884917D01*
X137601551Y-91865207D01*
X137616455Y-91771105D01*
X137628637Y-91733612D01*
X137667334Y-91657665D01*
X137690506Y-91625773D01*
X137750773Y-91565506D01*
X137782665Y-91542334D01*
X137858612Y-91503637D01*
X137896105Y-91491455D01*
X137990207Y-91476551D01*
X138009917Y-91475000D01*
X138515083Y-91475000D01*
X138534793Y-91476551D01*
G37*
%TD.AperFunction*%
%TD*%
%TA.AperFunction,Conductor*%
%TO.N,GNDA*%
G36*
X139863373Y-81930741D02*
G01*
X139888188Y-81933211D01*
X139952570Y-81946149D01*
X139998347Y-81965319D01*
X140035660Y-81990563D01*
X140042153Y-81994956D01*
X140076976Y-82030318D01*
X140105939Y-82074574D01*
X140124406Y-82120643D01*
X140134076Y-82172896D01*
X140133422Y-82222042D01*
X140122008Y-82275696D01*
X140102878Y-82320448D01*
X140071836Y-82365985D01*
X140037170Y-82400148D01*
X139991189Y-82430520D01*
X139946161Y-82448996D01*
X139879813Y-82462102D01*
X139855480Y-82464491D01*
X132053425Y-82469666D01*
X132053421Y-82469666D01*
X132049308Y-82469669D01*
X131992655Y-82477159D01*
X131928202Y-82485680D01*
X131928199Y-82485681D01*
X131920021Y-82486762D01*
X131912400Y-82489921D01*
X131912398Y-82489922D01*
X131807179Y-82533544D01*
X131799552Y-82536706D01*
X131793003Y-82541733D01*
X131793000Y-82541734D01*
X131744339Y-82579080D01*
X131696097Y-82616105D01*
X131616692Y-82719556D01*
X131613532Y-82727177D01*
X131569899Y-82832402D01*
X131569898Y-82832407D01*
X131566740Y-82840022D01*
X131549640Y-82969308D01*
X131530361Y-109709647D01*
X131547320Y-109839126D01*
X131597226Y-109959798D01*
X131676677Y-110063431D01*
X131780252Y-110142958D01*
X131787884Y-110146121D01*
X131893252Y-110189790D01*
X131893254Y-110189790D01*
X131900887Y-110192954D01*
X132030353Y-110210008D01*
X132884265Y-110210022D01*
X139298731Y-110210125D01*
X139366851Y-110230128D01*
X139415136Y-110287902D01*
X139419865Y-110299316D01*
X139420424Y-110300667D01*
X139420424Y-110391208D01*
X139125789Y-110391276D01*
X139125711Y-111000126D01*
X131059369Y-111000126D01*
X131042909Y-110999046D01*
X130938047Y-110985229D01*
X130906249Y-110976701D01*
X130816243Y-110939383D01*
X130787743Y-110922911D01*
X130778560Y-110915856D01*
X130710479Y-110863555D01*
X130687215Y-110840260D01*
X130627962Y-110762912D01*
X130611528Y-110734387D01*
X130574335Y-110644335D01*
X130565851Y-110612527D01*
X130552175Y-110507639D01*
X130551117Y-110491176D01*
X130551377Y-110300667D01*
X130576669Y-91722000D01*
X130589309Y-82437608D01*
X130590408Y-82421176D01*
X130604322Y-82316507D01*
X130612864Y-82284773D01*
X130650182Y-82194942D01*
X130666642Y-82166494D01*
X130725921Y-82089372D01*
X130749169Y-82066156D01*
X130826389Y-82006977D01*
X130854855Y-81990563D01*
X130944736Y-81953376D01*
X130976484Y-81944879D01*
X131081178Y-81931116D01*
X131097611Y-81930041D01*
X139863373Y-81930741D01*
G37*
%TD.AperFunction*%
%TD*%
%TA.AperFunction,Conductor*%
%TO.N,Net-(JP2-Pad2)*%
G36*
X189309792Y-92501551D02*
G01*
X189388446Y-92514008D01*
X189425937Y-92526190D01*
X189487946Y-92557785D01*
X189519838Y-92580957D01*
X189569043Y-92630162D01*
X189592215Y-92662054D01*
X189623810Y-92724063D01*
X189635992Y-92761556D01*
X189646134Y-92825591D01*
X189637034Y-92896002D01*
X189591312Y-92950316D01*
X189559209Y-92965584D01*
X189558310Y-92965865D01*
X189549411Y-92967297D01*
X189541278Y-92971178D01*
X189541277Y-92971178D01*
X189423579Y-93027338D01*
X189423576Y-93027340D01*
X189419518Y-93029276D01*
X189131329Y-93221402D01*
X189063554Y-93242546D01*
X188995107Y-93223692D01*
X188947719Y-93170825D01*
X188939731Y-93149177D01*
X188935872Y-93134775D01*
X188931578Y-93118750D01*
X188881250Y-93068422D01*
X188812500Y-93050000D01*
X188550000Y-93050000D01*
X188426393Y-93069577D01*
X188417560Y-93074078D01*
X188417559Y-93074078D01*
X188405417Y-93080265D01*
X188314886Y-93126393D01*
X188226393Y-93214886D01*
X188169577Y-93326393D01*
X188150000Y-93450000D01*
X188150000Y-95666742D01*
X188148922Y-95683188D01*
X188135128Y-95787963D01*
X188126615Y-95819735D01*
X188089361Y-95909674D01*
X188072914Y-95938160D01*
X188013651Y-96015393D01*
X187990393Y-96038651D01*
X187913160Y-96097914D01*
X187884674Y-96114361D01*
X187794735Y-96151615D01*
X187762963Y-96160128D01*
X187658188Y-96173922D01*
X187641742Y-96175000D01*
X186858258Y-96175000D01*
X186841812Y-96173922D01*
X186737037Y-96160128D01*
X186705265Y-96151615D01*
X186615326Y-96114361D01*
X186586840Y-96097914D01*
X186509607Y-96038651D01*
X186486349Y-96015393D01*
X186427086Y-95938160D01*
X186410639Y-95909674D01*
X186373385Y-95819735D01*
X186364872Y-95787963D01*
X186351078Y-95683188D01*
X186350000Y-95666742D01*
X186350000Y-93233258D01*
X186351078Y-93216812D01*
X186364872Y-93112037D01*
X186373385Y-93080265D01*
X186410639Y-92990326D01*
X186427086Y-92961840D01*
X186486349Y-92884607D01*
X186509607Y-92861349D01*
X186586840Y-92802086D01*
X186615326Y-92785639D01*
X186705265Y-92748385D01*
X186737037Y-92739872D01*
X186841812Y-92726078D01*
X186858258Y-92725000D01*
X188837500Y-92725000D01*
X188865943Y-92717379D01*
X188877729Y-92714221D01*
X188877730Y-92714221D01*
X188893750Y-92709928D01*
X188934928Y-92668750D01*
X188954946Y-92594042D01*
X188991898Y-92533419D01*
X189044029Y-92504950D01*
X189046465Y-92504297D01*
X189079089Y-92500000D01*
X189290083Y-92500000D01*
X189309792Y-92501551D01*
G37*
%TD.AperFunction*%
%TD*%
M02*
