M48
; DRILL file {KiCad 6.0.7-f9a2dced07~116~ubuntu20.04.1} date Wed 31 Aug 2022 03:18:11 PM CEST
; FORMAT={-:-/ absolute / inch / decimal}
; #@! TF.CreationDate,2022-08-31T15:18:11+02:00
; #@! TF.GenerationSoftware,Kicad,Pcbnew,6.0.7-f9a2dced07~116~ubuntu20.04.1
; #@! TF.FileFunction,Plated,1,2,PTH
FMAT,2
INCH
; #@! TA.AperFunction,Plated,PTH,ViaDrill
T1C0.0157
; #@! TA.AperFunction,Plated,PTH,ComponentDrill
T2C0.0315
; #@! TA.AperFunction,Plated,PTH,ComponentDrill
T3C0.0394
; #@! TA.AperFunction,Plated,PTH,ComponentDrill
T4C0.0551
%
G90
G05
T1
X5.1945Y-4.9193
X5.3031Y-3.1575
X5.3031Y-4.1313
X5.3106Y-4.0516
X5.3106Y-5.0254
X5.3209Y-3.5384
X5.3209Y-4.5122
X5.4378Y-4.276
X5.4382Y-3.3031
X5.4528Y-3.8209
X5.4528Y-4.7947
X5.4793Y-3.5384
X5.4793Y-4.5122
X5.5409Y-4.276
X5.5421Y-3.3039
X5.5502Y-3.8209
X5.5502Y-4.7947
X5.6457Y-3.5384
X5.6457Y-4.5122
X5.8091Y-3.8209
X5.8091Y-4.7947
X5.9035Y-3.5394
X5.9035Y-4.5132
X6.0659Y-3.8209
X6.0659Y-4.7947
X6.1614Y-3.5394
X6.1614Y-4.5132
X6.3238Y-3.8209
X6.3238Y-4.7947
X6.4193Y-3.5394
X6.4193Y-4.5132
X6.5959Y-3.7043
X6.5959Y-4.6781
X6.6457Y-3.8494
X6.6457Y-4.8232
X6.7461Y-3.752
X6.7461Y-4.7258
X6.7707Y-3.3022
X6.7707Y-3.6575
X6.7707Y-4.276
X6.7707Y-4.6313
X6.8957Y-3.5551
X6.8957Y-4.5289
X6.9457Y-3.5803
X6.9459Y-3.7037
X6.9459Y-4.6776
X6.9461Y-3.8295
X6.9465Y-4.8028
X7.003Y-3.4488
X7.003Y-4.4226
X7.0797Y-3.6575
X7.0797Y-4.6313
X7.0935Y-3.4134
X7.0935Y-4.3872
X7.1791Y-3.751
X7.1791Y-4.7248
X7.2352Y-3.3002
X7.2352Y-4.274
X7.3258Y-3.9163
X7.3258Y-4.8902
X7.3543Y-3.1579
X7.3543Y-4.1317
X7.3579Y-4.0516
X7.3579Y-5.0254
X7.372Y-3.5404
X7.372Y-4.5142
X7.6388Y-3.9173
X7.6388Y-4.8911
T2
X6.5079Y-3.4281
X6.5079Y-4.402
X6.6079Y-3.4281
X6.6079Y-4.402
X6.7079Y-3.4281
X6.7079Y-4.402
T3
X5.0457Y-3.2039
X5.0457Y-3.3039
X5.0457Y-3.4039
X5.0457Y-3.5039
X5.0457Y-3.6039
X5.0457Y-3.7039
X7.73Y-3.35
X7.73Y-3.45
X7.73Y-4.3202
X7.73Y-4.4202
T4
X7.373Y-3.3455
X7.373Y-4.3193
T0
M30
