%TF.GenerationSoftware,KiCad,Pcbnew,6.0.7-f9a2dced07~116~ubuntu20.04.1*%
%TF.CreationDate,2022-08-17T00:13:37+02:00*%
%TF.ProjectId,NVM-Amp,4e564d2d-416d-4702-9e6b-696361645f70,rev?*%
%TF.SameCoordinates,Original*%
%TF.FileFunction,Copper,L2,Bot*%
%TF.FilePolarity,Positive*%
%FSLAX46Y46*%
G04 Gerber Fmt 4.6, Leading zero omitted, Abs format (unit mm)*
G04 Created by KiCad (PCBNEW 6.0.7-f9a2dced07~116~ubuntu20.04.1) date 2022-08-17 00:13:37*
%MOMM*%
%LPD*%
G01*
G04 APERTURE LIST*
%ADD10C,0.300000*%
%TA.AperFunction,NonConductor*%
%ADD11C,0.300000*%
%TD*%
%TA.AperFunction,NonConductor*%
%ADD12C,0.200000*%
%TD*%
%TA.AperFunction,ComponentPad*%
%ADD13C,1.600000*%
%TD*%
%TA.AperFunction,ComponentPad*%
%ADD14O,1.600000X1.600000*%
%TD*%
%TA.AperFunction,ComponentPad*%
%ADD15C,1.440000*%
%TD*%
%TA.AperFunction,ViaPad*%
%ADD16C,0.500000*%
%TD*%
%TA.AperFunction,Conductor*%
%ADD17C,0.512000*%
%TD*%
G04 APERTURE END LIST*
D10*
D11*
X213004485Y-152100072D02*
X213933052Y-152097221D01*
X213434808Y-152670182D01*
X213649093Y-152669524D01*
X213792169Y-152740514D01*
X213863816Y-152811723D01*
X213935683Y-152954360D01*
X213936780Y-153311501D01*
X213865790Y-153454577D01*
X213794581Y-153526224D01*
X213651944Y-153598091D01*
X213223374Y-153599407D01*
X213080299Y-153528417D01*
X213008651Y-153457208D01*
X214504916Y-152238323D02*
X214576125Y-152166676D01*
X214718762Y-152094809D01*
X215075904Y-152093713D01*
X215218979Y-152164702D01*
X215290627Y-152235911D01*
X215362494Y-152378548D01*
X215362932Y-152521405D01*
X215292162Y-152735909D01*
X214437654Y-153595679D01*
X215366221Y-153592828D01*
X216080284Y-153519208D02*
X216080504Y-153590636D01*
X216009514Y-153733711D01*
X215938305Y-153805359D01*
X217433035Y-152086477D02*
X216718753Y-152088669D01*
X216649518Y-152803171D01*
X216720727Y-152731523D01*
X216863364Y-152659657D01*
X217220505Y-152658560D01*
X217363581Y-152729550D01*
X217435228Y-152800759D01*
X217507095Y-152943396D01*
X217508191Y-153300537D01*
X217437202Y-153443613D01*
X217365993Y-153515261D01*
X217223355Y-153587127D01*
X216866214Y-153588224D01*
X216723139Y-153517234D01*
X216651491Y-153446025D01*
X218004461Y-152084722D02*
X219004457Y-152081653D01*
X218366207Y-153583619D01*
X220290165Y-152077706D02*
X219575882Y-152079898D01*
X219506647Y-152794400D01*
X219577856Y-152722753D01*
X219720493Y-152650886D01*
X220077634Y-152649789D01*
X220220710Y-152720779D01*
X220292358Y-152791988D01*
X220364224Y-152934625D01*
X220365321Y-153291766D01*
X220294331Y-153434842D01*
X220223122Y-153506490D01*
X220080485Y-153578356D01*
X219723344Y-153579453D01*
X219580268Y-153508463D01*
X219508620Y-153437254D01*
X220933457Y-152218589D02*
X221004666Y-152146941D01*
X221147304Y-152075074D01*
X221504445Y-152073978D01*
X221647521Y-152144968D01*
X221719168Y-152216177D01*
X221791035Y-152358814D01*
X221791473Y-152501670D01*
X221720703Y-152716174D01*
X220866195Y-153575944D01*
X221794762Y-153573094D01*
X223580468Y-153567612D02*
X223577399Y-152567617D01*
X223577837Y-152710473D02*
X223649046Y-152638826D01*
X223791683Y-152566959D01*
X224005968Y-152566301D01*
X224149044Y-152637291D01*
X224220910Y-152779928D01*
X224223322Y-153565639D01*
X224220910Y-152779928D02*
X224291900Y-152636852D01*
X224434537Y-152564986D01*
X224648822Y-152564328D01*
X224791898Y-152635317D01*
X224863765Y-152777955D01*
X224866177Y-153563665D01*
X225580459Y-153561472D02*
X225577389Y-152561477D01*
X225577828Y-152704334D02*
X225649037Y-152632686D01*
X225791674Y-152560819D01*
X226005958Y-152560161D01*
X226149034Y-152631151D01*
X226220901Y-152773788D01*
X226223313Y-153559499D01*
X226220901Y-152773788D02*
X226291891Y-152630713D01*
X226434528Y-152558846D01*
X226648813Y-152558188D01*
X226791888Y-152629178D01*
X226863755Y-152771815D01*
X226866167Y-153557526D01*
D12*
X236276965Y-147146237D02*
X236301801Y-155236418D01*
X203701965Y-147246237D02*
X203726801Y-155336418D01*
X236300000Y-154650000D02*
X203725000Y-154750000D01*
X236300000Y-154650000D02*
X203725000Y-154750000D01*
X236300000Y-154650000D02*
X235171701Y-154067040D01*
X236300000Y-154650000D02*
X235175302Y-155239876D01*
X203725000Y-154750000D02*
X204853299Y-155332960D01*
X203725000Y-154750000D02*
X204849698Y-154160124D01*
D10*
D11*
X247015428Y-123182672D02*
X247087357Y-123253597D01*
X247159787Y-123395949D01*
X247162295Y-123753083D01*
X247091872Y-123896438D01*
X247020947Y-123968367D01*
X246878595Y-124040797D01*
X246735741Y-124041800D01*
X246520959Y-123971879D01*
X245657817Y-123120777D01*
X245664339Y-124049326D01*
X246527481Y-124900427D02*
X246597904Y-124757072D01*
X246668829Y-124685143D01*
X246811181Y-124612713D01*
X246882608Y-124612212D01*
X247025963Y-124682635D01*
X247097892Y-124753560D01*
X247170322Y-124895912D01*
X247172329Y-125181619D01*
X247101905Y-125324975D01*
X247030980Y-125396903D01*
X246888628Y-125469333D01*
X246817202Y-125469835D01*
X246673846Y-125399412D01*
X246601918Y-125328486D01*
X246529488Y-125186134D01*
X246527481Y-124900427D01*
X246455051Y-124758075D01*
X246383122Y-124687150D01*
X246239767Y-124616727D01*
X245954060Y-124618733D01*
X245811708Y-124691164D01*
X245740783Y-124763092D01*
X245670359Y-124906447D01*
X245672366Y-125192155D01*
X245744796Y-125334507D01*
X245816724Y-125405432D01*
X245960080Y-125475855D01*
X246245787Y-125473848D01*
X246388139Y-125401418D01*
X246459064Y-125329490D01*
X246529488Y-125186134D01*
X245750816Y-126191628D02*
X245679389Y-126192130D01*
X245536034Y-126121706D01*
X245464106Y-126050781D01*
X246688395Y-127470789D02*
X245688420Y-127477813D01*
X247257301Y-127109641D02*
X246183390Y-126760033D01*
X246189912Y-127688581D01*
X247192898Y-128110119D02*
X247199921Y-129110094D01*
X245695443Y-128477788D01*
X247208952Y-130395776D02*
X247203935Y-129681508D01*
X246489165Y-129615098D01*
X246561093Y-129686023D01*
X246633524Y-129828375D01*
X246636032Y-130185509D01*
X246565609Y-130328865D01*
X246494683Y-130400793D01*
X246352331Y-130473223D01*
X245995197Y-130475732D01*
X245851842Y-130405308D01*
X245779914Y-130334383D01*
X245707483Y-130192031D01*
X245704975Y-129834897D01*
X245775399Y-129691542D01*
X245846324Y-129619613D01*
X247212965Y-130967191D02*
X247219989Y-131967166D01*
X245715510Y-131334860D01*
X245732066Y-133691945D02*
X246732041Y-133684921D01*
X246589188Y-133685925D02*
X246661116Y-133756850D01*
X246733546Y-133899202D01*
X246735051Y-134113482D01*
X246664628Y-134256838D01*
X246522276Y-134329268D01*
X245736581Y-134334786D01*
X246522276Y-134329268D02*
X246665631Y-134399691D01*
X246738061Y-134542043D01*
X246739566Y-134756324D01*
X246669143Y-134899679D01*
X246526791Y-134972109D01*
X245741096Y-134977628D01*
X245746113Y-135691896D02*
X246746088Y-135684872D01*
X246603235Y-135685875D02*
X246675163Y-135756801D01*
X246747593Y-135899153D01*
X246749098Y-136113433D01*
X246678675Y-136256788D01*
X246536323Y-136329218D01*
X245750628Y-136334737D01*
X246536323Y-136329218D02*
X246679678Y-136399642D01*
X246752108Y-136541994D01*
X246753613Y-136756274D01*
X246683190Y-136899630D01*
X246540838Y-136972060D01*
X245755143Y-136977578D01*
D12*
X237810525Y-143262327D02*
X243711405Y-143220881D01*
X237610525Y-114787327D02*
X243511405Y-114745881D01*
X243125000Y-143225000D02*
X242925000Y-114750000D01*
X243125000Y-143225000D02*
X242925000Y-114750000D01*
X243125000Y-143225000D02*
X243703494Y-142094405D01*
X243125000Y-143225000D02*
X242530682Y-142102643D01*
X242925000Y-114750000D02*
X242346506Y-115880595D01*
X242925000Y-114750000D02*
X243519318Y-115872357D01*
D13*
%TO.P,R14,1*%
%TO.N,+5V*%
X230080000Y-132575000D03*
D14*
%TO.P,R14,2*%
%TO.N,Net-(Q2-Pad6)*%
X219920000Y-132575000D03*
%TD*%
D13*
%TO.P,R6,1*%
%TO.N,+5V*%
X214525000Y-119875000D03*
D14*
%TO.P,R6,2*%
%TO.N,Net-(Q2-Pad2)*%
X204365000Y-119875000D03*
%TD*%
D15*
%TO.P,R1,3*%
%TO.N,N/C*%
X205670000Y-141325000D03*
%TO.P,R1,2*%
%TO.N,/S2*%
X208210000Y-143865000D03*
%TO.P,R1,1*%
%TO.N,Net-(C1-Pad2)*%
X210750000Y-141325000D03*
%TD*%
D13*
%TO.P,R25,1*%
%TO.N,Net-(R25-Pad1)*%
X230080000Y-138750000D03*
D14*
%TO.P,R25,2*%
%TO.N,Net-(R25-Pad2)*%
X219920000Y-138750000D03*
%TD*%
D13*
%TO.P,R12,1*%
%TO.N,Net-(Q2-Pad1)*%
X204370000Y-116725000D03*
D14*
%TO.P,R12,2*%
%TO.N,-5V*%
X214530000Y-116725000D03*
%TD*%
D13*
%TO.P,R17,1*%
%TO.N,Net-(C10-Pad1)*%
X227455000Y-119875000D03*
D14*
%TO.P,R17,2*%
%TO.N,Net-(Q2-Pad8)*%
X217295000Y-119875000D03*
%TD*%
D13*
%TO.P,R26,1*%
%TO.N,Net-(R25-Pad2)*%
X219920000Y-135600000D03*
D14*
%TO.P,R26,2*%
%TO.N,GND*%
X230080000Y-135600000D03*
%TD*%
D13*
%TO.P,R18,1*%
%TO.N,Net-(Q2-Pad8)*%
X217295000Y-116725000D03*
D14*
%TO.P,R18,2*%
%TO.N,Net-(C8-Pad1)*%
X227455000Y-116725000D03*
%TD*%
D16*
%TO.N,Net-(C5-Pad1)*%
X211925000Y-130400000D03*
X211925000Y-135400000D03*
%TO.N,Net-(C10-Pad2)*%
X221625000Y-130250000D03*
X215250000Y-131675000D03*
%TO.N,Net-(Q2-Pad2)*%
X210075000Y-124950000D03*
X224250000Y-124950000D03*
%TO.N,-5V*%
X219500000Y-123400000D03*
X214000000Y-131675000D03*
X220125000Y-123400000D03*
X225700000Y-127500000D03*
%TO.N,Net-(R22-Pad2)*%
X229200000Y-126235000D03*
X217650000Y-129100000D03*
%TO.N,/S1*%
X217800000Y-140850000D03*
X217800000Y-136600000D03*
X217800000Y-133100000D03*
%TO.N,+5V*%
X233325000Y-123675000D03*
X204200000Y-126550000D03*
X212700000Y-136625000D03*
X230625000Y-123675000D03*
X204200000Y-127800000D03*
X217075000Y-140000000D03*
%TO.N,/S2*%
X208900000Y-136625000D03*
X208900000Y-133075000D03*
%TO.N,GND*%
X213850000Y-140725000D03*
X229200000Y-127500000D03*
X230625000Y-127500000D03*
X210175000Y-131675000D03*
X229350000Y-120875000D03*
X212700000Y-131675000D03*
X215150000Y-140725000D03*
X204150000Y-131700000D03*
X230650000Y-120225000D03*
X229350000Y-120225000D03*
X230650000Y-120875000D03*
X217150000Y-142825000D03*
%TD*%
D17*
%TO.N,Net-(C5-Pad1)*%
X211925000Y-135400000D02*
X211925000Y-130400000D01*
%TO.N,Net-(Q2-Pad2)*%
X224250000Y-124950000D02*
X210075000Y-124950000D01*
%TO.N,/S1*%
X217800000Y-136600000D02*
X217800000Y-140850000D01*
X217800000Y-133100000D02*
X217800000Y-136600000D01*
%TO.N,GND*%
X204150000Y-131700000D02*
X204175000Y-131675000D01*
%TD*%
%TA.AperFunction,Conductor*%
%TO.N,/S2*%
G36*
X208971093Y-132864141D02*
G01*
X209016510Y-132882954D01*
X209036329Y-132896196D01*
X209055939Y-132909300D01*
X209090700Y-132944061D01*
X209117045Y-132983488D01*
X209135860Y-133028911D01*
X209147579Y-133087830D01*
X209150000Y-133112410D01*
X209150000Y-144066742D01*
X209148922Y-144083188D01*
X209135128Y-144187963D01*
X209126615Y-144219735D01*
X209089361Y-144309674D01*
X209072914Y-144338160D01*
X209013651Y-144415393D01*
X208990393Y-144438651D01*
X208913160Y-144497914D01*
X208884674Y-144514361D01*
X208794735Y-144551615D01*
X208762963Y-144560128D01*
X208658188Y-144573922D01*
X208641742Y-144575000D01*
X208208258Y-144575000D01*
X208191812Y-144573922D01*
X208087037Y-144560128D01*
X208055265Y-144551615D01*
X207965326Y-144514361D01*
X207936840Y-144497914D01*
X207859607Y-144438651D01*
X207836349Y-144415393D01*
X207777086Y-144338160D01*
X207760639Y-144309674D01*
X207723385Y-144219735D01*
X207714872Y-144187963D01*
X207701078Y-144083188D01*
X207700000Y-144066742D01*
X207700000Y-143634918D01*
X207701551Y-143615208D01*
X207720126Y-143497928D01*
X207732308Y-143460435D01*
X207781658Y-143363581D01*
X207804830Y-143331689D01*
X207881689Y-143254830D01*
X207913581Y-143231658D01*
X208010437Y-143182307D01*
X208047925Y-143170127D01*
X208178568Y-143149435D01*
X208311992Y-143128303D01*
X208311994Y-143128302D01*
X208321783Y-143126752D01*
X208454198Y-143059283D01*
X208559283Y-142954198D01*
X208626752Y-142821783D01*
X208650000Y-142675000D01*
X208650000Y-133112410D01*
X208652421Y-133087830D01*
X208664140Y-133028911D01*
X208682955Y-132983488D01*
X208709300Y-132944061D01*
X208744061Y-132909300D01*
X208763671Y-132896196D01*
X208783490Y-132882954D01*
X208828907Y-132864141D01*
X208875421Y-132854889D01*
X208924579Y-132854889D01*
X208971093Y-132864141D01*
G37*
%TD.AperFunction*%
%TD*%
%TA.AperFunction,Conductor*%
%TO.N,Net-(C10-Pad2)*%
G36*
X221637170Y-130002421D02*
G01*
X221661073Y-130007175D01*
X221696091Y-130014141D01*
X221741510Y-130032954D01*
X221761329Y-130046196D01*
X221780939Y-130059300D01*
X221815700Y-130094061D01*
X221842045Y-130133488D01*
X221860859Y-130178907D01*
X221870111Y-130225419D01*
X221870111Y-130274579D01*
X221860859Y-130321093D01*
X221842045Y-130366512D01*
X221815700Y-130405939D01*
X221780939Y-130440700D01*
X221761329Y-130453804D01*
X221741510Y-130467046D01*
X221696091Y-130485859D01*
X221666164Y-130491812D01*
X221637170Y-130497579D01*
X221612590Y-130500000D01*
X216000000Y-130500000D01*
X215995914Y-130500538D01*
X215995913Y-130500538D01*
X215878778Y-130515959D01*
X215870590Y-130517037D01*
X215862961Y-130520197D01*
X215757628Y-130563827D01*
X215757626Y-130563828D01*
X215750000Y-130566987D01*
X215646447Y-130646447D01*
X215566987Y-130750000D01*
X215517037Y-130870590D01*
X215500000Y-131000000D01*
X215500000Y-131662590D01*
X215497579Y-131687170D01*
X215485860Y-131746089D01*
X215467045Y-131791512D01*
X215440700Y-131830939D01*
X215405939Y-131865700D01*
X215386329Y-131878804D01*
X215366510Y-131892046D01*
X215321093Y-131910859D01*
X215274579Y-131920111D01*
X215225421Y-131920111D01*
X215178907Y-131910859D01*
X215133490Y-131892046D01*
X215113671Y-131878804D01*
X215094061Y-131865700D01*
X215059300Y-131830939D01*
X215032955Y-131791512D01*
X215014140Y-131746089D01*
X215002421Y-131687170D01*
X215000000Y-131662590D01*
X215000000Y-130508258D01*
X215001078Y-130491812D01*
X215014872Y-130387037D01*
X215023385Y-130355265D01*
X215060639Y-130265326D01*
X215077086Y-130236840D01*
X215136349Y-130159607D01*
X215159607Y-130136349D01*
X215236840Y-130077086D01*
X215265326Y-130060639D01*
X215355265Y-130023385D01*
X215387037Y-130014872D01*
X215491812Y-130001078D01*
X215508258Y-130000000D01*
X221612590Y-130000000D01*
X221637170Y-130002421D01*
G37*
%TD.AperFunction*%
%TD*%
%TA.AperFunction,Conductor*%
%TO.N,+5V*%
G36*
X214233188Y-119451078D02*
G01*
X214337963Y-119464872D01*
X214369735Y-119473385D01*
X214459674Y-119510639D01*
X214488160Y-119527086D01*
X214565393Y-119586349D01*
X214588651Y-119609607D01*
X214647914Y-119686840D01*
X214664361Y-119715326D01*
X214701615Y-119805265D01*
X214710128Y-119837037D01*
X214723922Y-119941812D01*
X214725000Y-119958258D01*
X214725000Y-120166742D01*
X214723922Y-120183188D01*
X214710128Y-120287963D01*
X214701615Y-120319735D01*
X214664361Y-120409674D01*
X214647914Y-120438160D01*
X214588651Y-120515393D01*
X214565393Y-120538651D01*
X214488160Y-120597914D01*
X214459674Y-120614361D01*
X214369735Y-120651615D01*
X214337963Y-120660128D01*
X214233188Y-120673922D01*
X214216742Y-120675000D01*
X207400000Y-120675000D01*
X207270590Y-120692037D01*
X207262961Y-120695197D01*
X207157628Y-120738827D01*
X207157626Y-120738828D01*
X207150000Y-120741987D01*
X207046447Y-120821447D01*
X206966987Y-120925000D01*
X206917037Y-121045590D01*
X206900000Y-121175000D01*
X206900000Y-127050000D01*
X206917037Y-127179410D01*
X206966987Y-127300000D01*
X207046447Y-127403553D01*
X207150000Y-127483013D01*
X207157626Y-127486172D01*
X207157628Y-127486173D01*
X207262961Y-127529803D01*
X207270590Y-127532963D01*
X207278778Y-127534041D01*
X207337274Y-127541742D01*
X207400000Y-127550000D01*
X210741742Y-127550000D01*
X210758188Y-127551078D01*
X210862963Y-127564872D01*
X210894735Y-127573385D01*
X210984674Y-127610639D01*
X211013160Y-127627086D01*
X211090393Y-127686349D01*
X211113651Y-127709607D01*
X211172914Y-127786840D01*
X211189361Y-127815326D01*
X211226615Y-127905265D01*
X211235128Y-127937037D01*
X211248922Y-128041812D01*
X211250000Y-128058258D01*
X211250000Y-135875000D01*
X211267037Y-136004410D01*
X211316987Y-136125000D01*
X211396447Y-136228553D01*
X211500000Y-136308013D01*
X211507626Y-136311172D01*
X211507628Y-136311173D01*
X211612961Y-136354803D01*
X211620590Y-136357963D01*
X211628778Y-136359041D01*
X211687274Y-136366742D01*
X211750000Y-136375000D01*
X212687590Y-136375000D01*
X212712170Y-136377421D01*
X212736073Y-136382175D01*
X212771091Y-136389141D01*
X212816510Y-136407954D01*
X212836329Y-136421196D01*
X212855939Y-136434300D01*
X212890700Y-136469061D01*
X212917045Y-136508488D01*
X212935859Y-136553907D01*
X212945111Y-136600419D01*
X212945111Y-136649579D01*
X212935859Y-136696093D01*
X212917045Y-136741512D01*
X212890700Y-136780939D01*
X212855939Y-136815700D01*
X212836329Y-136828804D01*
X212816510Y-136842046D01*
X212771091Y-136860859D01*
X212736073Y-136867825D01*
X212712170Y-136872579D01*
X212687590Y-136875000D01*
X211358258Y-136875000D01*
X211341812Y-136873922D01*
X211237037Y-136860128D01*
X211205265Y-136851615D01*
X211115326Y-136814361D01*
X211086840Y-136797914D01*
X211009607Y-136738651D01*
X210986349Y-136715393D01*
X210927086Y-136638160D01*
X210910639Y-136609674D01*
X210873385Y-136519735D01*
X210864872Y-136487963D01*
X210851078Y-136383188D01*
X210850000Y-136366742D01*
X210850000Y-128550000D01*
X210832963Y-128420590D01*
X210783013Y-128300000D01*
X210703553Y-128196447D01*
X210600000Y-128116987D01*
X210592374Y-128113828D01*
X210592372Y-128113827D01*
X210487039Y-128070197D01*
X210479410Y-128067037D01*
X210471222Y-128065959D01*
X210354087Y-128050538D01*
X210354086Y-128050538D01*
X210350000Y-128050000D01*
X204483258Y-128050000D01*
X204466812Y-128048922D01*
X204362037Y-128035128D01*
X204330265Y-128026615D01*
X204240326Y-127989361D01*
X204211840Y-127972914D01*
X204134607Y-127913651D01*
X204111349Y-127890393D01*
X204052086Y-127813160D01*
X204035639Y-127784674D01*
X203998385Y-127694735D01*
X203989872Y-127662963D01*
X203976078Y-127558188D01*
X203975000Y-127541742D01*
X203975000Y-126808258D01*
X203976078Y-126791812D01*
X203989872Y-126687037D01*
X203998385Y-126655265D01*
X204035639Y-126565326D01*
X204052086Y-126536840D01*
X204111349Y-126459607D01*
X204134607Y-126436349D01*
X204211840Y-126377086D01*
X204240326Y-126360639D01*
X204330265Y-126323385D01*
X204362037Y-126314872D01*
X204466812Y-126301078D01*
X204483258Y-126300000D01*
X205850000Y-126300000D01*
X205979410Y-126282963D01*
X205987039Y-126279803D01*
X206092372Y-126236173D01*
X206092374Y-126236172D01*
X206100000Y-126233013D01*
X206203553Y-126153553D01*
X206283013Y-126050000D01*
X206332963Y-125929410D01*
X206350000Y-125800000D01*
X206350000Y-120733258D01*
X206351078Y-120716812D01*
X206364872Y-120612037D01*
X206373385Y-120580265D01*
X206410639Y-120490326D01*
X206427086Y-120461840D01*
X206486349Y-120384607D01*
X206509607Y-120361349D01*
X206586840Y-120302086D01*
X206615326Y-120285639D01*
X206705265Y-120248385D01*
X206737037Y-120239872D01*
X206841812Y-120226078D01*
X206858258Y-120225000D01*
X213337500Y-120225000D01*
X213457244Y-120206034D01*
X213466078Y-120201533D01*
X213466081Y-120201532D01*
X213518152Y-120175000D01*
X213565267Y-120150994D01*
X213650994Y-120065267D01*
X213679182Y-120009945D01*
X213701532Y-119966081D01*
X213701533Y-119966078D01*
X213706034Y-119957244D01*
X213740845Y-119737463D01*
X213753025Y-119699977D01*
X213789948Y-119627510D01*
X213813118Y-119595621D01*
X213870621Y-119538118D01*
X213902510Y-119514948D01*
X213974977Y-119478025D01*
X214012463Y-119465845D01*
X214102707Y-119451551D01*
X214122419Y-119450000D01*
X214216742Y-119450000D01*
X214233188Y-119451078D01*
G37*
%TD.AperFunction*%
%TD*%
%TA.AperFunction,Conductor*%
%TO.N,Net-(R22-Pad2)*%
G36*
X229328525Y-126354294D02*
G01*
X229348640Y-126359684D01*
X229405123Y-126392295D01*
X229407705Y-126394877D01*
X229440319Y-126451371D01*
X229441264Y-126454899D01*
X229441264Y-126520101D01*
X229440319Y-126523629D01*
X229407705Y-126580123D01*
X229405123Y-126582705D01*
X229348640Y-126615316D01*
X229328525Y-126620706D01*
X229295913Y-126625000D01*
X218400000Y-126625000D01*
X218270590Y-126642037D01*
X218262961Y-126645197D01*
X218157628Y-126688827D01*
X218157626Y-126688828D01*
X218150000Y-126691987D01*
X218046447Y-126771447D01*
X217966987Y-126875000D01*
X217917037Y-126995590D01*
X217900000Y-127125000D01*
X217900000Y-129087590D01*
X217897579Y-129112170D01*
X217885860Y-129171089D01*
X217867045Y-129216512D01*
X217840700Y-129255939D01*
X217805939Y-129290700D01*
X217786329Y-129303804D01*
X217766510Y-129317046D01*
X217721093Y-129335859D01*
X217674579Y-129345111D01*
X217625421Y-129345111D01*
X217578907Y-129335859D01*
X217533490Y-129317046D01*
X217513671Y-129303804D01*
X217494061Y-129290700D01*
X217459300Y-129255939D01*
X217432955Y-129216512D01*
X217414140Y-129171089D01*
X217402421Y-129112170D01*
X217400000Y-129087590D01*
X217400000Y-126858258D01*
X217401078Y-126841812D01*
X217414872Y-126737037D01*
X217423385Y-126705265D01*
X217460639Y-126615326D01*
X217477086Y-126586840D01*
X217536349Y-126509607D01*
X217559607Y-126486349D01*
X217636840Y-126427086D01*
X217665326Y-126410639D01*
X217755265Y-126373385D01*
X217787037Y-126364872D01*
X217891812Y-126351078D01*
X217908258Y-126350000D01*
X229295913Y-126350000D01*
X229328525Y-126354294D01*
G37*
%TD.AperFunction*%
%TD*%
%TA.AperFunction,Conductor*%
%TO.N,-5V*%
G36*
X214833188Y-116526078D02*
G01*
X214937963Y-116539872D01*
X214969735Y-116548385D01*
X215059674Y-116585639D01*
X215088160Y-116602086D01*
X215165393Y-116661349D01*
X215188651Y-116684607D01*
X215247914Y-116761840D01*
X215264361Y-116790326D01*
X215301615Y-116880265D01*
X215310128Y-116912037D01*
X215323922Y-117016812D01*
X215325000Y-117033258D01*
X215325000Y-117375000D01*
X215342037Y-117504410D01*
X215391987Y-117625000D01*
X215471447Y-117728553D01*
X215575000Y-117808013D01*
X215582626Y-117811172D01*
X215582628Y-117811173D01*
X215687961Y-117854803D01*
X215695590Y-117857963D01*
X215825000Y-117875000D01*
X219866742Y-117875000D01*
X219883188Y-117876078D01*
X219987963Y-117889872D01*
X220019735Y-117898385D01*
X220109674Y-117935639D01*
X220138160Y-117952086D01*
X220215393Y-118011349D01*
X220238651Y-118034607D01*
X220297914Y-118111840D01*
X220314361Y-118140326D01*
X220351615Y-118230265D01*
X220360128Y-118262037D01*
X220373922Y-118366812D01*
X220375000Y-118383258D01*
X220375000Y-121750000D01*
X220392037Y-121879410D01*
X220441987Y-122000000D01*
X220521447Y-122103553D01*
X220625000Y-122183013D01*
X220632626Y-122186172D01*
X220632628Y-122186173D01*
X220737961Y-122229803D01*
X220745590Y-122232963D01*
X220875000Y-122250000D01*
X231416742Y-122250000D01*
X231433188Y-122251078D01*
X231537963Y-122264872D01*
X231569735Y-122273385D01*
X231659674Y-122310639D01*
X231688160Y-122327086D01*
X231765393Y-122386349D01*
X231788651Y-122409607D01*
X231847914Y-122486840D01*
X231864361Y-122515326D01*
X231901615Y-122605265D01*
X231910128Y-122637037D01*
X231923922Y-122741812D01*
X231925000Y-122758258D01*
X231925000Y-128491742D01*
X231923922Y-128508188D01*
X231910128Y-128612963D01*
X231901615Y-128644735D01*
X231864361Y-128734674D01*
X231847914Y-128763160D01*
X231788651Y-128840393D01*
X231765393Y-128863651D01*
X231688160Y-128922914D01*
X231659674Y-128939361D01*
X231569735Y-128976615D01*
X231537963Y-128985128D01*
X231433188Y-128998922D01*
X231416742Y-129000000D01*
X225958258Y-129000000D01*
X225941812Y-128998922D01*
X225837037Y-128985128D01*
X225805265Y-128976615D01*
X225715326Y-128939361D01*
X225686840Y-128922914D01*
X225609607Y-128863651D01*
X225586349Y-128840393D01*
X225527086Y-128763160D01*
X225510639Y-128734674D01*
X225473385Y-128644735D01*
X225464872Y-128612963D01*
X225451078Y-128508188D01*
X225450000Y-128491742D01*
X225450000Y-127512410D01*
X225452421Y-127487830D01*
X225464140Y-127428911D01*
X225482955Y-127383488D01*
X225509300Y-127344061D01*
X225544061Y-127309300D01*
X225563671Y-127296196D01*
X225583490Y-127282954D01*
X225628907Y-127264141D01*
X225675421Y-127254889D01*
X225724579Y-127254889D01*
X225771093Y-127264141D01*
X225816510Y-127282954D01*
X225836329Y-127296196D01*
X225855939Y-127309300D01*
X225890700Y-127344061D01*
X225917045Y-127383488D01*
X225935860Y-127428911D01*
X225947579Y-127487830D01*
X225950000Y-127512410D01*
X225950000Y-127825000D01*
X225967037Y-127954410D01*
X226016987Y-128075000D01*
X226096447Y-128178553D01*
X226200000Y-128258013D01*
X226207626Y-128261172D01*
X226207628Y-128261173D01*
X226312961Y-128304803D01*
X226320590Y-128307963D01*
X226450000Y-128325000D01*
X230675000Y-128325000D01*
X230804410Y-128307963D01*
X230812039Y-128304803D01*
X230917372Y-128261173D01*
X230917374Y-128261172D01*
X230925000Y-128258013D01*
X231028553Y-128178553D01*
X231108013Y-128075000D01*
X231157963Y-127954410D01*
X231175000Y-127825000D01*
X231175000Y-123475000D01*
X231157963Y-123345590D01*
X231108013Y-123225000D01*
X231088349Y-123199373D01*
X231033576Y-123127993D01*
X231028553Y-123121447D01*
X230982584Y-123086173D01*
X230931550Y-123047013D01*
X230925000Y-123041987D01*
X230917374Y-123038828D01*
X230917372Y-123038827D01*
X230812039Y-122995197D01*
X230804410Y-122992037D01*
X230675000Y-122975000D01*
X220712500Y-122975000D01*
X220608207Y-122991518D01*
X220514122Y-123039457D01*
X220439457Y-123114122D01*
X220391518Y-123208207D01*
X220389967Y-123218000D01*
X220361604Y-123397081D01*
X220349422Y-123434574D01*
X220319602Y-123493099D01*
X220296430Y-123524991D01*
X220249991Y-123571430D01*
X220218099Y-123594602D01*
X220159574Y-123624422D01*
X220122081Y-123636604D01*
X220047293Y-123648449D01*
X220027583Y-123650000D01*
X209450000Y-123650000D01*
X209445914Y-123650538D01*
X209445913Y-123650538D01*
X209328778Y-123665959D01*
X209320590Y-123667037D01*
X209312961Y-123670197D01*
X209207628Y-123713827D01*
X209207626Y-123713828D01*
X209200000Y-123716987D01*
X209096447Y-123796447D01*
X209016987Y-123900000D01*
X208967037Y-124020590D01*
X208950000Y-124150000D01*
X208950000Y-125575000D01*
X208967037Y-125704410D01*
X209016987Y-125825000D01*
X209096447Y-125928553D01*
X209200000Y-126008013D01*
X209207626Y-126011172D01*
X209207628Y-126011173D01*
X209312961Y-126054803D01*
X209320590Y-126057963D01*
X209328778Y-126059041D01*
X209387274Y-126066742D01*
X209450000Y-126075000D01*
X213741742Y-126075000D01*
X213758188Y-126076078D01*
X213862963Y-126089872D01*
X213894735Y-126098385D01*
X213984674Y-126135639D01*
X214013160Y-126152086D01*
X214090393Y-126211349D01*
X214113651Y-126234607D01*
X214172914Y-126311840D01*
X214189361Y-126340326D01*
X214226615Y-126430265D01*
X214235128Y-126462037D01*
X214248922Y-126566812D01*
X214250000Y-126583258D01*
X214250000Y-131587590D01*
X214247579Y-131612170D01*
X214235860Y-131671089D01*
X214217045Y-131716512D01*
X214190700Y-131755939D01*
X214155939Y-131790700D01*
X214136329Y-131803804D01*
X214116510Y-131817046D01*
X214071093Y-131835859D01*
X214024579Y-131845111D01*
X213975421Y-131845111D01*
X213928907Y-131835859D01*
X213883490Y-131817046D01*
X213863671Y-131803804D01*
X213844061Y-131790700D01*
X213809300Y-131755939D01*
X213782955Y-131716512D01*
X213764140Y-131671089D01*
X213752421Y-131612170D01*
X213750000Y-131587590D01*
X213750000Y-127075000D01*
X213732963Y-126945590D01*
X213683013Y-126825000D01*
X213603553Y-126721447D01*
X213500000Y-126641987D01*
X213492374Y-126638828D01*
X213492372Y-126638827D01*
X213387039Y-126595197D01*
X213379410Y-126592037D01*
X213371222Y-126590959D01*
X213254087Y-126575538D01*
X213254086Y-126575538D01*
X213250000Y-126575000D01*
X208883258Y-126575000D01*
X208866812Y-126573922D01*
X208762037Y-126560128D01*
X208730265Y-126551615D01*
X208640326Y-126514361D01*
X208611840Y-126497914D01*
X208534607Y-126438651D01*
X208511349Y-126415393D01*
X208452086Y-126338160D01*
X208435639Y-126309674D01*
X208398385Y-126219735D01*
X208389872Y-126187963D01*
X208376078Y-126083188D01*
X208375000Y-126066742D01*
X208375000Y-123658258D01*
X208376078Y-123641812D01*
X208389872Y-123537037D01*
X208398385Y-123505265D01*
X208435639Y-123415326D01*
X208452086Y-123386840D01*
X208511349Y-123309607D01*
X208534607Y-123286349D01*
X208611840Y-123227086D01*
X208640326Y-123210639D01*
X208730265Y-123173385D01*
X208762037Y-123164872D01*
X208866812Y-123151078D01*
X208883258Y-123150000D01*
X218750000Y-123150000D01*
X218879410Y-123132963D01*
X218891409Y-123127993D01*
X218992372Y-123086173D01*
X218992374Y-123086172D01*
X219000000Y-123083013D01*
X219053466Y-123041987D01*
X219097007Y-123008576D01*
X219103553Y-123003553D01*
X219183013Y-122900000D01*
X219232963Y-122779410D01*
X219250000Y-122650000D01*
X219250000Y-118700000D01*
X219232963Y-118570590D01*
X219183013Y-118450000D01*
X219103553Y-118346447D01*
X219000000Y-118266987D01*
X218992374Y-118263828D01*
X218992372Y-118263827D01*
X218887039Y-118220197D01*
X218879410Y-118217037D01*
X218750000Y-118200000D01*
X214233258Y-118200000D01*
X214216812Y-118198922D01*
X214112037Y-118185128D01*
X214080265Y-118176615D01*
X213990326Y-118139361D01*
X213961840Y-118122914D01*
X213884607Y-118063651D01*
X213861349Y-118040393D01*
X213802086Y-117963160D01*
X213785639Y-117934674D01*
X213748385Y-117844735D01*
X213739872Y-117812963D01*
X213726078Y-117708188D01*
X213725000Y-117691742D01*
X213725000Y-117033258D01*
X213726078Y-117016812D01*
X213739872Y-116912037D01*
X213748385Y-116880265D01*
X213785639Y-116790326D01*
X213802086Y-116761840D01*
X213861349Y-116684607D01*
X213884607Y-116661349D01*
X213961840Y-116602086D01*
X213990326Y-116585639D01*
X214080265Y-116548385D01*
X214112037Y-116539872D01*
X214216812Y-116526078D01*
X214233258Y-116525000D01*
X214816742Y-116525000D01*
X214833188Y-116526078D01*
G37*
%TD.AperFunction*%
%TD*%
%TA.AperFunction,Conductor*%
%TO.N,GND*%
G36*
X236566621Y-114745502D02*
G01*
X236613114Y-114799158D01*
X236624500Y-114851500D01*
X236624500Y-145573500D01*
X236604498Y-145641621D01*
X236550842Y-145688114D01*
X236498500Y-145699500D01*
X202476500Y-145699500D01*
X202408379Y-145679498D01*
X202361886Y-145625842D01*
X202350500Y-145573500D01*
X202350500Y-143850683D01*
X207184662Y-143850683D01*
X207185178Y-143856827D01*
X207186058Y-143867308D01*
X207186500Y-143877851D01*
X207186500Y-144066742D01*
X207187600Y-144100329D01*
X207188678Y-144116775D01*
X207191971Y-144150214D01*
X207205765Y-144254989D01*
X207218868Y-144320862D01*
X207219398Y-144322842D01*
X207219402Y-144322857D01*
X207223695Y-144338877D01*
X207227381Y-144352634D01*
X207248973Y-144416243D01*
X207286227Y-144506182D01*
X207315939Y-144566431D01*
X207332386Y-144594917D01*
X207333518Y-144596611D01*
X207333526Y-144596624D01*
X207368561Y-144649056D01*
X207369699Y-144650759D01*
X207428962Y-144727992D01*
X207473250Y-144778492D01*
X207496508Y-144801750D01*
X207547008Y-144846038D01*
X207624241Y-144905301D01*
X207625942Y-144906438D01*
X207625944Y-144906439D01*
X207678376Y-144941474D01*
X207678389Y-144941482D01*
X207680083Y-144942614D01*
X207681868Y-144943644D01*
X207681867Y-144943644D01*
X207706781Y-144958029D01*
X207706789Y-144958033D01*
X207708569Y-144959061D01*
X207768818Y-144988773D01*
X207830237Y-145014214D01*
X207856842Y-145025234D01*
X207856848Y-145025236D01*
X207858757Y-145026027D01*
X207922366Y-145047619D01*
X207936123Y-145051305D01*
X207952143Y-145055598D01*
X207952158Y-145055602D01*
X207954138Y-145056132D01*
X207956164Y-145056535D01*
X208017999Y-145068835D01*
X208018005Y-145068836D01*
X208020011Y-145069235D01*
X208124786Y-145083029D01*
X208125828Y-145083132D01*
X208125840Y-145083133D01*
X208136412Y-145084174D01*
X208158225Y-145086322D01*
X208159250Y-145086389D01*
X208159272Y-145086391D01*
X208173601Y-145087330D01*
X208173609Y-145087330D01*
X208174671Y-145087400D01*
X208208258Y-145088500D01*
X208641742Y-145088500D01*
X208675329Y-145087400D01*
X208676391Y-145087330D01*
X208676399Y-145087330D01*
X208690728Y-145086391D01*
X208690750Y-145086389D01*
X208691775Y-145086322D01*
X208713588Y-145084174D01*
X208724160Y-145083133D01*
X208724172Y-145083132D01*
X208725214Y-145083029D01*
X208829989Y-145069235D01*
X208831995Y-145068836D01*
X208832001Y-145068835D01*
X208893836Y-145056535D01*
X208895862Y-145056132D01*
X208897842Y-145055602D01*
X208897857Y-145055598D01*
X208913877Y-145051305D01*
X208927634Y-145047619D01*
X208991243Y-145026027D01*
X208993152Y-145025236D01*
X208993158Y-145025234D01*
X209019763Y-145014214D01*
X209081182Y-144988773D01*
X209141431Y-144959061D01*
X209143211Y-144958033D01*
X209143219Y-144958029D01*
X209168133Y-144943644D01*
X209168132Y-144943644D01*
X209169917Y-144942614D01*
X209171611Y-144941482D01*
X209171624Y-144941474D01*
X209224056Y-144906439D01*
X209224058Y-144906438D01*
X209225759Y-144905301D01*
X209302992Y-144846038D01*
X209353492Y-144801750D01*
X209376750Y-144778492D01*
X209421038Y-144727992D01*
X209480301Y-144650759D01*
X209481439Y-144649056D01*
X209516474Y-144596624D01*
X209516482Y-144596611D01*
X209517614Y-144594917D01*
X209534061Y-144566431D01*
X209563773Y-144506182D01*
X209601027Y-144416243D01*
X209622619Y-144352634D01*
X209626305Y-144338877D01*
X209630598Y-144322857D01*
X209630602Y-144322842D01*
X209631132Y-144320862D01*
X209644235Y-144254989D01*
X209658029Y-144150214D01*
X209661322Y-144116775D01*
X209662400Y-144100329D01*
X209663500Y-144066742D01*
X209663500Y-141958998D01*
X209683502Y-141890877D01*
X209737158Y-141844384D01*
X209807432Y-141834280D01*
X209872012Y-141863774D01*
X209888245Y-141880733D01*
X209919973Y-141920764D01*
X210012362Y-142037329D01*
X210017056Y-142041324D01*
X210091484Y-142104667D01*
X210164769Y-142167038D01*
X210170147Y-142170044D01*
X210170149Y-142170045D01*
X210252118Y-142215856D01*
X210339467Y-142264673D01*
X210529802Y-142326517D01*
X210728525Y-142350213D01*
X210734660Y-142349741D01*
X210734662Y-142349741D01*
X210921924Y-142335332D01*
X210921929Y-142335331D01*
X210928065Y-142334859D01*
X210933995Y-142333203D01*
X210933997Y-142333203D01*
X211054270Y-142299622D01*
X211120824Y-142281040D01*
X211126313Y-142278267D01*
X211126319Y-142278265D01*
X211293957Y-142193584D01*
X211299457Y-142190806D01*
X211330655Y-142166432D01*
X211452306Y-142071387D01*
X211457162Y-142067593D01*
X211465537Y-142057891D01*
X211583902Y-141920764D01*
X211583903Y-141920762D01*
X211587931Y-141916096D01*
X211686784Y-141742083D01*
X211749955Y-141552184D01*
X211757591Y-141491742D01*
X216519500Y-141491742D01*
X216520154Y-141511724D01*
X216521232Y-141528170D01*
X216523192Y-141548064D01*
X216536986Y-141652839D01*
X216544781Y-141692030D01*
X216545317Y-141694029D01*
X216545318Y-141694035D01*
X216547583Y-141702489D01*
X216553294Y-141723802D01*
X216553957Y-141725755D01*
X216565471Y-141759676D01*
X216565477Y-141759693D01*
X216566140Y-141761645D01*
X216566931Y-141763554D01*
X216566933Y-141763560D01*
X216602601Y-141849670D01*
X216603394Y-141851584D01*
X216621071Y-141887428D01*
X216637518Y-141915914D01*
X216638662Y-141917626D01*
X216638670Y-141917639D01*
X216658568Y-141947418D01*
X216659717Y-141949137D01*
X216718980Y-142026370D01*
X216745328Y-142056414D01*
X216768586Y-142079672D01*
X216798630Y-142106020D01*
X216875863Y-142165283D01*
X216877574Y-142166426D01*
X216877582Y-142166432D01*
X216907361Y-142186330D01*
X216907374Y-142186338D01*
X216909086Y-142187482D01*
X216910881Y-142188518D01*
X216910882Y-142188519D01*
X216919655Y-142193584D01*
X216937572Y-142203929D01*
X216973416Y-142221606D01*
X216975325Y-142222397D01*
X216975330Y-142222399D01*
X217061440Y-142258067D01*
X217061446Y-142258069D01*
X217063355Y-142258860D01*
X217065307Y-142259523D01*
X217065324Y-142259529D01*
X217086088Y-142266577D01*
X217101198Y-142271706D01*
X217121056Y-142277027D01*
X217130965Y-142279682D01*
X217130971Y-142279683D01*
X217132970Y-142280219D01*
X217134996Y-142280622D01*
X217135009Y-142280625D01*
X217170129Y-142287610D01*
X217170134Y-142287611D01*
X217172161Y-142288014D01*
X217276936Y-142301808D01*
X217277960Y-142301909D01*
X217277987Y-142301912D01*
X217290414Y-142303136D01*
X217296830Y-142303768D01*
X217313276Y-142304846D01*
X217314251Y-142304878D01*
X217314273Y-142304879D01*
X217332269Y-142305468D01*
X217332291Y-142305468D01*
X217333258Y-142305500D01*
X225041742Y-142305500D01*
X225042709Y-142305468D01*
X225042731Y-142305468D01*
X225060727Y-142304879D01*
X225060749Y-142304878D01*
X225061724Y-142304846D01*
X225078170Y-142303768D01*
X225084586Y-142303136D01*
X225097013Y-142301912D01*
X225097040Y-142301909D01*
X225098064Y-142301808D01*
X225202839Y-142288014D01*
X225204866Y-142287611D01*
X225204871Y-142287610D01*
X225239991Y-142280625D01*
X225240004Y-142280622D01*
X225242030Y-142280219D01*
X225244029Y-142279683D01*
X225244035Y-142279682D01*
X225253944Y-142277027D01*
X225273802Y-142271706D01*
X225288912Y-142266577D01*
X225309676Y-142259529D01*
X225309693Y-142259523D01*
X225311645Y-142258860D01*
X225313554Y-142258069D01*
X225313560Y-142258067D01*
X225399670Y-142222399D01*
X225399675Y-142222397D01*
X225401584Y-142221606D01*
X225437428Y-142203929D01*
X225455346Y-142193584D01*
X225464118Y-142188519D01*
X225464119Y-142188518D01*
X225465914Y-142187482D01*
X225467626Y-142186338D01*
X225467639Y-142186330D01*
X225497418Y-142166432D01*
X225497426Y-142166426D01*
X225499137Y-142165283D01*
X225576370Y-142106020D01*
X225606414Y-142079672D01*
X225629672Y-142056414D01*
X225656020Y-142026370D01*
X225715283Y-141949137D01*
X225716432Y-141947418D01*
X225736330Y-141917639D01*
X225736338Y-141917626D01*
X225737482Y-141915914D01*
X225753929Y-141887428D01*
X225771606Y-141851584D01*
X225772399Y-141849670D01*
X225808067Y-141763560D01*
X225808069Y-141763554D01*
X225808860Y-141761645D01*
X225809523Y-141759693D01*
X225809529Y-141759676D01*
X225821043Y-141725755D01*
X225821706Y-141723802D01*
X225827417Y-141702489D01*
X225829682Y-141694035D01*
X225829683Y-141694029D01*
X225830219Y-141692030D01*
X225838014Y-141652839D01*
X225851808Y-141548064D01*
X225853768Y-141528170D01*
X225854846Y-141511724D01*
X225855500Y-141491742D01*
X225855500Y-138721069D01*
X228975164Y-138721069D01*
X228988392Y-138922894D01*
X229038178Y-139118928D01*
X229122856Y-139302607D01*
X229126189Y-139307323D01*
X229235922Y-139462592D01*
X229239588Y-139467780D01*
X229384466Y-139608913D01*
X229552637Y-139721282D01*
X229557940Y-139723560D01*
X229557943Y-139723562D01*
X229646291Y-139761519D01*
X229738470Y-139801122D01*
X229935740Y-139845760D01*
X229941509Y-139845987D01*
X229941512Y-139845987D01*
X230017683Y-139848979D01*
X230137842Y-139853700D01*
X230224132Y-139841189D01*
X230332286Y-139825508D01*
X230332291Y-139825507D01*
X230338007Y-139824678D01*
X230343479Y-139822820D01*
X230343481Y-139822820D01*
X230524067Y-139761519D01*
X230524069Y-139761518D01*
X230529531Y-139759664D01*
X230706001Y-139660837D01*
X230768433Y-139608913D01*
X230857073Y-139535191D01*
X230861505Y-139531505D01*
X230990837Y-139376001D01*
X231089664Y-139199531D01*
X231154678Y-139008007D01*
X231155507Y-139002291D01*
X231155508Y-139002286D01*
X231183167Y-138811516D01*
X231183700Y-138807842D01*
X231185215Y-138750000D01*
X231166708Y-138548591D01*
X231111807Y-138353926D01*
X231022351Y-138172527D01*
X231004079Y-138148057D01*
X230904788Y-138015091D01*
X230904787Y-138015090D01*
X230901335Y-138010467D01*
X230878350Y-137989220D01*
X230757053Y-137877094D01*
X230757051Y-137877092D01*
X230752812Y-137873174D01*
X230725374Y-137855862D01*
X230586637Y-137768325D01*
X230581757Y-137765246D01*
X230393898Y-137690298D01*
X230195526Y-137650839D01*
X230189752Y-137650763D01*
X230189748Y-137650763D01*
X230087257Y-137649422D01*
X229993286Y-137648192D01*
X229987589Y-137649171D01*
X229987588Y-137649171D01*
X229799646Y-137681465D01*
X229799645Y-137681465D01*
X229793949Y-137682444D01*
X229604193Y-137752449D01*
X229430371Y-137855862D01*
X229278305Y-137989220D01*
X229153089Y-138148057D01*
X229058914Y-138327053D01*
X228998937Y-138520213D01*
X228975164Y-138721069D01*
X225855500Y-138721069D01*
X225855500Y-133926669D01*
X225856572Y-133910271D01*
X225862483Y-133865284D01*
X225870961Y-133833581D01*
X225877410Y-133817976D01*
X225893792Y-133789535D01*
X225904054Y-133776125D01*
X225927229Y-133752879D01*
X225940606Y-133742576D01*
X225968993Y-133726107D01*
X225977983Y-133722358D01*
X225984573Y-133719610D01*
X226016262Y-133711030D01*
X226061212Y-133704982D01*
X226077611Y-133703858D01*
X233069267Y-133682078D01*
X233070299Y-133682041D01*
X233070301Y-133682041D01*
X233079235Y-133681721D01*
X233089203Y-133681364D01*
X233090201Y-133681296D01*
X233090232Y-133681294D01*
X233104590Y-133680310D01*
X233104620Y-133680307D01*
X233105604Y-133680240D01*
X233125456Y-133678226D01*
X233126437Y-133678094D01*
X233126454Y-133678092D01*
X233227980Y-133664431D01*
X233227986Y-133664430D01*
X233230000Y-133664159D01*
X233231999Y-133663756D01*
X233232009Y-133663754D01*
X233267090Y-133656676D01*
X233267092Y-133656676D01*
X233269102Y-133656270D01*
X233300787Y-133647691D01*
X233302728Y-133647027D01*
X233302737Y-133647024D01*
X233336550Y-133635452D01*
X233338517Y-133634779D01*
X233340436Y-133633979D01*
X233426290Y-133598181D01*
X233426299Y-133598177D01*
X233428191Y-133597388D01*
X233463918Y-133579671D01*
X233465687Y-133578645D01*
X233465694Y-133578641D01*
X233477657Y-133571701D01*
X233492312Y-133563199D01*
X233525429Y-133540978D01*
X233561535Y-133513168D01*
X233600758Y-133482959D01*
X233600767Y-133482952D01*
X233602405Y-133481690D01*
X233632345Y-133455344D01*
X233655522Y-133432095D01*
X233681778Y-133402069D01*
X233740823Y-133324912D01*
X233762940Y-133291728D01*
X233779324Y-133263282D01*
X233796931Y-133227497D01*
X233834043Y-133137704D01*
X233837464Y-133127607D01*
X233846177Y-133101882D01*
X233846839Y-133099928D01*
X233855319Y-133068214D01*
X233858014Y-133054637D01*
X233862685Y-133031107D01*
X233862687Y-133031096D01*
X233863084Y-133029095D01*
X233876823Y-132924525D01*
X233878774Y-132904676D01*
X233879848Y-132888262D01*
X233880500Y-132868315D01*
X233880500Y-123712410D01*
X233879325Y-123688480D01*
X233879191Y-123683044D01*
X233880250Y-123675000D01*
X233861330Y-123531291D01*
X233805861Y-123397375D01*
X233717621Y-123282379D01*
X233602625Y-123194139D01*
X233468709Y-123138670D01*
X233325000Y-123119750D01*
X233181291Y-123138670D01*
X233047375Y-123194139D01*
X232932379Y-123282379D01*
X232844139Y-123397375D01*
X232788670Y-123531291D01*
X232769750Y-123675000D01*
X232770809Y-123683044D01*
X232770675Y-123688480D01*
X232769500Y-123712410D01*
X232769500Y-131246722D01*
X232768422Y-131263167D01*
X232762493Y-131308207D01*
X232753979Y-131339983D01*
X232747506Y-131355609D01*
X232731062Y-131384090D01*
X232720768Y-131397506D01*
X232697506Y-131420768D01*
X232684090Y-131431062D01*
X232655608Y-131447506D01*
X232639981Y-131453980D01*
X232608210Y-131462492D01*
X232578334Y-131466425D01*
X232563167Y-131468422D01*
X232546722Y-131469500D01*
X225108258Y-131469500D01*
X225107291Y-131469532D01*
X225107269Y-131469532D01*
X225089273Y-131470121D01*
X225089251Y-131470122D01*
X225088276Y-131470154D01*
X225071830Y-131471232D01*
X225065414Y-131471864D01*
X225052987Y-131473088D01*
X225052960Y-131473091D01*
X225051936Y-131473192D01*
X224947161Y-131486986D01*
X224945134Y-131487389D01*
X224945129Y-131487390D01*
X224910009Y-131494375D01*
X224909996Y-131494378D01*
X224907970Y-131494781D01*
X224905971Y-131495317D01*
X224905965Y-131495318D01*
X224896056Y-131497973D01*
X224876198Y-131503294D01*
X224874244Y-131503957D01*
X224874245Y-131503957D01*
X224840324Y-131515471D01*
X224840307Y-131515477D01*
X224838355Y-131516140D01*
X224836446Y-131516931D01*
X224836440Y-131516933D01*
X224750330Y-131552601D01*
X224748416Y-131553394D01*
X224712572Y-131571071D01*
X224710790Y-131572100D01*
X224710786Y-131572102D01*
X224686648Y-131586039D01*
X224684086Y-131587518D01*
X224682374Y-131588662D01*
X224682361Y-131588670D01*
X224652582Y-131608568D01*
X224652574Y-131608574D01*
X224650863Y-131609717D01*
X224573630Y-131668980D01*
X224543586Y-131695328D01*
X224520328Y-131718586D01*
X224493980Y-131748630D01*
X224434717Y-131825863D01*
X224433574Y-131827574D01*
X224433568Y-131827582D01*
X224413670Y-131857361D01*
X224413662Y-131857374D01*
X224412518Y-131859086D01*
X224396071Y-131887572D01*
X224378394Y-131923416D01*
X224377603Y-131925325D01*
X224377601Y-131925330D01*
X224371670Y-131939650D01*
X224341140Y-132013355D01*
X224340477Y-132015307D01*
X224340471Y-132015324D01*
X224338710Y-132020513D01*
X224328294Y-132051198D01*
X224319781Y-132082970D01*
X224319378Y-132084996D01*
X224319375Y-132085009D01*
X224312688Y-132118633D01*
X224311986Y-132122161D01*
X224311716Y-132124213D01*
X224300105Y-132212408D01*
X224298192Y-132226936D01*
X224298091Y-132227960D01*
X224298088Y-132227987D01*
X224296864Y-132240414D01*
X224296232Y-132246830D01*
X224295154Y-132263276D01*
X224294500Y-132283258D01*
X224294500Y-141096722D01*
X224293422Y-141113167D01*
X224287493Y-141158207D01*
X224278979Y-141189983D01*
X224272506Y-141205609D01*
X224256062Y-141234090D01*
X224245768Y-141247506D01*
X224222506Y-141270768D01*
X224209090Y-141281062D01*
X224180608Y-141297506D01*
X224164981Y-141303980D01*
X224133210Y-141312492D01*
X224103334Y-141316425D01*
X224088167Y-141318422D01*
X224071722Y-141319500D01*
X218390104Y-141319500D01*
X218321983Y-141299498D01*
X218275490Y-141245842D01*
X218265386Y-141175568D01*
X218283018Y-141127103D01*
X218283811Y-141125825D01*
X218313168Y-141078477D01*
X218355706Y-140932060D01*
X218356500Y-140921248D01*
X218356500Y-138721069D01*
X218815164Y-138721069D01*
X218828392Y-138922894D01*
X218878178Y-139118928D01*
X218962856Y-139302607D01*
X218966189Y-139307323D01*
X219075922Y-139462592D01*
X219079588Y-139467780D01*
X219224466Y-139608913D01*
X219392637Y-139721282D01*
X219397940Y-139723560D01*
X219397943Y-139723562D01*
X219486291Y-139761519D01*
X219578470Y-139801122D01*
X219775740Y-139845760D01*
X219781509Y-139845987D01*
X219781512Y-139845987D01*
X219857683Y-139848979D01*
X219977842Y-139853700D01*
X220064132Y-139841189D01*
X220172286Y-139825508D01*
X220172291Y-139825507D01*
X220178007Y-139824678D01*
X220183479Y-139822820D01*
X220183481Y-139822820D01*
X220364067Y-139761519D01*
X220364069Y-139761518D01*
X220369531Y-139759664D01*
X220546001Y-139660837D01*
X220608433Y-139608913D01*
X220697073Y-139535191D01*
X220701505Y-139531505D01*
X220830837Y-139376001D01*
X220929664Y-139199531D01*
X220994678Y-139008007D01*
X220995507Y-139002291D01*
X220995508Y-139002286D01*
X221023167Y-138811516D01*
X221023700Y-138807842D01*
X221025215Y-138750000D01*
X221006708Y-138548591D01*
X220951807Y-138353926D01*
X220862351Y-138172527D01*
X220844079Y-138148057D01*
X220744788Y-138015091D01*
X220744787Y-138015090D01*
X220741335Y-138010467D01*
X220718350Y-137989220D01*
X220597053Y-137877094D01*
X220597051Y-137877092D01*
X220592812Y-137873174D01*
X220565374Y-137855862D01*
X220426637Y-137768325D01*
X220421757Y-137765246D01*
X220233898Y-137690298D01*
X220035526Y-137650839D01*
X220029752Y-137650763D01*
X220029748Y-137650763D01*
X219927257Y-137649422D01*
X219833286Y-137648192D01*
X219827589Y-137649171D01*
X219827588Y-137649171D01*
X219639646Y-137681465D01*
X219639645Y-137681465D01*
X219633949Y-137682444D01*
X219444193Y-137752449D01*
X219270371Y-137855862D01*
X219118305Y-137989220D01*
X218993089Y-138148057D01*
X218898914Y-138327053D01*
X218838937Y-138520213D01*
X218815164Y-138721069D01*
X218356500Y-138721069D01*
X218356500Y-135571069D01*
X218815164Y-135571069D01*
X218828392Y-135772894D01*
X218851398Y-135863481D01*
X218874339Y-135953810D01*
X218878178Y-135968928D01*
X218962856Y-136152607D01*
X219079588Y-136317780D01*
X219224466Y-136458913D01*
X219229270Y-136462123D01*
X219248236Y-136474796D01*
X219392637Y-136571282D01*
X219397940Y-136573560D01*
X219397943Y-136573562D01*
X219486291Y-136611519D01*
X219578470Y-136651122D01*
X219775740Y-136695760D01*
X219781509Y-136695987D01*
X219781512Y-136695987D01*
X219857683Y-136698979D01*
X219977842Y-136703700D01*
X220064132Y-136691189D01*
X220172286Y-136675508D01*
X220172291Y-136675507D01*
X220178007Y-136674678D01*
X220183479Y-136672820D01*
X220183481Y-136672820D01*
X220364067Y-136611519D01*
X220364069Y-136611518D01*
X220369531Y-136609664D01*
X220527304Y-136521308D01*
X220540964Y-136513658D01*
X220540965Y-136513657D01*
X220546001Y-136510837D01*
X220608433Y-136458913D01*
X220697073Y-136385191D01*
X220701505Y-136381505D01*
X220830837Y-136226001D01*
X220929664Y-136049531D01*
X220934671Y-136034783D01*
X220992820Y-135863481D01*
X220992820Y-135863479D01*
X220994678Y-135858007D01*
X220995507Y-135852291D01*
X220995508Y-135852286D01*
X221023167Y-135661516D01*
X221023700Y-135657842D01*
X221025215Y-135600000D01*
X221006708Y-135398591D01*
X220951807Y-135203926D01*
X220862351Y-135022527D01*
X220844079Y-134998057D01*
X220744788Y-134865091D01*
X220744787Y-134865090D01*
X220741335Y-134860467D01*
X220718350Y-134839220D01*
X220597053Y-134727094D01*
X220597051Y-134727092D01*
X220592812Y-134723174D01*
X220565374Y-134705862D01*
X220426637Y-134618325D01*
X220421757Y-134615246D01*
X220233898Y-134540298D01*
X220035526Y-134500839D01*
X220029752Y-134500763D01*
X220029748Y-134500763D01*
X219927257Y-134499422D01*
X219833286Y-134498192D01*
X219827589Y-134499171D01*
X219827588Y-134499171D01*
X219639646Y-134531465D01*
X219639645Y-134531465D01*
X219633949Y-134532444D01*
X219444193Y-134602449D01*
X219270371Y-134705862D01*
X219118305Y-134839220D01*
X218993089Y-134998057D01*
X218898914Y-135177053D01*
X218838937Y-135370213D01*
X218815164Y-135571069D01*
X218356500Y-135571069D01*
X218356500Y-133061806D01*
X218353381Y-133039033D01*
X218342205Y-132957453D01*
X218341039Y-132948939D01*
X218333609Y-132931768D01*
X218283896Y-132816890D01*
X218283896Y-132816889D01*
X218280485Y-132809008D01*
X218184532Y-132690515D01*
X218060248Y-132602191D01*
X217916791Y-132550543D01*
X217908231Y-132549914D01*
X217908229Y-132549914D01*
X217855866Y-132546069D01*
X218815164Y-132546069D01*
X218828392Y-132747894D01*
X218829815Y-132753496D01*
X218867950Y-132903653D01*
X218878178Y-132943928D01*
X218962856Y-133127607D01*
X218966189Y-133132323D01*
X219060012Y-133265080D01*
X219079588Y-133292780D01*
X219224466Y-133433913D01*
X219229270Y-133437123D01*
X219256540Y-133455344D01*
X219392637Y-133546282D01*
X219397940Y-133548560D01*
X219397943Y-133548562D01*
X219513435Y-133598181D01*
X219578470Y-133626122D01*
X219775740Y-133670760D01*
X219781509Y-133670987D01*
X219781512Y-133670987D01*
X219857683Y-133673979D01*
X219977842Y-133678700D01*
X220064132Y-133666189D01*
X220172286Y-133650508D01*
X220172291Y-133650507D01*
X220178007Y-133649678D01*
X220183479Y-133647820D01*
X220183481Y-133647820D01*
X220364067Y-133586519D01*
X220364069Y-133586518D01*
X220369531Y-133584664D01*
X220546001Y-133485837D01*
X220608433Y-133433913D01*
X220697073Y-133360191D01*
X220701505Y-133356505D01*
X220830837Y-133201001D01*
X220929664Y-133024531D01*
X220931902Y-133017940D01*
X220992820Y-132838481D01*
X220992820Y-132838479D01*
X220994678Y-132833007D01*
X220995507Y-132827291D01*
X220995508Y-132827286D01*
X221014370Y-132697191D01*
X221023700Y-132632842D01*
X221025215Y-132575000D01*
X221006708Y-132373591D01*
X221003272Y-132361406D01*
X220965978Y-132229172D01*
X220951807Y-132178926D01*
X220871128Y-132015324D01*
X220864906Y-132002708D01*
X220862351Y-131997527D01*
X220844079Y-131973057D01*
X220744788Y-131840091D01*
X220744787Y-131840090D01*
X220741335Y-131835467D01*
X220732805Y-131827582D01*
X220597053Y-131702094D01*
X220597051Y-131702092D01*
X220592812Y-131698174D01*
X220565374Y-131680862D01*
X220426637Y-131593325D01*
X220421757Y-131590246D01*
X220233898Y-131515298D01*
X220035526Y-131475839D01*
X220029752Y-131475763D01*
X220029748Y-131475763D01*
X219927257Y-131474422D01*
X219833286Y-131473192D01*
X219827589Y-131474171D01*
X219827588Y-131474171D01*
X219639646Y-131506465D01*
X219639645Y-131506465D01*
X219633949Y-131507444D01*
X219444193Y-131577449D01*
X219439232Y-131580401D01*
X219439231Y-131580401D01*
X219288069Y-131670333D01*
X219270371Y-131680862D01*
X219118305Y-131814220D01*
X218993089Y-131973057D01*
X218898914Y-132152053D01*
X218838937Y-132345213D01*
X218815164Y-132546069D01*
X217855866Y-132546069D01*
X217828017Y-132544024D01*
X217764729Y-132539376D01*
X217615265Y-132569514D01*
X217479412Y-132638734D01*
X217473092Y-132644546D01*
X217473090Y-132644547D01*
X217373496Y-132736129D01*
X217367178Y-132741939D01*
X217362655Y-132749234D01*
X217362654Y-132749235D01*
X217325593Y-132809008D01*
X217286832Y-132871523D01*
X217244294Y-133017940D01*
X217243500Y-133028752D01*
X217243500Y-139323258D01*
X217223498Y-139391379D01*
X217169842Y-139437872D01*
X217101053Y-139448180D01*
X217083188Y-139445828D01*
X217075000Y-139444750D01*
X216931291Y-139463670D01*
X216797375Y-139519139D01*
X216682379Y-139607379D01*
X216594139Y-139722375D01*
X216538670Y-139856291D01*
X216519750Y-140000000D01*
X216520828Y-140008188D01*
X216520828Y-140008190D01*
X216521458Y-140012975D01*
X216521889Y-140039201D01*
X216522113Y-140039216D01*
X216519500Y-140079089D01*
X216519500Y-141491742D01*
X211757591Y-141491742D01*
X211775038Y-141353632D01*
X211775438Y-141325000D01*
X211755909Y-141125825D01*
X211698065Y-140934236D01*
X211688178Y-140915642D01*
X211607005Y-140762977D01*
X211607003Y-140762975D01*
X211604109Y-140757531D01*
X211550829Y-140692203D01*
X211481516Y-140607216D01*
X211481513Y-140607213D01*
X211477621Y-140602441D01*
X211472872Y-140598512D01*
X211328168Y-140478802D01*
X211328164Y-140478800D01*
X211323418Y-140474873D01*
X211147373Y-140379686D01*
X210956193Y-140320506D01*
X210950068Y-140319862D01*
X210950067Y-140319862D01*
X210763288Y-140300231D01*
X210763286Y-140300231D01*
X210757159Y-140299587D01*
X210673106Y-140307236D01*
X210563991Y-140317166D01*
X210563988Y-140317167D01*
X210557852Y-140317725D01*
X210365864Y-140374230D01*
X210360406Y-140377083D01*
X210360402Y-140377085D01*
X210268467Y-140425148D01*
X210188508Y-140466950D01*
X210032539Y-140592353D01*
X209903897Y-140745661D01*
X209900932Y-140751055D01*
X209900929Y-140751059D01*
X209899914Y-140752905D01*
X209899134Y-140753681D01*
X209897445Y-140756147D01*
X209896976Y-140755826D01*
X209849568Y-140802963D01*
X209780151Y-140817856D01*
X209713702Y-140792854D01*
X209671318Y-140735897D01*
X209663500Y-140692203D01*
X209663500Y-133112410D01*
X209662790Y-133097947D01*
X209661425Y-133070187D01*
X209661027Y-133062077D01*
X209658606Y-133037497D01*
X209651213Y-132987657D01*
X209649041Y-132976735D01*
X209640097Y-132931768D01*
X209640095Y-132931762D01*
X209639494Y-132928738D01*
X209610271Y-132832401D01*
X209591456Y-132786978D01*
X209544001Y-132698197D01*
X209542286Y-132695631D01*
X209542281Y-132695622D01*
X209519385Y-132661357D01*
X209519381Y-132661352D01*
X209517656Y-132658770D01*
X209501213Y-132638734D01*
X209455757Y-132583348D01*
X209453799Y-132580962D01*
X209419038Y-132546201D01*
X209341227Y-132482342D01*
X209301798Y-132455996D01*
X209299076Y-132454541D01*
X209299066Y-132454535D01*
X209215762Y-132410007D01*
X209215753Y-132410003D01*
X209213024Y-132408544D01*
X209167607Y-132389731D01*
X209133379Y-132379348D01*
X209074235Y-132361406D01*
X209074227Y-132361404D01*
X209071270Y-132360507D01*
X209068241Y-132359905D01*
X209068235Y-132359903D01*
X209052972Y-132356867D01*
X209024756Y-132351255D01*
X208924579Y-132341389D01*
X208875421Y-132341389D01*
X208775244Y-132351255D01*
X208747028Y-132356867D01*
X208731765Y-132359903D01*
X208731759Y-132359905D01*
X208728730Y-132360507D01*
X208725773Y-132361404D01*
X208725765Y-132361406D01*
X208666621Y-132379348D01*
X208632393Y-132389731D01*
X208586976Y-132408544D01*
X208584247Y-132410003D01*
X208584238Y-132410007D01*
X208500934Y-132454535D01*
X208500924Y-132454541D01*
X208498202Y-132455996D01*
X208458773Y-132482342D01*
X208380962Y-132546201D01*
X208346201Y-132580962D01*
X208344243Y-132583348D01*
X208298788Y-132638734D01*
X208282344Y-132658770D01*
X208280619Y-132661352D01*
X208280615Y-132661357D01*
X208257719Y-132695622D01*
X208257714Y-132695631D01*
X208255999Y-132698197D01*
X208208544Y-132786978D01*
X208189729Y-132832401D01*
X208160506Y-132928738D01*
X208159905Y-132931762D01*
X208159903Y-132931768D01*
X208150959Y-132976735D01*
X208148787Y-132987657D01*
X208141394Y-133037497D01*
X208138973Y-133062077D01*
X208138575Y-133070187D01*
X208137211Y-133097947D01*
X208136500Y-133112410D01*
X208136500Y-142528583D01*
X208116498Y-142596704D01*
X208062842Y-142643197D01*
X208030210Y-142653032D01*
X207967596Y-142662949D01*
X207889252Y-142681757D01*
X207869529Y-142688165D01*
X207854105Y-142693176D01*
X207854096Y-142693179D01*
X207851764Y-142693937D01*
X207849496Y-142694876D01*
X207849489Y-142694879D01*
X207816661Y-142708477D01*
X207777311Y-142724776D01*
X207775113Y-142725896D01*
X207775102Y-142725901D01*
X207689121Y-142769711D01*
X207680455Y-142774127D01*
X207678347Y-142775419D01*
X207678336Y-142775425D01*
X207640905Y-142798364D01*
X207611744Y-142816235D01*
X207609728Y-142817700D01*
X207581865Y-142837944D01*
X207581859Y-142837949D01*
X207579852Y-142839407D01*
X207518590Y-142891731D01*
X207441731Y-142968590D01*
X207389407Y-143029852D01*
X207366235Y-143061744D01*
X207364935Y-143063866D01*
X207325425Y-143128336D01*
X207325419Y-143128347D01*
X207324127Y-143130455D01*
X207323002Y-143132663D01*
X207275902Y-143225100D01*
X207275897Y-143225111D01*
X207274777Y-143227309D01*
X207243940Y-143301757D01*
X207231758Y-143339250D01*
X207212948Y-143417600D01*
X207194373Y-143534880D01*
X207189634Y-143574925D01*
X207188083Y-143594635D01*
X207186500Y-143634918D01*
X207186500Y-143827250D01*
X207185715Y-143841295D01*
X207184662Y-143850683D01*
X202350500Y-143850683D01*
X202350500Y-141310683D01*
X204644662Y-141310683D01*
X204661408Y-141510111D01*
X204716572Y-141702489D01*
X204719390Y-141707972D01*
X204805231Y-141875002D01*
X204805234Y-141875006D01*
X204808051Y-141880488D01*
X204932362Y-142037329D01*
X204937056Y-142041324D01*
X205011484Y-142104667D01*
X205084769Y-142167038D01*
X205090147Y-142170044D01*
X205090149Y-142170045D01*
X205172118Y-142215856D01*
X205259467Y-142264673D01*
X205449802Y-142326517D01*
X205648525Y-142350213D01*
X205654660Y-142349741D01*
X205654662Y-142349741D01*
X205841924Y-142335332D01*
X205841929Y-142335331D01*
X205848065Y-142334859D01*
X205853995Y-142333203D01*
X205853997Y-142333203D01*
X205974270Y-142299622D01*
X206040824Y-142281040D01*
X206046313Y-142278267D01*
X206046319Y-142278265D01*
X206213957Y-142193584D01*
X206219457Y-142190806D01*
X206250655Y-142166432D01*
X206372306Y-142071387D01*
X206377162Y-142067593D01*
X206385537Y-142057891D01*
X206503902Y-141920764D01*
X206503903Y-141920762D01*
X206507931Y-141916096D01*
X206606784Y-141742083D01*
X206669955Y-141552184D01*
X206695038Y-141353632D01*
X206695438Y-141325000D01*
X206675909Y-141125825D01*
X206618065Y-140934236D01*
X206608178Y-140915642D01*
X206527005Y-140762977D01*
X206527003Y-140762975D01*
X206524109Y-140757531D01*
X206470829Y-140692203D01*
X206401516Y-140607216D01*
X206401513Y-140607213D01*
X206397621Y-140602441D01*
X206392872Y-140598512D01*
X206248168Y-140478802D01*
X206248164Y-140478800D01*
X206243418Y-140474873D01*
X206067373Y-140379686D01*
X205876193Y-140320506D01*
X205870068Y-140319862D01*
X205870067Y-140319862D01*
X205683288Y-140300231D01*
X205683286Y-140300231D01*
X205677159Y-140299587D01*
X205593106Y-140307236D01*
X205483991Y-140317166D01*
X205483988Y-140317167D01*
X205477852Y-140317725D01*
X205285864Y-140374230D01*
X205280406Y-140377083D01*
X205280402Y-140377085D01*
X205188467Y-140425148D01*
X205108508Y-140466950D01*
X204952539Y-140592353D01*
X204823897Y-140745661D01*
X204727484Y-140921037D01*
X204666970Y-141111799D01*
X204644662Y-141310683D01*
X202350500Y-141310683D01*
X202350500Y-127541742D01*
X203569500Y-127541742D01*
X203570368Y-127568265D01*
X203571446Y-127584711D01*
X203574047Y-127611117D01*
X203587841Y-127715892D01*
X203598188Y-127767911D01*
X203598718Y-127769891D01*
X203598722Y-127769906D01*
X203606163Y-127797676D01*
X203606701Y-127799683D01*
X203607369Y-127801649D01*
X203607369Y-127801651D01*
X203608499Y-127804980D01*
X203623752Y-127849913D01*
X203661006Y-127939852D01*
X203661914Y-127941694D01*
X203661923Y-127941713D01*
X203665848Y-127949672D01*
X203669248Y-127957176D01*
X203719139Y-128077625D01*
X203807379Y-128192621D01*
X203922375Y-128280861D01*
X203930002Y-128284020D01*
X203930007Y-128284023D01*
X203968846Y-128300110D01*
X203990631Y-128311754D01*
X204009084Y-128324084D01*
X204010879Y-128325120D01*
X204010880Y-128325121D01*
X204035782Y-128339499D01*
X204035790Y-128339503D01*
X204037570Y-128340531D01*
X204039413Y-128341440D01*
X204039417Y-128341442D01*
X204083300Y-128363083D01*
X204083308Y-128363087D01*
X204085148Y-128363994D01*
X204175087Y-128401248D01*
X204225317Y-128418299D01*
X204227317Y-128418835D01*
X204227324Y-128418837D01*
X204255094Y-128426278D01*
X204255109Y-128426282D01*
X204257089Y-128426812D01*
X204259115Y-128427215D01*
X204307095Y-128436759D01*
X204307107Y-128436761D01*
X204309108Y-128437159D01*
X204311145Y-128437427D01*
X204311144Y-128437427D01*
X204412841Y-128450816D01*
X204412852Y-128450817D01*
X204413883Y-128450953D01*
X204440289Y-128453554D01*
X204443514Y-128453765D01*
X204455722Y-128454566D01*
X204455747Y-128454567D01*
X204456735Y-128454632D01*
X204457707Y-128454664D01*
X204457731Y-128454665D01*
X204482268Y-128455468D01*
X204482292Y-128455468D01*
X204483258Y-128455500D01*
X210315164Y-128455500D01*
X210331599Y-128456577D01*
X210334556Y-128456966D01*
X210399482Y-128485685D01*
X210438576Y-128544949D01*
X210443034Y-128565440D01*
X210443423Y-128568394D01*
X210444500Y-128584836D01*
X210444500Y-136366742D01*
X210444532Y-136367708D01*
X210444532Y-136367732D01*
X210445104Y-136385191D01*
X210445368Y-136393265D01*
X210445433Y-136394253D01*
X210445434Y-136394278D01*
X210446235Y-136406486D01*
X210446446Y-136409711D01*
X210449047Y-136436117D01*
X210449183Y-136437148D01*
X210449184Y-136437159D01*
X210454139Y-136474796D01*
X210462841Y-136540892D01*
X210473188Y-136592911D01*
X210473718Y-136594891D01*
X210473722Y-136594906D01*
X210481163Y-136622676D01*
X210481701Y-136624683D01*
X210498752Y-136674913D01*
X210536006Y-136764852D01*
X210559469Y-136812430D01*
X210575916Y-136840916D01*
X210605381Y-136885013D01*
X210664644Y-136962246D01*
X210699617Y-137002125D01*
X210722875Y-137025383D01*
X210762754Y-137060356D01*
X210839987Y-137119619D01*
X210841698Y-137120762D01*
X210841706Y-137120768D01*
X210877948Y-137144984D01*
X210884084Y-137149084D01*
X210885879Y-137150120D01*
X210885880Y-137150121D01*
X210910782Y-137164499D01*
X210910790Y-137164503D01*
X210912570Y-137165531D01*
X210914413Y-137166440D01*
X210914417Y-137166442D01*
X210958300Y-137188083D01*
X210958308Y-137188087D01*
X210960148Y-137188994D01*
X211050087Y-137226248D01*
X211052046Y-137226913D01*
X211077322Y-137235493D01*
X211100317Y-137243299D01*
X211102317Y-137243835D01*
X211102324Y-137243837D01*
X211130094Y-137251278D01*
X211130109Y-137251282D01*
X211132089Y-137251812D01*
X211134115Y-137252215D01*
X211182095Y-137261759D01*
X211182107Y-137261761D01*
X211184108Y-137262159D01*
X211186145Y-137262427D01*
X211186144Y-137262427D01*
X211287841Y-137275816D01*
X211287852Y-137275817D01*
X211288883Y-137275953D01*
X211315289Y-137278554D01*
X211318514Y-137278765D01*
X211330722Y-137279566D01*
X211330747Y-137279567D01*
X211331735Y-137279632D01*
X211332707Y-137279664D01*
X211332731Y-137279665D01*
X211357268Y-137280468D01*
X211357292Y-137280468D01*
X211358258Y-137280500D01*
X212687590Y-137280500D01*
X212689132Y-137280424D01*
X212689141Y-137280424D01*
X212705255Y-137279632D01*
X212727337Y-137278547D01*
X212728845Y-137278398D01*
X212728865Y-137278397D01*
X212744470Y-137276859D01*
X212751917Y-137276126D01*
X212753414Y-137275904D01*
X212753430Y-137275902D01*
X212783972Y-137271372D01*
X212791278Y-137270288D01*
X212813209Y-137265926D01*
X212847163Y-137259172D01*
X212847165Y-137259171D01*
X212850199Y-137258568D01*
X212926268Y-137235493D01*
X212934736Y-137231985D01*
X212968825Y-137217866D01*
X212968834Y-137217862D01*
X212971687Y-137216680D01*
X212974416Y-137215221D01*
X212974425Y-137215217D01*
X213039064Y-137180666D01*
X213039074Y-137180660D01*
X213041796Y-137179205D01*
X213081225Y-137152859D01*
X213087229Y-137147932D01*
X213140277Y-137104397D01*
X213140281Y-137104394D01*
X213142671Y-137102432D01*
X213177432Y-137067671D01*
X213183436Y-137060356D01*
X213225892Y-137008622D01*
X213227858Y-137006227D01*
X213254203Y-136966800D01*
X213291676Y-136896696D01*
X213310490Y-136851277D01*
X213333568Y-136775200D01*
X213335627Y-136764852D01*
X213342215Y-136731728D01*
X213342215Y-136731726D01*
X213342820Y-136728686D01*
X213347928Y-136676822D01*
X213350308Y-136652660D01*
X213350308Y-136652651D01*
X213350611Y-136649579D01*
X213350611Y-136600419D01*
X213342819Y-136521308D01*
X213341298Y-136513658D01*
X213334170Y-136477827D01*
X213334170Y-136477825D01*
X213333567Y-136474796D01*
X213310490Y-136398723D01*
X213291676Y-136353304D01*
X213254203Y-136283200D01*
X213227858Y-136243773D01*
X213177432Y-136182329D01*
X213142671Y-136147568D01*
X213081225Y-136097141D01*
X213041796Y-136070795D01*
X213039074Y-136069340D01*
X213039064Y-136069334D01*
X212974425Y-136034783D01*
X212974416Y-136034779D01*
X212971687Y-136033320D01*
X212968834Y-136032138D01*
X212968825Y-136032134D01*
X212929119Y-136015688D01*
X212926268Y-136014507D01*
X212850199Y-135991432D01*
X212847165Y-135990829D01*
X212847163Y-135990828D01*
X212792806Y-135980016D01*
X212792809Y-135980016D01*
X212791278Y-135979712D01*
X212783972Y-135978628D01*
X212753430Y-135974098D01*
X212753414Y-135974096D01*
X212751917Y-135973874D01*
X212744470Y-135973141D01*
X212728865Y-135971603D01*
X212728845Y-135971602D01*
X212727337Y-135971453D01*
X212704966Y-135970354D01*
X212689141Y-135969576D01*
X212689132Y-135969576D01*
X212687590Y-135969500D01*
X212449155Y-135969500D01*
X212381034Y-135949498D01*
X212334541Y-135895842D01*
X212324437Y-135825568D01*
X212351947Y-135763463D01*
X212357822Y-135758061D01*
X212438168Y-135628477D01*
X212480706Y-135482060D01*
X212481500Y-135471248D01*
X212481500Y-130361806D01*
X212466039Y-130248939D01*
X212413844Y-130128323D01*
X212408896Y-130116890D01*
X212408896Y-130116889D01*
X212405485Y-130109008D01*
X212309532Y-129990515D01*
X212185248Y-129902191D01*
X212041791Y-129850543D01*
X212033231Y-129849914D01*
X212033229Y-129849914D01*
X211953017Y-129844024D01*
X211889729Y-129839376D01*
X211848393Y-129847711D01*
X211806405Y-129856177D01*
X211735674Y-129850034D01*
X211679493Y-129806627D01*
X211655500Y-129732663D01*
X211655500Y-128058258D01*
X211654632Y-128031735D01*
X211653554Y-128015289D01*
X211650953Y-127988883D01*
X211649924Y-127981062D01*
X211637427Y-127886144D01*
X211637159Y-127884108D01*
X211626812Y-127832089D01*
X211626282Y-127830109D01*
X211626278Y-127830094D01*
X211618837Y-127802324D01*
X211618835Y-127802317D01*
X211618299Y-127800317D01*
X211617403Y-127797676D01*
X211601913Y-127752046D01*
X211601248Y-127750087D01*
X211563994Y-127660148D01*
X211540531Y-127612570D01*
X211539087Y-127610068D01*
X211525121Y-127585880D01*
X211525120Y-127585879D01*
X211524084Y-127584084D01*
X211513514Y-127568265D01*
X211495768Y-127541706D01*
X211495762Y-127541698D01*
X211494619Y-127539987D01*
X211435356Y-127462754D01*
X211400383Y-127422875D01*
X211377125Y-127399617D01*
X211337246Y-127364644D01*
X211260013Y-127305381D01*
X211258302Y-127304238D01*
X211258294Y-127304232D01*
X211217640Y-127277068D01*
X211215916Y-127275916D01*
X211196144Y-127264500D01*
X211189218Y-127260501D01*
X211189210Y-127260497D01*
X211187430Y-127259469D01*
X211185583Y-127258558D01*
X211141700Y-127236917D01*
X211141692Y-127236913D01*
X211139852Y-127236006D01*
X211049913Y-127198752D01*
X210999683Y-127181701D01*
X210997683Y-127181165D01*
X210997676Y-127181163D01*
X210969906Y-127173722D01*
X210969891Y-127173718D01*
X210967911Y-127173188D01*
X210965885Y-127172785D01*
X210917905Y-127163241D01*
X210917893Y-127163239D01*
X210915892Y-127162841D01*
X210882934Y-127158502D01*
X210812159Y-127149184D01*
X210812148Y-127149183D01*
X210811117Y-127149047D01*
X210784711Y-127146446D01*
X210781486Y-127146235D01*
X210769278Y-127145434D01*
X210769253Y-127145433D01*
X210768265Y-127145368D01*
X210767293Y-127145336D01*
X210767269Y-127145335D01*
X210742732Y-127144532D01*
X210742708Y-127144532D01*
X210741742Y-127144500D01*
X207434836Y-127144500D01*
X207418401Y-127143423D01*
X207415444Y-127143034D01*
X207350518Y-127114315D01*
X207311424Y-127055051D01*
X207306966Y-127034560D01*
X207306577Y-127031599D01*
X207305500Y-127015164D01*
X207305500Y-126066742D01*
X208069500Y-126066742D01*
X208070154Y-126086724D01*
X208071232Y-126103170D01*
X208071332Y-126104183D01*
X208073077Y-126121893D01*
X208073192Y-126123064D01*
X208086986Y-126227839D01*
X208094781Y-126267030D01*
X208103294Y-126298802D01*
X208103957Y-126300755D01*
X208115471Y-126334676D01*
X208115477Y-126334693D01*
X208116140Y-126336645D01*
X208116931Y-126338554D01*
X208116933Y-126338560D01*
X208125221Y-126358569D01*
X208153394Y-126426584D01*
X208171071Y-126462428D01*
X208187518Y-126490914D01*
X208188662Y-126492626D01*
X208188670Y-126492639D01*
X208207020Y-126520101D01*
X208209717Y-126524137D01*
X208268980Y-126601370D01*
X208295328Y-126631414D01*
X208318586Y-126654672D01*
X208348630Y-126681020D01*
X208425863Y-126740283D01*
X208427574Y-126741426D01*
X208427582Y-126741432D01*
X208457361Y-126761330D01*
X208457374Y-126761338D01*
X208459086Y-126762482D01*
X208460881Y-126763518D01*
X208460882Y-126763519D01*
X208478599Y-126773748D01*
X208487572Y-126778929D01*
X208489419Y-126779840D01*
X208489423Y-126779842D01*
X208493262Y-126781735D01*
X208523416Y-126796606D01*
X208525325Y-126797397D01*
X208525330Y-126797399D01*
X208611440Y-126833067D01*
X208611446Y-126833069D01*
X208613355Y-126833860D01*
X208615307Y-126834523D01*
X208615324Y-126834529D01*
X208646965Y-126845269D01*
X208651198Y-126846706D01*
X208671056Y-126852027D01*
X208680965Y-126854682D01*
X208680971Y-126854683D01*
X208682970Y-126855219D01*
X208684996Y-126855622D01*
X208685009Y-126855625D01*
X208720129Y-126862610D01*
X208720134Y-126862611D01*
X208722161Y-126863014D01*
X208826936Y-126876808D01*
X208827960Y-126876909D01*
X208827987Y-126876912D01*
X208840414Y-126878136D01*
X208846830Y-126878768D01*
X208863276Y-126879846D01*
X208864251Y-126879878D01*
X208864273Y-126879879D01*
X208882269Y-126880468D01*
X208882291Y-126880468D01*
X208883258Y-126880500D01*
X213221722Y-126880500D01*
X213238167Y-126881578D01*
X213253334Y-126883575D01*
X213283210Y-126887508D01*
X213314981Y-126896020D01*
X213327436Y-126901180D01*
X213330609Y-126902494D01*
X213359090Y-126918938D01*
X213372506Y-126929232D01*
X213395768Y-126952494D01*
X213406062Y-126965910D01*
X213422506Y-126994391D01*
X213428979Y-127010017D01*
X213437493Y-127041793D01*
X213443422Y-127086833D01*
X213444500Y-127103278D01*
X213444500Y-131587590D01*
X213444576Y-131589129D01*
X213444576Y-131589145D01*
X213445587Y-131609717D01*
X213445971Y-131617535D01*
X213446126Y-131619108D01*
X213446126Y-131619109D01*
X213447265Y-131630678D01*
X213446794Y-131659470D01*
X213446179Y-131664143D01*
X213444750Y-131675000D01*
X213463670Y-131818709D01*
X213519139Y-131952625D01*
X213607379Y-132067621D01*
X213722375Y-132155861D01*
X213856291Y-132211330D01*
X214000000Y-132230250D01*
X214143709Y-132211330D01*
X214277625Y-132155861D01*
X214392621Y-132067621D01*
X214397647Y-132061071D01*
X214403488Y-132055230D01*
X214404732Y-132056474D01*
X214453976Y-132020513D01*
X214524847Y-132016289D01*
X214586751Y-132051051D01*
X214604627Y-132074237D01*
X214605999Y-132076803D01*
X214632344Y-132116230D01*
X214634315Y-132118631D01*
X214634316Y-132118633D01*
X214638896Y-132124213D01*
X214696201Y-132194038D01*
X214730962Y-132228799D01*
X214808773Y-132292658D01*
X214848202Y-132319004D01*
X214850924Y-132320459D01*
X214850934Y-132320465D01*
X214934238Y-132364993D01*
X214934247Y-132364997D01*
X214936976Y-132366456D01*
X214982393Y-132385269D01*
X214994142Y-132388833D01*
X215075765Y-132413594D01*
X215075773Y-132413596D01*
X215078730Y-132414493D01*
X215081759Y-132415095D01*
X215081765Y-132415097D01*
X215097028Y-132418133D01*
X215125244Y-132423745D01*
X215225421Y-132433611D01*
X215274579Y-132433611D01*
X215374756Y-132423745D01*
X215402972Y-132418133D01*
X215418235Y-132415097D01*
X215418241Y-132415095D01*
X215421270Y-132414493D01*
X215424227Y-132413596D01*
X215424235Y-132413594D01*
X215505858Y-132388833D01*
X215517607Y-132385269D01*
X215563024Y-132366456D01*
X215565753Y-132364997D01*
X215565762Y-132364993D01*
X215649066Y-132320465D01*
X215649076Y-132320459D01*
X215651798Y-132319004D01*
X215691227Y-132292658D01*
X215769038Y-132228799D01*
X215803799Y-132194038D01*
X215861104Y-132124213D01*
X215865684Y-132118633D01*
X215865685Y-132118631D01*
X215867656Y-132116230D01*
X215888518Y-132085009D01*
X215892281Y-132079378D01*
X215892286Y-132079369D01*
X215894001Y-132076803D01*
X215941456Y-131988022D01*
X215960271Y-131942599D01*
X215989494Y-131846262D01*
X215990722Y-131840091D01*
X216000911Y-131788861D01*
X216001213Y-131787343D01*
X216008606Y-131737503D01*
X216011027Y-131712923D01*
X216012602Y-131680862D01*
X216013424Y-131664143D01*
X216013424Y-131664131D01*
X216013500Y-131662590D01*
X216013500Y-131139500D01*
X216033502Y-131071379D01*
X216087158Y-131024886D01*
X216139500Y-131013500D01*
X221612590Y-131013500D01*
X221614131Y-131013424D01*
X221614143Y-131013424D01*
X221640653Y-131012121D01*
X221662923Y-131011027D01*
X221664479Y-131010874D01*
X221664489Y-131010873D01*
X221677943Y-131009548D01*
X221687503Y-131008606D01*
X221737348Y-131001212D01*
X221738844Y-131000914D01*
X221738858Y-131000912D01*
X221793233Y-130990096D01*
X221793235Y-130990095D01*
X221796269Y-130989492D01*
X221892597Y-130960272D01*
X221938016Y-130941459D01*
X221940744Y-130940001D01*
X221940750Y-130939998D01*
X222024074Y-130895460D01*
X222026798Y-130894004D01*
X222066227Y-130867658D01*
X222144038Y-130803799D01*
X222178799Y-130769038D01*
X222242656Y-130691230D01*
X222269001Y-130651803D01*
X222275281Y-130640055D01*
X222314991Y-130565765D01*
X222314995Y-130565756D01*
X222316454Y-130563027D01*
X222335268Y-130517608D01*
X222364493Y-130421270D01*
X222373745Y-130374756D01*
X222383611Y-130274579D01*
X222383611Y-130225419D01*
X222373744Y-130125238D01*
X222364492Y-130078726D01*
X222335268Y-129982392D01*
X222316454Y-129936973D01*
X222314995Y-129934244D01*
X222314991Y-129934235D01*
X222275281Y-129859945D01*
X222269001Y-129848197D01*
X222242656Y-129808770D01*
X222178799Y-129730962D01*
X222144038Y-129696201D01*
X222066227Y-129632342D01*
X222026798Y-129605996D01*
X221988337Y-129585438D01*
X221940750Y-129560002D01*
X221940744Y-129559999D01*
X221938016Y-129558541D01*
X221892597Y-129539728D01*
X221796269Y-129510508D01*
X221793235Y-129509905D01*
X221793233Y-129509904D01*
X221738858Y-129499088D01*
X221738844Y-129499086D01*
X221737348Y-129498788D01*
X221687503Y-129491394D01*
X221677943Y-129490452D01*
X221664489Y-129489127D01*
X221664479Y-129489126D01*
X221662923Y-129488973D01*
X221640653Y-129487879D01*
X221614143Y-129486576D01*
X221614131Y-129486576D01*
X221612590Y-129486500D01*
X218494094Y-129486500D01*
X218425973Y-129466498D01*
X218379480Y-129412842D01*
X218369376Y-129342568D01*
X218373519Y-129323924D01*
X218379118Y-129305468D01*
X218389494Y-129271262D01*
X218392119Y-129258067D01*
X218400911Y-129213861D01*
X218401213Y-129212343D01*
X218408606Y-129162503D01*
X218411027Y-129137923D01*
X218412533Y-129107276D01*
X218413424Y-129089143D01*
X218413424Y-129089131D01*
X218413500Y-129087590D01*
X218413500Y-127264500D01*
X218433502Y-127196379D01*
X218487158Y-127149886D01*
X218539500Y-127138500D01*
X225065229Y-127138500D01*
X225133350Y-127158502D01*
X225179843Y-127212158D01*
X225189947Y-127282432D01*
X225183866Y-127306941D01*
X225183353Y-127308375D01*
X225182765Y-127309900D01*
X225181895Y-127312000D01*
X225181674Y-127312728D01*
X225181135Y-127314127D01*
X225163670Y-127356291D01*
X225157772Y-127401094D01*
X225157494Y-127403203D01*
X225156156Y-127411312D01*
X225152790Y-127428233D01*
X225148392Y-127457885D01*
X225145971Y-127482465D01*
X225145324Y-127495643D01*
X225144866Y-127499117D01*
X225144037Y-127501941D01*
X225145012Y-127501989D01*
X225144500Y-127512410D01*
X225144500Y-128491742D01*
X225144532Y-128492709D01*
X225144532Y-128492731D01*
X225145121Y-128510727D01*
X225145154Y-128511724D01*
X225146232Y-128528170D01*
X225148192Y-128548064D01*
X225161986Y-128652839D01*
X225169781Y-128692030D01*
X225178294Y-128723802D01*
X225178957Y-128725755D01*
X225190471Y-128759676D01*
X225190477Y-128759693D01*
X225191140Y-128761645D01*
X225228394Y-128851584D01*
X225246071Y-128887428D01*
X225262518Y-128915914D01*
X225263662Y-128917626D01*
X225263670Y-128917639D01*
X225283568Y-128947418D01*
X225284717Y-128949137D01*
X225343980Y-129026370D01*
X225370328Y-129056414D01*
X225393586Y-129079672D01*
X225423630Y-129106020D01*
X225500863Y-129165283D01*
X225502574Y-129166426D01*
X225502582Y-129166432D01*
X225532361Y-129186330D01*
X225532374Y-129186338D01*
X225534086Y-129187482D01*
X225562572Y-129203929D01*
X225598416Y-129221606D01*
X225600325Y-129222397D01*
X225600330Y-129222399D01*
X225686440Y-129258067D01*
X225686446Y-129258069D01*
X225688355Y-129258860D01*
X225690307Y-129259523D01*
X225690324Y-129259529D01*
X225715964Y-129268232D01*
X225726198Y-129271706D01*
X225746056Y-129277027D01*
X225755965Y-129279682D01*
X225755971Y-129279683D01*
X225757970Y-129280219D01*
X225759996Y-129280622D01*
X225760009Y-129280625D01*
X225795129Y-129287610D01*
X225795134Y-129287611D01*
X225797161Y-129288014D01*
X225901936Y-129301808D01*
X225902960Y-129301909D01*
X225902987Y-129301912D01*
X225915414Y-129303136D01*
X225921830Y-129303768D01*
X225938276Y-129304846D01*
X225939251Y-129304878D01*
X225939273Y-129304879D01*
X225957269Y-129305468D01*
X225957291Y-129305468D01*
X225958258Y-129305500D01*
X231416742Y-129305500D01*
X231417709Y-129305468D01*
X231417731Y-129305468D01*
X231435727Y-129304879D01*
X231435749Y-129304878D01*
X231436724Y-129304846D01*
X231453170Y-129303768D01*
X231459586Y-129303136D01*
X231472013Y-129301912D01*
X231472040Y-129301909D01*
X231473064Y-129301808D01*
X231577839Y-129288014D01*
X231579866Y-129287611D01*
X231579871Y-129287610D01*
X231614991Y-129280625D01*
X231615004Y-129280622D01*
X231617030Y-129280219D01*
X231619029Y-129279683D01*
X231619035Y-129279682D01*
X231628944Y-129277027D01*
X231648802Y-129271706D01*
X231659036Y-129268232D01*
X231684676Y-129259529D01*
X231684693Y-129259523D01*
X231686645Y-129258860D01*
X231688554Y-129258069D01*
X231688560Y-129258067D01*
X231774670Y-129222399D01*
X231774675Y-129222397D01*
X231776584Y-129221606D01*
X231812428Y-129203929D01*
X231840914Y-129187482D01*
X231842626Y-129186338D01*
X231842639Y-129186330D01*
X231872418Y-129166432D01*
X231872426Y-129166426D01*
X231874137Y-129165283D01*
X231951370Y-129106020D01*
X231981414Y-129079672D01*
X232004672Y-129056414D01*
X232031020Y-129026370D01*
X232090283Y-128949137D01*
X232091432Y-128947418D01*
X232111330Y-128917639D01*
X232111338Y-128917626D01*
X232112482Y-128915914D01*
X232128929Y-128887428D01*
X232146606Y-128851584D01*
X232183860Y-128761645D01*
X232184523Y-128759693D01*
X232184529Y-128759676D01*
X232196043Y-128725755D01*
X232196706Y-128723802D01*
X232205219Y-128692030D01*
X232213014Y-128652839D01*
X232226808Y-128548064D01*
X232228768Y-128528170D01*
X232229846Y-128511724D01*
X232229879Y-128510727D01*
X232230468Y-128492731D01*
X232230468Y-128492709D01*
X232230500Y-128491742D01*
X232230500Y-122758258D01*
X232229846Y-122738276D01*
X232228768Y-122721830D01*
X232226808Y-122701936D01*
X232213014Y-122597161D01*
X232205219Y-122557970D01*
X232196706Y-122526198D01*
X232195269Y-122521965D01*
X232184529Y-122490324D01*
X232184523Y-122490307D01*
X232183860Y-122488355D01*
X232146606Y-122398416D01*
X232128929Y-122362572D01*
X232112482Y-122334086D01*
X232111338Y-122332374D01*
X232111330Y-122332361D01*
X232091432Y-122302582D01*
X232091426Y-122302574D01*
X232090283Y-122300863D01*
X232031020Y-122223630D01*
X232004672Y-122193586D01*
X231981414Y-122170328D01*
X231951370Y-122143980D01*
X231874137Y-122084717D01*
X231872426Y-122083574D01*
X231872418Y-122083568D01*
X231842639Y-122063670D01*
X231842626Y-122063662D01*
X231840914Y-122062518D01*
X231812428Y-122046071D01*
X231776584Y-122028394D01*
X231774670Y-122027601D01*
X231688560Y-121991933D01*
X231688554Y-121991931D01*
X231686645Y-121991140D01*
X231684693Y-121990477D01*
X231684676Y-121990471D01*
X231650755Y-121978957D01*
X231650756Y-121978957D01*
X231648802Y-121978294D01*
X231628944Y-121972973D01*
X231619035Y-121970318D01*
X231619029Y-121970317D01*
X231617030Y-121969781D01*
X231615004Y-121969378D01*
X231614991Y-121969375D01*
X231579871Y-121962390D01*
X231579866Y-121962389D01*
X231577839Y-121961986D01*
X231473064Y-121948192D01*
X231472040Y-121948091D01*
X231472013Y-121948088D01*
X231459586Y-121946864D01*
X231453170Y-121946232D01*
X231436724Y-121945154D01*
X231435749Y-121945122D01*
X231435727Y-121945121D01*
X231417731Y-121944532D01*
X231417709Y-121944532D01*
X231416742Y-121944500D01*
X220903278Y-121944500D01*
X220886833Y-121943422D01*
X220871666Y-121941425D01*
X220841790Y-121937492D01*
X220810019Y-121928980D01*
X220794392Y-121922506D01*
X220765910Y-121906062D01*
X220752494Y-121895768D01*
X220729232Y-121872506D01*
X220718938Y-121859090D01*
X220702494Y-121830609D01*
X220696021Y-121814983D01*
X220687507Y-121783207D01*
X220681578Y-121738167D01*
X220680500Y-121721722D01*
X220680500Y-119846069D01*
X226350164Y-119846069D01*
X226363392Y-120047894D01*
X226383555Y-120127286D01*
X226406265Y-120216706D01*
X226413178Y-120243928D01*
X226497856Y-120427607D01*
X226614588Y-120592780D01*
X226759466Y-120733913D01*
X226927637Y-120846282D01*
X226932940Y-120848560D01*
X226932943Y-120848562D01*
X227021291Y-120886519D01*
X227113470Y-120926122D01*
X227310740Y-120970760D01*
X227316509Y-120970987D01*
X227316512Y-120970987D01*
X227392683Y-120973979D01*
X227512842Y-120978700D01*
X227599132Y-120966189D01*
X227707286Y-120950508D01*
X227707291Y-120950507D01*
X227713007Y-120949678D01*
X227718479Y-120947820D01*
X227718481Y-120947820D01*
X227899067Y-120886519D01*
X227899069Y-120886518D01*
X227904531Y-120884664D01*
X228081001Y-120785837D01*
X228143433Y-120733913D01*
X228232073Y-120660191D01*
X228236505Y-120656505D01*
X228365837Y-120501001D01*
X228464664Y-120324531D01*
X228486881Y-120259084D01*
X228527820Y-120138481D01*
X228527820Y-120138479D01*
X228529678Y-120133007D01*
X228530507Y-120127291D01*
X228530508Y-120127286D01*
X228558167Y-119936516D01*
X228558700Y-119932842D01*
X228560215Y-119875000D01*
X228541708Y-119673591D01*
X228486807Y-119478926D01*
X228397351Y-119297527D01*
X228379079Y-119273057D01*
X228279788Y-119140091D01*
X228279787Y-119140090D01*
X228276335Y-119135467D01*
X228258264Y-119118762D01*
X228132053Y-119002094D01*
X228132051Y-119002092D01*
X228127812Y-118998174D01*
X228100374Y-118980862D01*
X227961637Y-118893325D01*
X227956757Y-118890246D01*
X227768898Y-118815298D01*
X227570526Y-118775839D01*
X227564752Y-118775763D01*
X227564748Y-118775763D01*
X227462257Y-118774422D01*
X227368286Y-118773192D01*
X227362589Y-118774171D01*
X227362588Y-118774171D01*
X227174646Y-118806465D01*
X227174645Y-118806465D01*
X227168949Y-118807444D01*
X226979193Y-118877449D01*
X226805371Y-118980862D01*
X226653305Y-119114220D01*
X226528089Y-119273057D01*
X226433914Y-119452053D01*
X226373937Y-119645213D01*
X226350164Y-119846069D01*
X220680500Y-119846069D01*
X220680500Y-118383258D01*
X220679950Y-118366432D01*
X220679879Y-118364273D01*
X220679878Y-118364251D01*
X220679846Y-118363276D01*
X220678768Y-118346830D01*
X220676808Y-118326936D01*
X220663014Y-118222161D01*
X220655219Y-118182970D01*
X220646706Y-118151198D01*
X220645269Y-118146965D01*
X220634529Y-118115324D01*
X220634523Y-118115307D01*
X220633860Y-118113355D01*
X220623861Y-118089214D01*
X220597399Y-118025330D01*
X220597397Y-118025325D01*
X220596606Y-118023416D01*
X220578929Y-117987572D01*
X220563960Y-117961645D01*
X220563519Y-117960882D01*
X220563518Y-117960881D01*
X220562482Y-117959086D01*
X220561338Y-117957374D01*
X220561330Y-117957361D01*
X220541432Y-117927582D01*
X220541426Y-117927574D01*
X220540283Y-117925863D01*
X220481020Y-117848630D01*
X220454672Y-117818586D01*
X220431414Y-117795328D01*
X220401370Y-117768980D01*
X220324137Y-117709717D01*
X220322426Y-117708574D01*
X220322418Y-117708568D01*
X220292639Y-117688670D01*
X220292626Y-117688662D01*
X220290914Y-117687518D01*
X220262428Y-117671071D01*
X220226584Y-117653394D01*
X220224670Y-117652601D01*
X220138560Y-117616933D01*
X220138554Y-117616931D01*
X220136645Y-117616140D01*
X220134693Y-117615477D01*
X220134676Y-117615471D01*
X220100755Y-117603957D01*
X220100756Y-117603957D01*
X220098802Y-117603294D01*
X220078944Y-117597973D01*
X220069035Y-117595318D01*
X220069029Y-117595317D01*
X220067030Y-117594781D01*
X220065004Y-117594378D01*
X220064991Y-117594375D01*
X220029871Y-117587390D01*
X220029866Y-117587389D01*
X220027839Y-117586986D01*
X219923064Y-117573192D01*
X219922040Y-117573091D01*
X219922013Y-117573088D01*
X219909586Y-117571864D01*
X219903170Y-117571232D01*
X219886724Y-117570154D01*
X219885749Y-117570122D01*
X219885727Y-117570121D01*
X219867731Y-117569532D01*
X219867709Y-117569532D01*
X219866742Y-117569500D01*
X218292790Y-117569500D01*
X218224669Y-117549498D01*
X218178176Y-117495842D01*
X218168072Y-117425568D01*
X218195915Y-117362932D01*
X218202142Y-117355445D01*
X218202147Y-117355438D01*
X218205837Y-117351001D01*
X218304664Y-117174531D01*
X218369678Y-116983007D01*
X218370507Y-116977291D01*
X218370508Y-116977286D01*
X218398167Y-116786516D01*
X218398700Y-116782842D01*
X218400215Y-116725000D01*
X218397557Y-116696069D01*
X226350164Y-116696069D01*
X226363392Y-116897894D01*
X226413178Y-117093928D01*
X226497856Y-117277607D01*
X226614588Y-117442780D01*
X226759466Y-117583913D01*
X226764270Y-117587123D01*
X226789464Y-117603957D01*
X226927637Y-117696282D01*
X226932940Y-117698560D01*
X226932943Y-117698562D01*
X227099996Y-117770333D01*
X227113470Y-117776122D01*
X227310740Y-117820760D01*
X227316509Y-117820987D01*
X227316512Y-117820987D01*
X227392683Y-117823979D01*
X227512842Y-117828700D01*
X227599132Y-117816189D01*
X227707286Y-117800508D01*
X227707291Y-117800507D01*
X227713007Y-117799678D01*
X227718479Y-117797820D01*
X227718481Y-117797820D01*
X227899067Y-117736519D01*
X227899069Y-117736518D01*
X227904531Y-117734664D01*
X228048011Y-117654312D01*
X228075964Y-117638658D01*
X228075965Y-117638657D01*
X228081001Y-117635837D01*
X228103731Y-117616933D01*
X228219356Y-117520768D01*
X228236505Y-117506505D01*
X228365837Y-117351001D01*
X228464664Y-117174531D01*
X228529678Y-116983007D01*
X228530507Y-116977291D01*
X228530508Y-116977286D01*
X228558167Y-116786516D01*
X228558700Y-116782842D01*
X228560215Y-116725000D01*
X228541708Y-116523591D01*
X228486807Y-116328926D01*
X228397351Y-116147527D01*
X228379079Y-116123057D01*
X228279788Y-115990091D01*
X228279787Y-115990090D01*
X228276335Y-115985467D01*
X228253350Y-115964220D01*
X228132053Y-115852094D01*
X228132051Y-115852092D01*
X228127812Y-115848174D01*
X228100374Y-115830862D01*
X227961637Y-115743325D01*
X227956757Y-115740246D01*
X227768898Y-115665298D01*
X227570526Y-115625839D01*
X227564752Y-115625763D01*
X227564748Y-115625763D01*
X227462257Y-115624422D01*
X227368286Y-115623192D01*
X227362589Y-115624171D01*
X227362588Y-115624171D01*
X227174646Y-115656465D01*
X227174645Y-115656465D01*
X227168949Y-115657444D01*
X226979193Y-115727449D01*
X226805371Y-115830862D01*
X226653305Y-115964220D01*
X226528089Y-116123057D01*
X226433914Y-116302053D01*
X226373937Y-116495213D01*
X226350164Y-116696069D01*
X218397557Y-116696069D01*
X218381708Y-116523591D01*
X218326807Y-116328926D01*
X218237351Y-116147527D01*
X218219079Y-116123057D01*
X218119788Y-115990091D01*
X218119787Y-115990090D01*
X218116335Y-115985467D01*
X218093350Y-115964220D01*
X217972053Y-115852094D01*
X217972051Y-115852092D01*
X217967812Y-115848174D01*
X217940374Y-115830862D01*
X217801637Y-115743325D01*
X217796757Y-115740246D01*
X217608898Y-115665298D01*
X217410526Y-115625839D01*
X217404752Y-115625763D01*
X217404748Y-115625763D01*
X217302257Y-115624422D01*
X217208286Y-115623192D01*
X217202589Y-115624171D01*
X217202588Y-115624171D01*
X217014646Y-115656465D01*
X217014645Y-115656465D01*
X217008949Y-115657444D01*
X216819193Y-115727449D01*
X216645371Y-115830862D01*
X216493305Y-115964220D01*
X216368089Y-116123057D01*
X216273914Y-116302053D01*
X216213937Y-116495213D01*
X216190164Y-116696069D01*
X216203392Y-116897894D01*
X216253178Y-117093928D01*
X216337856Y-117277607D01*
X216398324Y-117363167D01*
X216403704Y-117370780D01*
X216426685Y-117437954D01*
X216409701Y-117506889D01*
X216358143Y-117555699D01*
X216300807Y-117569500D01*
X215853278Y-117569500D01*
X215836833Y-117568422D01*
X215821666Y-117566425D01*
X215791790Y-117562492D01*
X215760019Y-117553980D01*
X215744392Y-117547506D01*
X215715910Y-117531062D01*
X215702494Y-117520768D01*
X215679232Y-117497506D01*
X215668938Y-117484090D01*
X215652494Y-117455609D01*
X215646021Y-117439983D01*
X215637507Y-117408207D01*
X215631578Y-117363167D01*
X215630500Y-117346722D01*
X215630500Y-117033258D01*
X215629846Y-117013276D01*
X215628768Y-116996830D01*
X215626808Y-116976936D01*
X215618970Y-116917402D01*
X215619196Y-116882875D01*
X215633167Y-116786516D01*
X215633700Y-116782842D01*
X215635215Y-116725000D01*
X215616708Y-116523591D01*
X215561807Y-116328926D01*
X215472351Y-116147527D01*
X215454079Y-116123057D01*
X215354788Y-115990091D01*
X215354787Y-115990090D01*
X215351335Y-115985467D01*
X215328350Y-115964220D01*
X215207053Y-115852094D01*
X215207051Y-115852092D01*
X215202812Y-115848174D01*
X215175374Y-115830862D01*
X215036637Y-115743325D01*
X215031757Y-115740246D01*
X214843898Y-115665298D01*
X214645526Y-115625839D01*
X214639752Y-115625763D01*
X214639748Y-115625763D01*
X214537257Y-115624422D01*
X214443286Y-115623192D01*
X214437589Y-115624171D01*
X214437588Y-115624171D01*
X214249646Y-115656465D01*
X214249645Y-115656465D01*
X214243949Y-115657444D01*
X214054193Y-115727449D01*
X213880371Y-115830862D01*
X213728305Y-115964220D01*
X213603089Y-116123057D01*
X213508914Y-116302053D01*
X213448937Y-116495213D01*
X213425164Y-116696069D01*
X213425542Y-116701835D01*
X213435987Y-116861199D01*
X213435179Y-116885887D01*
X213423192Y-116976936D01*
X213421232Y-116996830D01*
X213420154Y-117013276D01*
X213419500Y-117033258D01*
X213419500Y-117691742D01*
X213419532Y-117692709D01*
X213419532Y-117692731D01*
X213420088Y-117709717D01*
X213420154Y-117711724D01*
X213421232Y-117728170D01*
X213421332Y-117729183D01*
X213422055Y-117736519D01*
X213423192Y-117748064D01*
X213436986Y-117852839D01*
X213444781Y-117892030D01*
X213453294Y-117923802D01*
X213453957Y-117925755D01*
X213465471Y-117959676D01*
X213465477Y-117959693D01*
X213466140Y-117961645D01*
X213466931Y-117963554D01*
X213466933Y-117963560D01*
X213491726Y-118023416D01*
X213503394Y-118051584D01*
X213521071Y-118087428D01*
X213522100Y-118089210D01*
X213522102Y-118089214D01*
X213536481Y-118114118D01*
X213537518Y-118115914D01*
X213538662Y-118117626D01*
X213538670Y-118117639D01*
X213558568Y-118147418D01*
X213559717Y-118149137D01*
X213618980Y-118226370D01*
X213645328Y-118256414D01*
X213668586Y-118279672D01*
X213698630Y-118306020D01*
X213775863Y-118365283D01*
X213777574Y-118366426D01*
X213777582Y-118366432D01*
X213807361Y-118386330D01*
X213807374Y-118386338D01*
X213809086Y-118387482D01*
X213837572Y-118403929D01*
X213873416Y-118421606D01*
X213875325Y-118422397D01*
X213875330Y-118422399D01*
X213961440Y-118458067D01*
X213961446Y-118458069D01*
X213963355Y-118458860D01*
X213965307Y-118459523D01*
X213965324Y-118459529D01*
X213996965Y-118470269D01*
X214001198Y-118471706D01*
X214021056Y-118477027D01*
X214030965Y-118479682D01*
X214030971Y-118479683D01*
X214032970Y-118480219D01*
X214034996Y-118480622D01*
X214035009Y-118480625D01*
X214070129Y-118487610D01*
X214070134Y-118487611D01*
X214072161Y-118488014D01*
X214176936Y-118501808D01*
X214177960Y-118501909D01*
X214177987Y-118501912D01*
X214190414Y-118503136D01*
X214196830Y-118503768D01*
X214213276Y-118504846D01*
X214214251Y-118504878D01*
X214214273Y-118504879D01*
X214232269Y-118505468D01*
X214232291Y-118505468D01*
X214233258Y-118505500D01*
X218721722Y-118505500D01*
X218738167Y-118506578D01*
X218753334Y-118508575D01*
X218783210Y-118512508D01*
X218814981Y-118521020D01*
X218827436Y-118526180D01*
X218830609Y-118527494D01*
X218859090Y-118543938D01*
X218872506Y-118554232D01*
X218895768Y-118577494D01*
X218906062Y-118590910D01*
X218922506Y-118619391D01*
X218928979Y-118635017D01*
X218937493Y-118666793D01*
X218943422Y-118711833D01*
X218944500Y-118728278D01*
X218944500Y-122621722D01*
X218943422Y-122638167D01*
X218937493Y-122683207D01*
X218928979Y-122714983D01*
X218922506Y-122730609D01*
X218906062Y-122759090D01*
X218895768Y-122772506D01*
X218872506Y-122795768D01*
X218859090Y-122806062D01*
X218830608Y-122822506D01*
X218814981Y-122828980D01*
X218783210Y-122837492D01*
X218753334Y-122841425D01*
X218738167Y-122843422D01*
X218721722Y-122844500D01*
X208883258Y-122844500D01*
X208882291Y-122844532D01*
X208882269Y-122844532D01*
X208864273Y-122845121D01*
X208864251Y-122845122D01*
X208863276Y-122845154D01*
X208846830Y-122846232D01*
X208840414Y-122846864D01*
X208827987Y-122848088D01*
X208827960Y-122848091D01*
X208826936Y-122848192D01*
X208722161Y-122861986D01*
X208720134Y-122862389D01*
X208720129Y-122862390D01*
X208685009Y-122869375D01*
X208684996Y-122869378D01*
X208682970Y-122869781D01*
X208680971Y-122870317D01*
X208680965Y-122870318D01*
X208671056Y-122872973D01*
X208651198Y-122878294D01*
X208649244Y-122878957D01*
X208649245Y-122878957D01*
X208615324Y-122890471D01*
X208615307Y-122890477D01*
X208613355Y-122891140D01*
X208611446Y-122891931D01*
X208611440Y-122891933D01*
X208525330Y-122927601D01*
X208523416Y-122928394D01*
X208487572Y-122946071D01*
X208459086Y-122962518D01*
X208457374Y-122963662D01*
X208457361Y-122963670D01*
X208427582Y-122983568D01*
X208427574Y-122983574D01*
X208425863Y-122984717D01*
X208348630Y-123043980D01*
X208318586Y-123070328D01*
X208295328Y-123093586D01*
X208268980Y-123123630D01*
X208209717Y-123200863D01*
X208208574Y-123202574D01*
X208208568Y-123202582D01*
X208188670Y-123232361D01*
X208188662Y-123232374D01*
X208187518Y-123234086D01*
X208171071Y-123262572D01*
X208153394Y-123298416D01*
X208116140Y-123388355D01*
X208115477Y-123390307D01*
X208115471Y-123390324D01*
X208104731Y-123421965D01*
X208103294Y-123426198D01*
X208102762Y-123428185D01*
X208095653Y-123454717D01*
X208094781Y-123457970D01*
X208086986Y-123497161D01*
X208073192Y-123601936D01*
X208071232Y-123621830D01*
X208070154Y-123638276D01*
X208069500Y-123658258D01*
X208069500Y-126066742D01*
X207305500Y-126066742D01*
X207305500Y-121209836D01*
X207306577Y-121193394D01*
X207306966Y-121190444D01*
X207335685Y-121125518D01*
X207394949Y-121086424D01*
X207415440Y-121081966D01*
X207418401Y-121081577D01*
X207434836Y-121080500D01*
X214216742Y-121080500D01*
X214217708Y-121080468D01*
X214217732Y-121080468D01*
X214242269Y-121079665D01*
X214242293Y-121079664D01*
X214243265Y-121079632D01*
X214244253Y-121079567D01*
X214244278Y-121079566D01*
X214256486Y-121078765D01*
X214259711Y-121078554D01*
X214286117Y-121075953D01*
X214287148Y-121075817D01*
X214287159Y-121075816D01*
X214388856Y-121062427D01*
X214388855Y-121062427D01*
X214390892Y-121062159D01*
X214392893Y-121061761D01*
X214392905Y-121061759D01*
X214440885Y-121052215D01*
X214442911Y-121051812D01*
X214444891Y-121051282D01*
X214444906Y-121051278D01*
X214472676Y-121043837D01*
X214472683Y-121043835D01*
X214474683Y-121043299D01*
X214524913Y-121026248D01*
X214614852Y-120988994D01*
X214616680Y-120988093D01*
X214616690Y-120988088D01*
X214637407Y-120977871D01*
X214639852Y-120976665D01*
X214677499Y-120964976D01*
X214735121Y-120956621D01*
X214777284Y-120950508D01*
X214777286Y-120950507D01*
X214783007Y-120949678D01*
X214788479Y-120947820D01*
X214788481Y-120947820D01*
X214969067Y-120886519D01*
X214969069Y-120886518D01*
X214974531Y-120884664D01*
X215151001Y-120785837D01*
X215213433Y-120733913D01*
X215302073Y-120660191D01*
X215306505Y-120656505D01*
X215435837Y-120501001D01*
X215534664Y-120324531D01*
X215556881Y-120259084D01*
X215597820Y-120138481D01*
X215597820Y-120138479D01*
X215599678Y-120133007D01*
X215600507Y-120127291D01*
X215600508Y-120127286D01*
X215628167Y-119936516D01*
X215628700Y-119932842D01*
X215630215Y-119875000D01*
X215627557Y-119846069D01*
X216190164Y-119846069D01*
X216203392Y-120047894D01*
X216223555Y-120127286D01*
X216246265Y-120216706D01*
X216253178Y-120243928D01*
X216337856Y-120427607D01*
X216454588Y-120592780D01*
X216599466Y-120733913D01*
X216767637Y-120846282D01*
X216772940Y-120848560D01*
X216772943Y-120848562D01*
X216861291Y-120886519D01*
X216953470Y-120926122D01*
X217150740Y-120970760D01*
X217156509Y-120970987D01*
X217156512Y-120970987D01*
X217232683Y-120973979D01*
X217352842Y-120978700D01*
X217439132Y-120966189D01*
X217547286Y-120950508D01*
X217547291Y-120950507D01*
X217553007Y-120949678D01*
X217558479Y-120947820D01*
X217558481Y-120947820D01*
X217739067Y-120886519D01*
X217739069Y-120886518D01*
X217744531Y-120884664D01*
X217921001Y-120785837D01*
X217983433Y-120733913D01*
X218072073Y-120660191D01*
X218076505Y-120656505D01*
X218205837Y-120501001D01*
X218304664Y-120324531D01*
X218326881Y-120259084D01*
X218367820Y-120138481D01*
X218367820Y-120138479D01*
X218369678Y-120133007D01*
X218370507Y-120127291D01*
X218370508Y-120127286D01*
X218398167Y-119936516D01*
X218398700Y-119932842D01*
X218400215Y-119875000D01*
X218381708Y-119673591D01*
X218326807Y-119478926D01*
X218237351Y-119297527D01*
X218219079Y-119273057D01*
X218119788Y-119140091D01*
X218119787Y-119140090D01*
X218116335Y-119135467D01*
X218098264Y-119118762D01*
X217972053Y-119002094D01*
X217972051Y-119002092D01*
X217967812Y-118998174D01*
X217940374Y-118980862D01*
X217801637Y-118893325D01*
X217796757Y-118890246D01*
X217608898Y-118815298D01*
X217410526Y-118775839D01*
X217404752Y-118775763D01*
X217404748Y-118775763D01*
X217302257Y-118774422D01*
X217208286Y-118773192D01*
X217202589Y-118774171D01*
X217202588Y-118774171D01*
X217014646Y-118806465D01*
X217014645Y-118806465D01*
X217008949Y-118807444D01*
X216819193Y-118877449D01*
X216645371Y-118980862D01*
X216493305Y-119114220D01*
X216368089Y-119273057D01*
X216273914Y-119452053D01*
X216213937Y-119645213D01*
X216190164Y-119846069D01*
X215627557Y-119846069D01*
X215611708Y-119673591D01*
X215556807Y-119478926D01*
X215467351Y-119297527D01*
X215449079Y-119273057D01*
X215349788Y-119140091D01*
X215349787Y-119140090D01*
X215346335Y-119135467D01*
X215328264Y-119118762D01*
X215202053Y-119002094D01*
X215202051Y-119002092D01*
X215197812Y-118998174D01*
X215170374Y-118980862D01*
X215031637Y-118893325D01*
X215026757Y-118890246D01*
X214838898Y-118815298D01*
X214640526Y-118775839D01*
X214634752Y-118775763D01*
X214634748Y-118775763D01*
X214532257Y-118774422D01*
X214438286Y-118773192D01*
X214432589Y-118774171D01*
X214432588Y-118774171D01*
X214244646Y-118806465D01*
X214244645Y-118806465D01*
X214238949Y-118807444D01*
X214049193Y-118877449D01*
X213875371Y-118980862D01*
X213723305Y-119114220D01*
X213679288Y-119170056D01*
X213654404Y-119193982D01*
X213632265Y-119210068D01*
X213583889Y-119251386D01*
X213526386Y-119308889D01*
X213485068Y-119357265D01*
X213483622Y-119359255D01*
X213483615Y-119359264D01*
X213463355Y-119387148D01*
X213463349Y-119387157D01*
X213461898Y-119389154D01*
X213428643Y-119443420D01*
X213391720Y-119515887D01*
X213367372Y-119574670D01*
X213355192Y-119612156D01*
X213354613Y-119614568D01*
X213347256Y-119645213D01*
X213340338Y-119674027D01*
X213334132Y-119713210D01*
X213303720Y-119777363D01*
X213243452Y-119814891D01*
X213209683Y-119819500D01*
X206858258Y-119819500D01*
X206857292Y-119819532D01*
X206857268Y-119819532D01*
X206832731Y-119820335D01*
X206832707Y-119820336D01*
X206831735Y-119820368D01*
X206830747Y-119820433D01*
X206830722Y-119820434D01*
X206818514Y-119821235D01*
X206815289Y-119821446D01*
X206788883Y-119824047D01*
X206787852Y-119824183D01*
X206787841Y-119824184D01*
X206706790Y-119834855D01*
X206684108Y-119837841D01*
X206682107Y-119838239D01*
X206682095Y-119838241D01*
X206642742Y-119846069D01*
X206632089Y-119848188D01*
X206630109Y-119848718D01*
X206630094Y-119848722D01*
X206602324Y-119856163D01*
X206602317Y-119856165D01*
X206600317Y-119856701D01*
X206550087Y-119873752D01*
X206460148Y-119911006D01*
X206458308Y-119911913D01*
X206458300Y-119911917D01*
X206423390Y-119929133D01*
X206412570Y-119934469D01*
X206410790Y-119935497D01*
X206410782Y-119935501D01*
X206385880Y-119949879D01*
X206384084Y-119950916D01*
X206382360Y-119952068D01*
X206341706Y-119979232D01*
X206341698Y-119979238D01*
X206339987Y-119980381D01*
X206262754Y-120039644D01*
X206222875Y-120074617D01*
X206199617Y-120097875D01*
X206164644Y-120137754D01*
X206105381Y-120214987D01*
X206075916Y-120259084D01*
X206059469Y-120287570D01*
X206058560Y-120289413D01*
X206058558Y-120289417D01*
X206038760Y-120329564D01*
X206036006Y-120335148D01*
X205998752Y-120425087D01*
X205981701Y-120475317D01*
X205981165Y-120477317D01*
X205981163Y-120477324D01*
X205973722Y-120505094D01*
X205973718Y-120505109D01*
X205973188Y-120507089D01*
X205962841Y-120559108D01*
X205949047Y-120663883D01*
X205946446Y-120690289D01*
X205945368Y-120706735D01*
X205945336Y-120707707D01*
X205945335Y-120707731D01*
X205944532Y-120732268D01*
X205944500Y-120733258D01*
X205944500Y-125765164D01*
X205943423Y-125781599D01*
X205943034Y-125784556D01*
X205914315Y-125849482D01*
X205855051Y-125888576D01*
X205834560Y-125893034D01*
X205831599Y-125893423D01*
X205815164Y-125894500D01*
X204483258Y-125894500D01*
X204482292Y-125894532D01*
X204482268Y-125894532D01*
X204457731Y-125895335D01*
X204457707Y-125895336D01*
X204456735Y-125895368D01*
X204455747Y-125895433D01*
X204455722Y-125895434D01*
X204443514Y-125896235D01*
X204440289Y-125896446D01*
X204413883Y-125899047D01*
X204412852Y-125899183D01*
X204412841Y-125899184D01*
X204341564Y-125908568D01*
X204309108Y-125912841D01*
X204307107Y-125913239D01*
X204307095Y-125913241D01*
X204259115Y-125922785D01*
X204257089Y-125923188D01*
X204255109Y-125923718D01*
X204255094Y-125923722D01*
X204227324Y-125931163D01*
X204227317Y-125931165D01*
X204225317Y-125931701D01*
X204175087Y-125948752D01*
X204085148Y-125986006D01*
X204083308Y-125986913D01*
X204083300Y-125986917D01*
X204039417Y-126008558D01*
X204037570Y-126009469D01*
X204035790Y-126010497D01*
X204035782Y-126010501D01*
X204021779Y-126018586D01*
X204009084Y-126025916D01*
X204007360Y-126027068D01*
X203990631Y-126038246D01*
X203968846Y-126049890D01*
X203930007Y-126065977D01*
X203930002Y-126065980D01*
X203922375Y-126069139D01*
X203807379Y-126157379D01*
X203802353Y-126163929D01*
X203751754Y-126229871D01*
X203719139Y-126272375D01*
X203673330Y-126382970D01*
X203669250Y-126392820D01*
X203665848Y-126400328D01*
X203661923Y-126408287D01*
X203661914Y-126408306D01*
X203661006Y-126410148D01*
X203623752Y-126500087D01*
X203623087Y-126502046D01*
X203620141Y-126510726D01*
X203606701Y-126550317D01*
X203606165Y-126552317D01*
X203606163Y-126552324D01*
X203598722Y-126580094D01*
X203598718Y-126580109D01*
X203598188Y-126582089D01*
X203597785Y-126584115D01*
X203588377Y-126631414D01*
X203587841Y-126634108D01*
X203574047Y-126738883D01*
X203571446Y-126765289D01*
X203571376Y-126766358D01*
X203570620Y-126777898D01*
X203570368Y-126781735D01*
X203570336Y-126782707D01*
X203570335Y-126782731D01*
X203569532Y-126807268D01*
X203569500Y-126808258D01*
X203569500Y-127541742D01*
X202350500Y-127541742D01*
X202350500Y-119846069D01*
X203260164Y-119846069D01*
X203273392Y-120047894D01*
X203293555Y-120127286D01*
X203316265Y-120216706D01*
X203323178Y-120243928D01*
X203407856Y-120427607D01*
X203524588Y-120592780D01*
X203669466Y-120733913D01*
X203837637Y-120846282D01*
X203842940Y-120848560D01*
X203842943Y-120848562D01*
X203931291Y-120886519D01*
X204023470Y-120926122D01*
X204220740Y-120970760D01*
X204226509Y-120970987D01*
X204226512Y-120970987D01*
X204302683Y-120973979D01*
X204422842Y-120978700D01*
X204509132Y-120966189D01*
X204617286Y-120950508D01*
X204617291Y-120950507D01*
X204623007Y-120949678D01*
X204628479Y-120947820D01*
X204628481Y-120947820D01*
X204809067Y-120886519D01*
X204809069Y-120886518D01*
X204814531Y-120884664D01*
X204991001Y-120785837D01*
X205053433Y-120733913D01*
X205142073Y-120660191D01*
X205146505Y-120656505D01*
X205275837Y-120501001D01*
X205374664Y-120324531D01*
X205396881Y-120259084D01*
X205437820Y-120138481D01*
X205437820Y-120138479D01*
X205439678Y-120133007D01*
X205440507Y-120127291D01*
X205440508Y-120127286D01*
X205468167Y-119936516D01*
X205468700Y-119932842D01*
X205470215Y-119875000D01*
X205451708Y-119673591D01*
X205396807Y-119478926D01*
X205307351Y-119297527D01*
X205289079Y-119273057D01*
X205189788Y-119140091D01*
X205189787Y-119140090D01*
X205186335Y-119135467D01*
X205168264Y-119118762D01*
X205042053Y-119002094D01*
X205042051Y-119002092D01*
X205037812Y-118998174D01*
X205010374Y-118980862D01*
X204871637Y-118893325D01*
X204866757Y-118890246D01*
X204678898Y-118815298D01*
X204480526Y-118775839D01*
X204474752Y-118775763D01*
X204474748Y-118775763D01*
X204372257Y-118774422D01*
X204278286Y-118773192D01*
X204272589Y-118774171D01*
X204272588Y-118774171D01*
X204084646Y-118806465D01*
X204084645Y-118806465D01*
X204078949Y-118807444D01*
X203889193Y-118877449D01*
X203715371Y-118980862D01*
X203563305Y-119114220D01*
X203438089Y-119273057D01*
X203343914Y-119452053D01*
X203283937Y-119645213D01*
X203260164Y-119846069D01*
X202350500Y-119846069D01*
X202350500Y-116696069D01*
X203265164Y-116696069D01*
X203278392Y-116897894D01*
X203328178Y-117093928D01*
X203412856Y-117277607D01*
X203529588Y-117442780D01*
X203674466Y-117583913D01*
X203679270Y-117587123D01*
X203704464Y-117603957D01*
X203842637Y-117696282D01*
X203847940Y-117698560D01*
X203847943Y-117698562D01*
X204014996Y-117770333D01*
X204028470Y-117776122D01*
X204225740Y-117820760D01*
X204231509Y-117820987D01*
X204231512Y-117820987D01*
X204307683Y-117823979D01*
X204427842Y-117828700D01*
X204514132Y-117816189D01*
X204622286Y-117800508D01*
X204622291Y-117800507D01*
X204628007Y-117799678D01*
X204633479Y-117797820D01*
X204633481Y-117797820D01*
X204814067Y-117736519D01*
X204814069Y-117736518D01*
X204819531Y-117734664D01*
X204963011Y-117654312D01*
X204990964Y-117638658D01*
X204990965Y-117638657D01*
X204996001Y-117635837D01*
X205018731Y-117616933D01*
X205134356Y-117520768D01*
X205151505Y-117506505D01*
X205280837Y-117351001D01*
X205379664Y-117174531D01*
X205444678Y-116983007D01*
X205445507Y-116977291D01*
X205445508Y-116977286D01*
X205473167Y-116786516D01*
X205473700Y-116782842D01*
X205475215Y-116725000D01*
X205456708Y-116523591D01*
X205401807Y-116328926D01*
X205312351Y-116147527D01*
X205294079Y-116123057D01*
X205194788Y-115990091D01*
X205194787Y-115990090D01*
X205191335Y-115985467D01*
X205168350Y-115964220D01*
X205047053Y-115852094D01*
X205047051Y-115852092D01*
X205042812Y-115848174D01*
X205015374Y-115830862D01*
X204876637Y-115743325D01*
X204871757Y-115740246D01*
X204683898Y-115665298D01*
X204485526Y-115625839D01*
X204479752Y-115625763D01*
X204479748Y-115625763D01*
X204377257Y-115624422D01*
X204283286Y-115623192D01*
X204277589Y-115624171D01*
X204277588Y-115624171D01*
X204089646Y-115656465D01*
X204089645Y-115656465D01*
X204083949Y-115657444D01*
X203894193Y-115727449D01*
X203720371Y-115830862D01*
X203568305Y-115964220D01*
X203443089Y-116123057D01*
X203348914Y-116302053D01*
X203288937Y-116495213D01*
X203265164Y-116696069D01*
X202350500Y-116696069D01*
X202350500Y-114851500D01*
X202370502Y-114783379D01*
X202424158Y-114736886D01*
X202476500Y-114725500D01*
X236498500Y-114725500D01*
X236566621Y-114745502D01*
G37*
%TD.AperFunction*%
%TA.AperFunction,Conductor*%
G36*
X230072099Y-123300502D02*
G01*
X230118592Y-123354158D01*
X230128696Y-123424432D01*
X230120387Y-123454717D01*
X230102807Y-123497161D01*
X230088670Y-123531291D01*
X230069750Y-123675000D01*
X230088670Y-123818709D01*
X230144139Y-123952625D01*
X230232379Y-124067621D01*
X230347375Y-124155861D01*
X230481291Y-124211330D01*
X230625000Y-124230250D01*
X230727054Y-124216814D01*
X230797202Y-124227753D01*
X230850301Y-124274881D01*
X230869500Y-124341736D01*
X230869500Y-127796722D01*
X230868422Y-127813167D01*
X230863334Y-127851822D01*
X230862493Y-127858207D01*
X230853979Y-127889983D01*
X230847506Y-127905609D01*
X230831062Y-127934090D01*
X230820768Y-127947506D01*
X230797506Y-127970768D01*
X230784090Y-127981062D01*
X230755608Y-127997506D01*
X230739981Y-128003980D01*
X230708210Y-128012492D01*
X230678846Y-128016358D01*
X230663167Y-128018422D01*
X230646722Y-128019500D01*
X226478278Y-128019500D01*
X226461833Y-128018422D01*
X226446154Y-128016358D01*
X226416790Y-128012492D01*
X226385019Y-128003980D01*
X226369392Y-127997506D01*
X226340910Y-127981062D01*
X226327494Y-127970768D01*
X226304232Y-127947506D01*
X226293938Y-127934090D01*
X226277494Y-127905609D01*
X226271021Y-127889983D01*
X226262507Y-127858207D01*
X226261667Y-127851822D01*
X226256578Y-127813167D01*
X226255500Y-127796722D01*
X226255500Y-127512410D01*
X226254988Y-127501989D01*
X226255661Y-127501956D01*
X226255227Y-127500174D01*
X226255250Y-127500000D01*
X226254676Y-127495643D01*
X226254029Y-127482465D01*
X226251608Y-127457885D01*
X226247210Y-127428233D01*
X226243844Y-127411312D01*
X226242506Y-127403203D01*
X226242229Y-127401094D01*
X226236330Y-127356291D01*
X226218865Y-127314127D01*
X226218326Y-127312728D01*
X226218105Y-127312000D01*
X226217235Y-127309900D01*
X226216647Y-127308375D01*
X226216134Y-127306941D01*
X226212022Y-127236064D01*
X226246881Y-127174215D01*
X226309646Y-127141031D01*
X226334771Y-127138500D01*
X229295913Y-127138500D01*
X229297953Y-127138366D01*
X229297962Y-127138366D01*
X229360879Y-127134242D01*
X229360892Y-127134241D01*
X229362947Y-127134106D01*
X229383929Y-127131343D01*
X229393532Y-127130079D01*
X229393535Y-127130078D01*
X229395559Y-127129812D01*
X229397554Y-127129415D01*
X229397561Y-127129414D01*
X229459427Y-127117107D01*
X229459426Y-127117107D01*
X229461433Y-127116708D01*
X229463408Y-127116179D01*
X229463420Y-127116176D01*
X229470568Y-127114260D01*
X229481548Y-127111318D01*
X229605393Y-127060018D01*
X229661876Y-127027407D01*
X229768222Y-126945804D01*
X229770804Y-126943222D01*
X229852419Y-126836856D01*
X229854607Y-126833067D01*
X229869555Y-126807173D01*
X229885033Y-126780362D01*
X229891717Y-126764224D01*
X229926174Y-126681020D01*
X229936333Y-126656490D01*
X229937278Y-126652962D01*
X229939492Y-126636144D01*
X229948950Y-126564273D01*
X229954764Y-126520101D01*
X229954764Y-126454899D01*
X229940859Y-126349245D01*
X229937817Y-126326131D01*
X229937816Y-126326126D01*
X229937278Y-126322038D01*
X229936333Y-126318510D01*
X229885033Y-126194638D01*
X229852419Y-126138144D01*
X229770804Y-126031778D01*
X229768222Y-126029196D01*
X229708704Y-125983526D01*
X229702952Y-125979112D01*
X229679694Y-125955854D01*
X229597647Y-125848929D01*
X229592621Y-125842379D01*
X229477625Y-125754139D01*
X229343709Y-125698670D01*
X229200000Y-125679750D01*
X229056291Y-125698670D01*
X228922375Y-125754139D01*
X228915824Y-125759166D01*
X228915822Y-125759167D01*
X228848974Y-125810462D01*
X228782754Y-125836063D01*
X228772270Y-125836500D01*
X217908258Y-125836500D01*
X217874671Y-125837600D01*
X217873609Y-125837670D01*
X217873601Y-125837670D01*
X217859272Y-125838609D01*
X217859250Y-125838611D01*
X217858225Y-125838678D01*
X217836412Y-125840826D01*
X217825840Y-125841867D01*
X217825828Y-125841868D01*
X217824786Y-125841971D01*
X217720011Y-125855765D01*
X217718005Y-125856164D01*
X217717999Y-125856165D01*
X217656164Y-125868465D01*
X217654138Y-125868868D01*
X217652158Y-125869398D01*
X217652143Y-125869402D01*
X217636123Y-125873695D01*
X217622366Y-125877381D01*
X217558757Y-125898973D01*
X217556848Y-125899764D01*
X217556842Y-125899766D01*
X217535593Y-125908568D01*
X217468818Y-125936227D01*
X217408569Y-125965939D01*
X217406789Y-125966967D01*
X217406781Y-125966971D01*
X217383916Y-125980173D01*
X217380083Y-125982386D01*
X217378389Y-125983518D01*
X217378376Y-125983526D01*
X217328117Y-126017109D01*
X217324241Y-126019699D01*
X217284895Y-126049890D01*
X217253256Y-126074168D01*
X217247008Y-126078962D01*
X217196508Y-126123250D01*
X217173250Y-126146508D01*
X217171898Y-126148050D01*
X217171893Y-126148055D01*
X217137237Y-126187572D01*
X217128962Y-126197008D01*
X217069699Y-126274241D01*
X217068562Y-126275942D01*
X217068561Y-126275944D01*
X217033526Y-126328376D01*
X217033518Y-126328389D01*
X217032386Y-126330083D01*
X217031356Y-126331867D01*
X217019048Y-126353185D01*
X217015939Y-126358569D01*
X216986227Y-126418818D01*
X216948973Y-126508757D01*
X216927381Y-126572366D01*
X216924776Y-126582089D01*
X216919402Y-126602143D01*
X216919398Y-126602158D01*
X216918868Y-126604138D01*
X216918465Y-126606164D01*
X216908455Y-126656490D01*
X216905765Y-126670011D01*
X216891971Y-126774786D01*
X216891868Y-126775828D01*
X216891867Y-126775840D01*
X216891563Y-126778929D01*
X216888678Y-126808225D01*
X216887600Y-126824671D01*
X216886500Y-126858258D01*
X216886500Y-129087590D01*
X216886576Y-129089131D01*
X216886576Y-129089143D01*
X216887467Y-129107276D01*
X216888973Y-129137923D01*
X216891394Y-129162503D01*
X216898787Y-129212343D01*
X216899089Y-129213861D01*
X216907882Y-129258067D01*
X216910506Y-129271262D01*
X216920883Y-129305468D01*
X216926481Y-129323924D01*
X216927114Y-129394918D01*
X216889265Y-129454984D01*
X216824950Y-129485053D01*
X216805906Y-129486500D01*
X215508258Y-129486500D01*
X215474671Y-129487600D01*
X215473609Y-129487670D01*
X215473601Y-129487670D01*
X215459272Y-129488609D01*
X215459250Y-129488611D01*
X215458225Y-129488678D01*
X215436412Y-129490826D01*
X215425840Y-129491867D01*
X215425828Y-129491868D01*
X215424786Y-129491971D01*
X215320011Y-129505765D01*
X215318005Y-129506164D01*
X215317999Y-129506165D01*
X215256164Y-129518465D01*
X215254138Y-129518868D01*
X215252158Y-129519398D01*
X215252143Y-129519402D01*
X215236123Y-129523695D01*
X215222366Y-129527381D01*
X215158757Y-129548973D01*
X215156848Y-129549764D01*
X215156842Y-129549766D01*
X215138519Y-129557356D01*
X215068818Y-129586227D01*
X215066971Y-129587138D01*
X215025258Y-129607709D01*
X215008569Y-129615939D01*
X215006789Y-129616967D01*
X215006781Y-129616971D01*
X214983916Y-129630173D01*
X214980083Y-129632386D01*
X214978389Y-129633518D01*
X214978376Y-129633526D01*
X214925944Y-129668561D01*
X214924241Y-129669699D01*
X214892265Y-129694235D01*
X214854352Y-129723327D01*
X214847008Y-129728962D01*
X214796508Y-129773250D01*
X214773246Y-129796512D01*
X214712282Y-129832429D01*
X214641339Y-129829675D01*
X214583146Y-129789004D01*
X214556181Y-129723327D01*
X214555500Y-129710247D01*
X214555500Y-126583258D01*
X214555397Y-126580094D01*
X214554879Y-126564273D01*
X214554878Y-126564251D01*
X214554846Y-126563276D01*
X214553768Y-126546830D01*
X214551808Y-126526936D01*
X214538014Y-126422161D01*
X214535625Y-126410148D01*
X214530625Y-126385009D01*
X214530622Y-126384996D01*
X214530219Y-126382970D01*
X214521706Y-126351198D01*
X214515144Y-126331867D01*
X214509529Y-126315324D01*
X214509523Y-126315307D01*
X214508860Y-126313355D01*
X214492659Y-126274241D01*
X214472399Y-126225330D01*
X214472397Y-126225325D01*
X214471606Y-126223416D01*
X214453929Y-126187572D01*
X214437482Y-126159086D01*
X214436338Y-126157374D01*
X214436330Y-126157361D01*
X214416432Y-126127582D01*
X214416426Y-126127574D01*
X214415283Y-126125863D01*
X214356020Y-126048630D01*
X214329672Y-126018586D01*
X214306414Y-125995328D01*
X214276370Y-125968980D01*
X214199137Y-125909717D01*
X214197426Y-125908574D01*
X214197418Y-125908568D01*
X214167639Y-125888670D01*
X214167626Y-125888662D01*
X214165914Y-125887518D01*
X214148357Y-125877381D01*
X214139214Y-125872102D01*
X214139210Y-125872100D01*
X214137428Y-125871071D01*
X214101584Y-125853394D01*
X214082524Y-125845499D01*
X214013560Y-125816933D01*
X214013554Y-125816931D01*
X214011645Y-125816140D01*
X214009693Y-125815477D01*
X214009676Y-125815471D01*
X213975755Y-125803957D01*
X213975756Y-125803957D01*
X213973802Y-125803294D01*
X213953944Y-125797973D01*
X213944035Y-125795318D01*
X213944029Y-125795317D01*
X213942030Y-125794781D01*
X213940004Y-125794378D01*
X213939991Y-125794375D01*
X213904871Y-125787390D01*
X213904866Y-125787389D01*
X213902839Y-125786986D01*
X213798064Y-125773192D01*
X213797040Y-125773091D01*
X213797013Y-125773088D01*
X213784586Y-125771864D01*
X213778170Y-125771232D01*
X213761724Y-125770154D01*
X213760749Y-125770122D01*
X213760727Y-125770121D01*
X213742731Y-125769532D01*
X213742709Y-125769532D01*
X213741742Y-125769500D01*
X209478278Y-125769500D01*
X209461833Y-125768422D01*
X209446666Y-125766425D01*
X209416790Y-125762492D01*
X209385019Y-125753980D01*
X209369392Y-125747506D01*
X209340910Y-125731062D01*
X209327494Y-125720768D01*
X209304232Y-125697506D01*
X209293938Y-125684090D01*
X209277494Y-125655609D01*
X209271021Y-125639983D01*
X209262507Y-125608207D01*
X209256578Y-125563167D01*
X209255500Y-125546722D01*
X209255500Y-124985271D01*
X209514376Y-124985271D01*
X209544514Y-125134735D01*
X209613734Y-125270588D01*
X209716939Y-125382822D01*
X209846523Y-125463168D01*
X209992940Y-125505706D01*
X210000005Y-125506225D01*
X210001445Y-125506331D01*
X210001456Y-125506331D01*
X210003752Y-125506500D01*
X224288194Y-125506500D01*
X224292439Y-125505918D01*
X224292446Y-125505918D01*
X224354197Y-125497459D01*
X224401061Y-125491039D01*
X224475926Y-125458642D01*
X224533110Y-125433896D01*
X224533111Y-125433896D01*
X224540992Y-125430485D01*
X224659485Y-125334532D01*
X224747809Y-125210248D01*
X224799457Y-125066791D01*
X224810624Y-124914729D01*
X224780486Y-124765265D01*
X224711266Y-124629412D01*
X224608061Y-124517178D01*
X224478477Y-124436832D01*
X224332060Y-124394294D01*
X224324995Y-124393775D01*
X224323555Y-124393669D01*
X224323544Y-124393669D01*
X224321248Y-124393500D01*
X210036806Y-124393500D01*
X210032561Y-124394082D01*
X210032554Y-124394082D01*
X209970803Y-124402541D01*
X209923939Y-124408961D01*
X209916055Y-124412373D01*
X209916054Y-124412373D01*
X209791890Y-124466104D01*
X209784008Y-124469515D01*
X209665515Y-124565468D01*
X209577191Y-124689752D01*
X209525543Y-124833209D01*
X209514376Y-124985271D01*
X209255500Y-124985271D01*
X209255500Y-124178278D01*
X209256578Y-124161833D01*
X209262507Y-124116793D01*
X209271021Y-124085017D01*
X209277494Y-124069391D01*
X209293938Y-124040910D01*
X209304232Y-124027494D01*
X209327494Y-124004232D01*
X209340910Y-123993938D01*
X209369391Y-123977494D01*
X209372564Y-123976180D01*
X209385019Y-123971020D01*
X209416790Y-123962508D01*
X209446666Y-123958575D01*
X209461833Y-123956578D01*
X209478278Y-123955500D01*
X220027583Y-123955500D01*
X220051549Y-123954559D01*
X220052739Y-123954465D01*
X220052762Y-123954464D01*
X220070069Y-123953102D01*
X220070087Y-123953100D01*
X220071259Y-123953008D01*
X220072436Y-123952869D01*
X220072443Y-123952868D01*
X220074951Y-123952571D01*
X220106206Y-123952776D01*
X220116810Y-123954172D01*
X220116811Y-123954172D01*
X220125000Y-123955250D01*
X220268709Y-123936330D01*
X220402625Y-123880861D01*
X220517621Y-123792621D01*
X220605861Y-123677625D01*
X220661330Y-123543709D01*
X220680250Y-123400000D01*
X220681050Y-123400105D01*
X220699174Y-123338379D01*
X220752830Y-123291886D01*
X220805172Y-123280500D01*
X230003978Y-123280500D01*
X230072099Y-123300502D01*
G37*
%TD.AperFunction*%
%TD*%
%TA.AperFunction,Conductor*%
%TO.N,+5V*%
G36*
X233396093Y-123464141D02*
G01*
X233441510Y-123482954D01*
X233461329Y-123496196D01*
X233480939Y-123509300D01*
X233515700Y-123544061D01*
X233542045Y-123583488D01*
X233560860Y-123628911D01*
X233572579Y-123687830D01*
X233575000Y-123712410D01*
X233575000Y-132868315D01*
X233573926Y-132884729D01*
X233560187Y-132989299D01*
X233551707Y-133021013D01*
X233514595Y-133110806D01*
X233498211Y-133139252D01*
X233439166Y-133216409D01*
X233415989Y-133239658D01*
X233339013Y-133298946D01*
X233310619Y-133315418D01*
X233220945Y-133352809D01*
X233189260Y-133361388D01*
X233084716Y-133375455D01*
X233068315Y-133376579D01*
X229562500Y-133387500D01*
X228722511Y-133390117D01*
X226052554Y-133398434D01*
X226052551Y-133398434D01*
X226048440Y-133398447D01*
X225919337Y-133415819D01*
X225799101Y-133465952D01*
X225792578Y-133470977D01*
X225792575Y-133470978D01*
X225702421Y-133540417D01*
X225695896Y-133545443D01*
X225616728Y-133648895D01*
X225566970Y-133769286D01*
X225550000Y-133898445D01*
X225550000Y-141491742D01*
X225548922Y-141508188D01*
X225535128Y-141612963D01*
X225526615Y-141644735D01*
X225489361Y-141734674D01*
X225472914Y-141763160D01*
X225413651Y-141840393D01*
X225390393Y-141863651D01*
X225313160Y-141922914D01*
X225284674Y-141939361D01*
X225194735Y-141976615D01*
X225162963Y-141985128D01*
X225058188Y-141998922D01*
X225041742Y-142000000D01*
X217333258Y-142000000D01*
X217316812Y-141998922D01*
X217212037Y-141985128D01*
X217180265Y-141976615D01*
X217090326Y-141939361D01*
X217061840Y-141922914D01*
X216984607Y-141863651D01*
X216961349Y-141840393D01*
X216902086Y-141763160D01*
X216885639Y-141734674D01*
X216848385Y-141644735D01*
X216839872Y-141612963D01*
X216826078Y-141508188D01*
X216825000Y-141491742D01*
X216825000Y-140079089D01*
X216829293Y-140046478D01*
X216838033Y-140013860D01*
X216870645Y-139957376D01*
X216882376Y-139945645D01*
X216938858Y-139913034D01*
X216954890Y-139908738D01*
X217020110Y-139908738D01*
X217036142Y-139913034D01*
X217092624Y-139945645D01*
X217104355Y-139957376D01*
X217136967Y-140013860D01*
X217145707Y-140046478D01*
X217150000Y-140079089D01*
X217150000Y-141125000D01*
X217167037Y-141254410D01*
X217216987Y-141375000D01*
X217296447Y-141478553D01*
X217400000Y-141558013D01*
X217407626Y-141561172D01*
X217407628Y-141561173D01*
X217512961Y-141604803D01*
X217520590Y-141607963D01*
X217650000Y-141625000D01*
X224100000Y-141625000D01*
X224229410Y-141607963D01*
X224237039Y-141604803D01*
X224342372Y-141561173D01*
X224342374Y-141561172D01*
X224350000Y-141558013D01*
X224453553Y-141478553D01*
X224533013Y-141375000D01*
X224582963Y-141254410D01*
X224600000Y-141125000D01*
X224600000Y-132283258D01*
X224601078Y-132266812D01*
X224614872Y-132162037D01*
X224623385Y-132130265D01*
X224660639Y-132040326D01*
X224677086Y-132011840D01*
X224736349Y-131934607D01*
X224759607Y-131911349D01*
X224836840Y-131852086D01*
X224865326Y-131835639D01*
X224955265Y-131798385D01*
X224987037Y-131789872D01*
X225091812Y-131776078D01*
X225108258Y-131775000D01*
X232575000Y-131775000D01*
X232704410Y-131757963D01*
X232712039Y-131754803D01*
X232817372Y-131711173D01*
X232817374Y-131711172D01*
X232825000Y-131708013D01*
X232928553Y-131628553D01*
X233008013Y-131525000D01*
X233057963Y-131404410D01*
X233075000Y-131275000D01*
X233075000Y-123712410D01*
X233077421Y-123687830D01*
X233089140Y-123628911D01*
X233107955Y-123583488D01*
X233134300Y-123544061D01*
X233169061Y-123509300D01*
X233188671Y-123496196D01*
X233208490Y-123482954D01*
X233253907Y-123464141D01*
X233300421Y-123454889D01*
X233349579Y-123454889D01*
X233396093Y-123464141D01*
G37*
%TD.AperFunction*%
%TD*%
M02*
