%TF.GenerationSoftware,KiCad,Pcbnew,6.0.7-f9a2dced07~116~ubuntu20.04.1*%
%TF.CreationDate,2022-08-17T00:13:37+02:00*%
%TF.ProjectId,NVM-Amp,4e564d2d-416d-4702-9e6b-696361645f70,rev?*%
%TF.SameCoordinates,Original*%
%TF.FileFunction,Copper,L1,Top*%
%TF.FilePolarity,Positive*%
%FSLAX46Y46*%
G04 Gerber Fmt 4.6, Leading zero omitted, Abs format (unit mm)*
G04 Created by KiCad (PCBNEW 6.0.7-f9a2dced07~116~ubuntu20.04.1) date 2022-08-17 00:13:37*
%MOMM*%
%LPD*%
G01*
G04 APERTURE LIST*
G04 Aperture macros list*
%AMRoundRect*
0 Rectangle with rounded corners*
0 $1 Rounding radius*
0 $2 $3 $4 $5 $6 $7 $8 $9 X,Y pos of 4 corners*
0 Add a 4 corners polygon primitive as box body*
4,1,4,$2,$3,$4,$5,$6,$7,$8,$9,$2,$3,0*
0 Add four circle primitives for the rounded corners*
1,1,$1+$1,$2,$3*
1,1,$1+$1,$4,$5*
1,1,$1+$1,$6,$7*
1,1,$1+$1,$8,$9*
0 Add four rect primitives between the rounded corners*
20,1,$1+$1,$2,$3,$4,$5,0*
20,1,$1+$1,$4,$5,$6,$7,0*
20,1,$1+$1,$6,$7,$8,$9,0*
20,1,$1+$1,$8,$9,$2,$3,0*%
G04 Aperture macros list end*
%TA.AperFunction,ComponentPad*%
%ADD10C,1.600000*%
%TD*%
%TA.AperFunction,ComponentPad*%
%ADD11O,1.600000X1.600000*%
%TD*%
%TA.AperFunction,SMDPad,CuDef*%
%ADD12RoundRect,0.250000X-0.650000X0.325000X-0.650000X-0.325000X0.650000X-0.325000X0.650000X0.325000X0*%
%TD*%
%TA.AperFunction,SMDPad,CuDef*%
%ADD13RoundRect,0.250000X-0.312500X-0.625000X0.312500X-0.625000X0.312500X0.625000X-0.312500X0.625000X0*%
%TD*%
%TA.AperFunction,SMDPad,CuDef*%
%ADD14RoundRect,0.250000X0.312500X0.625000X-0.312500X0.625000X-0.312500X-0.625000X0.312500X-0.625000X0*%
%TD*%
%TA.AperFunction,ComponentPad*%
%ADD15C,1.440000*%
%TD*%
%TA.AperFunction,SMDPad,CuDef*%
%ADD16RoundRect,0.150000X-0.825000X-0.150000X0.825000X-0.150000X0.825000X0.150000X-0.825000X0.150000X0*%
%TD*%
%TA.AperFunction,SMDPad,CuDef*%
%ADD17RoundRect,0.150000X-0.150000X0.825000X-0.150000X-0.825000X0.150000X-0.825000X0.150000X0.825000X0*%
%TD*%
%TA.AperFunction,SMDPad,CuDef*%
%ADD18R,0.400000X0.650000*%
%TD*%
%TA.AperFunction,SMDPad,CuDef*%
%ADD19RoundRect,0.250000X-0.325000X-0.650000X0.325000X-0.650000X0.325000X0.650000X-0.325000X0.650000X0*%
%TD*%
%TA.AperFunction,SMDPad,CuDef*%
%ADD20RoundRect,0.250000X0.325000X0.650000X-0.325000X0.650000X-0.325000X-0.650000X0.325000X-0.650000X0*%
%TD*%
%TA.AperFunction,ViaPad*%
%ADD21C,0.500000*%
%TD*%
%TA.AperFunction,Conductor*%
%ADD22C,0.512000*%
%TD*%
%TA.AperFunction,Conductor*%
%ADD23C,0.250000*%
%TD*%
G04 APERTURE END LIST*
D10*
%TO.P,R14,1*%
%TO.N,+5V*%
X230080000Y-132575000D03*
D11*
%TO.P,R14,2*%
%TO.N,Net-(Q2-Pad6)*%
X219920000Y-132575000D03*
%TD*%
D10*
%TO.P,R6,1*%
%TO.N,+5V*%
X214525000Y-119875000D03*
D11*
%TO.P,R6,2*%
%TO.N,Net-(Q2-Pad2)*%
X204365000Y-119875000D03*
%TD*%
D12*
%TO.P,C8,1*%
%TO.N,Net-(C8-Pad1)*%
X230000000Y-117600000D03*
%TO.P,C8,2*%
%TO.N,GND*%
X230000000Y-120550000D03*
%TD*%
D13*
%TO.P,R22,1*%
%TO.N,Net-(R22-Pad1)*%
X214725000Y-129725000D03*
%TO.P,R22,2*%
%TO.N,Net-(R22-Pad2)*%
X217650000Y-129725000D03*
%TD*%
D14*
%TO.P,R4,1*%
%TO.N,Net-(C5-Pad2)*%
X206812500Y-132250000D03*
%TO.P,R4,2*%
%TO.N,GND*%
X203887500Y-132250000D03*
%TD*%
D15*
%TO.P,R1,3*%
%TO.N,N/C*%
X205670000Y-141325000D03*
%TO.P,R1,2*%
%TO.N,/S2*%
X208210000Y-143865000D03*
%TO.P,R1,1*%
%TO.N,Net-(C1-Pad2)*%
X210750000Y-141325000D03*
%TD*%
D10*
%TO.P,R25,1*%
%TO.N,Net-(R25-Pad1)*%
X230080000Y-138750000D03*
D11*
%TO.P,R25,2*%
%TO.N,Net-(R25-Pad2)*%
X219920000Y-138750000D03*
%TD*%
D16*
%TO.P,U4,1*%
%TO.N,Net-(C10-Pad1)*%
X224975000Y-123695000D03*
%TO.P,U4,2,-*%
%TO.N,Net-(Q2-Pad2)*%
X224975000Y-124965000D03*
%TO.P,U4,3,+*%
%TO.N,Net-(Q2-Pad6)*%
X224975000Y-126235000D03*
%TO.P,U4,4,V-*%
%TO.N,-5V*%
X224975000Y-127505000D03*
%TO.P,U4,5,+*%
%TO.N,GND*%
X229925000Y-127505000D03*
%TO.P,U4,6,-*%
%TO.N,Net-(R22-Pad2)*%
X229925000Y-126235000D03*
%TO.P,U4,7*%
%TO.N,Net-(R25-Pad1)*%
X229925000Y-124965000D03*
%TO.P,U4,8,V+*%
%TO.N,+5V*%
X229925000Y-123695000D03*
%TD*%
D17*
%TO.P,U2,16*%
%TO.N,/S1*%
X217795000Y-137325000D03*
%TO.P,U2,15*%
%TO.N,Net-(C5-Pad1)*%
X216525000Y-137325000D03*
%TO.P,U2,14*%
%TO.N,Net-(R25-Pad2)*%
X215255000Y-137325000D03*
%TO.P,U2,13,V+*%
%TO.N,+5V*%
X213985000Y-137325000D03*
%TO.P,U2,12,VL*%
X212715000Y-137325000D03*
%TO.P,U2,11*%
%TO.N,Net-(C2-Pad2)*%
X211445000Y-137325000D03*
%TO.P,U2,10*%
%TO.N,Net-(C5-Pad1)*%
X210175000Y-137325000D03*
%TO.P,U2,9*%
%TO.N,/S2*%
X208905000Y-137325000D03*
%TO.P,U2,8*%
X208905000Y-132375000D03*
%TO.P,U2,7*%
%TO.N,GND*%
X210175000Y-132375000D03*
%TO.P,U2,6*%
%TO.N,Net-(R22-Pad1)*%
X211445000Y-132375000D03*
%TO.P,U2,5,GND*%
%TO.N,GND*%
X212715000Y-132375000D03*
%TO.P,U2,4,V-*%
%TO.N,-5V*%
X213985000Y-132375000D03*
%TO.P,U2,3*%
%TO.N,Net-(C10-Pad2)*%
X215255000Y-132375000D03*
%TO.P,U2,2*%
%TO.N,Net-(R22-Pad1)*%
X216525000Y-132375000D03*
%TO.P,U2,1*%
%TO.N,/S1*%
X217795000Y-132375000D03*
%TD*%
D13*
%TO.P,R20,1*%
%TO.N,Net-(C10-Pad2)*%
X221937500Y-129625000D03*
%TO.P,R20,2*%
%TO.N,GND*%
X224862500Y-129625000D03*
%TD*%
D18*
%TO.P,U1,1*%
%TO.N,Net-(C1-Pad2)*%
X216500000Y-142800000D03*
%TO.P,U1,2,GND*%
%TO.N,GND*%
X217150000Y-142800000D03*
%TO.P,U1,3*%
%TO.N,/S2*%
X217800000Y-142800000D03*
%TO.P,U1,4*%
%TO.N,/S1*%
X217800000Y-140900000D03*
%TO.P,U1,5,VCC*%
%TO.N,+5V*%
X217150000Y-140900000D03*
%TO.P,U1,6*%
%TO.N,/S2*%
X216500000Y-140900000D03*
%TD*%
D19*
%TO.P,C2,1*%
%TO.N,GND*%
X203900000Y-134800000D03*
%TO.P,C2,2*%
%TO.N,Net-(C2-Pad2)*%
X206850000Y-134800000D03*
%TD*%
D13*
%TO.P,R11,1*%
%TO.N,Net-(Q2-Pad7)*%
X216887500Y-124025000D03*
%TO.P,R11,2*%
%TO.N,-5V*%
X219812500Y-124025000D03*
%TD*%
D16*
%TO.P,Q2,1*%
%TO.N,Net-(Q2-Pad1)*%
X209375000Y-123695000D03*
%TO.P,Q2,2*%
%TO.N,Net-(Q2-Pad2)*%
X209375000Y-124965000D03*
%TO.P,Q2,3*%
%TO.N,Net-(Q2-Pad3)*%
X209375000Y-126235000D03*
%TO.P,Q2,4*%
%TO.N,Net-(C5-Pad2)*%
X209375000Y-127505000D03*
%TO.P,Q2,5*%
%TO.N,Net-(Q2-Pad1)*%
X214325000Y-127505000D03*
%TO.P,Q2,6*%
%TO.N,Net-(Q2-Pad6)*%
X214325000Y-126235000D03*
%TO.P,Q2,7*%
%TO.N,Net-(Q2-Pad7)*%
X214325000Y-124965000D03*
%TO.P,Q2,8*%
%TO.N,Net-(Q2-Pad8)*%
X214325000Y-123695000D03*
%TD*%
D10*
%TO.P,R12,1*%
%TO.N,Net-(Q2-Pad1)*%
X204370000Y-116725000D03*
D11*
%TO.P,R12,2*%
%TO.N,-5V*%
X214530000Y-116725000D03*
%TD*%
D13*
%TO.P,R2,2*%
%TO.N,Net-(C2-Pad2)*%
X206850000Y-137375000D03*
%TO.P,R2,1*%
%TO.N,unconnected-(R2-Pad1)*%
X203925000Y-137375000D03*
%TD*%
D10*
%TO.P,R17,1*%
%TO.N,Net-(C10-Pad1)*%
X227455000Y-119875000D03*
D11*
%TO.P,R17,2*%
%TO.N,Net-(Q2-Pad8)*%
X217295000Y-119875000D03*
%TD*%
D10*
%TO.P,R26,1*%
%TO.N,Net-(R25-Pad2)*%
X219920000Y-135600000D03*
D11*
%TO.P,R26,2*%
%TO.N,GND*%
X230080000Y-135600000D03*
%TD*%
D12*
%TO.P,C1,1*%
%TO.N,GND*%
X214500000Y-141050000D03*
%TO.P,C1,2*%
%TO.N,Net-(C1-Pad2)*%
X214500000Y-144000000D03*
%TD*%
%TO.P,C10,1*%
%TO.N,Net-(C10-Pad1)*%
X222250000Y-124525000D03*
%TO.P,C10,2*%
%TO.N,Net-(C10-Pad2)*%
X222250000Y-127475000D03*
%TD*%
D20*
%TO.P,C5,1*%
%TO.N,Net-(C5-Pad1)*%
X211925000Y-129750000D03*
%TO.P,C5,2*%
%TO.N,Net-(C5-Pad2)*%
X208975000Y-129750000D03*
%TD*%
D13*
%TO.P,R10,1*%
%TO.N,+5V*%
X203887500Y-127175000D03*
%TO.P,R10,2*%
%TO.N,Net-(Q2-Pad3)*%
X206812500Y-127175000D03*
%TD*%
D19*
%TO.P,C6,1*%
%TO.N,GND*%
X203875000Y-129725000D03*
%TO.P,C6,2*%
%TO.N,Net-(C5-Pad2)*%
X206825000Y-129725000D03*
%TD*%
D10*
%TO.P,R18,1*%
%TO.N,Net-(Q2-Pad8)*%
X217295000Y-116725000D03*
D11*
%TO.P,R18,2*%
%TO.N,Net-(C8-Pad1)*%
X227455000Y-116725000D03*
%TD*%
D13*
%TO.P,R28,2*%
%TO.N,unconnected-(R28-Pad2)*%
X235562500Y-125600000D03*
%TO.P,R28,1*%
%TO.N,Net-(R25-Pad1)*%
X232637500Y-125600000D03*
%TD*%
D21*
%TO.N,Net-(C5-Pad1)*%
X211925000Y-130400000D03*
X211925000Y-135400000D03*
%TO.N,Net-(C10-Pad2)*%
X221625000Y-130250000D03*
X215250000Y-131675000D03*
%TO.N,Net-(Q2-Pad2)*%
X210075000Y-124950000D03*
X224250000Y-124950000D03*
%TO.N,-5V*%
X219500000Y-123400000D03*
X214000000Y-131675000D03*
X220125000Y-123400000D03*
X225700000Y-127500000D03*
%TO.N,Net-(R22-Pad2)*%
X229200000Y-126235000D03*
X217650000Y-129100000D03*
%TO.N,/S1*%
X217800000Y-140850000D03*
X217800000Y-136600000D03*
X217800000Y-133100000D03*
%TO.N,+5V*%
X233325000Y-123675000D03*
X204200000Y-126550000D03*
X212700000Y-136625000D03*
X230625000Y-123675000D03*
X204200000Y-127800000D03*
X217075000Y-140000000D03*
%TO.N,/S2*%
X208900000Y-136625000D03*
X208900000Y-133075000D03*
%TO.N,GND*%
X213850000Y-140725000D03*
X229200000Y-127500000D03*
X230625000Y-127500000D03*
X210175000Y-131675000D03*
X229350000Y-120875000D03*
X212700000Y-131675000D03*
X215150000Y-140725000D03*
X204150000Y-131700000D03*
X230650000Y-120225000D03*
X229350000Y-120225000D03*
X230650000Y-120875000D03*
X217150000Y-142825000D03*
%TD*%
D22*
%TO.N,Net-(C2-Pad2)*%
X211445000Y-137325000D02*
X211445000Y-137887013D01*
X206825000Y-137875000D02*
X206825000Y-137350000D01*
X206800000Y-134912500D02*
X206812500Y-134900000D01*
%TO.N,Net-(C5-Pad1)*%
X210175000Y-136762987D02*
X210175000Y-137325000D01*
%TO.N,Net-(C5-Pad2)*%
X208950000Y-129725000D02*
X208975000Y-129750000D01*
X206837500Y-129737500D02*
X206825000Y-129725000D01*
%TO.N,Net-(C10-Pad2)*%
X221937500Y-129625000D02*
X221937500Y-127787500D01*
X215255000Y-132375000D02*
X215255000Y-131680000D01*
X215255000Y-131680000D02*
X215250000Y-131675000D01*
X221937500Y-127787500D02*
X222250000Y-127475000D01*
%TO.N,Net-(R22-Pad1)*%
X211445000Y-132375000D02*
X211445000Y-132937013D01*
%TO.N,Net-(R25-Pad1)*%
X229900000Y-124965000D02*
X230462013Y-124965000D01*
D23*
%TO.N,/S1*%
X217800000Y-140900000D02*
X217800000Y-140850000D01*
D22*
%TO.N,+5V*%
X230625000Y-123675000D02*
X233325000Y-123675000D01*
%TO.N,/S2*%
X208905000Y-136630000D02*
X208905000Y-137325000D01*
X208900000Y-136625000D02*
X208905000Y-136630000D01*
%TO.N,Net-(R25-Pad2)*%
X215255000Y-137325000D02*
X215255000Y-137887013D01*
%TO.N,GND*%
X203912500Y-129762500D02*
X203875000Y-129725000D01*
X203900000Y-132262500D02*
X203912500Y-132250000D01*
%TD*%
%TA.AperFunction,Conductor*%
%TO.N,Net-(Q2-Pad6)*%
G36*
X224274670Y-125952421D02*
G01*
X224315336Y-125960510D01*
X224347942Y-125966996D01*
X224393360Y-125985810D01*
X224444953Y-126020283D01*
X224479717Y-126055047D01*
X224514190Y-126106640D01*
X224533004Y-126152058D01*
X224546354Y-126219171D01*
X224546354Y-126268330D01*
X224535082Y-126325000D01*
X224533957Y-126330656D01*
X224515143Y-126376076D01*
X224485825Y-126419953D01*
X224483377Y-126423617D01*
X224448617Y-126458377D01*
X224401076Y-126490143D01*
X224355656Y-126508957D01*
X224328117Y-126514434D01*
X224287170Y-126522579D01*
X224262590Y-126525000D01*
X224125611Y-126525000D01*
X224057490Y-126504998D01*
X224009202Y-126447217D01*
X224006542Y-126440793D01*
X223970711Y-126354289D01*
X223960871Y-126350213D01*
X223911466Y-126329749D01*
X223911465Y-126329749D01*
X223900000Y-126325000D01*
X221200000Y-126325000D01*
X221070590Y-126342037D01*
X221062961Y-126345197D01*
X220957628Y-126388827D01*
X220957626Y-126388828D01*
X220950000Y-126391987D01*
X220943450Y-126397013D01*
X220878024Y-126447217D01*
X220846447Y-126471447D01*
X220766987Y-126575000D01*
X220763828Y-126582626D01*
X220763827Y-126582628D01*
X220757869Y-126597013D01*
X220717037Y-126695590D01*
X220700000Y-126825000D01*
X220700000Y-132541742D01*
X220698922Y-132558188D01*
X220685128Y-132662963D01*
X220676615Y-132694735D01*
X220639361Y-132784674D01*
X220622914Y-132813160D01*
X220563651Y-132890393D01*
X220540393Y-132913651D01*
X220463160Y-132972914D01*
X220434674Y-132989361D01*
X220344735Y-133026615D01*
X220312963Y-133035128D01*
X220208188Y-133048922D01*
X220191742Y-133050000D01*
X219633258Y-133050000D01*
X219616812Y-133048922D01*
X219512037Y-133035128D01*
X219480265Y-133026615D01*
X219390326Y-132989361D01*
X219361840Y-132972914D01*
X219284607Y-132913651D01*
X219261349Y-132890393D01*
X219202086Y-132813160D01*
X219185639Y-132784674D01*
X219148385Y-132694735D01*
X219139872Y-132662963D01*
X219126078Y-132558188D01*
X219125000Y-132541742D01*
X219125000Y-127025000D01*
X219107963Y-126895590D01*
X219058013Y-126775000D01*
X218978553Y-126671447D01*
X218875000Y-126591987D01*
X218867374Y-126588828D01*
X218867372Y-126588827D01*
X218762039Y-126545197D01*
X218754410Y-126542037D01*
X218625000Y-126525000D01*
X214424911Y-126525000D01*
X214400330Y-126522579D01*
X214359664Y-126514490D01*
X214327058Y-126508004D01*
X214281640Y-126489190D01*
X214230047Y-126454717D01*
X214195283Y-126419953D01*
X214160810Y-126368360D01*
X214141996Y-126322941D01*
X214129890Y-126262082D01*
X214129890Y-126212918D01*
X214141996Y-126152059D01*
X214160810Y-126106640D01*
X214195283Y-126055047D01*
X214230047Y-126020283D01*
X214281640Y-125985810D01*
X214327058Y-125966996D01*
X214359664Y-125960510D01*
X214400330Y-125952421D01*
X214424911Y-125950000D01*
X224250089Y-125950000D01*
X224274670Y-125952421D01*
G37*
%TD.AperFunction*%
%TD*%
%TA.AperFunction,Conductor*%
%TO.N,Net-(C10-Pad1)*%
G36*
X227433188Y-119076078D02*
G01*
X227537963Y-119089872D01*
X227569735Y-119098385D01*
X227659674Y-119135639D01*
X227688160Y-119152086D01*
X227765393Y-119211349D01*
X227788651Y-119234607D01*
X227847914Y-119311840D01*
X227864361Y-119340326D01*
X227901615Y-119430265D01*
X227910128Y-119462037D01*
X227923922Y-119566812D01*
X227925000Y-119583258D01*
X227925000Y-120166742D01*
X227923922Y-120183188D01*
X227910128Y-120287963D01*
X227901615Y-120319735D01*
X227864361Y-120409674D01*
X227847914Y-120438160D01*
X227788651Y-120515393D01*
X227765393Y-120538651D01*
X227688160Y-120597914D01*
X227659674Y-120614361D01*
X227569735Y-120651615D01*
X227537963Y-120660128D01*
X227433188Y-120673922D01*
X227416742Y-120675000D01*
X226450000Y-120675000D01*
X226320590Y-120692037D01*
X226312961Y-120695197D01*
X226207628Y-120738827D01*
X226207626Y-120738828D01*
X226200000Y-120741987D01*
X226096447Y-120821447D01*
X226016987Y-120925000D01*
X225967037Y-121045590D01*
X225950000Y-121175000D01*
X225950000Y-123466742D01*
X225948922Y-123483188D01*
X225935128Y-123587963D01*
X225926615Y-123619735D01*
X225889361Y-123709674D01*
X225872914Y-123738160D01*
X225813651Y-123815393D01*
X225790393Y-123838651D01*
X225713160Y-123897914D01*
X225684674Y-123914361D01*
X225594735Y-123951615D01*
X225562963Y-123960128D01*
X225458188Y-123973922D01*
X225441742Y-123975000D01*
X223650000Y-123975000D01*
X223520590Y-123992037D01*
X223512961Y-123995197D01*
X223407628Y-124038827D01*
X223407626Y-124038828D01*
X223400000Y-124041987D01*
X223296447Y-124121447D01*
X223216987Y-124225000D01*
X223167037Y-124345590D01*
X223150000Y-124475000D01*
X223150000Y-124591742D01*
X223148922Y-124608188D01*
X223135128Y-124712963D01*
X223126615Y-124744735D01*
X223089361Y-124834674D01*
X223072914Y-124863160D01*
X223013651Y-124940393D01*
X222990393Y-124963651D01*
X222913160Y-125022914D01*
X222884674Y-125039361D01*
X222794735Y-125076615D01*
X222762963Y-125085128D01*
X222658188Y-125098922D01*
X222641742Y-125100000D01*
X221858258Y-125100000D01*
X221841812Y-125098922D01*
X221737037Y-125085128D01*
X221705265Y-125076615D01*
X221615326Y-125039361D01*
X221586840Y-125022914D01*
X221509607Y-124963651D01*
X221486349Y-124940393D01*
X221427086Y-124863160D01*
X221410639Y-124834674D01*
X221373385Y-124744735D01*
X221364872Y-124712963D01*
X221351078Y-124608188D01*
X221350000Y-124591742D01*
X221350000Y-123883258D01*
X221351078Y-123866812D01*
X221364872Y-123762037D01*
X221373385Y-123730265D01*
X221410639Y-123640326D01*
X221427086Y-123611840D01*
X221486349Y-123534607D01*
X221509607Y-123511349D01*
X221586840Y-123452086D01*
X221615326Y-123435639D01*
X221705265Y-123398385D01*
X221737037Y-123389872D01*
X221841812Y-123376078D01*
X221858258Y-123375000D01*
X224700000Y-123375000D01*
X224829410Y-123357963D01*
X224837039Y-123354803D01*
X224942372Y-123311173D01*
X224942374Y-123311172D01*
X224950000Y-123308013D01*
X225053553Y-123228553D01*
X225133013Y-123125000D01*
X225182963Y-123004410D01*
X225200000Y-122875000D01*
X225200000Y-119583258D01*
X225201078Y-119566812D01*
X225214872Y-119462037D01*
X225223385Y-119430265D01*
X225260639Y-119340326D01*
X225277086Y-119311840D01*
X225336349Y-119234607D01*
X225359607Y-119211349D01*
X225436840Y-119152086D01*
X225465326Y-119135639D01*
X225555265Y-119098385D01*
X225587037Y-119089872D01*
X225691812Y-119076078D01*
X225708258Y-119075000D01*
X227416742Y-119075000D01*
X227433188Y-119076078D01*
G37*
%TD.AperFunction*%
%TD*%
%TA.AperFunction,Conductor*%
%TO.N,Net-(C5-Pad1)*%
G36*
X216333188Y-135151078D02*
G01*
X216437963Y-135164872D01*
X216469735Y-135173385D01*
X216559674Y-135210639D01*
X216588160Y-135227086D01*
X216665393Y-135286349D01*
X216688651Y-135309607D01*
X216747914Y-135386840D01*
X216764361Y-135415326D01*
X216801615Y-135505265D01*
X216810128Y-135537037D01*
X216823922Y-135641812D01*
X216825000Y-135658258D01*
X216825000Y-137312590D01*
X216822579Y-137337171D01*
X216807054Y-137415223D01*
X216788241Y-137460642D01*
X216751056Y-137516294D01*
X216716295Y-137551055D01*
X216660642Y-137588241D01*
X216615225Y-137607053D01*
X216549579Y-137620111D01*
X216500421Y-137620111D01*
X216434775Y-137607053D01*
X216389358Y-137588241D01*
X216333705Y-137551055D01*
X216298944Y-137516294D01*
X216261759Y-137460642D01*
X216242946Y-137415223D01*
X216227421Y-137337171D01*
X216225000Y-137312590D01*
X216225000Y-136175000D01*
X216207963Y-136045590D01*
X216158013Y-135925000D01*
X216078553Y-135821447D01*
X215975000Y-135741987D01*
X215967374Y-135738828D01*
X215967372Y-135738827D01*
X215862039Y-135695197D01*
X215854410Y-135692037D01*
X215725000Y-135675000D01*
X210975000Y-135675000D01*
X210845590Y-135692037D01*
X210837961Y-135695197D01*
X210732628Y-135738827D01*
X210732626Y-135738828D01*
X210725000Y-135741987D01*
X210621447Y-135821447D01*
X210541987Y-135925000D01*
X210492037Y-136045590D01*
X210475000Y-136175000D01*
X210475000Y-137312590D01*
X210472579Y-137337171D01*
X210457054Y-137415223D01*
X210438241Y-137460642D01*
X210401056Y-137516294D01*
X210366295Y-137551055D01*
X210310642Y-137588241D01*
X210265225Y-137607053D01*
X210199579Y-137620111D01*
X210150421Y-137620111D01*
X210084775Y-137607053D01*
X210039358Y-137588241D01*
X209983705Y-137551055D01*
X209948944Y-137516294D01*
X209911759Y-137460642D01*
X209892946Y-137415223D01*
X209877421Y-137337171D01*
X209875000Y-137312590D01*
X209875000Y-135658258D01*
X209876078Y-135641812D01*
X209889872Y-135537037D01*
X209898385Y-135505265D01*
X209935639Y-135415326D01*
X209952086Y-135386840D01*
X210011349Y-135309607D01*
X210034607Y-135286349D01*
X210111840Y-135227086D01*
X210140326Y-135210639D01*
X210230265Y-135173385D01*
X210262037Y-135164872D01*
X210366812Y-135151078D01*
X210383258Y-135150000D01*
X216316742Y-135150000D01*
X216333188Y-135151078D01*
G37*
%TD.AperFunction*%
%TD*%
%TA.AperFunction,Conductor*%
%TO.N,/S2*%
G36*
X216551957Y-140735335D02*
G01*
X216597374Y-140754148D01*
X216620582Y-140769655D01*
X216655345Y-140804418D01*
X216670852Y-140827626D01*
X216689665Y-140873043D01*
X216693081Y-140890214D01*
X216695501Y-140914785D01*
X216695501Y-141250066D01*
X216702612Y-141285818D01*
X216707686Y-141311328D01*
X216710266Y-141324301D01*
X216745111Y-141376450D01*
X216752600Y-141389228D01*
X216788330Y-141459351D01*
X216890649Y-141561670D01*
X217019580Y-141627364D01*
X217162500Y-141650000D01*
X217666742Y-141650000D01*
X217683188Y-141651078D01*
X217787963Y-141664872D01*
X217819735Y-141673385D01*
X217909674Y-141710639D01*
X217938160Y-141727086D01*
X218015393Y-141786349D01*
X218038651Y-141809607D01*
X218097914Y-141886840D01*
X218114361Y-141915326D01*
X218151615Y-142005265D01*
X218160128Y-142037037D01*
X218173922Y-142141812D01*
X218175000Y-142158258D01*
X218175000Y-145191742D01*
X218173922Y-145208188D01*
X218160128Y-145312963D01*
X218151615Y-145344735D01*
X218114361Y-145434674D01*
X218097914Y-145463160D01*
X218038651Y-145540393D01*
X218015393Y-145563651D01*
X217938160Y-145622914D01*
X217909674Y-145639361D01*
X217819735Y-145676615D01*
X217787963Y-145685128D01*
X217683188Y-145698922D01*
X217666742Y-145700000D01*
X208008258Y-145700000D01*
X207991812Y-145698922D01*
X207887037Y-145685128D01*
X207855265Y-145676615D01*
X207765326Y-145639361D01*
X207736840Y-145622914D01*
X207659607Y-145563651D01*
X207636349Y-145540393D01*
X207577086Y-145463160D01*
X207560639Y-145434674D01*
X207523385Y-145344735D01*
X207514872Y-145312963D01*
X207501078Y-145208188D01*
X207500000Y-145191742D01*
X207500000Y-143833258D01*
X207501078Y-143816812D01*
X207514872Y-143712037D01*
X207523385Y-143680265D01*
X207560639Y-143590326D01*
X207577086Y-143561840D01*
X207636349Y-143484607D01*
X207659607Y-143461349D01*
X207736840Y-143402086D01*
X207765326Y-143385639D01*
X207855265Y-143348385D01*
X207887037Y-143339872D01*
X207991812Y-143326078D01*
X208008258Y-143325000D01*
X208416742Y-143325000D01*
X208433188Y-143326078D01*
X208537963Y-143339872D01*
X208569735Y-143348385D01*
X208659674Y-143385639D01*
X208688160Y-143402086D01*
X208765393Y-143461349D01*
X208788651Y-143484607D01*
X208847914Y-143561840D01*
X208864361Y-143590326D01*
X208901615Y-143680265D01*
X208910128Y-143712037D01*
X208923922Y-143816812D01*
X208925000Y-143833258D01*
X208925000Y-144650000D01*
X208942037Y-144779410D01*
X208991987Y-144900000D01*
X209071447Y-145003553D01*
X209175000Y-145083013D01*
X209182626Y-145086172D01*
X209182628Y-145086173D01*
X209287961Y-145129803D01*
X209295590Y-145132963D01*
X209425000Y-145150000D01*
X217100000Y-145150000D01*
X217229410Y-145132963D01*
X217237039Y-145129803D01*
X217342372Y-145086173D01*
X217342374Y-145086172D01*
X217350000Y-145083013D01*
X217453553Y-145003553D01*
X217533013Y-144900000D01*
X217582963Y-144779410D01*
X217600000Y-144650000D01*
X217600000Y-143185100D01*
X217602421Y-143160519D01*
X217603293Y-143156135D01*
X217604500Y-143150067D01*
X217604500Y-143072987D01*
X217617107Y-143018050D01*
X217631648Y-142988036D01*
X217635560Y-142979962D01*
X217659536Y-142837453D01*
X217659688Y-142825000D01*
X217639201Y-142681948D01*
X217615798Y-142630476D01*
X217604499Y-142578325D01*
X217604499Y-142449934D01*
X217591968Y-142386932D01*
X217590628Y-142378814D01*
X217584041Y-142328779D01*
X217582963Y-142320590D01*
X217533013Y-142200000D01*
X217453553Y-142096447D01*
X217350000Y-142016987D01*
X217342374Y-142013828D01*
X217342372Y-142013827D01*
X217237039Y-141970197D01*
X217229410Y-141967037D01*
X217100000Y-141950000D01*
X216808258Y-141950000D01*
X216791812Y-141948922D01*
X216687037Y-141935128D01*
X216655265Y-141926615D01*
X216565326Y-141889361D01*
X216536840Y-141872914D01*
X216459607Y-141813651D01*
X216436349Y-141790393D01*
X216377086Y-141713160D01*
X216360639Y-141684674D01*
X216323385Y-141594735D01*
X216314872Y-141562963D01*
X216301078Y-141458188D01*
X216300000Y-141441742D01*
X216300000Y-140937410D01*
X216302421Y-140912829D01*
X216310334Y-140873047D01*
X216329148Y-140827626D01*
X216344655Y-140804418D01*
X216379418Y-140769655D01*
X216402626Y-140754148D01*
X216448043Y-140735335D01*
X216475421Y-140729889D01*
X216524579Y-140729889D01*
X216551957Y-140735335D01*
G37*
%TD.AperFunction*%
%TD*%
%TA.AperFunction,Conductor*%
%TO.N,+5V*%
G36*
X213783188Y-136351078D02*
G01*
X213887963Y-136364872D01*
X213919735Y-136373385D01*
X214009674Y-136410639D01*
X214038160Y-136427086D01*
X214115393Y-136486349D01*
X214138651Y-136509607D01*
X214197914Y-136586840D01*
X214214361Y-136615326D01*
X214251615Y-136705265D01*
X214260128Y-136737037D01*
X214273922Y-136841812D01*
X214275000Y-136858258D01*
X214275000Y-139225000D01*
X214292037Y-139354410D01*
X214341987Y-139475000D01*
X214421447Y-139578553D01*
X214525000Y-139658013D01*
X214532626Y-139661172D01*
X214532628Y-139661173D01*
X214637961Y-139704803D01*
X214645590Y-139707963D01*
X214775000Y-139725000D01*
X216791742Y-139725000D01*
X216808188Y-139726078D01*
X216912963Y-139739872D01*
X216944735Y-139748385D01*
X217034674Y-139785639D01*
X217063160Y-139802086D01*
X217140393Y-139861349D01*
X217163651Y-139884607D01*
X217222914Y-139961840D01*
X217239361Y-139990326D01*
X217276615Y-140080265D01*
X217285128Y-140112037D01*
X217298922Y-140216812D01*
X217300000Y-140233258D01*
X217300000Y-140772045D01*
X217298500Y-140791430D01*
X217291383Y-140837140D01*
X217261139Y-140901372D01*
X217255978Y-140906850D01*
X217255123Y-140907705D01*
X217198629Y-140940319D01*
X217195101Y-140941264D01*
X217129899Y-140941264D01*
X217126371Y-140940319D01*
X217069877Y-140907705D01*
X217067295Y-140905123D01*
X217034684Y-140848640D01*
X217029294Y-140828525D01*
X217025000Y-140795913D01*
X217025000Y-140475000D01*
X217001752Y-140328217D01*
X216934283Y-140195802D01*
X216829198Y-140090717D01*
X216696783Y-140023248D01*
X216686994Y-140021698D01*
X216686992Y-140021697D01*
X216641239Y-140014451D01*
X216550000Y-140000000D01*
X214408258Y-140000000D01*
X214391812Y-139998922D01*
X214287037Y-139985128D01*
X214255265Y-139976615D01*
X214165326Y-139939361D01*
X214136840Y-139922914D01*
X214059607Y-139863651D01*
X214036349Y-139840393D01*
X213977086Y-139763160D01*
X213960639Y-139734674D01*
X213923385Y-139644735D01*
X213914872Y-139612963D01*
X213901078Y-139508188D01*
X213900000Y-139491742D01*
X213900000Y-138800000D01*
X213882963Y-138670590D01*
X213833013Y-138550000D01*
X213753553Y-138446447D01*
X213650000Y-138366987D01*
X213642374Y-138363828D01*
X213642372Y-138363827D01*
X213537039Y-138320197D01*
X213529410Y-138317037D01*
X213400000Y-138300000D01*
X212933258Y-138300000D01*
X212916812Y-138298922D01*
X212812037Y-138285128D01*
X212780265Y-138276615D01*
X212690326Y-138239361D01*
X212661840Y-138222914D01*
X212584607Y-138163651D01*
X212561349Y-138140393D01*
X212502086Y-138063160D01*
X212485639Y-138034674D01*
X212448385Y-137944735D01*
X212439872Y-137912963D01*
X212426078Y-137808188D01*
X212425000Y-137791742D01*
X212425000Y-136858258D01*
X212426078Y-136841812D01*
X212439872Y-136737037D01*
X212448385Y-136705265D01*
X212485639Y-136615326D01*
X212502086Y-136586840D01*
X212561349Y-136509607D01*
X212584607Y-136486349D01*
X212661840Y-136427086D01*
X212690326Y-136410639D01*
X212780265Y-136373385D01*
X212812037Y-136364872D01*
X212916812Y-136351078D01*
X212933258Y-136350000D01*
X213766742Y-136350000D01*
X213783188Y-136351078D01*
G37*
%TD.AperFunction*%
%TD*%
%TA.AperFunction,Conductor*%
%TO.N,Net-(Q2-Pad1)*%
G36*
X206836494Y-115926195D02*
G01*
X206941312Y-115939991D01*
X206973095Y-115948508D01*
X207063063Y-115985780D01*
X207091557Y-116002235D01*
X207168808Y-116061530D01*
X207192071Y-116084802D01*
X207251336Y-116162078D01*
X207267779Y-116190578D01*
X207305016Y-116280561D01*
X207313520Y-116312348D01*
X207327273Y-116417164D01*
X207328344Y-116433616D01*
X207327788Y-117591930D01*
X207325240Y-122899777D01*
X207342225Y-123029230D01*
X207392145Y-123149873D01*
X207471596Y-123253479D01*
X207575161Y-123332984D01*
X207635470Y-123357975D01*
X207688150Y-123379805D01*
X207688152Y-123379806D01*
X207695779Y-123382966D01*
X207703964Y-123384044D01*
X207703967Y-123384045D01*
X207757424Y-123391086D01*
X207825221Y-123400017D01*
X209472934Y-123400071D01*
X211620374Y-123400142D01*
X211636820Y-123401221D01*
X211741599Y-123415019D01*
X211773371Y-123423533D01*
X211863305Y-123460788D01*
X211891789Y-123477234D01*
X211969020Y-123536498D01*
X211992278Y-123559757D01*
X212051541Y-123636993D01*
X212067982Y-123665470D01*
X212105238Y-123755418D01*
X212113749Y-123787183D01*
X212119212Y-123828678D01*
X212127542Y-123891957D01*
X212128620Y-123908403D01*
X212128594Y-126700000D01*
X212145630Y-126829409D01*
X212195580Y-126950000D01*
X212200607Y-126956551D01*
X212200609Y-126956555D01*
X212255992Y-127028732D01*
X212275038Y-127053554D01*
X212378591Y-127133015D01*
X212386222Y-127136176D01*
X212386224Y-127136177D01*
X212438886Y-127157990D01*
X212499181Y-127182966D01*
X212628590Y-127200004D01*
X212949872Y-127200007D01*
X213153706Y-127200009D01*
X214116141Y-127200017D01*
X214140721Y-127202438D01*
X214218788Y-127217967D01*
X214264209Y-127236781D01*
X214319866Y-127273971D01*
X214354628Y-127308733D01*
X214391821Y-127364396D01*
X214410635Y-127409819D01*
X214423693Y-127475472D01*
X214423693Y-127524633D01*
X214410632Y-127590292D01*
X214391817Y-127635713D01*
X214354628Y-127691369D01*
X214319865Y-127726132D01*
X214264202Y-127763324D01*
X214218782Y-127782137D01*
X214184468Y-127788962D01*
X214140716Y-127797664D01*
X214116139Y-127800085D01*
X212880611Y-127800074D01*
X212058220Y-127800067D01*
X212041774Y-127798989D01*
X211936996Y-127785194D01*
X211905224Y-127776680D01*
X211815289Y-127739427D01*
X211786803Y-127722981D01*
X211745606Y-127691369D01*
X211709565Y-127663713D01*
X211686311Y-127640458D01*
X211627047Y-127563222D01*
X211610602Y-127534737D01*
X211573349Y-127444798D01*
X211564836Y-127413026D01*
X211551043Y-127308251D01*
X211549965Y-127291805D01*
X211549967Y-127127987D01*
X211549972Y-126700000D01*
X211549995Y-124475152D01*
X211532959Y-124345742D01*
X211483010Y-124225151D01*
X211477983Y-124218600D01*
X211477981Y-124218596D01*
X211408580Y-124128150D01*
X211403552Y-124121597D01*
X211299999Y-124042137D01*
X211179409Y-123992185D01*
X211171223Y-123991107D01*
X211171222Y-123991107D01*
X211054086Y-123975685D01*
X211054087Y-123975685D01*
X211050000Y-123975147D01*
X209602740Y-123975132D01*
X206711913Y-123975101D01*
X206695468Y-123974023D01*
X206590704Y-123960231D01*
X206558935Y-123951719D01*
X206469003Y-123914471D01*
X206440520Y-123898028D01*
X206363291Y-123838775D01*
X206340032Y-123815519D01*
X206280770Y-123738298D01*
X206264323Y-123709817D01*
X206227063Y-123619890D01*
X206218547Y-123588122D01*
X206204741Y-123483358D01*
X206203661Y-123466914D01*
X206202895Y-118029011D01*
X206202895Y-118029005D01*
X206202894Y-118024888D01*
X206185842Y-117895490D01*
X206135882Y-117774914D01*
X206056419Y-117671376D01*
X206049867Y-117666349D01*
X205959421Y-117596957D01*
X205959418Y-117596955D01*
X205952868Y-117591930D01*
X205945236Y-117588769D01*
X205839913Y-117545149D01*
X205839909Y-117545148D01*
X205832284Y-117541990D01*
X205702885Y-117524958D01*
X205698755Y-117524958D01*
X205574716Y-117524961D01*
X204760505Y-117524979D01*
X204351647Y-117524989D01*
X204335343Y-117523929D01*
X204231420Y-117510365D01*
X204199899Y-117501994D01*
X204110580Y-117465344D01*
X204082259Y-117449159D01*
X204005343Y-117390809D01*
X203982127Y-117367897D01*
X203922767Y-117291758D01*
X203906210Y-117263655D01*
X203868383Y-117174826D01*
X203859596Y-117143418D01*
X203844662Y-117039685D01*
X203843387Y-117023391D01*
X203835700Y-116440244D01*
X203836577Y-116423648D01*
X203849207Y-116317843D01*
X203857437Y-116285720D01*
X203894101Y-116194664D01*
X203910428Y-116165801D01*
X203969575Y-116087473D01*
X203992871Y-116063866D01*
X204070408Y-116003685D01*
X204099055Y-115986975D01*
X204189608Y-115949110D01*
X204221621Y-115940454D01*
X204327258Y-115926420D01*
X204343831Y-115925323D01*
X205570864Y-115925221D01*
X206820042Y-115925118D01*
X206836494Y-115926195D01*
G37*
%TD.AperFunction*%
%TD*%
%TA.AperFunction,Conductor*%
%TO.N,Net-(R25-Pad2)*%
G36*
X220233188Y-135201078D02*
G01*
X220337963Y-135214872D01*
X220369735Y-135223385D01*
X220459674Y-135260639D01*
X220488160Y-135277086D01*
X220565393Y-135336349D01*
X220588651Y-135359607D01*
X220647914Y-135436840D01*
X220664361Y-135465326D01*
X220701615Y-135555265D01*
X220710128Y-135587037D01*
X220723922Y-135691812D01*
X220725000Y-135708258D01*
X220725000Y-138791742D01*
X220723922Y-138808188D01*
X220710128Y-138912963D01*
X220701615Y-138944735D01*
X220664361Y-139034674D01*
X220647914Y-139063160D01*
X220588651Y-139140393D01*
X220565393Y-139163651D01*
X220488160Y-139222914D01*
X220459674Y-139239361D01*
X220369735Y-139276615D01*
X220337963Y-139285128D01*
X220233188Y-139298922D01*
X220216742Y-139300000D01*
X215458258Y-139300000D01*
X215441812Y-139298922D01*
X215337037Y-139285128D01*
X215305265Y-139276615D01*
X215215326Y-139239361D01*
X215186840Y-139222914D01*
X215109607Y-139163651D01*
X215086349Y-139140393D01*
X215027086Y-139063160D01*
X215010639Y-139034674D01*
X214973385Y-138944735D01*
X214964872Y-138912963D01*
X214951078Y-138808188D01*
X214950000Y-138791742D01*
X214950000Y-137037410D01*
X214952421Y-137012829D01*
X214967946Y-136934777D01*
X214986759Y-136889358D01*
X215023945Y-136833705D01*
X215058705Y-136798945D01*
X215114358Y-136761759D01*
X215159775Y-136742947D01*
X215225421Y-136729889D01*
X215274579Y-136729889D01*
X215340225Y-136742947D01*
X215385642Y-136761759D01*
X215441295Y-136798945D01*
X215476055Y-136833705D01*
X215513241Y-136889358D01*
X215532054Y-136934777D01*
X215547579Y-137012829D01*
X215550000Y-137037410D01*
X215550000Y-138475000D01*
X215567037Y-138604410D01*
X215616987Y-138725000D01*
X215696447Y-138828553D01*
X215800000Y-138908013D01*
X215807626Y-138911172D01*
X215807628Y-138911173D01*
X215912961Y-138954803D01*
X215920590Y-138957963D01*
X216050000Y-138975000D01*
X218625000Y-138975000D01*
X218754410Y-138957963D01*
X218762039Y-138954803D01*
X218867372Y-138911173D01*
X218867374Y-138911172D01*
X218875000Y-138908013D01*
X218978553Y-138828553D01*
X219058013Y-138725000D01*
X219107963Y-138604410D01*
X219125000Y-138475000D01*
X219125000Y-135708258D01*
X219126078Y-135691812D01*
X219139872Y-135587037D01*
X219148385Y-135555265D01*
X219185639Y-135465326D01*
X219202086Y-135436840D01*
X219261349Y-135359607D01*
X219284607Y-135336349D01*
X219361840Y-135277086D01*
X219390326Y-135260639D01*
X219480265Y-135223385D01*
X219512037Y-135214872D01*
X219616812Y-135201078D01*
X219633258Y-135200000D01*
X220216742Y-135200000D01*
X220233188Y-135201078D01*
G37*
%TD.AperFunction*%
%TD*%
%TA.AperFunction,Conductor*%
%TO.N,Net-(Q2-Pad8)*%
G36*
X217583188Y-116401078D02*
G01*
X217687963Y-116414872D01*
X217719735Y-116423385D01*
X217809674Y-116460639D01*
X217838160Y-116477086D01*
X217915393Y-116536349D01*
X217938651Y-116559607D01*
X217997914Y-116636840D01*
X218014361Y-116665326D01*
X218051615Y-116755265D01*
X218060128Y-116787037D01*
X218073922Y-116891812D01*
X218075000Y-116908258D01*
X218075000Y-121841742D01*
X218073922Y-121858188D01*
X218060128Y-121962963D01*
X218051615Y-121994735D01*
X218014361Y-122084674D01*
X217997914Y-122113160D01*
X217938651Y-122190393D01*
X217915393Y-122213651D01*
X217838160Y-122272914D01*
X217809674Y-122289361D01*
X217719735Y-122326615D01*
X217687963Y-122335128D01*
X217583188Y-122348922D01*
X217566742Y-122350000D01*
X215800000Y-122350000D01*
X215670590Y-122367037D01*
X215662961Y-122370197D01*
X215557628Y-122413827D01*
X215557626Y-122413828D01*
X215550000Y-122416987D01*
X215446447Y-122496447D01*
X215366987Y-122600000D01*
X215317037Y-122720590D01*
X215300000Y-122850000D01*
X215300000Y-123491742D01*
X215298922Y-123508188D01*
X215285128Y-123612963D01*
X215276615Y-123644735D01*
X215239361Y-123734674D01*
X215222914Y-123763160D01*
X215163651Y-123840393D01*
X215140393Y-123863651D01*
X215063160Y-123922914D01*
X215034674Y-123939361D01*
X214944735Y-123976615D01*
X214912963Y-123985128D01*
X214808188Y-123998922D01*
X214791742Y-124000000D01*
X213858258Y-124000000D01*
X213841812Y-123998922D01*
X213737037Y-123985128D01*
X213705265Y-123976615D01*
X213615326Y-123939361D01*
X213586840Y-123922914D01*
X213509607Y-123863651D01*
X213486349Y-123840393D01*
X213427086Y-123763160D01*
X213410639Y-123734674D01*
X213373385Y-123644735D01*
X213364872Y-123612963D01*
X213351078Y-123508188D01*
X213350000Y-123491742D01*
X213350000Y-122158258D01*
X213351078Y-122141812D01*
X213364872Y-122037037D01*
X213373385Y-122005265D01*
X213410639Y-121915326D01*
X213427086Y-121886840D01*
X213486349Y-121809607D01*
X213509607Y-121786349D01*
X213586840Y-121727086D01*
X213615326Y-121710639D01*
X213705265Y-121673385D01*
X213737037Y-121664872D01*
X213841812Y-121651078D01*
X213858258Y-121650000D01*
X216000000Y-121650000D01*
X216129410Y-121632963D01*
X216137039Y-121629803D01*
X216242372Y-121586173D01*
X216242374Y-121586172D01*
X216250000Y-121583013D01*
X216353553Y-121503553D01*
X216433013Y-121400000D01*
X216482963Y-121279410D01*
X216500000Y-121150000D01*
X216500000Y-116908258D01*
X216501078Y-116891812D01*
X216514872Y-116787037D01*
X216523385Y-116755265D01*
X216560639Y-116665326D01*
X216577086Y-116636840D01*
X216636349Y-116559607D01*
X216659607Y-116536349D01*
X216736840Y-116477086D01*
X216765326Y-116460639D01*
X216855265Y-116423385D01*
X216887037Y-116414872D01*
X216991812Y-116401078D01*
X217008258Y-116400000D01*
X217566742Y-116400000D01*
X217583188Y-116401078D01*
G37*
%TD.AperFunction*%
%TD*%
%TA.AperFunction,Conductor*%
%TO.N,GND*%
G36*
X203958029Y-128826078D02*
G01*
X203958037Y-128826079D01*
X204062831Y-128839878D01*
X204094607Y-128848395D01*
X204184562Y-128885663D01*
X204213048Y-128902113D01*
X204290291Y-128961400D01*
X204313549Y-128984666D01*
X204372809Y-129061924D01*
X204389253Y-129090419D01*
X204426494Y-129180386D01*
X204435001Y-129212168D01*
X204448767Y-129316970D01*
X204449840Y-129333418D01*
X204448567Y-133397650D01*
X204465485Y-133526771D01*
X204515172Y-133647143D01*
X204594257Y-133750602D01*
X204697377Y-133830130D01*
X204817535Y-133880332D01*
X204825695Y-133881437D01*
X204825696Y-133881437D01*
X204942503Y-133897251D01*
X204942505Y-133897251D01*
X204946581Y-133897803D01*
X204958981Y-133897852D01*
X204993764Y-133897990D01*
X205010157Y-133899128D01*
X205114617Y-133913266D01*
X205146279Y-133921862D01*
X205235888Y-133959292D01*
X205264251Y-133975767D01*
X205341161Y-134035065D01*
X205364308Y-134058303D01*
X205423303Y-134135448D01*
X205439664Y-134163873D01*
X205476740Y-134253630D01*
X205485210Y-134285325D01*
X205498937Y-134389840D01*
X205500010Y-134406246D01*
X205500042Y-136001248D01*
X205500107Y-139300156D01*
X205517147Y-139429565D01*
X205567099Y-139550155D01*
X205646561Y-139653707D01*
X205653110Y-139658732D01*
X205653113Y-139658735D01*
X205732462Y-139719619D01*
X205750115Y-139733164D01*
X205870707Y-139783112D01*
X206000117Y-139800146D01*
X206004241Y-139800146D01*
X207492701Y-139800118D01*
X213488411Y-139800003D01*
X213521070Y-139804310D01*
X213530370Y-139806805D01*
X213538886Y-139809091D01*
X213595420Y-139841789D01*
X213596299Y-139842670D01*
X213628872Y-139899292D01*
X213629208Y-139900556D01*
X213629091Y-139965732D01*
X213628678Y-139967261D01*
X213596006Y-140023660D01*
X213594842Y-140024821D01*
X213538512Y-140057307D01*
X213520375Y-140062173D01*
X213487832Y-140066477D01*
X209110651Y-140070150D01*
X207770751Y-140071274D01*
X204327241Y-140074164D01*
X203839998Y-140074573D01*
X203823548Y-140073508D01*
X203718749Y-140059798D01*
X203686971Y-140051311D01*
X203596980Y-140014118D01*
X203568483Y-139997694D01*
X203491189Y-139938474D01*
X203467911Y-139915228D01*
X203408587Y-139838026D01*
X203392119Y-139809547D01*
X203354801Y-139719619D01*
X203346266Y-139687848D01*
X203332406Y-139583065D01*
X203331318Y-139566616D01*
X203331238Y-139429565D01*
X203330911Y-138874456D01*
X203350873Y-138806324D01*
X203404501Y-138759799D01*
X203469753Y-138749038D01*
X203562100Y-138758500D01*
X204287900Y-138758500D01*
X204291146Y-138758163D01*
X204291150Y-138758163D01*
X204386808Y-138748238D01*
X204386812Y-138748237D01*
X204393666Y-138747526D01*
X204400202Y-138745345D01*
X204400204Y-138745345D01*
X204554498Y-138693868D01*
X204561446Y-138691550D01*
X204711848Y-138598478D01*
X204836805Y-138473303D01*
X204929615Y-138322738D01*
X204985297Y-138154861D01*
X204996000Y-138050400D01*
X204996000Y-136699600D01*
X204985026Y-136593834D01*
X204929050Y-136426054D01*
X204835978Y-136275652D01*
X204710803Y-136150695D01*
X204634838Y-136103869D01*
X204566468Y-136061725D01*
X204566466Y-136061724D01*
X204560238Y-136057885D01*
X204480495Y-136031436D01*
X204398889Y-136004368D01*
X204398887Y-136004368D01*
X204392361Y-136002203D01*
X204385525Y-136001503D01*
X204385522Y-136001502D01*
X204342469Y-135997091D01*
X204287900Y-135991500D01*
X203562100Y-135991500D01*
X203558854Y-135991837D01*
X203558850Y-135991837D01*
X203512736Y-135996622D01*
X203468151Y-136001248D01*
X203398331Y-135988383D01*
X203346548Y-135939813D01*
X203329148Y-135875995D01*
X203325299Y-129333556D01*
X203326368Y-129317103D01*
X203340111Y-129212279D01*
X203348612Y-129180492D01*
X203385839Y-129090505D01*
X203402277Y-129062006D01*
X203461543Y-128984715D01*
X203484798Y-128961447D01*
X203562044Y-128902143D01*
X203590538Y-128885684D01*
X203680508Y-128848402D01*
X203712289Y-128839883D01*
X203817102Y-128826079D01*
X203833554Y-128825000D01*
X203941580Y-128825000D01*
X203958029Y-128826078D01*
G37*
%TD.AperFunction*%
%TD*%
%TA.AperFunction,Conductor*%
%TO.N,Net-(C1-Pad2)*%
G36*
X210983188Y-140601078D02*
G01*
X211087963Y-140614872D01*
X211119735Y-140623385D01*
X211209674Y-140660639D01*
X211238160Y-140677086D01*
X211315393Y-140736349D01*
X211338651Y-140759607D01*
X211397914Y-140836840D01*
X211414361Y-140865326D01*
X211451615Y-140955265D01*
X211460128Y-140987037D01*
X211473922Y-141091812D01*
X211475000Y-141108258D01*
X211475000Y-141975000D01*
X211492037Y-142104410D01*
X211541987Y-142225000D01*
X211621447Y-142328553D01*
X211725000Y-142408013D01*
X211732626Y-142411172D01*
X211732628Y-142411173D01*
X211837961Y-142454803D01*
X211845590Y-142457963D01*
X211975000Y-142475000D01*
X216290220Y-142475000D01*
X216358341Y-142495002D01*
X216404834Y-142548658D01*
X216414938Y-142618932D01*
X216411673Y-142631930D01*
X216412169Y-142632050D01*
X216410514Y-142638893D01*
X216408103Y-142645516D01*
X216386775Y-142814343D01*
X216387463Y-142821355D01*
X216403381Y-142983699D01*
X216401016Y-142983931D01*
X216396470Y-143043584D01*
X216353658Y-143100220D01*
X216287022Y-143124720D01*
X216278621Y-143125000D01*
X215900000Y-143125000D01*
X215770590Y-143142037D01*
X215762961Y-143145197D01*
X215657628Y-143188827D01*
X215657626Y-143188828D01*
X215650000Y-143191987D01*
X215546447Y-143271447D01*
X215466987Y-143375000D01*
X215417037Y-143495590D01*
X215400000Y-143625000D01*
X215400000Y-144066742D01*
X215398922Y-144083188D01*
X215385128Y-144187963D01*
X215376615Y-144219735D01*
X215339361Y-144309674D01*
X215322914Y-144338160D01*
X215263651Y-144415393D01*
X215240393Y-144438651D01*
X215163160Y-144497914D01*
X215134674Y-144514361D01*
X215044735Y-144551615D01*
X215012963Y-144560128D01*
X214908188Y-144573922D01*
X214891742Y-144575000D01*
X210533258Y-144575000D01*
X210516812Y-144573922D01*
X210412037Y-144560128D01*
X210380265Y-144551615D01*
X210290326Y-144514361D01*
X210261840Y-144497914D01*
X210184607Y-144438651D01*
X210161349Y-144415393D01*
X210102086Y-144338160D01*
X210085639Y-144309674D01*
X210048385Y-144219735D01*
X210039872Y-144187963D01*
X210026078Y-144083188D01*
X210025000Y-144066742D01*
X210025000Y-141108258D01*
X210026078Y-141091812D01*
X210039872Y-140987037D01*
X210048385Y-140955265D01*
X210085639Y-140865326D01*
X210102086Y-140836840D01*
X210161349Y-140759607D01*
X210184607Y-140736349D01*
X210261840Y-140677086D01*
X210290326Y-140660639D01*
X210380265Y-140623385D01*
X210412037Y-140614872D01*
X210516812Y-140601078D01*
X210533258Y-140600000D01*
X210966742Y-140600000D01*
X210983188Y-140601078D01*
G37*
%TD.AperFunction*%
%TD*%
%TA.AperFunction,Conductor*%
%TO.N,Net-(Q2-Pad3)*%
G36*
X209474670Y-125952421D02*
G01*
X209515336Y-125960510D01*
X209547942Y-125966996D01*
X209593360Y-125985810D01*
X209644953Y-126020283D01*
X209679717Y-126055047D01*
X209714190Y-126106640D01*
X209733004Y-126152059D01*
X209745110Y-126212918D01*
X209745110Y-126262082D01*
X209733004Y-126322941D01*
X209714190Y-126368360D01*
X209679717Y-126419953D01*
X209644953Y-126454717D01*
X209593360Y-126489190D01*
X209547942Y-126508004D01*
X209515336Y-126514490D01*
X209474670Y-126522579D01*
X209450089Y-126525000D01*
X207850000Y-126525000D01*
X207720590Y-126542037D01*
X207712961Y-126545197D01*
X207607628Y-126588827D01*
X207607626Y-126588828D01*
X207600000Y-126591987D01*
X207496447Y-126671447D01*
X207416987Y-126775000D01*
X207367037Y-126895590D01*
X207350000Y-127025000D01*
X207350000Y-127516742D01*
X207348922Y-127533188D01*
X207335128Y-127637963D01*
X207326615Y-127669735D01*
X207289361Y-127759674D01*
X207272914Y-127788160D01*
X207213651Y-127865393D01*
X207190393Y-127888651D01*
X207113160Y-127947914D01*
X207084674Y-127964361D01*
X206994735Y-128001615D01*
X206962963Y-128010128D01*
X206858188Y-128023922D01*
X206841742Y-128025000D01*
X206758258Y-128025000D01*
X206741812Y-128023922D01*
X206637037Y-128010128D01*
X206605265Y-128001615D01*
X206515326Y-127964361D01*
X206486840Y-127947914D01*
X206409607Y-127888651D01*
X206386349Y-127865393D01*
X206327086Y-127788160D01*
X206310639Y-127759674D01*
X206273385Y-127669735D01*
X206264872Y-127637963D01*
X206251078Y-127533188D01*
X206250000Y-127516742D01*
X206250000Y-126458258D01*
X206251078Y-126441812D01*
X206264872Y-126337037D01*
X206273385Y-126305265D01*
X206310639Y-126215326D01*
X206327086Y-126186840D01*
X206386349Y-126109607D01*
X206409607Y-126086349D01*
X206486840Y-126027086D01*
X206515326Y-126010639D01*
X206605265Y-125973385D01*
X206637037Y-125964872D01*
X206741812Y-125951078D01*
X206758258Y-125950000D01*
X209450089Y-125950000D01*
X209474670Y-125952421D01*
G37*
%TD.AperFunction*%
%TD*%
%TA.AperFunction,Conductor*%
%TO.N,Net-(Q2-Pad2)*%
G36*
X204657664Y-119326061D02*
G01*
X204762510Y-119339871D01*
X204794303Y-119348395D01*
X204884296Y-119385698D01*
X204912794Y-119402165D01*
X204990052Y-119461499D01*
X205013314Y-119484785D01*
X205072568Y-119562102D01*
X205089006Y-119590618D01*
X205126215Y-119680645D01*
X205134707Y-119712445D01*
X205148411Y-119817307D01*
X205149473Y-119833765D01*
X205144972Y-124180408D01*
X205161930Y-124310042D01*
X205211915Y-124430849D01*
X205291507Y-124534568D01*
X205395266Y-124614108D01*
X205516098Y-124664032D01*
X205524302Y-124665101D01*
X205641647Y-124680392D01*
X205641654Y-124680392D01*
X205645741Y-124680925D01*
X205649866Y-124680919D01*
X205649871Y-124680919D01*
X207223598Y-124678500D01*
X209093672Y-124675625D01*
X209200079Y-124675461D01*
X209224687Y-124677849D01*
X209297876Y-124692305D01*
X209343362Y-124711085D01*
X209394891Y-124745444D01*
X209429714Y-124780213D01*
X209464157Y-124831695D01*
X209483006Y-124877153D01*
X209486521Y-124894804D01*
X209495103Y-124937907D01*
X209495108Y-124987094D01*
X209483004Y-125047942D01*
X209464190Y-125093360D01*
X209429717Y-125144953D01*
X209394953Y-125179717D01*
X209343360Y-125214190D01*
X209297942Y-125233004D01*
X209265336Y-125239490D01*
X209224670Y-125247579D01*
X209200089Y-125250000D01*
X204083165Y-125250000D01*
X204066721Y-125248922D01*
X204042804Y-125245774D01*
X203961960Y-125235132D01*
X203930192Y-125226621D01*
X203900177Y-125214190D01*
X203840257Y-125189374D01*
X203811779Y-125172933D01*
X203734545Y-125113679D01*
X203711290Y-125090428D01*
X203652022Y-125013206D01*
X203635578Y-124984731D01*
X203598315Y-124894804D01*
X203589799Y-124863044D01*
X203575989Y-124758272D01*
X203574909Y-124741836D01*
X203574465Y-122291185D01*
X203574020Y-119833335D01*
X203575095Y-119816894D01*
X203588874Y-119712102D01*
X203597381Y-119680332D01*
X203634630Y-119590370D01*
X203651073Y-119561882D01*
X203710333Y-119484635D01*
X203733592Y-119461372D01*
X203810830Y-119402095D01*
X203839317Y-119385645D01*
X203929261Y-119348383D01*
X203961035Y-119339867D01*
X204016873Y-119332514D01*
X204065827Y-119326068D01*
X204082275Y-119324990D01*
X204295945Y-119324987D01*
X204364287Y-119324986D01*
X204390085Y-119324986D01*
X204641212Y-119324982D01*
X204657664Y-119326061D01*
G37*
%TD.AperFunction*%
%TD*%
%TA.AperFunction,Conductor*%
%TO.N,Net-(R25-Pad1)*%
G36*
X232308188Y-124676078D02*
G01*
X232412963Y-124689872D01*
X232444735Y-124698385D01*
X232534674Y-124735639D01*
X232563160Y-124752086D01*
X232640393Y-124811349D01*
X232663651Y-124834607D01*
X232722914Y-124911840D01*
X232739361Y-124940326D01*
X232776615Y-125030265D01*
X232785128Y-125062037D01*
X232798922Y-125166812D01*
X232800000Y-125183258D01*
X232800000Y-139041742D01*
X232798922Y-139058188D01*
X232785128Y-139162963D01*
X232776615Y-139194735D01*
X232739361Y-139284674D01*
X232722914Y-139313160D01*
X232663651Y-139390393D01*
X232640393Y-139413651D01*
X232563160Y-139472914D01*
X232534674Y-139489361D01*
X232444735Y-139526615D01*
X232412963Y-139535128D01*
X232308188Y-139548922D01*
X232291742Y-139550000D01*
X229783258Y-139550000D01*
X229766812Y-139548922D01*
X229662037Y-139535128D01*
X229630265Y-139526615D01*
X229540326Y-139489361D01*
X229511840Y-139472914D01*
X229434607Y-139413651D01*
X229411349Y-139390393D01*
X229352086Y-139313160D01*
X229335639Y-139284674D01*
X229298385Y-139194735D01*
X229289872Y-139162963D01*
X229276078Y-139058188D01*
X229275000Y-139041742D01*
X229275000Y-138458258D01*
X229276078Y-138441812D01*
X229289872Y-138337037D01*
X229298385Y-138305265D01*
X229335639Y-138215326D01*
X229352086Y-138186840D01*
X229411349Y-138109607D01*
X229434607Y-138086349D01*
X229511840Y-138027086D01*
X229540326Y-138010639D01*
X229630265Y-137973385D01*
X229662037Y-137964872D01*
X229766812Y-137951078D01*
X229783258Y-137950000D01*
X231575000Y-137950000D01*
X231704410Y-137932963D01*
X231712039Y-137929803D01*
X231817372Y-137886173D01*
X231817374Y-137886172D01*
X231825000Y-137883013D01*
X231928553Y-137803553D01*
X232008013Y-137700000D01*
X232057963Y-137579410D01*
X232075000Y-137450000D01*
X232075000Y-125750237D01*
X232057965Y-125620835D01*
X232008021Y-125500251D01*
X232002998Y-125493704D01*
X232002996Y-125493701D01*
X231933597Y-125403251D01*
X231933594Y-125403248D01*
X231928570Y-125396700D01*
X231922017Y-125391671D01*
X231831581Y-125322269D01*
X231831578Y-125322267D01*
X231825027Y-125317240D01*
X231704447Y-125267284D01*
X231575047Y-125250237D01*
X230012213Y-125250090D01*
X229349909Y-125250028D01*
X229325330Y-125247605D01*
X229252056Y-125233024D01*
X229206639Y-125214208D01*
X229155043Y-125179728D01*
X229120284Y-125144966D01*
X229085807Y-125093364D01*
X229066995Y-125047946D01*
X229063478Y-125030265D01*
X229054889Y-124987080D01*
X229054889Y-124937922D01*
X229066996Y-124877058D01*
X229085810Y-124831640D01*
X229120283Y-124780047D01*
X229155047Y-124745283D01*
X229206640Y-124710810D01*
X229252058Y-124691996D01*
X229284664Y-124685510D01*
X229325330Y-124677421D01*
X229349911Y-124675000D01*
X232291742Y-124675000D01*
X232308188Y-124676078D01*
G37*
%TD.AperFunction*%
%TD*%
%TA.AperFunction,Conductor*%
%TO.N,Net-(Q2-Pad7)*%
G36*
X216958188Y-123176078D02*
G01*
X217062963Y-123189872D01*
X217094735Y-123198385D01*
X217184674Y-123235639D01*
X217213160Y-123252086D01*
X217290393Y-123311349D01*
X217313651Y-123334607D01*
X217372914Y-123411840D01*
X217389361Y-123440326D01*
X217426615Y-123530265D01*
X217435128Y-123562037D01*
X217448922Y-123666812D01*
X217450000Y-123683258D01*
X217450000Y-124741742D01*
X217448922Y-124758188D01*
X217435128Y-124862963D01*
X217426615Y-124894735D01*
X217389361Y-124984674D01*
X217372914Y-125013160D01*
X217313651Y-125090393D01*
X217290393Y-125113651D01*
X217213160Y-125172914D01*
X217184674Y-125189361D01*
X217094735Y-125226615D01*
X217062963Y-125235128D01*
X216958188Y-125248922D01*
X216941742Y-125250000D01*
X214249911Y-125250000D01*
X214225330Y-125247579D01*
X214184664Y-125239490D01*
X214152058Y-125233004D01*
X214106640Y-125214190D01*
X214055047Y-125179717D01*
X214020283Y-125144953D01*
X213985810Y-125093360D01*
X213966996Y-125047941D01*
X213954890Y-124987082D01*
X213954890Y-124937918D01*
X213966996Y-124877059D01*
X213985810Y-124831640D01*
X214020283Y-124780047D01*
X214055047Y-124745283D01*
X214106640Y-124710810D01*
X214152058Y-124691996D01*
X214184664Y-124685510D01*
X214225330Y-124677421D01*
X214249911Y-124675000D01*
X215850000Y-124675000D01*
X215979410Y-124657963D01*
X215987039Y-124654803D01*
X216092372Y-124611173D01*
X216092374Y-124611172D01*
X216100000Y-124608013D01*
X216203553Y-124528553D01*
X216283013Y-124425000D01*
X216332963Y-124304410D01*
X216350000Y-124175000D01*
X216350000Y-123683258D01*
X216351078Y-123666812D01*
X216364872Y-123562037D01*
X216373385Y-123530265D01*
X216410639Y-123440326D01*
X216427086Y-123411840D01*
X216486349Y-123334607D01*
X216509607Y-123311349D01*
X216586840Y-123252086D01*
X216615326Y-123235639D01*
X216705265Y-123198385D01*
X216737037Y-123189872D01*
X216841812Y-123176078D01*
X216858258Y-123175000D01*
X216941742Y-123175000D01*
X216958188Y-123176078D01*
G37*
%TD.AperFunction*%
%TD*%
%TA.AperFunction,Conductor*%
%TO.N,Net-(C8-Pad1)*%
G36*
X230408188Y-115926078D02*
G01*
X230512963Y-115939872D01*
X230544735Y-115948385D01*
X230634674Y-115985639D01*
X230663160Y-116002086D01*
X230740393Y-116061349D01*
X230763651Y-116084607D01*
X230822914Y-116161840D01*
X230839361Y-116190326D01*
X230876615Y-116280265D01*
X230885128Y-116312037D01*
X230898922Y-116416812D01*
X230900000Y-116433258D01*
X230900000Y-117666742D01*
X230898922Y-117683188D01*
X230885128Y-117787963D01*
X230876615Y-117819735D01*
X230839361Y-117909674D01*
X230822914Y-117938160D01*
X230763651Y-118015393D01*
X230740393Y-118038651D01*
X230663160Y-118097914D01*
X230634674Y-118114361D01*
X230544735Y-118151615D01*
X230512963Y-118160128D01*
X230408188Y-118173922D01*
X230391742Y-118175000D01*
X229437410Y-118175000D01*
X229412830Y-118172579D01*
X229377094Y-118165471D01*
X229325208Y-118155150D01*
X229279793Y-118136339D01*
X229216026Y-118093732D01*
X229181268Y-118058974D01*
X229138661Y-117995207D01*
X229119850Y-117949794D01*
X229075261Y-117725628D01*
X229068367Y-117715310D01*
X229068366Y-117715308D01*
X229011703Y-117630506D01*
X229004810Y-117620190D01*
X228994494Y-117613297D01*
X228909692Y-117556634D01*
X228909690Y-117556633D01*
X228899372Y-117549739D01*
X228775000Y-117525000D01*
X227508258Y-117525000D01*
X227491812Y-117523922D01*
X227387037Y-117510128D01*
X227355265Y-117501615D01*
X227265326Y-117464361D01*
X227236840Y-117447914D01*
X227159607Y-117388651D01*
X227136349Y-117365393D01*
X227077086Y-117288160D01*
X227060639Y-117259674D01*
X227023385Y-117169735D01*
X227014872Y-117137963D01*
X227001078Y-117033188D01*
X227000000Y-117016742D01*
X227000000Y-116433258D01*
X227001078Y-116416812D01*
X227014872Y-116312037D01*
X227023385Y-116280265D01*
X227060639Y-116190326D01*
X227077086Y-116161840D01*
X227136349Y-116084607D01*
X227159607Y-116061349D01*
X227236840Y-116002086D01*
X227265326Y-115985639D01*
X227355265Y-115948385D01*
X227387037Y-115939872D01*
X227491812Y-115926078D01*
X227508258Y-115925000D01*
X230391742Y-115925000D01*
X230408188Y-115926078D01*
G37*
%TD.AperFunction*%
%TD*%
%TA.AperFunction,Conductor*%
%TO.N,Net-(C2-Pad2)*%
G36*
X206933188Y-133901078D02*
G01*
X207037963Y-133914872D01*
X207069735Y-133923385D01*
X207159674Y-133960639D01*
X207188160Y-133977086D01*
X207265393Y-134036349D01*
X207288651Y-134059607D01*
X207347914Y-134136840D01*
X207364361Y-134165326D01*
X207401615Y-134255265D01*
X207410128Y-134287037D01*
X207423922Y-134391812D01*
X207425000Y-134408258D01*
X207425000Y-138525000D01*
X207442037Y-138654410D01*
X207491987Y-138775000D01*
X207571447Y-138878553D01*
X207675000Y-138958013D01*
X207682626Y-138961172D01*
X207682628Y-138961173D01*
X207787961Y-139004803D01*
X207795590Y-139007963D01*
X207925000Y-139025000D01*
X210675000Y-139025000D01*
X210804410Y-139007963D01*
X210812039Y-139004803D01*
X210917372Y-138961173D01*
X210917374Y-138961172D01*
X210925000Y-138958013D01*
X211028553Y-138878553D01*
X211108013Y-138775000D01*
X211157963Y-138654410D01*
X211175000Y-138525000D01*
X211175000Y-137199911D01*
X211177421Y-137175328D01*
X211191996Y-137102058D01*
X211210810Y-137056640D01*
X211245283Y-137005047D01*
X211280047Y-136970283D01*
X211331640Y-136935810D01*
X211377059Y-136916996D01*
X211437918Y-136904890D01*
X211487082Y-136904890D01*
X211547941Y-136916996D01*
X211593360Y-136935810D01*
X211644953Y-136970283D01*
X211679717Y-137005047D01*
X211714190Y-137056640D01*
X211733004Y-137102058D01*
X211747579Y-137175328D01*
X211750000Y-137199911D01*
X211750000Y-138891742D01*
X211748922Y-138908188D01*
X211735128Y-139012963D01*
X211726615Y-139044735D01*
X211689361Y-139134674D01*
X211672914Y-139163160D01*
X211613651Y-139240393D01*
X211590393Y-139263651D01*
X211513160Y-139322914D01*
X211484674Y-139339361D01*
X211394735Y-139376615D01*
X211362963Y-139385128D01*
X211258188Y-139398922D01*
X211241742Y-139400000D01*
X206783258Y-139400000D01*
X206766812Y-139398922D01*
X206662037Y-139385128D01*
X206630265Y-139376615D01*
X206540326Y-139339361D01*
X206511840Y-139322914D01*
X206434607Y-139263651D01*
X206411349Y-139240393D01*
X206352086Y-139163160D01*
X206335639Y-139134674D01*
X206298385Y-139044735D01*
X206289872Y-139012963D01*
X206276078Y-138908188D01*
X206275000Y-138891742D01*
X206275000Y-134408258D01*
X206276078Y-134391812D01*
X206289872Y-134287037D01*
X206298385Y-134255265D01*
X206335639Y-134165326D01*
X206352086Y-134136840D01*
X206411349Y-134059607D01*
X206434607Y-134036349D01*
X206511840Y-133977086D01*
X206540326Y-133960639D01*
X206630265Y-133923385D01*
X206662037Y-133914872D01*
X206766812Y-133901078D01*
X206783258Y-133900000D01*
X206916742Y-133900000D01*
X206933188Y-133901078D01*
G37*
%TD.AperFunction*%
%TD*%
%TA.AperFunction,Conductor*%
%TO.N,Net-(R22-Pad1)*%
G36*
X216333188Y-128851078D02*
G01*
X216437963Y-128864872D01*
X216469735Y-128873385D01*
X216505181Y-128888067D01*
X216560462Y-128932615D01*
X216582883Y-128999978D01*
X216582307Y-129017317D01*
X216579328Y-129046397D01*
X216579000Y-129049600D01*
X216579000Y-130400400D01*
X216579337Y-130403646D01*
X216579337Y-130403650D01*
X216585563Y-130463651D01*
X216589974Y-130506166D01*
X216592155Y-130512702D01*
X216592155Y-130512704D01*
X216601049Y-130539361D01*
X216645950Y-130673946D01*
X216739022Y-130824348D01*
X216744204Y-130829521D01*
X216788018Y-130873259D01*
X216822097Y-130935542D01*
X216825000Y-130962432D01*
X216825000Y-134091742D01*
X216823922Y-134108188D01*
X216810128Y-134212963D01*
X216801615Y-134244735D01*
X216764361Y-134334674D01*
X216747914Y-134363160D01*
X216688651Y-134440393D01*
X216665393Y-134463651D01*
X216588160Y-134522914D01*
X216559674Y-134539361D01*
X216469735Y-134576615D01*
X216437963Y-134585128D01*
X216333188Y-134598922D01*
X216316742Y-134600000D01*
X211658258Y-134600000D01*
X211641812Y-134598922D01*
X211537037Y-134585128D01*
X211505265Y-134576615D01*
X211415326Y-134539361D01*
X211386840Y-134522914D01*
X211309607Y-134463651D01*
X211286349Y-134440393D01*
X211227086Y-134363160D01*
X211210639Y-134334674D01*
X211173385Y-134244735D01*
X211164872Y-134212963D01*
X211151078Y-134108188D01*
X211150000Y-134091742D01*
X211150000Y-132537410D01*
X211152421Y-132512829D01*
X211167946Y-132434777D01*
X211186759Y-132389358D01*
X211223945Y-132333705D01*
X211258705Y-132298945D01*
X211314358Y-132261759D01*
X211359775Y-132242947D01*
X211425421Y-132229889D01*
X211474579Y-132229889D01*
X211540225Y-132242947D01*
X211585642Y-132261759D01*
X211641295Y-132298945D01*
X211676055Y-132333705D01*
X211713241Y-132389358D01*
X211732054Y-132434777D01*
X211747579Y-132512829D01*
X211750000Y-132537410D01*
X211750000Y-133575000D01*
X211767037Y-133704410D01*
X211816987Y-133825000D01*
X211896447Y-133928553D01*
X212000000Y-134008013D01*
X212007626Y-134011172D01*
X212007628Y-134011173D01*
X212112961Y-134054803D01*
X212120590Y-134057963D01*
X212250000Y-134075000D01*
X215725000Y-134075000D01*
X215854410Y-134057963D01*
X215862039Y-134054803D01*
X215967372Y-134011173D01*
X215967374Y-134011172D01*
X215975000Y-134008013D01*
X216078553Y-133928553D01*
X216158013Y-133825000D01*
X216207963Y-133704410D01*
X216225000Y-133575000D01*
X216225000Y-131100000D01*
X216207963Y-130970590D01*
X216193446Y-130935542D01*
X216161173Y-130857628D01*
X216161172Y-130857626D01*
X216158013Y-130850000D01*
X216078553Y-130746447D01*
X215975000Y-130666987D01*
X215967374Y-130663828D01*
X215967372Y-130663827D01*
X215862039Y-130620197D01*
X215854410Y-130617037D01*
X215725000Y-130600000D01*
X214658258Y-130600000D01*
X214641812Y-130598922D01*
X214537037Y-130585128D01*
X214505265Y-130576615D01*
X214415326Y-130539361D01*
X214386840Y-130522914D01*
X214309607Y-130463651D01*
X214286349Y-130440393D01*
X214227086Y-130363160D01*
X214210639Y-130334674D01*
X214173385Y-130244735D01*
X214164872Y-130212963D01*
X214151078Y-130108188D01*
X214150000Y-130091742D01*
X214150000Y-129358258D01*
X214151078Y-129341812D01*
X214164872Y-129237037D01*
X214173385Y-129205265D01*
X214210639Y-129115326D01*
X214227086Y-129086840D01*
X214286349Y-129009607D01*
X214309607Y-128986349D01*
X214386840Y-128927086D01*
X214415326Y-128910639D01*
X214505265Y-128873385D01*
X214537037Y-128864872D01*
X214641812Y-128851078D01*
X214658258Y-128850000D01*
X216316742Y-128850000D01*
X216333188Y-128851078D01*
G37*
%TD.AperFunction*%
%TD*%
%TA.AperFunction,Conductor*%
%TO.N,GND*%
G36*
X230408188Y-127201078D02*
G01*
X230512963Y-127214872D01*
X230544735Y-127223385D01*
X230634674Y-127260639D01*
X230663160Y-127277086D01*
X230740393Y-127336349D01*
X230763651Y-127359607D01*
X230822914Y-127436840D01*
X230839361Y-127465326D01*
X230876615Y-127555265D01*
X230885128Y-127587037D01*
X230898922Y-127691812D01*
X230900000Y-127708258D01*
X230900000Y-128966742D01*
X230898922Y-128983188D01*
X230885128Y-129087963D01*
X230876615Y-129119735D01*
X230839361Y-129209674D01*
X230822914Y-129238160D01*
X230763651Y-129315393D01*
X230740393Y-129338651D01*
X230663160Y-129397914D01*
X230634674Y-129414361D01*
X230544735Y-129451615D01*
X230512963Y-129460128D01*
X230408188Y-129473922D01*
X230391742Y-129475000D01*
X227125000Y-129475000D01*
X226995590Y-129492037D01*
X226987961Y-129495197D01*
X226882628Y-129538827D01*
X226882626Y-129538828D01*
X226875000Y-129541987D01*
X226771447Y-129621447D01*
X226691987Y-129725000D01*
X226642037Y-129845590D01*
X226625000Y-129975000D01*
X226625000Y-134300000D01*
X226642037Y-134429410D01*
X226691987Y-134550000D01*
X226771447Y-134653553D01*
X226875000Y-134733013D01*
X226882626Y-134736172D01*
X226882628Y-134736173D01*
X226987961Y-134779803D01*
X226995590Y-134782963D01*
X227125000Y-134800000D01*
X230016742Y-134800000D01*
X230033188Y-134801078D01*
X230137963Y-134814872D01*
X230169735Y-134823385D01*
X230259674Y-134860639D01*
X230288160Y-134877086D01*
X230365393Y-134936349D01*
X230388651Y-134959607D01*
X230447914Y-135036840D01*
X230464361Y-135065326D01*
X230501615Y-135155265D01*
X230510128Y-135187037D01*
X230523922Y-135291812D01*
X230525000Y-135308258D01*
X230525000Y-135891742D01*
X230523922Y-135908188D01*
X230510128Y-136012963D01*
X230501615Y-136044735D01*
X230464361Y-136134674D01*
X230447914Y-136163160D01*
X230388651Y-136240393D01*
X230365393Y-136263651D01*
X230288160Y-136322914D01*
X230259674Y-136339361D01*
X230169735Y-136376615D01*
X230137963Y-136385128D01*
X230033188Y-136398922D01*
X230016742Y-136400000D01*
X226458258Y-136400000D01*
X226441812Y-136398922D01*
X226337037Y-136385128D01*
X226305265Y-136376615D01*
X226215326Y-136339361D01*
X226186840Y-136322914D01*
X226109607Y-136263651D01*
X226086349Y-136240393D01*
X226027086Y-136163160D01*
X226010639Y-136134674D01*
X225973385Y-136044735D01*
X225964872Y-136012963D01*
X225951078Y-135908188D01*
X225950000Y-135891742D01*
X225950000Y-131025000D01*
X225932963Y-130895590D01*
X225883013Y-130775000D01*
X225803553Y-130671447D01*
X225700000Y-130591987D01*
X225692374Y-130588828D01*
X225692372Y-130588827D01*
X225587039Y-130545197D01*
X225579410Y-130542037D01*
X225450000Y-130525000D01*
X224683258Y-130525000D01*
X224666812Y-130523922D01*
X224562037Y-130510128D01*
X224530265Y-130501615D01*
X224440326Y-130464361D01*
X224411840Y-130447914D01*
X224334607Y-130388651D01*
X224311349Y-130365393D01*
X224252086Y-130288160D01*
X224235639Y-130259674D01*
X224198385Y-130169735D01*
X224189872Y-130137963D01*
X224176078Y-130033188D01*
X224175000Y-130016742D01*
X224175000Y-129258258D01*
X224176078Y-129241812D01*
X224189872Y-129137037D01*
X224198385Y-129105265D01*
X224235639Y-129015326D01*
X224252086Y-128986840D01*
X224311349Y-128909607D01*
X224334607Y-128886349D01*
X224411840Y-128827086D01*
X224440326Y-128810639D01*
X224530265Y-128773385D01*
X224562037Y-128764872D01*
X224666812Y-128751078D01*
X224683258Y-128750000D01*
X228450000Y-128750000D01*
X228579410Y-128732963D01*
X228587039Y-128729803D01*
X228692372Y-128686173D01*
X228692374Y-128686172D01*
X228700000Y-128683013D01*
X228803553Y-128603553D01*
X228883013Y-128500000D01*
X228932963Y-128379410D01*
X228950000Y-128250000D01*
X228950000Y-127708258D01*
X228951078Y-127691812D01*
X228964872Y-127587037D01*
X228973385Y-127555265D01*
X229010639Y-127465326D01*
X229027086Y-127436840D01*
X229086349Y-127359607D01*
X229109607Y-127336349D01*
X229186840Y-127277086D01*
X229215326Y-127260639D01*
X229305265Y-127223385D01*
X229337037Y-127214872D01*
X229441812Y-127201078D01*
X229458258Y-127200000D01*
X230391742Y-127200000D01*
X230408188Y-127201078D01*
G37*
%TD.AperFunction*%
%TD*%
%TA.AperFunction,Conductor*%
%TO.N,Net-(C5-Pad2)*%
G36*
X209364083Y-127274994D02*
G01*
X209673839Y-127274996D01*
X209781890Y-127274997D01*
X209842399Y-127274997D01*
X209858851Y-127276076D01*
X209963666Y-127289881D01*
X209995447Y-127298401D01*
X210085172Y-127335582D01*
X210085413Y-127335682D01*
X210113907Y-127352140D01*
X210191157Y-127411448D01*
X210214417Y-127434723D01*
X210273673Y-127512004D01*
X210290114Y-127540507D01*
X210327342Y-127630500D01*
X210335842Y-127662289D01*
X210349582Y-127767108D01*
X210350651Y-127783561D01*
X210350250Y-128440389D01*
X210348688Y-128460091D01*
X210333740Y-128554133D01*
X210321544Y-128591605D01*
X210282840Y-128667485D01*
X210259667Y-128699356D01*
X210199414Y-128759573D01*
X210167527Y-128782728D01*
X210091620Y-128821387D01*
X210054141Y-128833560D01*
X209950302Y-128850000D01*
X209836569Y-128868010D01*
X209826775Y-128869561D01*
X209817941Y-128874061D01*
X209817939Y-128874062D01*
X209795214Y-128885639D01*
X209715336Y-128926331D01*
X209626888Y-129014753D01*
X209570088Y-129126177D01*
X209550492Y-129249698D01*
X209550491Y-129254647D01*
X209550241Y-130141707D01*
X209549159Y-130158150D01*
X209535342Y-130262897D01*
X209526824Y-130294658D01*
X209489563Y-130384568D01*
X209473116Y-130413045D01*
X209413856Y-130490255D01*
X209390601Y-130513506D01*
X209313384Y-130572749D01*
X209284907Y-130589189D01*
X209194986Y-130626437D01*
X209163231Y-130634947D01*
X209058474Y-130648746D01*
X209042036Y-130649825D01*
X207874948Y-130649948D01*
X207745548Y-130666996D01*
X207737920Y-130670156D01*
X207737921Y-130670156D01*
X207632599Y-130713791D01*
X207632597Y-130713792D01*
X207624970Y-130716952D01*
X207521428Y-130796413D01*
X207441979Y-130899963D01*
X207392035Y-131020547D01*
X207375000Y-131149948D01*
X207375000Y-132591742D01*
X207373922Y-132608188D01*
X207360128Y-132712963D01*
X207351615Y-132744735D01*
X207314361Y-132834674D01*
X207297914Y-132863160D01*
X207238651Y-132940393D01*
X207215393Y-132963651D01*
X207138160Y-133022914D01*
X207109674Y-133039361D01*
X207019735Y-133076615D01*
X206987963Y-133085128D01*
X206883188Y-133098922D01*
X206866742Y-133100000D01*
X206758258Y-133100000D01*
X206741812Y-133098922D01*
X206637037Y-133085128D01*
X206605265Y-133076615D01*
X206515326Y-133039361D01*
X206486840Y-133022914D01*
X206409607Y-132963651D01*
X206386349Y-132940393D01*
X206327086Y-132863160D01*
X206310639Y-132834674D01*
X206273385Y-132744735D01*
X206264872Y-132712963D01*
X206251078Y-132608188D01*
X206250000Y-132591742D01*
X206250000Y-129333258D01*
X206251078Y-129316812D01*
X206264872Y-129212037D01*
X206273385Y-129180265D01*
X206310639Y-129090326D01*
X206327086Y-129061840D01*
X206386349Y-128984607D01*
X206409607Y-128961349D01*
X206486840Y-128902086D01*
X206515326Y-128885639D01*
X206605265Y-128848385D01*
X206637037Y-128839872D01*
X206741812Y-128826078D01*
X206758258Y-128825000D01*
X207900310Y-128825000D01*
X208029670Y-128807976D01*
X208037298Y-128804818D01*
X208037301Y-128804817D01*
X208142590Y-128761223D01*
X208142589Y-128761223D01*
X208150220Y-128758064D01*
X208253754Y-128678663D01*
X208320606Y-128591605D01*
X208328193Y-128581725D01*
X208328195Y-128581722D01*
X208333219Y-128575179D01*
X208383206Y-128454659D01*
X208400310Y-128325310D01*
X208400646Y-127782938D01*
X208401733Y-127766498D01*
X208415582Y-127661767D01*
X208424108Y-127630014D01*
X208461390Y-127540125D01*
X208477840Y-127511661D01*
X208537109Y-127434479D01*
X208560366Y-127411237D01*
X208637588Y-127352015D01*
X208666065Y-127335582D01*
X208755972Y-127298358D01*
X208787732Y-127289851D01*
X208827908Y-127284564D01*
X208892471Y-127276068D01*
X208908908Y-127274991D01*
X209364083Y-127274994D01*
G37*
%TD.AperFunction*%
%TD*%
M02*
