M48
; DRILL file {KiCad 6.0.7-f9a2dced07~116~ubuntu20.04.1} date Wed 17 Aug 2022 12:13:39 AM CEST
; FORMAT={-:-/ absolute / inch / decimal}
; #@! TF.CreationDate,2022-08-17T00:13:39+02:00
; #@! TF.GenerationSoftware,Kicad,Pcbnew,6.0.7-f9a2dced07~116~ubuntu20.04.1
; #@! TF.FileFunction,Plated,1,2,PTH
FMAT,2
INCH
; #@! TA.AperFunction,Plated,PTH,ViaDrill
T1C0.0118
; #@! TA.AperFunction,Plated,PTH,ComponentDrill
T2C0.0315
%
G90
G05
T1
X8.0374Y-5.185
X8.0394Y-4.9823
X8.0394Y-5.0315
X8.2244Y-5.2392
X8.2244Y-5.3789
X8.2707Y-4.9193
X8.2746Y-5.1841
X8.3435Y-5.1339
X8.3435Y-5.3307
X8.374Y-5.1841
X8.374Y-5.3789
X8.4193Y-5.5404
X8.4252Y-5.1841
X8.4705Y-5.5404
X8.4744Y-5.1841
X8.5463Y-5.5118
X8.5492Y-5.623
X8.5689Y-5.0827
X8.5748Y-5.2402
X8.5748Y-5.378
X8.5748Y-5.5453
X8.6417Y-4.8583
X8.6663Y-4.8583
X8.7254Y-5.128
X8.8287Y-4.9193
X8.8858Y-5.0197
X9.0236Y-4.9699
X9.0236Y-5.0197
X9.0295Y-4.7333
X9.0295Y-4.7589
X9.0797Y-4.8691
X9.0797Y-5.0197
X9.0807Y-4.7333
X9.0807Y-4.7589
X9.186Y-4.8691
T2
X8.0459Y-4.7195
X8.0461Y-4.5955
X8.0972Y-5.564
X8.1972Y-5.664
X8.2972Y-5.564
X8.4459Y-4.7195
X8.4461Y-4.5955
X8.5549Y-4.5955
X8.5549Y-4.7195
X8.6583Y-5.2195
X8.6583Y-5.3386
X8.6583Y-5.4626
X8.9549Y-4.5955
X8.9549Y-4.7195
X9.0583Y-5.2195
X9.0583Y-5.3386
X9.0583Y-5.4626
T0
M30
